<?xml version="1.0" encoding="UTF-8" standalone="no"?>
<!-- Created with Inkscape (http://www.inkscape.org/) -->

<svg
   xmlns:dc="http://purl.org/dc/elements/1.1/"
   xmlns:cc="http://creativecommons.org/ns#"
   xmlns:rdf="http://www.w3.org/1999/02/22-rdf-syntax-ns#"
   xmlns:svg="http://www.w3.org/2000/svg"
   xmlns="http://www.w3.org/2000/svg"
   xmlns:xlink="http://www.w3.org/1999/xlink"
   xmlns:sodipodi="http://sodipodi.sourceforge.net/DTD/sodipodi-0.dtd"
   xmlns:inkscape="http://www.inkscape.org/namespaces/inkscape"
   inkscape:output_extension="org.inkscape.output.svg.inkscape"
   sodipodi:docname="Generic Poster 2.svg"
   xml:space="preserve"
   height="1052.3622"
   width="744.09448"
   inkscape:version="0.47 r22583"
   version="1.1"
   id="svg2"
   inkscape:export-filename="/home/antonio/Art/fizzPOP/fizzPOP Posters/Generic Poster 2_300dpi.png"
   inkscape:export-xdpi="300"
   inkscape:export-ydpi="300"><sodipodi:namedview
     pagecolor="#ffffff"
     bordercolor="#666666"
     borderopacity="1"
     objecttolerance="10"
     gridtolerance="10"
     guidetolerance="10"
     inkscape:pageopacity="0"
     inkscape:pageshadow="2"
     inkscape:window-width="1366"
     inkscape:window-height="745"
     id="namedview4"
     showgrid="false"
     inkscape:zoom="0.21095399"
     inkscape:cx="464.04189"
     inkscape:cy="675.50069"
     inkscape:window-x="0"
     inkscape:window-y="23"
     inkscape:window-maximized="1"
     inkscape:current-layer="g12"
     inkscape:snap-page="true"
     inkscape:snap-bbox="true"
     inkscape:bbox-paths="true"
     inkscape:snap-global="true" /><metadata
     id="metadata8"><rdf:RDF><cc:Work
         rdf:about=""><dc:format>image/svg+xml</dc:format><dc:type
           rdf:resource="http://purl.org/dc/dcmitype/StillImage" /><dc:title /></cc:Work></rdf:RDF></metadata><defs
     id="defs6"><inkscape:perspective
       sodipodi:type="inkscape:persp3d"
       inkscape:vp_x="0 : 526.18109 : 1"
       inkscape:vp_y="0 : 1000 : 0"
       inkscape:vp_z="744.09448 : 526.18109 : 1"
       inkscape:persp3d-origin="372.04724 : 350.78739 : 1"
       id="perspective159" /><clipPath
       id="clipPath3076"
       clipPathUnits="userSpaceOnUse"><rect
         ry="15"
         y="-925.27271"
         x="965.04388"
         height="114.9208"
         width="173.03766"
         id="rect3078"
         style="fill:none;stroke:#000000;stroke-width:1.03857625" /></clipPath><clipPath
       id="clipPath3094"
       clipPathUnits="userSpaceOnUse"><rect
         ry="15"
         style="fill:none;stroke:#000000;stroke-width:1.02244496"
         id="rect3096"
         width="170.35002"
         height="113.13584"
         x="967.73956"
         y="-796.83051" /></clipPath><clipPath
       id="clipPath3098"
       clipPathUnits="userSpaceOnUse"><rect
         ry="15"
         y="-669.28076"
         x="967.73956"
         height="113.13584"
         width="170.35002"
         id="rect3100"
         style="fill:none;stroke:#000000;stroke-width:1.02244496" /></clipPath><filter
       id="filter3897"
       inkscape:collect="always"
       color-interpolation-filters="sRGB"><feGaussianBlur
         id="feGaussianBlur3899"
         stdDeviation="3.5332774"
         inkscape:collect="always" /></filter><inkscape:perspective
       id="perspective2974"
       inkscape:persp3d-origin="0.5 : 0.33333333 : 1"
       inkscape:vp_z="1 : 0.5 : 1"
       inkscape:vp_y="0 : 1000 : 0"
       inkscape:vp_x="0 : 0.5 : 1"
       sodipodi:type="inkscape:persp3d" /><inkscape:perspective
       id="perspective2988"
       inkscape:persp3d-origin="0.5 : 0.33333333 : 1"
       inkscape:vp_z="1 : 0.5 : 1"
       inkscape:vp_y="0 : 1000 : 0"
       inkscape:vp_x="0 : 0.5 : 1"
       sodipodi:type="inkscape:persp3d" /></defs><g
     id="g12"
     inkscape:groupmode="layer"
     inkscape:label="fizzpop_logo_paths"
     transform="matrix(1.25,0,0,-1.25,-2739.1611,1421.4757)">




<rect
   transform="scale(1,-1)"
   y="-1137.6805"
   x="2191.3289"
   height="842.38971"
   width="595.77203"
   id="rect4399"
   style="fill:#ffffff;fill-opacity:1;stroke:none" /><rect
   style="fill:#ffffff;fill-opacity:1;stroke:none"
   id="rect4237"
   width="596.27203"
   height="842.38971"
   x="1415.6492"
   y="-1137.6805"
   transform="scale(1,-1)" /><path
   id="path3826"
   style="fill:#a81c23;fill-opacity:1;fill-rule:nonzero;stroke:none"
   d="m 1154.6044,536.72454 -595.27559,0 0,600.95606 595.27559,0 0,-600.95606 z" /><rect
   ry="11.695067"
   transform="scale(1,-1)"
   y="-927.172"
   x="960.1676"
   height="382.52618"
   width="182.7982"
   id="rect3102"
   style="fill:#000000;fill-opacity:0.15789472;stroke:none;filter:url(#filter3897)" /><image
   clip-path="url(#clipPath3098)"
   transform="matrix(1,0,0,-1,0,-4.8)"
   xlink:href="file:///home/antonio/Desktop/3816195754_a35e46f0d1_oc.jpg"
   width="182.39993"
   height="136.80003"
   id="image3072"
   x="961.80426"
   y="-682.9411" /><image
   clip-path="url(#clipPath3094)"
   transform="matrix(1,0,0,-1,0,-4.8)"
   xlink:href="file:///home/antonio/Desktop/3681182748_9b73eaf937_oc.jpg"
   width="200"
   height="150"
   id="image3058"
   x="954.60083"
   y="-819.22449" /><image
   clip-path="url(#clipPath3076)"
   transform="matrix(1,0,0,-1,0,-4.8)"
   xlink:href="file:///home/antonio/Desktop/3680395843_269980d0e7_oc.jpg"
   width="191.99922"
   height="143.99983"
   id="image3044"
   x="956.20459"
   y="-938.60645" /><g
   id="g2884"
   transform="matrix(1.6210107,0,0,1.6210107,507.19889,-815.93131)"><path
     id="path3828"
     d="m 32.158902,1113.1762 0,-25.9 c 0.24077,0 0.40448,0.021 0.675,0.025 0.0125,2e-4 0.0124,-3e-4 0.025,0 0.65757,-4.0482 1.66209,-10.2673 2.525,-15.825 0.4392,-2.8288 0.83545,-5.4618 1.125,-7.525 0.28955,-2.0632 0.472,-3.6825 0.475,-3.925 0.002,-1.6251 -0.13163,-2.2564 -0.375,-2.625 -0.23982,-0.3633 -0.90388,-0.8597 -2.425,-1.625 -0.0222,-0.011 -0.0271,-0.039 -0.05,-0.05 -0.75046,-0.3536 -1.38203,-0.6616 -1.925,-1.175 -0.02,-0.019 -0.0303,-0.055 -0.05,-0.075 l 0,-3.625 c 0.22626,-0.2101 0.45145,-0.4256 0.725,-0.55 0.73956,-0.3365 1.58131,-0.3989 2.5,-0.25 l 0.05,0 c 1.83931,0.2993 5.1222,1.3939 8.7,1.975 3.41702,0.5553 7.5477,0.8621 9.625,1.2 1.03606,0.1681 1.8478,0.5139 2.475,1.05 0.6272,0.536 1.03899,1.3918 0.9,2.25 -0.11918,0.73 -0.6721,1.4829 -1.325,1.875 -0.6529,0.392 -1.38903,0.5777 -2.375,0.775 l -0.075,0.025 -0.05,0 c -2.55869,0.2794 -3.73209,0.656 -4.125,0.95 -0.38856,0.2907 -0.60889,0.7992 -0.975,2.4 -8e-4,0.01 0.002,0.018 0,0.025 -1.32408,6.189 -4.15209,23.2517 -4.7,26.625 4.45257,1.2117 14.08381,2.6765 16.875,2.775 0.0631,-0.023 0.1468,-0.031 0.2,-0.075 0.0782,-0.065 0.108,-0.1726 0.125,-0.2 0.77083,-4.7665 3.31346,-21.7965 4.05,-28.3 0.065,-0.6337 0.0336,-0.8021 -0.3,-1.225 -0.33358,-0.423 -1.11306,-1.0389 -2.4,-1.825 l 0.025,-0.025 c -0.82471,-0.4737 -1.4536,-0.8466 -1.95,-1.375 -0.50551,-0.5382 -0.818,-1.4453 -0.7,-2.175 0.14915,-0.9187 0.93111,-1.7474 1.7,-2 0.76889,-0.2526 1.48075,-0.1919 2.2,-0.075 2.71552,0.4407 5.60202,1.3318 9.1,1.9 2.64841,0.4313 5.4241,0.5486 8.2,1 0.71902,0.1168 1.47834,0.3057 2.175,0.725 0.34833,0.2096 0.66572,0.5192 0.95,0.95 0.2843,0.4308 0.4702,1.0423 0.375,1.625 -0.0834,0.5126 -0.45979,1.4328 -1.175,1.9 -0.71521,0.4672 -1.45883,0.6089 -2.6,0.775 l -0.025,0 c -1.68377,0.2064 -2.76278,0.4539 -3.25,0.7 -0.47775,0.2413 -0.55905,0.357 -0.75,1.05 -8e-4,0 8e-4,0.021 0,0.025 -0.864,3.3644 -1.44371,6.8188 -4.825,27.625 -0.48498,2.9863 -0.72221,5.3402 -0.95,7 -0.11389,0.8299 -0.1993,1.4926 -0.375,2.075 -0.0879,0.2911 -0.20137,0.5451 -0.475,0.9 -0.27363,0.3548 -0.99307,0.8068 -1.65,0.7 -1.39364,-0.2274 -2.62143,-0.9488 -3.6,-1.425 l -0.025,0 c -1.0207,-0.5144 -1.72703,-0.9561 -3.425,-1.5 -1.69797,-0.544 -4.38246,-1.1664 -9.075,-1.875 -0.15361,-0.025 -2.19998,-0.3603 -4.375,-0.7 -2.17502,-0.3398 -4.6199,-0.6848 -5.1,-0.725 l -0.075,0 -0.05,-0.025 c -2.24802,14.1841 -0.72515,21.263 0.975,24.05 l 0,0.025 c 1.37318,2.3743 2.69802,3.2507 5,3.625 3.0455,0.3837 5.7556,-0.2999 8.175,-2.125 l 0.025,-0.025 0.05,0 c 1.17844,-0.802 2.24902,-1.4953 3.125,-2 0.43799,-0.2524 0.79494,-0.4659 1.175,-0.625 0.38006,-0.1591 0.67637,-0.3751 1.45,-0.25 0.83321,0.1352 1.33043,0.4965 1.95,0.95 0.61957,0.4534 1.25798,1.027 1.85,1.7 1.18404,1.3459 2.33806,3.0977 2,5.175 l 0.025,0 c -0.18407,1.1364 -0.8133,2.1492 -1.75,3.05 -0.0221,0.021 -0.0276,0.054 -0.05,0.075 l -0.025,0.025 c -1.50957,1.5864 -4.45294,3.5804 -9.475,3.625 -1.15894,0.01 -2.43504,-0.099 -3.825,-0.325 -5.08818,-0.827 -9.87895,-3.7861 -13.5,-7.7 -0.01,-0.011 -0.015,-0.039 -0.025,-0.05 -3.63078,-3.7572 -5.95419,-8.6475 -7.325,-13.425 z"
     style="fill:#ffffff;fill-opacity:1;fill-rule:nonzero;stroke:none" /><path
     style="fill:#ffffff;fill-opacity:1;fill-rule:nonzero;stroke:none"
     d="m 114.5589,1109.4512 c -0.14921,-0.014 -0.26914,-0.032 -0.375,-0.05 -0.0109,-10e-4 -0.064,10e-4 -0.075,0 -2.67424,-0.3172 -7.01698,-1.5801 -14.674998,-2.825 l -9.7,-1.6 c -1.4749,-0.2398 -3.84639,0.2609 -4.875,0.8 l -0.025,-0.075 c -0.73518,0.4178 -1.28919,0.2595 -1.7,0.075 -0.45557,-0.2047 -0.81685,-0.5343 -1.2,-0.975 l -0.05,-0.075 -0.05,-0.05 c -0.65612,-0.9117 -0.4632,-1.9167 -0.45,-2 0.25286,-1.5586 0.26368,-4.2144 0,-6.275 -0.004,-0.025 0.004,-0.05 0,-0.075 -0.2677,-1.6609 -0.45674,-2.9068 -0.25,-4.175 0.12841,-0.7967 0.49316,-1.4259 0.925,-1.925 0.21592,-0.2496 0.46192,-0.4584 0.775,-0.65 0.31308,-0.1917 0.73883,-0.4074 1.4,-0.3 1.07615,0.175 1.64138,0.978 1.95,1.55 0.28889,0.5354 0.41784,1.0028 0.525,1.35 0.007,0.024 0.018,0.078 0.025,0.1 0.6078,1.477 1.5872,3.2327 2.525,4.625 0.47755,0.709 0.97036,1.3057 1.325,1.7 0.16368,0.1819 0.2948,0.3079 0.375,0.375 2.431,0.3893 5.53356,0.8026 8.175,1.1 1.356048,0.1526 2.578828,0.2705 3.499998,0.35 0.0508,0 0.076,0 0.125,0 -3.660578,-8.8423 -8.719868,-21.1671 -10.899998,-25.5 l 0,-0.025 c -1.21078,-2.5891 -2.63471,-5.5669 -3.75,-8 -0.55764,-1.2166 -1.05528,-2.2849 -1.4,-3.125 -0.17236,-0.4201 -0.29607,-0.7842 -0.4,-1.1 -0.052,-0.1579 -0.0887,-0.3098 -0.125,-0.475 -0.0362,-0.1652 -0.1238,-0.2982 -0.05,-0.75 0.18678,-1.1555 0.74876,-1.422 1.25,-1.8 0.25062,-0.189 0.52471,-0.3662 0.825,-0.5 0.30029,-0.1339 0.61482,-0.3307 1.275,-0.225 l 0.025,0.025 0.05,0 c 2.50674,0.5195 5.14133,1.2509 9.75,2 2.499018,0.4061 7.625328,1.1179 12.199998,1.725 2.28734,0.3035 4.44754,0.5867 6.075,0.8 1.62746,0.2133 2.56195,0.316 2.925,0.375 l 0.05,0 c 0.59914,0.099 0.8086,0.3524 1.05,0.55 0.2414,0.1976 0.44152,0.4193 0.625,0.65 0.18348,0.2307 0.3598,0.4551 0.5,0.75 0.10915,0.2296 0.145,0.587 0.15,1 l 0.075,0 c 0.0579,1.8735 0.33896,4.2141 0.6,6.275 0.26104,2.0608 0.5116,3.7717 0.55,4.825 l 0,0.025 0,0.025 c 0.003,0.5848 -0.0808,1.1888 -0.4,1.875 -0.15959,0.343 -0.40874,0.6967 -0.825,1.025 -0.41626,0.3282 -1.08648,0.5496 -1.7,0.45 -0.66188,-0.1075 -0.95539,-0.4054 -1.2,-0.65 -0.24461,-0.2446 -0.43151,-0.5117 -0.625,-0.8 -0.38249,-0.5699 -0.7439,-1.2523 -1.125,-2.05 -0.004,-0.01 0.004,-0.016 0,-0.025 -1.35031,-2.7547 -2.87022,-5.237 -4.05,-6.875 -0.6389,-0.8875 -0.70599,-0.9912 -1.375,-1.1 -2.06375,-0.3355 -5.28273,-0.7261 -8.05,-1 -1.38363,-0.137 -2.65327,-0.2617 -3.625,-0.325 -0.19166,-0.013 -0.28435,0.01 -0.45,0 3.39788,8.224 9.4889,23.1394 11.525,27.55 1.97786,4.2772 3.52771,6.6407 4.975,9.45 0.004,0.01 -0.004,0.043 0,0.05 0.40201,0.7924 0.24758,1.4835 0.025,2.05 -0.22549,0.5738 -0.55077,1.1085 -1.25,1.475 -0.2385,0.125 -0.43983,0.2877 -0.875,0.375 -0.20356,0.041 -0.37579,0.038 -0.525,0.025 z"
     id="path3830" /><path
     style="fill:#ffffff;fill-opacity:1;fill-rule:nonzero;stroke:none"
     d="m 155.5839,1116.1012 c -0.14921,-0.014 -0.26914,-0.032 -0.375,-0.05 l 0,0.025 c -2.67001,-0.3107 -7.08455,-1.6 -14.775,-2.85 l -9.675,-1.55 c -1.4763,-0.2399 -3.84614,0.2107 -4.875,0.75 l -0.025,-0.075 c -0.73931,0.4233 -1.26279,0.26 -1.675,0.075 -0.4559,-0.2047 -0.84197,-0.5336 -1.225,-0.975 l -0.075,-0.05 -0.025,-0.05 c -0.65826,-0.9113 -0.4382,-1.9417 -0.425,-2.025 0.25412,-1.5664 0.2661,-4.2091 0,-6.275 -0.002,-0.013 0.002,-0.013 0,-0.025 -0.273,-1.6817 -0.45658,-2.9246 -0.25,-4.2 0.12913,-0.7954 0.46847,-1.401 0.9,-1.9 0.21577,-0.2495 0.46195,-0.4583 0.775,-0.65 0.31305,-0.1918 0.71392,-0.4324 1.375,-0.325 1.07615,0.175 1.64139,0.9532 1.95,1.525 0.30861,0.5717 0.46725,1.1042 0.575,1.45 0.6088,1.4754 1.61457,3.2612 2.55,4.65 0.47762,0.709 0.92034,1.3307 1.275,1.725 0.16316,0.1814 0.2947,0.2827 0.375,0.35 2.43049,0.3892 5.53357,0.7776 8.175,1.075 1.35604,0.1526 2.62871,0.2955 3.55,0.375 0.0637,0.01 0.0892,-0.01 0.15,0 -3.66179,-8.8457 -8.76669,-21.1608 -10.95,-25.5 l 0,-0.025 -0.025,-0.025 c -1.21023,-2.589 -2.63485,-5.5669 -3.75,-8 -0.55757,-1.2166 -1.0303,-2.2849 -1.375,-3.125 -0.17235,-0.4201 -0.29607,-0.7842 -0.4,-1.1 -0.052,-0.1579 -0.0887,-0.3098 -0.125,-0.475 -0.0363,-0.1652 -0.1488,-0.2982 -0.075,-0.75 0.18663,-1.1545 0.79898,-1.4219 1.3,-1.8 0.25051,-0.1891 0.49972,-0.3661 0.8,-0.5 0.30028,-0.1339 0.58991,-0.3057 1.25,-0.2 l 0.025,0 0.05,0 c 2.50674,0.5195 5.16633,1.3009 9.775,2.05 2.49902,0.4061 7.60033,1.0679 12.175,1.675 2.28734,0.3035 4.44754,0.6117 6.075,0.825 1.62746,0.2133 2.61195,0.341 2.975,0.4 0.6008,0.097 0.83299,0.302 1.075,0.5 0.24201,0.1979 0.44148,0.419 0.625,0.65 0.18352,0.2309 0.33499,0.48 0.475,0.775 0.10905,0.2296 0.145,0.5873 0.15,1 l 0.1,0 c 0.0579,1.8735 0.33884,4.1892 0.6,6.25 0.26116,2.0608 0.486,3.7727 0.525,4.825 l 0,0.025 0,0.025 c 0.002,0.5824 -0.0808,1.1888 -0.4,1.875 -0.15959,0.343 -0.35853,0.7217 -0.775,1.05 -0.41647,0.3282 -1.11173,0.5495 -1.725,0.45 -0.66197,-0.1075 -0.95546,-0.4053 -1.2,-0.65 -0.24454,-0.2447 -0.43168,-0.5118 -0.625,-0.8 -0.38222,-0.57 -0.76896,-1.2774 -1.15,-2.075 -0.004,-0.01 0.004,-0.016 0,-0.025 -1.35029,-2.7547 -2.84524,-5.237 -4.025,-6.875 -0.63851,-0.8869 -0.70711,-0.9912 -1.375,-1.1 -2.06375,-0.3355 -5.25773,-0.7011 -8.025,-0.975 -1.38363,-0.137 -2.70327,-0.2367 -3.675,-0.3 -0.20468,-0.013 -0.32517,-0.016 -0.5,-0.025 3.39401,8.2166 9.5606,23.1102 11.6,27.525 1.98302,4.2873 3.49946,6.6812 4.95,9.5 0.42225,0.8056 0.27591,1.5263 0.05,2.1 -0.22591,0.5736 -0.55115,1.0837 -1.25,1.45 -0.2385,0.125 -0.43983,0.2627 -0.875,0.35 -0.20356,0.041 -0.37579,0.039 -0.525,0.025 z"
     id="path3832" /><path
     id="path3834"
     style="fill:#ffffff;fill-opacity:1;fill-rule:nonzero;stroke:none"
     d="m 191.2301,1121.3211 9.112,1.48 c 8.027,1.305 11.562,4.907 10.603,10.809 -0.902,5.553 -5.064,7.728 -12.484,6.522 l -10.023,-1.628 2.792,-17.183 z m 3.49,-19.008 5.245,-32.282 -27.662,-4.495 -14.436,88.844 37.946,6.166 c 9.458,1.537 16.827,1.619 22.105,0.251 5.276,-1.37 9.721,-4.056 13.333,-8.055 3.611,-4.001 5.869,-8.778 6.771,-14.332 1.375,-8.461 -0.465,-15.774 -5.52,-21.941 -5.056,-6.166 -12.508,-10.049 -22.357,-11.649 l -15.425,-2.507 z" /><path
     id="path3836"
     style="fill:#ffffff;fill-opacity:1;fill-rule:nonzero;stroke:none"
     d="m 293.2364,1104.493 c 4.6,0.748 7.582,3.292 8.948,7.634 1.365,4.341 1.181,11.85 -0.553,22.524 -2.51,15.447 -7.91,22.497 -16.198,21.151 -8.939,-1.453 -11.976,-10.988 -9.114,-28.605 2.687,-16.531 8.326,-24.1 16.917,-22.704 m 3.409,-20.155 c -12.497,-2.031 -23.356,0.457 -32.578,7.466 -9.222,7.007 -14.961,17.454 -17.218,31.34 -2.157,13.277 -0.176,24.856 5.947,34.736 6.121,9.879 15.864,15.905 29.229,18.077 12.366,2.01 23.107,-0.432 32.221,-7.324 9.113,-6.892 14.778,-17.15 16.992,-30.774 2.292,-14.103 0.201,-26.045 -6.271,-35.824 -6.471,-9.783 -15.913,-15.681 -28.322,-17.697" /><path
     id="path3863"
     d="m 386.2589,1190.6512 c -3.68425,-0.042 -7.8955,-0.4315 -12.625,-1.2 l -37.95,-6.175 14.425,-88.85 27.675,4.5 -5.25,32.275 15.425,2.525 c 4.25928,0.6919 8.06208,1.8041 11.42496,3.35 l -0.0752,51.425 c -1.14904,0.4678 -2.33376,0.8777 -3.57496,1.2 -2.63856,0.684 -5.7908,0.9916 -9.47504,0.95 z m -6.15,-21.3 c 5.03576,-0.05 7.91712,-2.3382 8.65,-6.85 0.95896,-5.902 -2.572,-9.495 -10.6,-10.8 l -9.1,-1.475 -2.8,17.175 10.025,1.625 c 1.39106,0.2261 2.6629,0.3365 3.825,0.325 z"
     style="fill:#ffffff;fill-opacity:1;fill-rule:nonzero;stroke:none" /></g><g
   transform="scale(1,-1)"
   style="font-size:19.46546936px;fill:#a81c23;fill-opacity:1;stroke:none"
   id="text3840"><path
     d="m 607.90003,-470.83246 -19.35071,0 0,-29.75536 c -3e-5,-2.72268 -0.30796,-4.58644 -0.92377,-5.59129 -0.58347,-1.03718 -1.73414,-1.5558 -3.45201,-1.55583 -1.32898,3e-5 -2.49585,0.4052 -3.50063,1.21549 -0.97243,0.77796 -1.53966,1.58829 -1.7017,2.431 -0.16209,0.84277 -0.24312,2.6093 -0.2431,5.29956 l 0,27.95643 -19.39933,0 0,-66.36613 19.39933,0 0,22.7541 c 3.5006,-4.57022 8.07087,-6.85535 13.7108,-6.8554 2.85233,5e-5 5.34815,0.50246 7.48747,1.50722 2.17164,0.97244 3.84092,2.23656 5.00784,3.79235 1.16683,1.55588 1.94474,3.06309 2.33376,4.52165 0.42131,1.45863 0.632,4.27858 0.63205,8.45986 l 0,32.18635"
     style="font-size:99.57350159px;font-variant:normal;font-weight:normal;font-stretch:normal;writing-mode:lr-tb;fill:#a81c23;fill-rule:nonzero;font-family:Franklin Gothic Heavy;-inkscape-font-specification:FranklinGothic-Heavy"
     id="path2968" /><path
     d="m 668.01205,-470.83246 -18.47555,0 c -0.45382,-2.10686 -0.68071,-4.4082 -0.68068,-6.90402 -3.50066,5.28336 -8.80022,7.92504 -15.8987,7.92504 -5.8344,0 -10.21018,-1.49101 -13.12736,-4.47303 -2.88479,-2.98201 -4.32717,-6.40161 -4.32717,-10.25879 0,-5.21852 2.36616,-9.43224 7.0985,-12.64117 4.76473,-3.2413 13.19217,-5.18609 25.28233,-5.83438 l 0,-1.11826 c -3e-5,-2.17165 -0.50244,-3.61404 -1.50721,-4.32717 -0.97243,-0.71305 -2.41482,-1.0696 -4.32717,-1.06964 -4.47305,4e-5 -6.96887,1.79897 -7.48746,5.39681 l -17.69764,-1.65308 c 2.52823,-10.33978 11.13394,-15.50969 25.81716,-15.50974 3.98679,5e-5 7.64949,0.40522 10.98809,1.2155 3.33852,0.77797 5.9802,2.00967 7.92504,3.69511 1.94474,1.68553 3.24127,3.46826 3.88959,5.34819 0.68062,1.88 1.02096,5.49408 1.02102,10.84223 l 0,19.73967 c -6e-5,3.75994 0.50235,6.96885 1.50721,9.62673 m -20.12863,-23.14306 c -8.2654,0.87518 -12.39809,3.51686 -12.39806,7.92504 -3e-5,2.98203 1.63684,4.47304 4.9106,4.47303 2.07442,10e-6 3.84094,-0.61584 5.29957,-1.84756 1.45856,-1.23169 2.18786,-3.9544 2.18789,-8.16813 l 0,-2.38238"
     style="font-size:99.57350159px;font-variant:normal;font-weight:normal;font-stretch:normal;writing-mode:lr-tb;fill:#a81c23;fill-rule:nonzero;font-family:Franklin Gothic Heavy;-inkscape-font-specification:FranklinGothic-Heavy"
     id="path2970" /><path
     d="m 706.33076,-490.76661 16.53076,1.40998 c -0.77797,5.76957 -3.20896,10.46949 -7.29298,14.09976 -4.0517,3.63029 -9.4485,5.44543 -16.19042,5.44543 -7.55231,0 -13.69461,-2.36617 -18.42693,-7.0985 -4.69993,-4.76474 -7.04989,-10.85842 -7.04988,-18.28108 -10e-6,-7.58466 2.33374,-13.82421 7.00126,-18.71865 4.6999,-4.92676 10.79359,-7.39017 18.28107,-7.39022 6.64468,5e-5 12.05769,1.86381 16.23904,5.59129 4.18126,3.69515 6.57984,8.37886 7.19574,14.05114 l -16.96834,1.40998 c -0.71312,-5.2185 -2.69033,-7.82776 -5.93162,-7.8278 -2.07448,4e-5 -3.5979,0.95623 -4.57027,2.86857 -0.94001,1.88 -1.41,5.16994 -1.40998,9.86984 -2e-5,4.05167 0.46997,7.04989 1.40998,8.99467 0.97237,1.94481 2.64165,2.91721 5.00785,2.91719 3.46818,2e-5 5.52642,-2.44718 6.17472,-7.3416"
     style="font-size:99.57350159px;font-variant:normal;font-weight:normal;font-stretch:normal;writing-mode:lr-tb;fill:#a81c23;fill-rule:nonzero;font-family:Franklin Gothic Heavy;-inkscape-font-specification:FranklinGothic-Heavy"
     id="path2972" /><path
     d="m 780.89812,-520.27887 -14.9263,17.01696 16.62799,32.42945 -20.03139,0 -9.28639,-19.78829 -5.29957,6.17473 0,13.61356 -18.18383,0 0,-66.36613 18.18383,0 0,26.78955 c -2e-5,0.74555 -0.0486,3.72756 -0.14586,8.94606 1.16686,-1.65304 2.34994,-3.16026 3.54925,-4.52165 l 12.39807,-14.29424 17.1142,0"
     style="font-size:99.57350159px;font-variant:normal;font-weight:normal;font-stretch:normal;writing-mode:lr-tb;fill:#a81c23;fill-rule:nonzero;font-family:Franklin Gothic Heavy;-inkscape-font-specification:FranklinGothic-Heavy"
     id="path2974" /><path
     d="m 818.23229,-488.57871 18.0866,1.21549 c -1.0697,4.862 -3.80861,9.0109 -8.21676,12.44669 -4.37583,3.40339 -10.30745,5.10509 -17.79488,5.10509 -8.33022,0 -14.97493,-2.39858 -19.93414,-7.19574 -4.95924,-4.82957 -7.43885,-10.8098 -7.43885,-17.94074 0,-7.39019 2.4472,-13.62973 7.34161,-18.71865 4.89438,-5.08883 11.42564,-7.63327 19.5938,-7.63332 7.9088,5e-5 14.2942,2.39863 19.15623,7.19574 4.89435,4.7972 7.34155,11.32847 7.34161,19.59381 -6e-5,0.6807 -0.0163,1.62069 -0.0486,2.81996 l -33.11014,0 c 0.0648,3.11169 0.61583,5.42923 1.65308,6.95264 1.0372,1.49102 3.0144,2.23652 5.93162,2.23651 4.21369,1e-5 6.6933,-2.02581 7.43884,-6.07748 m -1.26411,-12.83565 c -0.0324,-3.33853 -0.71313,-5.57504 -2.04204,-6.70954 -1.29656,-1.16684 -2.91722,-1.75028 -4.86199,-1.75032 -4.6027,4e-5 -6.90404,2.81999 -6.90402,8.45986 l 13.80805,0"
     style="font-size:99.57350159px;font-variant:normal;font-weight:normal;font-stretch:normal;writing-mode:lr-tb;fill:#a81c23;fill-rule:nonzero;font-family:Franklin Gothic Heavy;-inkscape-font-specification:FranklinGothic-Heavy"
     id="path2976" /><path
     d="m 862.48263,-470.83246 -18.57279,0 0,-49.44641 16.14179,0 0,10.21017 c 1.84754,-7.42258 6.14229,-11.1339 12.88427,-11.13395 0.68064,5e-5 1.62063,0.0649 2.81995,0.19448 l 0,17.26006 c -1.36139,-0.3241 -2.57689,-0.48617 -3.64649,-0.4862 -6.41785,3e-5 -9.62676,3.58169 -9.62673,10.74499 l 0,22.65686"
     style="font-size:99.57350159px;font-variant:normal;font-weight:normal;font-stretch:normal;writing-mode:lr-tb;fill:#a81c23;fill-rule:nonzero;font-family:Franklin Gothic Heavy;-inkscape-font-specification:FranklinGothic-Heavy"
     id="path2978" /><path
     d="m 877.86986,-484.83498 15.31526,-2.09066 c 0.87514,3.56547 4.34336,5.3482 10.40466,5.34819 5.02402,10e-6 7.53604,-0.97239 7.53608,-2.91719 -4e-5,-0.84273 -0.48624,-1.491 -1.4586,-1.9448 -0.97243,-0.48618 -3.27377,-0.97238 -6.90402,-1.45859 -10.04813,-1.39376 -16.32008,-3.56544 -18.81589,-6.51507 -2.49583,-2.98199 -3.74374,-6.28814 -3.74373,-9.91845 -10e-6,-5.05643 2.10685,-9.1405 6.32058,-12.25221 4.21371,-3.14404 9.74016,-4.71608 16.57938,-4.71613 11.99286,5e-5 19.64238,4.32722 22.94858,12.98151 l -14.6832,2.77133 c -1.36139,-2.91715 -4.22996,-4.37575 -8.60572,-4.37579 -2.07447,4e-5 -3.63031,0.29176 -4.66751,0.87516 -1.00483,0.55106 -1.50724,1.10209 -1.50722,1.65308 -2e-5,1.62069 1.55582,2.6093 4.66751,2.96581 8.10328,0.9076 13.59732,1.83138 16.48214,2.77133 2.88473,0.94002 5.34814,2.65792 7.39022,5.15371 2.04198,2.49584 3.063,5.51027 3.06305,9.04329 -5e-5,5.41303 -2.26897,9.70778 -6.80678,12.88427 -4.50548,3.1765 -10.72882,4.76475 -18.67003,4.76475 -13.38669,0 -21.66826,-5.00784 -24.84476,-15.02354"
     style="font-size:99.57350159px;font-variant:normal;font-weight:normal;font-stretch:normal;writing-mode:lr-tb;fill:#a81c23;fill-rule:nonzero;font-family:Franklin Gothic Heavy;-inkscape-font-specification:FranklinGothic-Heavy"
     id="path2980" /><path
     d="m 954.41891,-455.22548 -19.39933,0 0,-65.05339 17.84349,0 0,7.00126 c 2.49579,-5.34814 7.14709,-8.02223 13.9539,-8.02228 5.89917,5e-5 10.51806,2.30139 13.85667,6.90402 3.33851,4.57031 5.00779,10.80986 5.00785,18.71866 -6e-5,7.90885 -1.71796,14.19701 -5.15371,18.86451 -3.40344,4.66751 -7.90888,7.00126 -13.51633,7.00126 -5.51028,0 -9.70779,-2.10686 -12.59254,-6.32058 l 0,20.90654 m 0,-33.69357 c -3e-5,2.20412 0.50238,3.92202 1.50721,5.15371 1.00479,1.1993 2.25269,1.79894 3.74373,1.79893 2.33372,10e-6 3.93818,-1.06962 4.81337,-3.20891 0.87512,-2.17167 1.3127,-5.49403 1.31274,-9.96708 -4e-5,-5.15367 -0.50244,-8.76775 -1.50722,-10.84223 -1.00484,-2.10682 -2.51206,-3.16025 -4.52165,-3.16029 -1.19932,4e-5 -2.39861,0.47003 -3.59787,1.40998 -1.1669,0.94002 -1.75034,2.47965 -1.75031,4.61889 l 0,14.197"
     style="font-size:99.57350159px;font-variant:normal;font-weight:normal;font-stretch:normal;writing-mode:lr-tb;fill:#a81c23;fill-rule:nonzero;font-family:Franklin Gothic Heavy;-inkscape-font-specification:FranklinGothic-Heavy"
     id="path2982" /><path
     d="m 1043.205,-470.83246 -18.4755,0 c -0.4538,-2.10686 -0.6807,-4.4082 -0.6807,-6.90402 -3.5006,5.28336 -8.8002,7.92504 -15.8987,7.92504 -5.8344,0 -10.21017,-1.49101 -13.12735,-4.47303 -2.88478,-2.98201 -4.32717,-6.40161 -4.32717,-10.25879 0,-5.21852 2.36616,-9.43224 7.0985,-12.64117 4.76472,-3.2413 13.19222,-5.18609 25.28232,-5.83438 l 0,-1.11826 c 0,-2.17165 -0.5024,-3.61404 -1.5072,-4.32717 -0.9724,-0.71305 -2.4148,-1.0696 -4.3272,-1.06964 -4.473,4e-5 -6.9688,1.79897 -7.4874,5.39681 l -17.69766,-1.65308 c 2.52822,-10.33978 11.13396,-15.50969 25.81716,-15.50974 3.9868,5e-5 7.6495,0.40522 10.9881,1.2155 3.3385,0.77797 5.9802,2.00967 7.925,3.69511 1.9448,1.68553 3.2413,3.46826 3.8896,5.34819 0.6806,1.88 1.021,5.49408 1.021,10.84223 l 0,19.73967 c 0,3.75994 0.5024,6.96885 1.5072,9.62673 m -20.1286,-23.14306 c -8.2654,0.87518 -12.3981,3.51686 -12.3981,7.92504 0,2.98203 1.6369,4.47304 4.9107,4.47303 2.0744,10e-6 3.8409,-0.61584 5.2995,-1.84756 1.4586,-1.23169 2.1879,-3.9544 2.1879,-8.16813 l 0,-2.38238"
     style="font-size:99.57350159px;font-variant:normal;font-weight:normal;font-stretch:normal;writing-mode:lr-tb;fill:#a81c23;fill-rule:nonzero;font-family:Franklin Gothic Heavy;-inkscape-font-specification:FranklinGothic-Heavy"
     id="path2984" /><path
     d="m 1081.5238,-490.76661 16.5308,1.40998 c -0.778,5.76957 -3.209,10.46949 -7.293,14.09976 -4.0517,3.63029 -9.4485,5.44543 -16.1904,5.44543 -7.5523,0 -13.6946,-2.36617 -18.427,-7.0985 -4.6999,-4.76474 -7.0498,-10.85842 -7.0498,-18.28108 0,-7.58466 2.3337,-13.82421 7.0012,-18.71865 4.6999,-4.92676 10.7936,-7.39017 18.2811,-7.39022 6.6447,5e-5 12.0577,1.86381 16.239,5.59129 4.1813,3.69515 6.5799,8.37886 7.1958,14.05114 l -16.9684,1.40998 c -0.7131,-5.2185 -2.6903,-7.82776 -5.9316,-7.8278 -2.0745,4e-5 -3.5979,0.95623 -4.5703,2.86857 -0.94,1.88 -1.41,5.16994 -1.4099,9.86984 -10e-5,4.05167 0.4699,7.04989 1.4099,8.99467 0.9724,1.94481 2.6417,2.91721 5.0079,2.91719 3.4682,2e-5 5.5264,-2.44718 6.1747,-7.3416"
     style="font-size:99.57350159px;font-variant:normal;font-weight:normal;font-stretch:normal;writing-mode:lr-tb;fill:#a81c23;fill-rule:nonzero;font-family:Franklin Gothic Heavy;-inkscape-font-specification:FranklinGothic-Heavy"
     id="path2986" /><path
     d="m 1136.4693,-488.57871 18.0866,1.21549 c -1.0697,4.862 -3.8086,9.0109 -8.2168,12.44669 -4.3758,3.40339 -10.3074,5.10509 -17.7948,5.10509 -8.3303,0 -14.975,-2.39858 -19.9342,-7.19574 -4.9592,-4.82957 -7.4388,-10.8098 -7.4388,-17.94074 0,-7.39019 2.4472,-13.62973 7.3416,-18.71865 4.8944,-5.08883 11.4256,-7.63327 19.5938,-7.63332 7.9088,5e-5 14.2942,2.39863 19.1562,7.19574 4.8944,4.7972 7.3415,11.32847 7.3416,19.59381 -10e-5,0.6807 -0.016,1.62069 -0.049,2.81996 l -33.1101,0 c 0.065,3.11169 0.6158,5.42923 1.653,6.95264 1.0372,1.49102 3.0144,2.23652 5.9317,2.23651 4.2136,1e-5 6.6933,-2.02581 7.4388,-6.07748 m -1.2641,-12.83565 c -0.033,-3.33853 -0.7132,-5.57504 -2.0421,-6.70954 -1.2965,-1.16684 -2.9172,-1.75028 -4.8619,-1.75032 -4.6028,4e-5 -6.9041,2.81999 -6.9041,8.45986 l 13.8081,0"
     style="font-size:99.57350159px;font-variant:normal;font-weight:normal;font-stretch:normal;writing-mode:lr-tb;fill:#a81c23;fill-rule:nonzero;font-family:Franklin Gothic Heavy;-inkscape-font-specification:FranklinGothic-Heavy"
     id="path2988" /></g>















<flowRoot
   xml:space="preserve"
   id="flowRoot2906"
   style="font-size:40px;font-style:normal;font-weight:normal;fill:#000000;fill-opacity:1;stroke:none;font-family:Bitstream Vera Sans"><flowRegion
     id="flowRegion2908"><rect
       id="rect2910"
       width="381.52567"
       height="220.71733"
       x="-592.78369"
       y="626.69305" /></flowRegion><flowPara
     id="flowPara2912" /></flowRoot>




<flowRoot
   xml:space="preserve"
   id="flowRoot3700"
   style="font-size:22px;font-style:normal;font-variant:normal;font-weight:normal;font-stretch:normal;text-align:start;line-height:125%;writing-mode:lr-tb;text-anchor:start;fill:#ffffff;fill-opacity:1;stroke:none;font-family:Arial;-inkscape-font-specification:Arial"
   transform="matrix(0.8,0,0,-0.8,912.67725,1141.7059)"><flowRegion
     id="flowRegion3702"><rect
       id="rect3704"
       width="395.82089"
       height="616.24811"
       x="-407.67184"
       y="383.96997"
       style="font-size:22px;font-style:normal;font-variant:normal;font-weight:normal;font-stretch:normal;text-align:start;line-height:125%;writing-mode:lr-tb;text-anchor:start;fill:#ffffff;font-family:Arial;-inkscape-font-specification:Arial" /></flowRegion><flowPara
     id="flowPara3706">A group of people with a wide range of skills and interests, bound by a common interest in tinkering with stuff to make something new. Join us and be part of the growing hacker and maker scene emerging around the UK.</flowPara><flowPara
     id="flowPara3026" /><flowPara
     id="flowPara3028">Hack sessions are held fortnightly around Birmingham. See the website for more details</flowPara></flowRoot><g
   id="g3732"><rect
   style="fill:none;stroke:#000000;stroke-width:1;stroke-miterlimit:4;stroke-dasharray:3, 1;stroke-dashoffset:0"
   id="rect2862"
   width="59.527199"
   height="149.88141"
   x="559.3288"
   y="-445.67221"
   transform="scale(1,-1)" /><text
   xml:space="preserve"
   style="font-size:14.39999962px;font-style:normal;font-variant:normal;font-weight:normal;font-stretch:normal;text-align:end;line-height:125%;writing-mode:lr-tb;text-anchor:end;fill:#000000;fill-opacity:1;stroke:none;font-family:Arial;-inkscape-font-specification:Arial"
   x="-308.66666"
   y="-592.94202"
   id="text2864"
   transform="matrix(0,-1,-1,0,0,0)"
   sodipodi:linespacing="125%"><tspan
     sodipodi:role="line"
     x="-308.66666"
     y="-592.94202"
     id="tspan2926">Join the hack party!</tspan><tspan
     sodipodi:role="line"
     x="-308.66666"
     y="-574.94202"
     id="tspan2930">www.fizzpop.org.uk</tspan><tspan
     sodipodi:role="line"
     x="-308.66666"
     y="-556.94202"
     id="tspan2868" /></text>






</g><use
   height="1052.3622"
   width="744.09003"
   transform="translate(59.527203,0)"
   id="use3739"
   xlink:href="#g3732"
   y="0"
   x="0" /><use
   height="1052.3622"
   width="744.09003"
   transform="translate(59.527204,0)"
   id="use3741"
   xlink:href="#use3739"
   y="0"
   x="0" /><g
   transform="translate(238.1088,0)"
   id="use3743"><rect
   transform="scale(1,-1)"
   y="-445.67221"
   x="559.3288"
   height="149.88141"
   width="59.527199"
   id="rect3747"
   style="fill:none;stroke:#000000;stroke-width:1;stroke-miterlimit:4;stroke-dasharray:3, 1;stroke-dashoffset:0" /><text
   sodipodi:linespacing="125%"
   transform="matrix(0,-1,-1,0,0,0)"
   id="text3749"
   y="-592.94202"
   x="-308.66666"
   style="font-size:14.39999962px;font-style:normal;font-variant:normal;font-weight:normal;font-stretch:normal;text-align:end;line-height:125%;writing-mode:lr-tb;text-anchor:end;fill:#000000;fill-opacity:1;stroke:none;font-family:Arial;-inkscape-font-specification:Arial"
   xml:space="preserve"><tspan
     id="tspan3751"
     y="-592.94202"
     x="-308.66666"
     sodipodi:role="line">Join the hack party!</tspan><tspan
     id="tspan3753"
     y="-574.94202"
     x="-308.66666"
     sodipodi:role="line">www.fizzpop.org.uk</tspan><tspan
     id="tspan3755"
     y="-556.94202"
     x="-308.66666"
     sodipodi:role="line" /></text>






</g><use
   height="1052.3622"
   width="744.09003"
   transform="translate(-59.527203,0)"
   id="use3757"
   xlink:href="#use3743"
   y="0"
   x="0" /><use
   height="1052.3622"
   width="744.09003"
   transform="translate(119.0544,0)"
   id="use3759"
   xlink:href="#use3757"
   y="0"
   x="0" /><use
   height="1052.3622"
   width="744.09003"
   transform="translate(59.527203,0)"
   id="use3761"
   xlink:href="#use3759"
   y="0"
   x="0" /><use
   height="1052.3622"
   width="744.09003"
   transform="translate(59.527203,0)"
   id="use3763"
   xlink:href="#use3761"
   y="0"
   x="0" /><use
   height="1052.3622"
   width="744.09003"
   transform="translate(59.527228,0)"
   id="use3765"
   xlink:href="#use3763"
   y="0"
   x="0" /><g
   id="use3767"
   transform="translate(535.74485,1.1904297e-5)"><rect
   style="fill:none;stroke:#000000;stroke-width:1;stroke-miterlimit:4;stroke-dasharray:3, 1;stroke-dashoffset:0"
   id="rect3771"
   width="59.527199"
   height="149.88141"
   x="559.3288"
   y="-445.67221"
   transform="scale(1,-1)" /><text
   xml:space="preserve"
   style="font-size:14.39999962px;font-style:normal;font-variant:normal;font-weight:normal;font-stretch:normal;text-align:end;line-height:125%;writing-mode:lr-tb;text-anchor:end;fill:#000000;fill-opacity:1;stroke:none;font-family:Arial;-inkscape-font-specification:Arial"
   x="-308.66666"
   y="-592.94202"
   id="text3773"
   transform="matrix(0,-1,-1,0,0,0)"
   sodipodi:linespacing="125%"><tspan
     sodipodi:role="line"
     x="-308.66666"
     y="-592.94202"
     id="tspan3775">Join the hack party!</tspan><tspan
     sodipodi:role="line"
     x="-308.66666"
     y="-574.94202"
     id="tspan3777">www.fizzpop.org.uk</tspan><tspan
     sodipodi:role="line"
     x="-308.66666"
     y="-556.94202"
     id="tspan3779" /></text>






</g>
<g
   id="g4239"
   transform="translate(120.82031,0)"><rect
   ry="11.695067"
   transform="matrix(1,0,0,-1,736,0)"
   y="-927.172"
   x="960.1676"
   height="382.52618"
   width="182.7982"
   id="rect3903"
   style="fill:#000000;fill-opacity:0.15789472;stroke:none;filter:url(#filter3897)" /><g
   transform="translate(736,-4.8)"
   id="g3905"><image
     y="-682.9411"
     x="961.80426"
     id="image3907"
     height="136.80003"
     width="182.39993"
     xlink:href="file:///home/antonio/Desktop/3816195754_a35e46f0d1_obw.jpg"
     transform="scale(1,-1)"
     clip-path="url(#clipPath3098)" /><image
     y="-819.22449"
     x="954.60083"
     id="image3909"
     height="150"
     width="200"
     xlink:href="file:///home/antonio/Desktop/3681182748_9b73eaf937_obw.jpg"
     transform="scale(1,-1)"
     clip-path="url(#clipPath3094)" /><image
     y="-938.60645"
     x="956.20459"
     id="image3911"
     height="143.99983"
     width="191.99922"
     xlink:href="file:///home/antonio/Desktop/3680395843_269980d0e7_obw.jpg"
     transform="scale(1,-1)"
     clip-path="url(#clipPath3076)" /></g><g
   style="fill:#626262;fill-opacity:1"
   id="g3913"
   transform="matrix(1.6210107,0,0,1.6210107,1243.1989,-815.93131)"><path
     id="path3915"
     d="m 32.158902,1113.1762 0,-25.9 c 0.24077,0 0.40448,0.021 0.675,0.025 0.0125,2e-4 0.0124,-3e-4 0.025,0 0.65757,-4.0482 1.66209,-10.2673 2.525,-15.825 0.4392,-2.8288 0.83545,-5.4618 1.125,-7.525 0.28955,-2.0632 0.472,-3.6825 0.475,-3.925 0.002,-1.6251 -0.13163,-2.2564 -0.375,-2.625 -0.23982,-0.3633 -0.90388,-0.8597 -2.425,-1.625 -0.0222,-0.011 -0.0271,-0.039 -0.05,-0.05 -0.75046,-0.3536 -1.38203,-0.6616 -1.925,-1.175 -0.02,-0.019 -0.0303,-0.055 -0.05,-0.075 l 0,-3.625 c 0.22626,-0.2101 0.45145,-0.4256 0.725,-0.55 0.73956,-0.3365 1.58131,-0.3989 2.5,-0.25 l 0.05,0 c 1.83931,0.2993 5.1222,1.3939 8.7,1.975 3.41702,0.5553 7.5477,0.8621 9.625,1.2 1.03606,0.1681 1.8478,0.5139 2.475,1.05 0.6272,0.536 1.03899,1.3918 0.9,2.25 -0.11918,0.73 -0.6721,1.4829 -1.325,1.875 -0.6529,0.392 -1.38903,0.5777 -2.375,0.775 l -0.075,0.025 -0.05,0 c -2.55869,0.2794 -3.73209,0.656 -4.125,0.95 -0.38856,0.2907 -0.60889,0.7992 -0.975,2.4 -8e-4,0.01 0.002,0.018 0,0.025 -1.32408,6.189 -4.15209,23.2517 -4.7,26.625 4.45257,1.2117 14.08381,2.6765 16.875,2.775 0.0631,-0.023 0.1468,-0.031 0.2,-0.075 0.0782,-0.065 0.108,-0.1726 0.125,-0.2 0.77083,-4.7665 3.31346,-21.7965 4.05,-28.3 0.065,-0.6337 0.0336,-0.8021 -0.3,-1.225 -0.33358,-0.423 -1.11306,-1.0389 -2.4,-1.825 l 0.025,-0.025 c -0.82471,-0.4737 -1.4536,-0.8466 -1.95,-1.375 -0.50551,-0.5382 -0.818,-1.4453 -0.7,-2.175 0.14915,-0.9187 0.93111,-1.7474 1.7,-2 0.76889,-0.2526 1.48075,-0.1919 2.2,-0.075 2.71552,0.4407 5.60202,1.3318 9.1,1.9 2.64841,0.4313 5.4241,0.5486 8.2,1 0.71902,0.1168 1.47834,0.3057 2.175,0.725 0.34833,0.2096 0.66572,0.5192 0.95,0.95 0.2843,0.4308 0.4702,1.0423 0.375,1.625 -0.0834,0.5126 -0.45979,1.4328 -1.175,1.9 -0.71521,0.4672 -1.45883,0.6089 -2.6,0.775 l -0.025,0 c -1.68377,0.2064 -2.76278,0.4539 -3.25,0.7 -0.47775,0.2413 -0.55905,0.357 -0.75,1.05 -8e-4,0 8e-4,0.021 0,0.025 -0.864,3.3644 -1.44371,6.8188 -4.825,27.625 -0.48498,2.9863 -0.72221,5.3402 -0.95,7 -0.11389,0.8299 -0.1993,1.4926 -0.375,2.075 -0.0879,0.2911 -0.20137,0.5451 -0.475,0.9 -0.27363,0.3548 -0.99307,0.8068 -1.65,0.7 -1.39364,-0.2274 -2.62143,-0.9488 -3.6,-1.425 l -0.025,0 c -1.0207,-0.5144 -1.72703,-0.9561 -3.425,-1.5 -1.69797,-0.544 -4.38246,-1.1664 -9.075,-1.875 -0.15361,-0.025 -2.19998,-0.3603 -4.375,-0.7 -2.17502,-0.3398 -4.6199,-0.6848 -5.1,-0.725 l -0.075,0 -0.05,-0.025 c -2.24802,14.1841 -0.72515,21.263 0.975,24.05 l 0,0.025 c 1.37318,2.3743 2.69802,3.2507 5,3.625 3.0455,0.3837 5.7556,-0.2999 8.175,-2.125 l 0.025,-0.025 0.05,0 c 1.17844,-0.802 2.24902,-1.4953 3.125,-2 0.43799,-0.2524 0.79494,-0.4659 1.175,-0.625 0.38006,-0.1591 0.67637,-0.3751 1.45,-0.25 0.83321,0.1352 1.33043,0.4965 1.95,0.95 0.61957,0.4534 1.25798,1.027 1.85,1.7 1.18404,1.3459 2.33806,3.0977 2,5.175 l 0.025,0 c -0.18407,1.1364 -0.8133,2.1492 -1.75,3.05 -0.0221,0.021 -0.0276,0.054 -0.05,0.075 l -0.025,0.025 c -1.50957,1.5864 -4.45294,3.5804 -9.475,3.625 -1.15894,0.01 -2.43504,-0.099 -3.825,-0.325 -5.08818,-0.827 -9.87895,-3.7861 -13.5,-7.7 -0.01,-0.011 -0.015,-0.039 -0.025,-0.05 -3.63078,-3.7572 -5.95419,-8.6475 -7.325,-13.425 z"
     style="fill:#626262;fill-opacity:1;fill-rule:nonzero;stroke:none" /><path
     style="fill:#626262;fill-opacity:1;fill-rule:nonzero;stroke:none"
     d="m 114.5589,1109.4512 c -0.14921,-0.014 -0.26914,-0.032 -0.375,-0.05 -0.0109,-10e-4 -0.064,10e-4 -0.075,0 -2.67424,-0.3172 -7.01698,-1.5801 -14.674998,-2.825 l -9.7,-1.6 c -1.4749,-0.2398 -3.84639,0.2609 -4.875,0.8 l -0.025,-0.075 c -0.73518,0.4178 -1.28919,0.2595 -1.7,0.075 -0.45557,-0.2047 -0.81685,-0.5343 -1.2,-0.975 l -0.05,-0.075 -0.05,-0.05 c -0.65612,-0.9117 -0.4632,-1.9167 -0.45,-2 0.25286,-1.5586 0.26368,-4.2144 0,-6.275 -0.004,-0.025 0.004,-0.05 0,-0.075 -0.2677,-1.6609 -0.45674,-2.9068 -0.25,-4.175 0.12841,-0.7967 0.49316,-1.4259 0.925,-1.925 0.21592,-0.2496 0.46192,-0.4584 0.775,-0.65 0.31308,-0.1917 0.73883,-0.4074 1.4,-0.3 1.07615,0.175 1.64138,0.978 1.95,1.55 0.28889,0.5354 0.41784,1.0028 0.525,1.35 0.007,0.024 0.018,0.078 0.025,0.1 0.6078,1.477 1.5872,3.2327 2.525,4.625 0.47755,0.709 0.97036,1.3057 1.325,1.7 0.16368,0.1819 0.2948,0.3079 0.375,0.375 2.431,0.3893 5.53356,0.8026 8.175,1.1 1.356048,0.1526 2.578828,0.2705 3.499998,0.35 0.0508,0 0.076,0 0.125,0 -3.660578,-8.8423 -8.719868,-21.1671 -10.899998,-25.5 l 0,-0.025 c -1.21078,-2.5891 -2.63471,-5.5669 -3.75,-8 -0.55764,-1.2166 -1.05528,-2.2849 -1.4,-3.125 -0.17236,-0.4201 -0.29607,-0.7842 -0.4,-1.1 -0.052,-0.1579 -0.0887,-0.3098 -0.125,-0.475 -0.0362,-0.1652 -0.1238,-0.2982 -0.05,-0.75 0.18678,-1.1555 0.74876,-1.422 1.25,-1.8 0.25062,-0.189 0.52471,-0.3662 0.825,-0.5 0.30029,-0.1339 0.61482,-0.3307 1.275,-0.225 l 0.025,0.025 0.05,0 c 2.50674,0.5195 5.14133,1.2509 9.75,2 2.499018,0.4061 7.625328,1.1179 12.199998,1.725 2.28734,0.3035 4.44754,0.5867 6.075,0.8 1.62746,0.2133 2.56195,0.316 2.925,0.375 l 0.05,0 c 0.59914,0.099 0.8086,0.3524 1.05,0.55 0.2414,0.1976 0.44152,0.4193 0.625,0.65 0.18348,0.2307 0.3598,0.4551 0.5,0.75 0.10915,0.2296 0.145,0.587 0.15,1 l 0.075,0 c 0.0579,1.8735 0.33896,4.2141 0.6,6.275 0.26104,2.0608 0.5116,3.7717 0.55,4.825 l 0,0.025 0,0.025 c 0.003,0.5848 -0.0808,1.1888 -0.4,1.875 -0.15959,0.343 -0.40874,0.6967 -0.825,1.025 -0.41626,0.3282 -1.08648,0.5496 -1.7,0.45 -0.66188,-0.1075 -0.95539,-0.4054 -1.2,-0.65 -0.24461,-0.2446 -0.43151,-0.5117 -0.625,-0.8 -0.38249,-0.5699 -0.7439,-1.2523 -1.125,-2.05 -0.004,-0.01 0.004,-0.016 0,-0.025 -1.35031,-2.7547 -2.87022,-5.237 -4.05,-6.875 -0.6389,-0.8875 -0.70599,-0.9912 -1.375,-1.1 -2.06375,-0.3355 -5.28273,-0.7261 -8.05,-1 -1.38363,-0.137 -2.65327,-0.2617 -3.625,-0.325 -0.19166,-0.013 -0.28435,0.01 -0.45,0 3.39788,8.224 9.4889,23.1394 11.525,27.55 1.97786,4.2772 3.52771,6.6407 4.975,9.45 0.004,0.01 -0.004,0.043 0,0.05 0.40201,0.7924 0.24758,1.4835 0.025,2.05 -0.22549,0.5738 -0.55077,1.1085 -1.25,1.475 -0.2385,0.125 -0.43983,0.2877 -0.875,0.375 -0.20356,0.041 -0.37579,0.038 -0.525,0.025 z"
     id="path3917" /><path
     style="fill:#626262;fill-opacity:1;fill-rule:nonzero;stroke:none"
     d="m 155.5839,1116.1012 c -0.14921,-0.014 -0.26914,-0.032 -0.375,-0.05 l 0,0.025 c -2.67001,-0.3107 -7.08455,-1.6 -14.775,-2.85 l -9.675,-1.55 c -1.4763,-0.2399 -3.84614,0.2107 -4.875,0.75 l -0.025,-0.075 c -0.73931,0.4233 -1.26279,0.26 -1.675,0.075 -0.4559,-0.2047 -0.84197,-0.5336 -1.225,-0.975 l -0.075,-0.05 -0.025,-0.05 c -0.65826,-0.9113 -0.4382,-1.9417 -0.425,-2.025 0.25412,-1.5664 0.2661,-4.2091 0,-6.275 -0.002,-0.013 0.002,-0.013 0,-0.025 -0.273,-1.6817 -0.45658,-2.9246 -0.25,-4.2 0.12913,-0.7954 0.46847,-1.401 0.9,-1.9 0.21577,-0.2495 0.46195,-0.4583 0.775,-0.65 0.31305,-0.1918 0.71392,-0.4324 1.375,-0.325 1.07615,0.175 1.64139,0.9532 1.95,1.525 0.30861,0.5717 0.46725,1.1042 0.575,1.45 0.6088,1.4754 1.61457,3.2612 2.55,4.65 0.47762,0.709 0.92034,1.3307 1.275,1.725 0.16316,0.1814 0.2947,0.2827 0.375,0.35 2.43049,0.3892 5.53357,0.7776 8.175,1.075 1.35604,0.1526 2.62871,0.2955 3.55,0.375 0.0637,0.01 0.0892,-0.01 0.15,0 -3.66179,-8.8457 -8.76669,-21.1608 -10.95,-25.5 l 0,-0.025 -0.025,-0.025 c -1.21023,-2.589 -2.63485,-5.5669 -3.75,-8 -0.55757,-1.2166 -1.0303,-2.2849 -1.375,-3.125 -0.17235,-0.4201 -0.29607,-0.7842 -0.4,-1.1 -0.052,-0.1579 -0.0887,-0.3098 -0.125,-0.475 -0.0363,-0.1652 -0.1488,-0.2982 -0.075,-0.75 0.18663,-1.1545 0.79898,-1.4219 1.3,-1.8 0.25051,-0.1891 0.49972,-0.3661 0.8,-0.5 0.30028,-0.1339 0.58991,-0.3057 1.25,-0.2 l 0.025,0 0.05,0 c 2.50674,0.5195 5.16633,1.3009 9.775,2.05 2.49902,0.4061 7.60033,1.0679 12.175,1.675 2.28734,0.3035 4.44754,0.6117 6.075,0.825 1.62746,0.2133 2.61195,0.341 2.975,0.4 0.6008,0.097 0.83299,0.302 1.075,0.5 0.24201,0.1979 0.44148,0.419 0.625,0.65 0.18352,0.2309 0.33499,0.48 0.475,0.775 0.10905,0.2296 0.145,0.5873 0.15,1 l 0.1,0 c 0.0579,1.8735 0.33884,4.1892 0.6,6.25 0.26116,2.0608 0.486,3.7727 0.525,4.825 l 0,0.025 0,0.025 c 0.002,0.5824 -0.0808,1.1888 -0.4,1.875 -0.15959,0.343 -0.35853,0.7217 -0.775,1.05 -0.41647,0.3282 -1.11173,0.5495 -1.725,0.45 -0.66197,-0.1075 -0.95546,-0.4053 -1.2,-0.65 -0.24454,-0.2447 -0.43168,-0.5118 -0.625,-0.8 -0.38222,-0.57 -0.76896,-1.2774 -1.15,-2.075 -0.004,-0.01 0.004,-0.016 0,-0.025 -1.35029,-2.7547 -2.84524,-5.237 -4.025,-6.875 -0.63851,-0.8869 -0.70711,-0.9912 -1.375,-1.1 -2.06375,-0.3355 -5.25773,-0.7011 -8.025,-0.975 -1.38363,-0.137 -2.70327,-0.2367 -3.675,-0.3 -0.20468,-0.013 -0.32517,-0.016 -0.5,-0.025 3.39401,8.2166 9.5606,23.1102 11.6,27.525 1.98302,4.2873 3.49946,6.6812 4.95,9.5 0.42225,0.8056 0.27591,1.5263 0.05,2.1 -0.22591,0.5736 -0.55115,1.0837 -1.25,1.45 -0.2385,0.125 -0.43983,0.2627 -0.875,0.35 -0.20356,0.041 -0.37579,0.039 -0.525,0.025 z"
     id="path3919" /><path
     id="path3921"
     style="fill:#626262;fill-opacity:1;fill-rule:nonzero;stroke:none"
     d="m 191.2301,1121.3211 9.112,1.48 c 8.027,1.305 11.562,4.907 10.603,10.809 -0.902,5.553 -5.064,7.728 -12.484,6.522 l -10.023,-1.628 2.792,-17.183 z m 3.49,-19.008 5.245,-32.282 -27.662,-4.495 -14.436,88.844 37.946,6.166 c 9.458,1.537 16.827,1.619 22.105,0.251 5.276,-1.37 9.721,-4.056 13.333,-8.055 3.611,-4.001 5.869,-8.778 6.771,-14.332 1.375,-8.461 -0.465,-15.774 -5.52,-21.941 -5.056,-6.166 -12.508,-10.049 -22.357,-11.649 l -15.425,-2.507 z" /><path
     id="path3923"
     style="fill:#626262;fill-opacity:1;fill-rule:nonzero;stroke:none"
     d="m 293.2364,1104.493 c 4.6,0.748 7.582,3.292 8.948,7.634 1.365,4.341 1.181,11.85 -0.553,22.524 -2.51,15.447 -7.91,22.497 -16.198,21.151 -8.939,-1.453 -11.976,-10.988 -9.114,-28.605 2.687,-16.531 8.326,-24.1 16.917,-22.704 m 3.409,-20.155 c -12.497,-2.031 -23.356,0.457 -32.578,7.466 -9.222,7.007 -14.961,17.454 -17.218,31.34 -2.157,13.277 -0.176,24.856 5.947,34.736 6.121,9.879 15.864,15.905 29.229,18.077 12.366,2.01 23.107,-0.432 32.221,-7.324 9.113,-6.892 14.778,-17.15 16.992,-30.774 2.292,-14.103 0.201,-26.045 -6.271,-35.824 -6.471,-9.783 -15.913,-15.681 -28.322,-17.697" /><path
     id="path3925"
     d="m 386.2589,1190.6512 c -3.68425,-0.042 -7.8955,-0.4315 -12.625,-1.2 l -37.95,-6.175 14.425,-88.85 27.675,4.5 -5.25,32.275 15.425,2.525 c 4.25928,0.6919 8.06208,1.8041 11.42496,3.35 l -0.0752,51.425 c -1.14904,0.4678 -2.33376,0.8777 -3.57496,1.2 -2.63856,0.684 -5.7908,0.9916 -9.47504,0.95 z m -6.15,-21.3 c 5.03576,-0.05 7.91712,-2.3382 8.65,-6.85 0.95896,-5.902 -2.572,-9.495 -10.6,-10.8 l -9.1,-1.475 -2.8,17.175 10.025,1.625 c 1.39106,0.2261 2.6629,0.3365 3.825,0.325 z"
     style="fill:#626262;fill-opacity:1;fill-rule:nonzero;stroke:none" /></g><g
   transform="scale(1,-1)"
   style="font-size:19.46546936px;fill:#626262;fill-opacity:1;stroke:none"
   id="text3927"><path
     d="m 1343.9,-470.83246 -19.3507,0 0,-29.75536 c -10e-5,-2.72268 -0.308,-4.58644 -0.9238,-5.59129 -0.5835,-1.03718 -1.7342,-1.5558 -3.452,-1.55583 -1.329,3e-5 -2.4959,0.4052 -3.5007,1.21549 -0.9724,0.77796 -1.5396,1.58829 -1.7017,2.431 -0.162,0.84277 -0.2431,2.6093 -0.2431,5.29956 l 0,27.95643 -19.3993,0 0,-66.36613 19.3993,0 0,22.7541 c 3.5007,-4.57022 8.0709,-6.85535 13.7109,-6.8554 2.8523,5e-5 5.3481,0.50246 7.4874,1.50722 2.1717,0.97244 3.8409,2.23656 5.0079,3.79235 1.1668,1.55588 1.9447,3.06309 2.3337,4.52165 0.4213,1.45863 0.632,4.27858 0.6321,8.45986 l 0,32.18635"
     style="font-size:99.57350159px;font-variant:normal;font-weight:normal;font-stretch:normal;writing-mode:lr-tb;fill:#626262;fill-rule:nonzero;font-family:Franklin Gothic Heavy;-inkscape-font-specification:FranklinGothic-Heavy"
     id="path2991" /><path
     d="m 1404.012,-470.83246 -18.4756,0 c -0.4538,-2.10686 -0.6807,-4.4082 -0.6806,-6.90402 -3.5007,5.28336 -8.8003,7.92504 -15.8987,7.92504 -5.8344,0 -10.2102,-1.49101 -13.1274,-4.47303 -2.8848,-2.98201 -4.3272,-6.40161 -4.3272,-10.25879 0,-5.21852 2.3662,-9.43224 7.0985,-12.64117 4.7648,-3.2413 13.1922,-5.18609 25.2824,-5.83438 l 0,-1.11826 c -10e-5,-2.17165 -0.5025,-3.61404 -1.5073,-4.32717 -0.9724,-0.71305 -2.4148,-1.0696 -4.3271,-1.06964 -4.4731,4e-5 -6.9689,1.79897 -7.4875,5.39681 l -17.6976,-1.65308 c 2.5282,-10.33978 11.1339,-15.50969 25.8171,-15.50974 3.9868,5e-5 7.6495,0.40522 10.9881,1.2155 3.3385,0.77797 5.9802,2.00967 7.9251,3.69511 1.9447,1.68553 3.2412,3.46826 3.8896,5.34819 0.6806,1.88 1.0209,5.49408 1.021,10.84223 l 0,19.73967 c -10e-5,3.75994 0.5023,6.96885 1.5072,9.62673 m -20.1286,-23.14306 c -8.2654,0.87518 -12.3981,3.51686 -12.3981,7.92504 0,2.98203 1.6368,4.47304 4.9106,4.47303 2.0744,10e-6 3.8409,-0.61584 5.2996,-1.84756 1.4585,-1.23169 2.1878,-3.9544 2.1879,-8.16813 l 0,-2.38238"
     style="font-size:99.57350159px;font-variant:normal;font-weight:normal;font-stretch:normal;writing-mode:lr-tb;fill:#626262;fill-rule:nonzero;font-family:Franklin Gothic Heavy;-inkscape-font-specification:FranklinGothic-Heavy"
     id="path2993" /><path
     d="m 1442.3307,-490.76661 16.5308,1.40998 c -0.778,5.76957 -3.209,10.46949 -7.293,14.09976 -4.0517,3.63029 -9.4485,5.44543 -16.1904,5.44543 -7.5523,0 -13.6947,-2.36617 -18.427,-7.0985 -4.6999,-4.76474 -7.0499,-10.85842 -7.0499,-18.28108 0,-7.58466 2.3338,-13.82421 7.0013,-18.71865 4.6999,-4.92676 10.7936,-7.39017 18.2811,-7.39022 6.6447,5e-5 12.0577,1.86381 16.239,5.59129 4.1813,3.69515 6.5799,8.37886 7.1958,14.05114 l -16.9684,1.40998 c -0.7131,-5.2185 -2.6903,-7.82776 -5.9316,-7.8278 -2.0745,4e-5 -3.5979,0.95623 -4.5703,2.86857 -0.94,1.88 -1.41,5.16994 -1.4099,9.86984 -10e-5,4.05167 0.4699,7.04989 1.4099,8.99467 0.9724,1.94481 2.6417,2.91721 5.0079,2.91719 3.4682,2e-5 5.5264,-2.44718 6.1747,-7.3416"
     style="font-size:99.57350159px;font-variant:normal;font-weight:normal;font-stretch:normal;writing-mode:lr-tb;fill:#626262;fill-rule:nonzero;font-family:Franklin Gothic Heavy;-inkscape-font-specification:FranklinGothic-Heavy"
     id="path2995" /><path
     d="m 1516.8982,-520.27887 -14.9263,17.01696 16.628,32.42945 -20.0314,0 -9.2864,-19.78829 -5.2996,6.17473 0,13.61356 -18.1838,0 0,-66.36613 18.1838,0 0,26.78955 c 0,0.74555 -0.049,3.72756 -0.1458,8.94606 1.1668,-1.65304 2.3499,-3.16026 3.5492,-4.52165 l 12.3981,-14.29424 17.1142,0"
     style="font-size:99.57350159px;font-variant:normal;font-weight:normal;font-stretch:normal;writing-mode:lr-tb;fill:#626262;fill-rule:nonzero;font-family:Franklin Gothic Heavy;-inkscape-font-specification:FranklinGothic-Heavy"
     id="path2997" /><path
     d="m 1554.2322,-488.57871 18.0866,1.21549 c -1.0697,4.862 -3.8086,9.0109 -8.2167,12.44669 -4.3759,3.40339 -10.3075,5.10509 -17.7949,5.10509 -8.3302,0 -14.9749,-2.39858 -19.9342,-7.19574 -4.9592,-4.82957 -7.4388,-10.8098 -7.4388,-17.94074 0,-7.39019 2.4472,-13.62973 7.3416,-18.71865 4.8944,-5.08883 11.4257,-7.63327 19.5938,-7.63332 7.9088,5e-5 14.2942,2.39863 19.1562,7.19574 4.8944,4.7972 7.3416,11.32847 7.3416,19.59381 0,0.6807 -0.016,1.62069 -0.049,2.81996 l -33.1101,0 c 0.065,3.11169 0.6158,5.42923 1.6531,6.95264 1.0372,1.49102 3.0144,2.23652 5.9316,2.23651 4.2137,1e-5 6.6933,-2.02581 7.4388,-6.07748 m -1.2641,-12.83565 c -0.032,-3.33853 -0.7131,-5.57504 -2.042,-6.70954 -1.2966,-1.16684 -2.9172,-1.75028 -4.862,-1.75032 -4.6027,4e-5 -6.9041,2.81999 -6.904,8.45986 l 13.808,0"
     style="font-size:99.57350159px;font-variant:normal;font-weight:normal;font-stretch:normal;writing-mode:lr-tb;fill:#626262;fill-rule:nonzero;font-family:Franklin Gothic Heavy;-inkscape-font-specification:FranklinGothic-Heavy"
     id="path2999" /><path
     d="m 1598.4826,-470.83246 -18.5728,0 0,-49.44641 16.1418,0 0,10.21017 c 1.8475,-7.42258 6.1423,-11.1339 12.8842,-11.13395 0.6807,5e-5 1.6207,0.0649 2.82,0.19448 l 0,17.26006 c -1.3614,-0.3241 -2.5769,-0.48617 -3.6465,-0.4862 -6.4178,3e-5 -9.6268,3.58169 -9.6267,10.74499 l 0,22.65686"
     style="font-size:99.57350159px;font-variant:normal;font-weight:normal;font-stretch:normal;writing-mode:lr-tb;fill:#626262;fill-rule:nonzero;font-family:Franklin Gothic Heavy;-inkscape-font-specification:FranklinGothic-Heavy"
     id="path3001" /><path
     d="m 1613.8699,-484.83498 15.3153,-2.09066 c 0.8751,3.56547 4.3433,5.3482 10.4046,5.34819 5.0241,10e-6 7.5361,-0.97239 7.5361,-2.91719 0,-0.84273 -0.4862,-1.491 -1.4586,-1.9448 -0.9724,-0.48618 -3.2737,-0.97238 -6.904,-1.45859 -10.0481,-1.39376 -16.3201,-3.56544 -18.8159,-6.51507 -2.4958,-2.98199 -3.7437,-6.28814 -3.7437,-9.91845 0,-5.05643 2.1068,-9.1405 6.3206,-12.25221 4.2137,-3.14404 9.7401,-4.71608 16.5793,-4.71613 11.9929,5e-5 19.6424,4.32722 22.9486,12.98151 l -14.6832,2.77133 c -1.3614,-2.91715 -4.2299,-4.37575 -8.6057,-4.37579 -2.0745,4e-5 -3.6303,0.29176 -4.6675,0.87516 -1.0048,0.55106 -1.5072,1.10209 -1.5072,1.65308 0,1.62069 1.5558,2.6093 4.6675,2.96581 8.1033,0.9076 13.5973,1.83138 16.4821,2.77133 2.8848,0.94002 5.3482,2.65792 7.3902,5.15371 2.042,2.49584 3.063,5.51027 3.0631,9.04329 -10e-5,5.41303 -2.269,9.70778 -6.8068,12.88427 -4.5055,3.1765 -10.7288,4.76475 -18.67,4.76475 -13.3867,0 -21.6683,-5.00784 -24.8448,-15.02354"
     style="font-size:99.57350159px;font-variant:normal;font-weight:normal;font-stretch:normal;writing-mode:lr-tb;fill:#626262;fill-rule:nonzero;font-family:Franklin Gothic Heavy;-inkscape-font-specification:FranklinGothic-Heavy"
     id="path3003" /><path
     d="m 1690.419,-455.22548 -19.3994,0 0,-65.05339 17.8435,0 0,7.00126 c 2.4958,-5.34814 7.1471,-8.02223 13.9539,-8.02228 5.8992,5e-5 10.5181,2.30139 13.8567,6.90402 3.3385,4.57031 5.0078,10.80986 5.0078,18.71866 0,7.90885 -1.7179,14.19701 -5.1537,18.86451 -3.4034,4.66751 -7.9088,7.00126 -13.5163,7.00126 -5.5103,0 -9.7078,-2.10686 -12.5925,-6.32058 l 0,20.90654 m 0,-33.69357 c -1e-4,2.20412 0.5023,3.92202 1.5072,5.15371 1.0048,1.1993 2.2527,1.79894 3.7437,1.79893 2.3337,10e-6 3.9382,-1.06962 4.8134,-3.20891 0.8751,-2.17167 1.3127,-5.49403 1.3127,-9.96708 0,-5.15367 -0.5024,-8.76775 -1.5072,-10.84223 -1.0048,-2.10682 -2.5121,-3.16025 -4.5216,-3.16029 -1.1994,4e-5 -2.3987,0.47003 -3.5979,1.40998 -1.1669,0.94002 -1.7504,2.47965 -1.7503,4.61889 l 0,14.197"
     style="font-size:99.57350159px;font-variant:normal;font-weight:normal;font-stretch:normal;writing-mode:lr-tb;fill:#626262;fill-rule:nonzero;font-family:Franklin Gothic Heavy;-inkscape-font-specification:FranklinGothic-Heavy"
     id="path3005" /><path
     d="m 1779.2051,-470.83246 -18.4755,0 c -0.4539,-2.10686 -0.6808,-4.4082 -0.6807,-6.90402 -3.5007,5.28336 -8.8002,7.92504 -15.8987,7.92504 -5.8344,0 -10.2102,-1.49101 -13.1274,-4.47303 -2.8848,-2.98201 -4.3272,-6.40161 -4.3272,-10.25879 0,-5.21852 2.3662,-9.43224 7.0985,-12.64117 4.7648,-3.2413 13.1922,-5.18609 25.2824,-5.83438 l 0,-1.11826 c -10e-5,-2.17165 -0.5025,-3.61404 -1.5072,-4.32717 -0.9725,-0.71305 -2.4149,-1.0696 -4.3272,-1.06964 -4.4731,4e-5 -6.9689,1.79897 -7.4875,5.39681 l -17.6976,-1.65308 c 2.5282,-10.33978 11.1339,-15.50969 25.8172,-15.50974 3.9867,5e-5 7.6494,0.40522 10.988,1.2155 3.3386,0.77797 5.9802,2.00967 7.9251,3.69511 1.9447,1.68553 3.2413,3.46826 3.8896,5.34819 0.6806,1.88 1.0209,5.49408 1.021,10.84223 l 0,19.73967 c -10e-5,3.75994 0.5023,6.96885 1.5072,9.62673 m -20.1286,-23.14306 c -8.2654,0.87518 -12.3981,3.51686 -12.3981,7.92504 0,2.98203 1.6369,4.47304 4.9106,4.47303 2.0744,10e-6 3.841,-0.61584 5.2996,-1.84756 1.4585,-1.23169 2.1878,-3.9544 2.1879,-8.16813 l 0,-2.38238"
     style="font-size:99.57350159px;font-variant:normal;font-weight:normal;font-stretch:normal;writing-mode:lr-tb;fill:#626262;fill-rule:nonzero;font-family:Franklin Gothic Heavy;-inkscape-font-specification:FranklinGothic-Heavy"
     id="path3007" /><path
     d="m 1817.5238,-490.76661 16.5308,1.40998 c -0.778,5.76957 -3.209,10.46949 -7.293,14.09976 -4.0517,3.63029 -9.4485,5.44543 -16.1904,5.44543 -7.5523,0 -13.6946,-2.36617 -18.427,-7.0985 -4.6999,-4.76474 -7.0498,-10.85842 -7.0498,-18.28108 0,-7.58466 2.3337,-13.82421 7.0012,-18.71865 4.6999,-4.92676 10.7936,-7.39017 18.2811,-7.39022 6.6447,5e-5 12.0577,1.86381 16.239,5.59129 4.1813,3.69515 6.5799,8.37886 7.1958,14.05114 l -16.9684,1.40998 c -0.7131,-5.2185 -2.6903,-7.82776 -5.9316,-7.8278 -2.0745,4e-5 -3.5979,0.95623 -4.5703,2.86857 -0.94,1.88 -1.41,5.16994 -1.4099,9.86984 -10e-5,4.05167 0.4699,7.04989 1.4099,8.99467 0.9724,1.94481 2.6417,2.91721 5.0079,2.91719 3.4682,2e-5 5.5264,-2.44718 6.1747,-7.3416"
     style="font-size:99.57350159px;font-variant:normal;font-weight:normal;font-stretch:normal;writing-mode:lr-tb;fill:#626262;fill-rule:nonzero;font-family:Franklin Gothic Heavy;-inkscape-font-specification:FranklinGothic-Heavy"
     id="path3009" /><path
     d="m 1872.4693,-488.57871 18.0866,1.21549 c -1.0697,4.862 -3.8086,9.0109 -8.2168,12.44669 -4.3758,3.40339 -10.3074,5.10509 -17.7948,5.10509 -8.3303,0 -14.975,-2.39858 -19.9342,-7.19574 -4.9592,-4.82957 -7.4388,-10.8098 -7.4388,-17.94074 0,-7.39019 2.4472,-13.62973 7.3416,-18.71865 4.8944,-5.08883 11.4256,-7.63327 19.5938,-7.63332 7.9088,5e-5 14.2942,2.39863 19.1562,7.19574 4.8944,4.7972 7.3415,11.32847 7.3416,19.59381 -10e-5,0.6807 -0.016,1.62069 -0.049,2.81996 l -33.1101,0 c 0.065,3.11169 0.6158,5.42923 1.653,6.95264 1.0372,1.49102 3.0144,2.23652 5.9317,2.23651 4.2136,1e-5 6.6933,-2.02581 7.4388,-6.07748 m -1.2641,-12.83565 c -0.033,-3.33853 -0.7132,-5.57504 -2.0421,-6.70954 -1.2965,-1.16684 -2.9172,-1.75028 -4.8619,-1.75032 -4.6028,4e-5 -6.9041,2.81999 -6.9041,8.45986 l 13.8081,0"
     style="font-size:99.57350159px;font-variant:normal;font-weight:normal;font-stretch:normal;writing-mode:lr-tb;fill:#626262;fill-rule:nonzero;font-family:Franklin Gothic Heavy;-inkscape-font-specification:FranklinGothic-Heavy"
     id="path3011" /></g>



<flowRoot
   xml:space="preserve"
   id="flowRoot3931"
   style="font-size:22px;font-style:normal;font-variant:normal;font-weight:normal;font-stretch:normal;text-align:start;line-height:125%;writing-mode:lr-tb;text-anchor:start;fill:#000000;fill-opacity:1;stroke:none;font-family:Arial;-inkscape-font-specification:Arial"
   transform="matrix(0.8,0,0,-0.8,1648.6773,1141.7059)"><flowRegion
     id="flowRegion3933"><rect
       id="rect3935"
       width="395.82089"
       height="616.24811"
       x="-407.67184"
       y="383.96997"
       style="font-size:22px;font-style:normal;font-variant:normal;font-weight:normal;font-stretch:normal;text-align:start;line-height:125%;writing-mode:lr-tb;text-anchor:start;fill:#000000;fill-opacity:1;stroke:none;font-family:Arial;-inkscape-font-specification:Arial" /></flowRegion><flowPara
     id="flowPara3937">A group of people with a wide range of skills and interests, bound by a common interest in tinkering with stuff to make something new. Join us and be part of the growing hacker and maker scene emerging around the UK.</flowPara><flowPara
     id="flowPara3939" /><flowPara
     id="flowPara3941">Hack sessions are held fortnightly around Birmingham. See the website for more details</flowPara></flowRoot><g
   id="g3943"
   transform="translate(736,0)"><rect
   style="fill:none;stroke:#000000;stroke-width:1;stroke-miterlimit:4;stroke-dasharray:3, 1;stroke-dashoffset:0"
   id="rect3945"
   width="59.527199"
   height="149.88141"
   x="559.3288"
   y="-445.67221"
   transform="scale(1,-1)" /><text
   xml:space="preserve"
   style="font-size:14.39999962px;font-style:normal;font-variant:normal;font-weight:normal;font-stretch:normal;text-align:end;line-height:125%;writing-mode:lr-tb;text-anchor:end;fill:#000000;fill-opacity:1;stroke:none;font-family:Arial;-inkscape-font-specification:Arial"
   x="-308.66666"
   y="-592.94202"
   id="text3947"
   transform="matrix(0,-1,-1,0,0,0)"
   sodipodi:linespacing="125%"><tspan
     sodipodi:role="line"
     x="-308.66666"
     y="-592.94202"
     id="tspan3949">Join the hack party!</tspan><tspan
     sodipodi:role="line"
     x="-308.66666"
     y="-574.94202"
     id="tspan3951">www.fizzpop.org.uk</tspan><tspan
     sodipodi:role="line"
     x="-308.66666"
     y="-556.94202"
     id="tspan3953" /></text>






</g><use
   height="1052.3622"
   width="744.09003"
   transform="translate(795.5272,0)"
   id="use3955"
   xlink:href="#g3732"
   y="0"
   x="0" /><use
   height="1052.3622"
   width="744.09003"
   transform="translate(795.5272,0)"
   id="use3957"
   xlink:href="#use3739"
   y="0"
   x="0" /><g
   transform="translate(974.1088,0)"
   id="g3959"><rect
   transform="scale(1,-1)"
   y="-445.67221"
   x="559.3288"
   height="149.88141"
   width="59.527199"
   id="rect3961"
   style="fill:none;stroke:#000000;stroke-width:1;stroke-miterlimit:4;stroke-dasharray:3, 1;stroke-dashoffset:0" /><text
   sodipodi:linespacing="125%"
   transform="matrix(0,-1,-1,0,0,0)"
   id="text3963"
   y="-592.94202"
   x="-308.66666"
   style="font-size:14.39999962px;font-style:normal;font-variant:normal;font-weight:normal;font-stretch:normal;text-align:end;line-height:125%;writing-mode:lr-tb;text-anchor:end;fill:#000000;fill-opacity:1;stroke:none;font-family:Arial;-inkscape-font-specification:Arial"
   xml:space="preserve"><tspan
     id="tspan3965"
     y="-592.94202"
     x="-308.66666"
     sodipodi:role="line">Join the hack party!</tspan><tspan
     id="tspan3967"
     y="-574.94202"
     x="-308.66666"
     sodipodi:role="line">www.fizzpop.org.uk</tspan><tspan
     id="tspan3969"
     y="-556.94202"
     x="-308.66666"
     sodipodi:role="line" /></text>






</g><use
   height="1052.3622"
   width="744.09003"
   transform="translate(676.4728,0)"
   id="use3971"
   xlink:href="#use3743"
   y="0"
   x="0" /><use
   height="1052.3622"
   width="744.09003"
   transform="translate(855.0544,0)"
   id="use3973"
   xlink:href="#use3757"
   y="0"
   x="0" /><use
   height="1052.3622"
   width="744.09003"
   transform="translate(795.5272,0)"
   id="use3975"
   xlink:href="#use3759"
   y="0"
   x="0" /><use
   height="1052.3622"
   width="744.09003"
   transform="translate(795.5272,0)"
   id="use3977"
   xlink:href="#use3761"
   y="0"
   x="0" /><use
   height="1052.3622"
   width="744.09003"
   transform="translate(795.52723,0)"
   id="use3979"
   xlink:href="#use3763"
   y="0"
   x="0" /><g
   id="g3981"
   transform="translate(1271.7449,1.1904297e-5)"><rect
   style="fill:none;stroke:#000000;stroke-width:1;stroke-miterlimit:4;stroke-dasharray:3, 1;stroke-dashoffset:0"
   id="rect3983"
   width="59.527199"
   height="149.88141"
   x="559.3288"
   y="-445.67221"
   transform="scale(1,-1)" /><text
   xml:space="preserve"
   style="font-size:14.39999962px;font-style:normal;font-variant:normal;font-weight:normal;font-stretch:normal;text-align:end;line-height:125%;writing-mode:lr-tb;text-anchor:end;fill:#000000;fill-opacity:1;stroke:none;font-family:Arial;-inkscape-font-specification:Arial"
   x="-308.66666"
   y="-592.94202"
   id="text3985"
   transform="matrix(0,-1,-1,0,0,0)"
   sodipodi:linespacing="125%"><tspan
     sodipodi:role="line"
     x="-308.66666"
     y="-592.94202"
     id="tspan3987">Join the hack party!</tspan><tspan
     sodipodi:role="line"
     x="-308.66666"
     y="-574.94202"
     id="tspan3989">www.fizzpop.org.uk</tspan><tspan
     sodipodi:role="line"
     x="-308.66666"
     y="-556.94202"
     id="tspan3991" /></text>






</g></g><path
   d="m 2786.6044,536.72454 -595.2756,0 0,600.95606 595.2756,0 0,-600.95606 z"
   style="fill:#626262;fill-opacity:1;fill-rule:nonzero;stroke:none"
   id="path4307" /><rect
   style="fill:#000000;fill-opacity:0.15789472;stroke:none;filter:url(#filter3897)"
   id="rect4309"
   width="182.7982"
   height="382.52618"
   x="960.1676"
   y="-927.172"
   transform="matrix(1,0,0,-1,1632,0)"
   ry="11.695067" /><g
   id="g4311"
   transform="translate(1632,-4.8)"><image
     clip-path="url(#clipPath3098)"
     transform="scale(1,-1)"
     xlink:href="file:///home/antonio/Desktop/3816195754_a35e46f0d1_obw.jpg"
     width="182.39993"
     height="136.80003"
     id="image4313"
     x="961.80426"
     y="-682.9411" /><image
     clip-path="url(#clipPath3094)"
     transform="scale(1,-1)"
     xlink:href="file:///home/antonio/Desktop/3681182748_9b73eaf937_obw.jpg"
     width="200"
     height="150"
     id="image4315"
     x="954.60083"
     y="-819.22449" /><image
     clip-path="url(#clipPath3076)"
     transform="scale(1,-1)"
     xlink:href="file:///home/antonio/Desktop/3680395843_269980d0e7_obw.jpg"
     width="191.99922"
     height="143.99983"
     id="image4317"
     x="956.20459"
     y="-938.60645" /></g><g
   transform="matrix(1.6210107,0,0,1.6210107,2139.1989,-815.93131)"
   id="g4319"><path
     style="fill:#ffffff;fill-opacity:1;fill-rule:nonzero;stroke:none"
     d="m 32.158902,1113.1762 0,-25.9 c 0.24077,0 0.40448,0.021 0.675,0.025 0.0125,2e-4 0.0124,-3e-4 0.025,0 0.65757,-4.0482 1.66209,-10.2673 2.525,-15.825 0.4392,-2.8288 0.83545,-5.4618 1.125,-7.525 0.28955,-2.0632 0.472,-3.6825 0.475,-3.925 0.002,-1.6251 -0.13163,-2.2564 -0.375,-2.625 -0.23982,-0.3633 -0.90388,-0.8597 -2.425,-1.625 -0.0222,-0.011 -0.0271,-0.039 -0.05,-0.05 -0.75046,-0.3536 -1.38203,-0.6616 -1.925,-1.175 -0.02,-0.019 -0.0303,-0.055 -0.05,-0.075 l 0,-3.625 c 0.22626,-0.2101 0.45145,-0.4256 0.725,-0.55 0.73956,-0.3365 1.58131,-0.3989 2.5,-0.25 l 0.05,0 c 1.83931,0.2993 5.1222,1.3939 8.7,1.975 3.41702,0.5553 7.5477,0.8621 9.625,1.2 1.03606,0.1681 1.8478,0.5139 2.475,1.05 0.6272,0.536 1.03899,1.3918 0.9,2.25 -0.11918,0.73 -0.6721,1.4829 -1.325,1.875 -0.6529,0.392 -1.38903,0.5777 -2.375,0.775 l -0.075,0.025 -0.05,0 c -2.55869,0.2794 -3.73209,0.656 -4.125,0.95 -0.38856,0.2907 -0.60889,0.7992 -0.975,2.4 -8e-4,0.01 0.002,0.018 0,0.025 -1.32408,6.189 -4.15209,23.2517 -4.7,26.625 4.45257,1.2117 14.08381,2.6765 16.875,2.775 0.0631,-0.023 0.1468,-0.031 0.2,-0.075 0.0782,-0.065 0.108,-0.1726 0.125,-0.2 0.77083,-4.7665 3.31346,-21.7965 4.05,-28.3 0.065,-0.6337 0.0336,-0.8021 -0.3,-1.225 -0.33358,-0.423 -1.11306,-1.0389 -2.4,-1.825 l 0.025,-0.025 c -0.82471,-0.4737 -1.4536,-0.8466 -1.95,-1.375 -0.50551,-0.5382 -0.818,-1.4453 -0.7,-2.175 0.14915,-0.9187 0.93111,-1.7474 1.7,-2 0.76889,-0.2526 1.48075,-0.1919 2.2,-0.075 2.71552,0.4407 5.60202,1.3318 9.1,1.9 2.64841,0.4313 5.4241,0.5486 8.2,1 0.71902,0.1168 1.47834,0.3057 2.175,0.725 0.34833,0.2096 0.66572,0.5192 0.95,0.95 0.2843,0.4308 0.4702,1.0423 0.375,1.625 -0.0834,0.5126 -0.45979,1.4328 -1.175,1.9 -0.71521,0.4672 -1.45883,0.6089 -2.6,0.775 l -0.025,0 c -1.68377,0.2064 -2.76278,0.4539 -3.25,0.7 -0.47775,0.2413 -0.55905,0.357 -0.75,1.05 -8e-4,0 8e-4,0.021 0,0.025 -0.864,3.3644 -1.44371,6.8188 -4.825,27.625 -0.48498,2.9863 -0.72221,5.3402 -0.95,7 -0.11389,0.8299 -0.1993,1.4926 -0.375,2.075 -0.0879,0.2911 -0.20137,0.5451 -0.475,0.9 -0.27363,0.3548 -0.99307,0.8068 -1.65,0.7 -1.39364,-0.2274 -2.62143,-0.9488 -3.6,-1.425 l -0.025,0 c -1.0207,-0.5144 -1.72703,-0.9561 -3.425,-1.5 -1.69797,-0.544 -4.38246,-1.1664 -9.075,-1.875 -0.15361,-0.025 -2.19998,-0.3603 -4.375,-0.7 -2.17502,-0.3398 -4.6199,-0.6848 -5.1,-0.725 l -0.075,0 -0.05,-0.025 c -2.24802,14.1841 -0.72515,21.263 0.975,24.05 l 0,0.025 c 1.37318,2.3743 2.69802,3.2507 5,3.625 3.0455,0.3837 5.7556,-0.2999 8.175,-2.125 l 0.025,-0.025 0.05,0 c 1.17844,-0.802 2.24902,-1.4953 3.125,-2 0.43799,-0.2524 0.79494,-0.4659 1.175,-0.625 0.38006,-0.1591 0.67637,-0.3751 1.45,-0.25 0.83321,0.1352 1.33043,0.4965 1.95,0.95 0.61957,0.4534 1.25798,1.027 1.85,1.7 1.18404,1.3459 2.33806,3.0977 2,5.175 l 0.025,0 c -0.18407,1.1364 -0.8133,2.1492 -1.75,3.05 -0.0221,0.021 -0.0276,0.054 -0.05,0.075 l -0.025,0.025 c -1.50957,1.5864 -4.45294,3.5804 -9.475,3.625 -1.15894,0.01 -2.43504,-0.099 -3.825,-0.325 -5.08818,-0.827 -9.87895,-3.7861 -13.5,-7.7 -0.01,-0.011 -0.015,-0.039 -0.025,-0.05 -3.63078,-3.7572 -5.95419,-8.6475 -7.325,-13.425 z"
     id="path4321" /><path
     id="path4323"
     d="m 114.5589,1109.4512 c -0.14921,-0.014 -0.26914,-0.032 -0.375,-0.05 -0.0109,-10e-4 -0.064,10e-4 -0.075,0 -2.67424,-0.3172 -7.01698,-1.5801 -14.674998,-2.825 l -9.7,-1.6 c -1.4749,-0.2398 -3.84639,0.2609 -4.875,0.8 l -0.025,-0.075 c -0.73518,0.4178 -1.28919,0.2595 -1.7,0.075 -0.45557,-0.2047 -0.81685,-0.5343 -1.2,-0.975 l -0.05,-0.075 -0.05,-0.05 c -0.65612,-0.9117 -0.4632,-1.9167 -0.45,-2 0.25286,-1.5586 0.26368,-4.2144 0,-6.275 -0.004,-0.025 0.004,-0.05 0,-0.075 -0.2677,-1.6609 -0.45674,-2.9068 -0.25,-4.175 0.12841,-0.7967 0.49316,-1.4259 0.925,-1.925 0.21592,-0.2496 0.46192,-0.4584 0.775,-0.65 0.31308,-0.1917 0.73883,-0.4074 1.4,-0.3 1.07615,0.175 1.64138,0.978 1.95,1.55 0.28889,0.5354 0.41784,1.0028 0.525,1.35 0.007,0.024 0.018,0.078 0.025,0.1 0.6078,1.477 1.5872,3.2327 2.525,4.625 0.47755,0.709 0.97036,1.3057 1.325,1.7 0.16368,0.1819 0.2948,0.3079 0.375,0.375 2.431,0.3893 5.53356,0.8026 8.175,1.1 1.356048,0.1526 2.578828,0.2705 3.499998,0.35 0.0508,0 0.076,0 0.125,0 -3.660578,-8.8423 -8.719868,-21.1671 -10.899998,-25.5 l 0,-0.025 c -1.21078,-2.5891 -2.63471,-5.5669 -3.75,-8 -0.55764,-1.2166 -1.05528,-2.2849 -1.4,-3.125 -0.17236,-0.4201 -0.29607,-0.7842 -0.4,-1.1 -0.052,-0.1579 -0.0887,-0.3098 -0.125,-0.475 -0.0362,-0.1652 -0.1238,-0.2982 -0.05,-0.75 0.18678,-1.1555 0.74876,-1.422 1.25,-1.8 0.25062,-0.189 0.52471,-0.3662 0.825,-0.5 0.30029,-0.1339 0.61482,-0.3307 1.275,-0.225 l 0.025,0.025 0.05,0 c 2.50674,0.5195 5.14133,1.2509 9.75,2 2.499018,0.4061 7.625328,1.1179 12.199998,1.725 2.28734,0.3035 4.44754,0.5867 6.075,0.8 1.62746,0.2133 2.56195,0.316 2.925,0.375 l 0.05,0 c 0.59914,0.099 0.8086,0.3524 1.05,0.55 0.2414,0.1976 0.44152,0.4193 0.625,0.65 0.18348,0.2307 0.3598,0.4551 0.5,0.75 0.10915,0.2296 0.145,0.587 0.15,1 l 0.075,0 c 0.0579,1.8735 0.33896,4.2141 0.6,6.275 0.26104,2.0608 0.5116,3.7717 0.55,4.825 l 0,0.025 0,0.025 c 0.003,0.5848 -0.0808,1.1888 -0.4,1.875 -0.15959,0.343 -0.40874,0.6967 -0.825,1.025 -0.41626,0.3282 -1.08648,0.5496 -1.7,0.45 -0.66188,-0.1075 -0.95539,-0.4054 -1.2,-0.65 -0.24461,-0.2446 -0.43151,-0.5117 -0.625,-0.8 -0.38249,-0.5699 -0.7439,-1.2523 -1.125,-2.05 -0.004,-0.01 0.004,-0.016 0,-0.025 -1.35031,-2.7547 -2.87022,-5.237 -4.05,-6.875 -0.6389,-0.8875 -0.70599,-0.9912 -1.375,-1.1 -2.06375,-0.3355 -5.28273,-0.7261 -8.05,-1 -1.38363,-0.137 -2.65327,-0.2617 -3.625,-0.325 -0.19166,-0.013 -0.28435,0.01 -0.45,0 3.39788,8.224 9.4889,23.1394 11.525,27.55 1.97786,4.2772 3.52771,6.6407 4.975,9.45 0.004,0.01 -0.004,0.043 0,0.05 0.40201,0.7924 0.24758,1.4835 0.025,2.05 -0.22549,0.5738 -0.55077,1.1085 -1.25,1.475 -0.2385,0.125 -0.43983,0.2877 -0.875,0.375 -0.20356,0.041 -0.37579,0.038 -0.525,0.025 z"
     style="fill:#ffffff;fill-opacity:1;fill-rule:nonzero;stroke:none" /><path
     id="path4325"
     d="m 155.5839,1116.1012 c -0.14921,-0.014 -0.26914,-0.032 -0.375,-0.05 l 0,0.025 c -2.67001,-0.3107 -7.08455,-1.6 -14.775,-2.85 l -9.675,-1.55 c -1.4763,-0.2399 -3.84614,0.2107 -4.875,0.75 l -0.025,-0.075 c -0.73931,0.4233 -1.26279,0.26 -1.675,0.075 -0.4559,-0.2047 -0.84197,-0.5336 -1.225,-0.975 l -0.075,-0.05 -0.025,-0.05 c -0.65826,-0.9113 -0.4382,-1.9417 -0.425,-2.025 0.25412,-1.5664 0.2661,-4.2091 0,-6.275 -0.002,-0.013 0.002,-0.013 0,-0.025 -0.273,-1.6817 -0.45658,-2.9246 -0.25,-4.2 0.12913,-0.7954 0.46847,-1.401 0.9,-1.9 0.21577,-0.2495 0.46195,-0.4583 0.775,-0.65 0.31305,-0.1918 0.71392,-0.4324 1.375,-0.325 1.07615,0.175 1.64139,0.9532 1.95,1.525 0.30861,0.5717 0.46725,1.1042 0.575,1.45 0.6088,1.4754 1.61457,3.2612 2.55,4.65 0.47762,0.709 0.92034,1.3307 1.275,1.725 0.16316,0.1814 0.2947,0.2827 0.375,0.35 2.43049,0.3892 5.53357,0.7776 8.175,1.075 1.35604,0.1526 2.62871,0.2955 3.55,0.375 0.0637,0.01 0.0892,-0.01 0.15,0 -3.66179,-8.8457 -8.76669,-21.1608 -10.95,-25.5 l 0,-0.025 -0.025,-0.025 c -1.21023,-2.589 -2.63485,-5.5669 -3.75,-8 -0.55757,-1.2166 -1.0303,-2.2849 -1.375,-3.125 -0.17235,-0.4201 -0.29607,-0.7842 -0.4,-1.1 -0.052,-0.1579 -0.0887,-0.3098 -0.125,-0.475 -0.0363,-0.1652 -0.1488,-0.2982 -0.075,-0.75 0.18663,-1.1545 0.79898,-1.4219 1.3,-1.8 0.25051,-0.1891 0.49972,-0.3661 0.8,-0.5 0.30028,-0.1339 0.58991,-0.3057 1.25,-0.2 l 0.025,0 0.05,0 c 2.50674,0.5195 5.16633,1.3009 9.775,2.05 2.49902,0.4061 7.60033,1.0679 12.175,1.675 2.28734,0.3035 4.44754,0.6117 6.075,0.825 1.62746,0.2133 2.61195,0.341 2.975,0.4 0.6008,0.097 0.83299,0.302 1.075,0.5 0.24201,0.1979 0.44148,0.419 0.625,0.65 0.18352,0.2309 0.33499,0.48 0.475,0.775 0.10905,0.2296 0.145,0.5873 0.15,1 l 0.1,0 c 0.0579,1.8735 0.33884,4.1892 0.6,6.25 0.26116,2.0608 0.486,3.7727 0.525,4.825 l 0,0.025 0,0.025 c 0.002,0.5824 -0.0808,1.1888 -0.4,1.875 -0.15959,0.343 -0.35853,0.7217 -0.775,1.05 -0.41647,0.3282 -1.11173,0.5495 -1.725,0.45 -0.66197,-0.1075 -0.95546,-0.4053 -1.2,-0.65 -0.24454,-0.2447 -0.43168,-0.5118 -0.625,-0.8 -0.38222,-0.57 -0.76896,-1.2774 -1.15,-2.075 -0.004,-0.01 0.004,-0.016 0,-0.025 -1.35029,-2.7547 -2.84524,-5.237 -4.025,-6.875 -0.63851,-0.8869 -0.70711,-0.9912 -1.375,-1.1 -2.06375,-0.3355 -5.25773,-0.7011 -8.025,-0.975 -1.38363,-0.137 -2.70327,-0.2367 -3.675,-0.3 -0.20468,-0.013 -0.32517,-0.016 -0.5,-0.025 3.39401,8.2166 9.5606,23.1102 11.6,27.525 1.98302,4.2873 3.49946,6.6812 4.95,9.5 0.42225,0.8056 0.27591,1.5263 0.05,2.1 -0.22591,0.5736 -0.55115,1.0837 -1.25,1.45 -0.2385,0.125 -0.43983,0.2627 -0.875,0.35 -0.20356,0.041 -0.37579,0.039 -0.525,0.025 z"
     style="fill:#ffffff;fill-opacity:1;fill-rule:nonzero;stroke:none" /><path
     d="m 191.2301,1121.3211 9.112,1.48 c 8.027,1.305 11.562,4.907 10.603,10.809 -0.902,5.553 -5.064,7.728 -12.484,6.522 l -10.023,-1.628 2.792,-17.183 z m 3.49,-19.008 5.245,-32.282 -27.662,-4.495 -14.436,88.844 37.946,6.166 c 9.458,1.537 16.827,1.619 22.105,0.251 5.276,-1.37 9.721,-4.056 13.333,-8.055 3.611,-4.001 5.869,-8.778 6.771,-14.332 1.375,-8.461 -0.465,-15.774 -5.52,-21.941 -5.056,-6.166 -12.508,-10.049 -22.357,-11.649 l -15.425,-2.507 z"
     style="fill:#ffffff;fill-opacity:1;fill-rule:nonzero;stroke:none"
     id="path4327" /><path
     d="m 293.2364,1104.493 c 4.6,0.748 7.582,3.292 8.948,7.634 1.365,4.341 1.181,11.85 -0.553,22.524 -2.51,15.447 -7.91,22.497 -16.198,21.151 -8.939,-1.453 -11.976,-10.988 -9.114,-28.605 2.687,-16.531 8.326,-24.1 16.917,-22.704 m 3.409,-20.155 c -12.497,-2.031 -23.356,0.457 -32.578,7.466 -9.222,7.007 -14.961,17.454 -17.218,31.34 -2.157,13.277 -0.176,24.856 5.947,34.736 6.121,9.879 15.864,15.905 29.229,18.077 12.366,2.01 23.107,-0.432 32.221,-7.324 9.113,-6.892 14.778,-17.15 16.992,-30.774 2.292,-14.103 0.201,-26.045 -6.271,-35.824 -6.471,-9.783 -15.913,-15.681 -28.322,-17.697"
     style="fill:#ffffff;fill-opacity:1;fill-rule:nonzero;stroke:none"
     id="path4329" /><path
     style="fill:#ffffff;fill-opacity:1;fill-rule:nonzero;stroke:none"
     d="m 386.2589,1190.6512 c -3.68425,-0.042 -7.8955,-0.4315 -12.625,-1.2 l -37.95,-6.175 14.425,-88.85 27.675,4.5 -5.25,32.275 15.425,2.525 c 4.25928,0.6919 8.06208,1.8041 11.42496,3.35 l -0.0752,51.425 c -1.14904,0.4678 -2.33376,0.8777 -3.57496,1.2 -2.63856,0.684 -5.7908,0.9916 -9.47504,0.95 z m -6.15,-21.3 c 5.03576,-0.05 7.91712,-2.3382 8.65,-6.85 0.95896,-5.902 -2.572,-9.495 -10.6,-10.8 l -9.1,-1.475 -2.8,17.175 10.025,1.625 c 1.39106,0.2261 2.6629,0.3365 3.825,0.325 z"
     id="path4331" /></g><g
   transform="scale(1,-1)"
   style="font-size:19.46546936px;fill:#626262;fill-opacity:1;stroke:none"
   id="text4333"><path
     d="m 2239.9,-470.83246 -19.3507,0 0,-29.75536 c -1e-4,-2.72268 -0.308,-4.58644 -0.9238,-5.59129 -0.5835,-1.03718 -1.7342,-1.5558 -3.452,-1.55583 -1.329,3e-5 -2.4959,0.4052 -3.5007,1.21549 -0.9724,0.77796 -1.5396,1.58829 -1.7017,2.431 -0.162,0.84277 -0.2431,2.6093 -0.2431,5.29956 l 0,27.95643 -19.3993,0 0,-66.36613 19.3993,0 0,22.7541 c 3.5007,-4.57022 8.0709,-6.85535 13.7109,-6.8554 2.8523,5e-5 5.3481,0.50246 7.4874,1.50722 2.1717,0.97244 3.8409,2.23656 5.0079,3.79235 1.1668,1.55588 1.9447,3.06309 2.3337,4.52165 0.4213,1.45863 0.632,4.27858 0.6321,8.45986 l 0,32.18635"
     style="font-size:99.57350159px;font-variant:normal;font-weight:normal;font-stretch:normal;writing-mode:lr-tb;fill:#626262;fill-rule:nonzero;font-family:Franklin Gothic Heavy;-inkscape-font-specification:FranklinGothic-Heavy"
     id="path3014" /><path
     d="m 2300.012,-470.83246 -18.4756,0 c -0.4538,-2.10686 -0.6807,-4.4082 -0.6806,-6.90402 -3.5007,5.28336 -8.8003,7.92504 -15.8987,7.92504 -5.8344,0 -10.2102,-1.49101 -13.1274,-4.47303 -2.8848,-2.98201 -4.3272,-6.40161 -4.3272,-10.25879 0,-5.21852 2.3662,-9.43224 7.0985,-12.64117 4.7648,-3.2413 13.1922,-5.18609 25.2824,-5.83438 l 0,-1.11826 c -1e-4,-2.17165 -0.5025,-3.61404 -1.5073,-4.32717 -0.9724,-0.71305 -2.4148,-1.0696 -4.3271,-1.06964 -4.4731,4e-5 -6.9689,1.79897 -7.4875,5.39681 l -17.6976,-1.65308 c 2.5282,-10.33978 11.1339,-15.50969 25.8171,-15.50974 3.9868,5e-5 7.6495,0.40522 10.9881,1.2155 3.3385,0.77797 5.9802,2.00967 7.9251,3.69511 1.9447,1.68553 3.2412,3.46826 3.8896,5.34819 0.6806,1.88 1.0209,5.49408 1.021,10.84223 l 0,19.73967 c -1e-4,3.75994 0.5023,6.96885 1.5072,9.62673 m -20.1286,-23.14306 c -8.2654,0.87518 -12.3981,3.51686 -12.3981,7.92504 0,2.98203 1.6368,4.47304 4.9106,4.47303 2.0744,10e-6 3.8409,-0.61584 5.2996,-1.84756 1.4585,-1.23169 2.1878,-3.9544 2.1879,-8.16813 l 0,-2.38238"
     style="font-size:99.57350159px;font-variant:normal;font-weight:normal;font-stretch:normal;writing-mode:lr-tb;fill:#626262;fill-rule:nonzero;font-family:Franklin Gothic Heavy;-inkscape-font-specification:FranklinGothic-Heavy"
     id="path3016" /><path
     d="m 2338.3307,-490.76661 16.5308,1.40998 c -0.778,5.76957 -3.209,10.46949 -7.293,14.09976 -4.0517,3.63029 -9.4485,5.44543 -16.1904,5.44543 -7.5523,0 -13.6947,-2.36617 -18.427,-7.0985 -4.6999,-4.76474 -7.0499,-10.85842 -7.0499,-18.28108 0,-7.58466 2.3338,-13.82421 7.0013,-18.71865 4.6999,-4.92676 10.7936,-7.39017 18.2811,-7.39022 6.6447,5e-5 12.0577,1.86381 16.239,5.59129 4.1813,3.69515 6.5799,8.37886 7.1958,14.05114 l -16.9684,1.40998 c -0.7131,-5.2185 -2.6903,-7.82776 -5.9316,-7.8278 -2.0745,4e-5 -3.5979,0.95623 -4.5703,2.86857 -0.94,1.88 -1.41,5.16994 -1.4099,9.86984 -10e-5,4.05167 0.4699,7.04989 1.4099,8.99467 0.9724,1.94481 2.6417,2.91721 5.0079,2.91719 3.4682,2e-5 5.5264,-2.44718 6.1747,-7.3416"
     style="font-size:99.57350159px;font-variant:normal;font-weight:normal;font-stretch:normal;writing-mode:lr-tb;fill:#626262;fill-rule:nonzero;font-family:Franklin Gothic Heavy;-inkscape-font-specification:FranklinGothic-Heavy"
     id="path3018" /><path
     d="m 2412.8982,-520.27887 -14.9263,17.01696 16.628,32.42945 -20.0314,0 -9.2864,-19.78829 -5.2996,6.17473 0,13.61356 -18.1838,0 0,-66.36613 18.1838,0 0,26.78955 c 0,0.74555 -0.049,3.72756 -0.1458,8.94606 1.1668,-1.65304 2.3499,-3.16026 3.5492,-4.52165 l 12.3981,-14.29424 17.1142,0"
     style="font-size:99.57350159px;font-variant:normal;font-weight:normal;font-stretch:normal;writing-mode:lr-tb;fill:#626262;fill-rule:nonzero;font-family:Franklin Gothic Heavy;-inkscape-font-specification:FranklinGothic-Heavy"
     id="path3020" /><path
     d="m 2450.2322,-488.57871 18.0866,1.21549 c -1.0697,4.862 -3.8086,9.0109 -8.2167,12.44669 -4.3759,3.40339 -10.3075,5.10509 -17.7949,5.10509 -8.3302,0 -14.9749,-2.39858 -19.9342,-7.19574 -4.9592,-4.82957 -7.4388,-10.8098 -7.4388,-17.94074 0,-7.39019 2.4472,-13.62973 7.3416,-18.71865 4.8944,-5.08883 11.4257,-7.63327 19.5938,-7.63332 7.9088,5e-5 14.2942,2.39863 19.1562,7.19574 4.8944,4.7972 7.3416,11.32847 7.3416,19.59381 0,0.6807 -0.016,1.62069 -0.049,2.81996 l -33.1101,0 c 0.065,3.11169 0.6158,5.42923 1.6531,6.95264 1.0372,1.49102 3.0144,2.23652 5.9316,2.23651 4.2137,1e-5 6.6933,-2.02581 7.4388,-6.07748 m -1.2641,-12.83565 c -0.032,-3.33853 -0.7131,-5.57504 -2.042,-6.70954 -1.2966,-1.16684 -2.9172,-1.75028 -4.862,-1.75032 -4.6027,4e-5 -6.9041,2.81999 -6.904,8.45986 l 13.808,0"
     style="font-size:99.57350159px;font-variant:normal;font-weight:normal;font-stretch:normal;writing-mode:lr-tb;fill:#626262;fill-rule:nonzero;font-family:Franklin Gothic Heavy;-inkscape-font-specification:FranklinGothic-Heavy"
     id="path3022" /><path
     d="m 2494.4826,-470.83246 -18.5728,0 0,-49.44641 16.1418,0 0,10.21017 c 1.8475,-7.42258 6.1423,-11.1339 12.8842,-11.13395 0.6807,5e-5 1.6207,0.0649 2.82,0.19448 l 0,17.26006 c -1.3614,-0.3241 -2.5769,-0.48617 -3.6465,-0.4862 -6.4178,3e-5 -9.6268,3.58169 -9.6267,10.74499 l 0,22.65686"
     style="font-size:99.57350159px;font-variant:normal;font-weight:normal;font-stretch:normal;writing-mode:lr-tb;fill:#626262;fill-rule:nonzero;font-family:Franklin Gothic Heavy;-inkscape-font-specification:FranklinGothic-Heavy"
     id="path3024" /><path
     d="m 2509.8699,-484.83498 15.3153,-2.09066 c 0.8751,3.56547 4.3433,5.3482 10.4046,5.34819 5.0241,10e-6 7.5361,-0.97239 7.5361,-2.91719 0,-0.84273 -0.4862,-1.491 -1.4586,-1.9448 -0.9724,-0.48618 -3.2737,-0.97238 -6.904,-1.45859 -10.0481,-1.39376 -16.3201,-3.56544 -18.8159,-6.51507 -2.4958,-2.98199 -3.7437,-6.28814 -3.7437,-9.91845 0,-5.05643 2.1068,-9.1405 6.3206,-12.25221 4.2137,-3.14404 9.7401,-4.71608 16.5793,-4.71613 11.9929,5e-5 19.6424,4.32722 22.9486,12.98151 l -14.6832,2.77133 c -1.3614,-2.91715 -4.2299,-4.37575 -8.6057,-4.37579 -2.0745,4e-5 -3.6303,0.29176 -4.6675,0.87516 -1.0048,0.55106 -1.5072,1.10209 -1.5072,1.65308 0,1.62069 1.5558,2.6093 4.6675,2.96581 8.1033,0.9076 13.5973,1.83138 16.4821,2.77133 2.8848,0.94002 5.3482,2.65792 7.3902,5.15371 2.042,2.49584 3.063,5.51027 3.0631,9.04329 -10e-5,5.41303 -2.269,9.70778 -6.8068,12.88427 -4.5055,3.1765 -10.7288,4.76475 -18.67,4.76475 -13.3867,0 -21.6683,-5.00784 -24.8448,-15.02354"
     style="font-size:99.57350159px;font-variant:normal;font-weight:normal;font-stretch:normal;writing-mode:lr-tb;fill:#626262;fill-rule:nonzero;font-family:Franklin Gothic Heavy;-inkscape-font-specification:FranklinGothic-Heavy"
     id="path3026" /><path
     d="m 2586.419,-455.22548 -19.3994,0 0,-65.05339 17.8435,0 0,7.00126 c 2.4958,-5.34814 7.1471,-8.02223 13.9539,-8.02228 5.8992,5e-5 10.5181,2.30139 13.8567,6.90402 3.3385,4.57031 5.0078,10.80986 5.0078,18.71866 0,7.90885 -1.7179,14.19701 -5.1537,18.86451 -3.4034,4.66751 -7.9088,7.00126 -13.5163,7.00126 -5.5103,0 -9.7078,-2.10686 -12.5925,-6.32058 l 0,20.90654 m 0,-33.69357 c -10e-5,2.20412 0.5023,3.92202 1.5072,5.15371 1.0048,1.1993 2.2527,1.79894 3.7437,1.79893 2.3337,10e-6 3.9382,-1.06962 4.8134,-3.20891 0.8751,-2.17167 1.3127,-5.49403 1.3127,-9.96708 0,-5.15367 -0.5024,-8.76775 -1.5072,-10.84223 -1.0048,-2.10682 -2.5121,-3.16025 -4.5216,-3.16029 -1.1994,4e-5 -2.3987,0.47003 -3.5979,1.40998 -1.1669,0.94002 -1.7504,2.47965 -1.7503,4.61889 l 0,14.197"
     style="font-size:99.57350159px;font-variant:normal;font-weight:normal;font-stretch:normal;writing-mode:lr-tb;fill:#626262;fill-rule:nonzero;font-family:Franklin Gothic Heavy;-inkscape-font-specification:FranklinGothic-Heavy"
     id="path3028" /><path
     d="m 2675.2051,-470.83246 -18.4755,0 c -0.4539,-2.10686 -0.6808,-4.4082 -0.6807,-6.90402 -3.5007,5.28336 -8.8002,7.92504 -15.8987,7.92504 -5.8344,0 -10.2102,-1.49101 -13.1274,-4.47303 -2.8848,-2.98201 -4.3272,-6.40161 -4.3272,-10.25879 0,-5.21852 2.3662,-9.43224 7.0985,-12.64117 4.7648,-3.2413 13.1922,-5.18609 25.2824,-5.83438 l 0,-1.11826 c -1e-4,-2.17165 -0.5025,-3.61404 -1.5072,-4.32717 -0.9725,-0.71305 -2.4149,-1.0696 -4.3272,-1.06964 -4.4731,4e-5 -6.9689,1.79897 -7.4875,5.39681 l -17.6976,-1.65308 c 2.5282,-10.33978 11.1339,-15.50969 25.8172,-15.50974 3.9867,5e-5 7.6494,0.40522 10.988,1.2155 3.3386,0.77797 5.9802,2.00967 7.9251,3.69511 1.9447,1.68553 3.2413,3.46826 3.8896,5.34819 0.6806,1.88 1.0209,5.49408 1.021,10.84223 l 0,19.73967 c -1e-4,3.75994 0.5023,6.96885 1.5072,9.62673 m -20.1286,-23.14306 c -8.2654,0.87518 -12.3981,3.51686 -12.3981,7.92504 0,2.98203 1.6369,4.47304 4.9106,4.47303 2.0744,10e-6 3.841,-0.61584 5.2996,-1.84756 1.4585,-1.23169 2.1878,-3.9544 2.1879,-8.16813 l 0,-2.38238"
     style="font-size:99.57350159px;font-variant:normal;font-weight:normal;font-stretch:normal;writing-mode:lr-tb;fill:#626262;fill-rule:nonzero;font-family:Franklin Gothic Heavy;-inkscape-font-specification:FranklinGothic-Heavy"
     id="path3030" /><path
     d="m 2713.5238,-490.76661 16.5308,1.40998 c -0.778,5.76957 -3.209,10.46949 -7.293,14.09976 -4.0517,3.63029 -9.4485,5.44543 -16.1904,5.44543 -7.5523,0 -13.6946,-2.36617 -18.427,-7.0985 -4.6999,-4.76474 -7.0498,-10.85842 -7.0498,-18.28108 0,-7.58466 2.3337,-13.82421 7.0012,-18.71865 4.6999,-4.92676 10.7936,-7.39017 18.2811,-7.39022 6.6447,5e-5 12.0577,1.86381 16.239,5.59129 4.1813,3.69515 6.5799,8.37886 7.1958,14.05114 l -16.9684,1.40998 c -0.7131,-5.2185 -2.6903,-7.82776 -5.9316,-7.8278 -2.0745,4e-5 -3.5979,0.95623 -4.5703,2.86857 -0.94,1.88 -1.41,5.16994 -1.4099,9.86984 -1e-4,4.05167 0.4699,7.04989 1.4099,8.99467 0.9724,1.94481 2.6417,2.91721 5.0079,2.91719 3.4682,2e-5 5.5264,-2.44718 6.1747,-7.3416"
     style="font-size:99.57350159px;font-variant:normal;font-weight:normal;font-stretch:normal;writing-mode:lr-tb;fill:#626262;fill-rule:nonzero;font-family:Franklin Gothic Heavy;-inkscape-font-specification:FranklinGothic-Heavy"
     id="path3032" /><path
     d="m 2768.4693,-488.57871 18.0866,1.21549 c -1.0697,4.862 -3.8086,9.0109 -8.2168,12.44669 -4.3758,3.40339 -10.3074,5.10509 -17.7948,5.10509 -8.3303,0 -14.975,-2.39858 -19.9342,-7.19574 -4.9592,-4.82957 -7.4388,-10.8098 -7.4388,-17.94074 0,-7.39019 2.4472,-13.62973 7.3416,-18.71865 4.8944,-5.08883 11.4256,-7.63327 19.5938,-7.63332 7.9088,5e-5 14.2942,2.39863 19.1562,7.19574 4.8944,4.7972 7.3415,11.32847 7.3416,19.59381 -10e-5,0.6807 -0.016,1.62069 -0.049,2.81996 l -33.1101,0 c 0.065,3.11169 0.6158,5.42923 1.653,6.95264 1.0372,1.49102 3.0144,2.23652 5.9317,2.23651 4.2136,1e-5 6.6933,-2.02581 7.4388,-6.07748 m -1.2641,-12.83565 c -0.032,-3.33853 -0.7132,-5.57504 -2.0421,-6.70954 -1.2965,-1.16684 -2.9172,-1.75028 -4.8619,-1.75032 -4.6028,4e-5 -6.9041,2.81999 -6.9041,8.45986 l 13.8081,0"
     style="font-size:99.57350159px;font-variant:normal;font-weight:normal;font-stretch:normal;writing-mode:lr-tb;fill:#626262;fill-rule:nonzero;font-family:Franklin Gothic Heavy;-inkscape-font-specification:FranklinGothic-Heavy"
     id="path3034" /></g>



<flowRoot
   transform="matrix(0.8,0,0,-0.8,2544.6773,1141.7059)"
   style="font-size:22px;font-style:normal;font-variant:normal;font-weight:normal;font-stretch:normal;text-align:start;line-height:125%;writing-mode:lr-tb;text-anchor:start;fill:#ffffff;fill-opacity:1;stroke:none;font-family:Arial;-inkscape-font-specification:Arial"
   id="flowRoot4337"
   xml:space="preserve"><flowRegion
     id="flowRegion4339"><rect
       style="font-size:22px;font-style:normal;font-variant:normal;font-weight:normal;font-stretch:normal;text-align:start;line-height:125%;writing-mode:lr-tb;text-anchor:start;fill:#ffffff;font-family:Arial;-inkscape-font-specification:Arial"
       y="383.96997"
       x="-407.67184"
       height="616.24811"
       width="395.82089"
       id="rect4341" /></flowRegion><flowPara
     id="flowPara4343">A group of people with a wide range of skills and interests, bound by a common interest in tinkering with stuff to make something new. Join us and be part of the growing hacker and maker scene emerging around the UK.</flowPara><flowPara
     id="flowPara4345" /><flowPara
     id="flowPara4347">Hack sessions are held fortnightly around Birmingham. See the website for more details</flowPara><flowPara
     id="flowPara2965" /><flowPara
     id="flowPara2967">http:///www.fizzpop.org.uk</flowPara></flowRoot><g
   id="g4349"
   transform="translate(1632,0)"><rect
   transform="scale(1,-1)"
   y="-445.67221"
   x="559.3288"
   height="149.88141"
   width="59.527199"
   id="rect4351"
   style="fill:none;stroke:#000000;stroke-width:1;stroke-miterlimit:4;stroke-dasharray:3, 1;stroke-dashoffset:0" /><text
   sodipodi:linespacing="125%"
   transform="matrix(0,-1,-1,0,0,0)"
   id="text4353"
   y="-592.94202"
   x="-308.66666"
   style="font-size:14.39999962px;font-style:normal;font-variant:normal;font-weight:normal;font-stretch:normal;text-align:end;line-height:125%;writing-mode:lr-tb;text-anchor:end;fill:#000000;fill-opacity:1;stroke:none;font-family:Arial;-inkscape-font-specification:Arial"
   xml:space="preserve"><tspan
     id="tspan4355"
     y="-592.94202"
     x="-308.66666"
     sodipodi:role="line">Join the hack party!</tspan><tspan
     id="tspan4357"
     y="-574.94202"
     x="-308.66666"
     sodipodi:role="line">www.fizzpop.org.uk</tspan><tspan
     id="tspan4359"
     y="-556.94202"
     x="-308.66666"
     sodipodi:role="line" /></text>






</g><use
   x="0"
   y="0"
   xlink:href="#g3732"
   id="use4361"
   transform="translate(1691.5272,0)"
   width="744.09003"
   height="1052.3622" /><use
   x="0"
   y="0"
   xlink:href="#use3739"
   id="use4363"
   transform="translate(1691.5272,0)"
   width="744.09003"
   height="1052.3622" /><g
   id="g4365"
   transform="translate(1870.1088,0)"><rect
   style="fill:none;stroke:#000000;stroke-width:1;stroke-miterlimit:4;stroke-dasharray:3, 1;stroke-dashoffset:0"
   id="rect4367"
   width="59.527199"
   height="149.88141"
   x="559.3288"
   y="-445.67221"
   transform="scale(1,-1)" /><text
   xml:space="preserve"
   style="font-size:14.39999962px;font-style:normal;font-variant:normal;font-weight:normal;font-stretch:normal;text-align:end;line-height:125%;writing-mode:lr-tb;text-anchor:end;fill:#000000;fill-opacity:1;stroke:none;font-family:Arial;-inkscape-font-specification:Arial"
   x="-308.66666"
   y="-592.94202"
   id="text4369"
   transform="matrix(0,-1,-1,0,0,0)"
   sodipodi:linespacing="125%"><tspan
     sodipodi:role="line"
     x="-308.66666"
     y="-592.94202"
     id="tspan4371">Join the hack party!</tspan><tspan
     sodipodi:role="line"
     x="-308.66666"
     y="-574.94202"
     id="tspan4373">www.fizzpop.org.uk</tspan><tspan
     sodipodi:role="line"
     x="-308.66666"
     y="-556.94202"
     id="tspan4375" /></text>






</g><use
   x="0"
   y="0"
   xlink:href="#use3743"
   id="use4377"
   transform="translate(1572.4728,0)"
   width="744.09003"
   height="1052.3622" /><use
   x="0"
   y="0"
   xlink:href="#use3757"
   id="use4379"
   transform="translate(1751.0544,0)"
   width="744.09003"
   height="1052.3622" /><use
   x="0"
   y="0"
   xlink:href="#use3759"
   id="use4381"
   transform="translate(1691.5272,0)"
   width="744.09003"
   height="1052.3622" /><use
   x="0"
   y="0"
   xlink:href="#use3761"
   id="use4383"
   transform="translate(1691.5272,0)"
   width="744.09003"
   height="1052.3622" /><use
   x="0"
   y="0"
   xlink:href="#use3763"
   id="use4385"
   transform="translate(1691.5272,0)"
   width="744.09003"
   height="1052.3622" /><g
   transform="translate(2167.7449,1.1904297e-5)"
   id="g4387"><rect
   transform="scale(1,-1)"
   y="-445.67221"
   x="559.3288"
   height="149.88141"
   width="59.527199"
   id="rect4389"
   style="fill:none;stroke:#000000;stroke-width:1;stroke-miterlimit:4;stroke-dasharray:3, 1;stroke-dashoffset:0" /><text
   sodipodi:linespacing="125%"
   transform="matrix(0,-1,-1,0,0,0)"
   id="text4391"
   y="-592.94202"
   x="-308.66666"
   style="font-size:14.39999962px;font-style:normal;font-variant:normal;font-weight:normal;font-stretch:normal;text-align:end;line-height:125%;writing-mode:lr-tb;text-anchor:end;fill:#000000;fill-opacity:1;stroke:none;font-family:Arial;-inkscape-font-specification:Arial"
   xml:space="preserve"><tspan
     id="tspan4393"
     y="-592.94202"
     x="-308.66666"
     sodipodi:role="line">Join the hack party!</tspan><tspan
     id="tspan4395"
     y="-574.94202"
     x="-308.66666"
     sodipodi:role="line">www.fizzpop.org.uk</tspan><tspan
     id="tspan4397"
     y="-556.94202"
     x="-308.66666"
     sodipodi:role="line" /></text>






</g></g></svg>