<?xml version="1.0" encoding="UTF-8" standalone="no"?>
<!-- Created with Inkscape (http://www.inkscape.org/) -->

<svg
   xmlns:dc="http://purl.org/dc/elements/1.1/"
   xmlns:cc="http://creativecommons.org/ns#"
   xmlns:rdf="http://www.w3.org/1999/02/22-rdf-syntax-ns#"
   xmlns:svg="http://www.w3.org/2000/svg"
   xmlns="http://www.w3.org/2000/svg"
   xmlns:xlink="http://www.w3.org/1999/xlink"
   xmlns:sodipodi="http://sodipodi.sourceforge.net/DTD/sodipodi-0.dtd"
   xmlns:inkscape="http://www.inkscape.org/namespaces/inkscape"
   inkscape:output_extension="org.inkscape.output.svg.inkscape"
   sodipodi:docname="TIC Screen Poster.svg"
   xml:space="preserve"
   height="768"
   width="1024"
   inkscape:version="0.47pre4 r22446"
   version="1.1"
   id="svg2"
   inkscape:export-filename="/home/antonio/Art/fizzPOP/fizzPOP Posters/TIC Screen Poster.png"
   inkscape:export-xdpi="90"
   inkscape:export-ydpi="90"><sodipodi:namedview
     pagecolor="#ffffff"
     bordercolor="#666666"
     borderopacity="1"
     objecttolerance="10"
     gridtolerance="10"
     guidetolerance="10"
     inkscape:pageopacity="1"
     inkscape:pageshadow="2"
     inkscape:window-width="1366"
     inkscape:window-height="697"
     id="namedview4"
     showgrid="false"
     inkscape:zoom="0.42190797"
     inkscape:cx="-7.5440007"
     inkscape:cy="91.596331"
     inkscape:window-x="0"
     inkscape:window-y="24"
     inkscape:window-maximized="1"
     inkscape:current-layer="g12"
     inkscape:snap-page="true"
     inkscape:snap-bbox="true"
     inkscape:bbox-paths="true"
     inkscape:snap-global="false"
     showguides="true"
     inkscape:guide-bbox="true" /><metadata
     id="metadata8"><rdf:RDF><cc:Work
         rdf:about=""><dc:format>image/svg+xml</dc:format><dc:type
           rdf:resource="http://purl.org/dc/dcmitype/StillImage" /><dc:title></dc:title></cc:Work></rdf:RDF></metadata><defs
     id="defs6"><inkscape:perspective
       sodipodi:type="inkscape:persp3d"
       inkscape:vp_x="0 : 526.18109 : 1"
       inkscape:vp_y="0 : 1000 : 0"
       inkscape:vp_z="744.09448 : 526.18109 : 1"
       inkscape:persp3d-origin="372.04724 : 350.78739 : 1"
       id="perspective159" /><clipPath
       id="clipPath3076"
       clipPathUnits="userSpaceOnUse"><rect
         ry="15"
         y="-925.27271"
         x="965.04388"
         height="114.9208"
         width="173.03766"
         id="rect3078"
         style="fill:none;stroke:#000000;stroke-width:1.03857625" /></clipPath><clipPath
       id="clipPath3094"
       clipPathUnits="userSpaceOnUse"><rect
         ry="15"
         style="fill:none;stroke:#000000;stroke-width:1.02244496"
         id="rect3096"
         width="170.35002"
         height="113.13584"
         x="967.73956"
         y="-796.83051" /></clipPath><clipPath
       id="clipPath3098"
       clipPathUnits="userSpaceOnUse"><rect
         ry="15"
         y="-669.28076"
         x="967.73956"
         height="113.13584"
         width="170.35002"
         id="rect3100"
         style="fill:none;stroke:#000000;stroke-width:1.02244496" /></clipPath><filter
       id="filter3897"
       inkscape:collect="always"
       color-interpolation-filters="sRGB"><feGaussianBlur
         id="feGaussianBlur3899"
         stdDeviation="3.5332774"
         inkscape:collect="always" /></filter><inkscape:perspective
       id="perspective2936"
       inkscape:persp3d-origin="0.5 : 0.33333333 : 1"
       inkscape:vp_z="1 : 0.5 : 1"
       inkscape:vp_y="0 : 1000 : 0"
       inkscape:vp_x="0 : 0.5 : 1"
       sodipodi:type="inkscape:persp3d" /><inkscape:perspective
       id="perspective2903"
       inkscape:persp3d-origin="0.5 : 0.33333333 : 1"
       inkscape:vp_z="1 : 0.5 : 1"
       inkscape:vp_y="0 : 1000 : 0"
       inkscape:vp_x="0 : 0.5 : 1"
       sodipodi:type="inkscape:persp3d" /><clipPath
       clipPathUnits="userSpaceOnUse"
       id="clipPath2911"><rect
         y="-547.43738"
         x="2815.7585"
         height="113.13584"
         width="170.35002"
         id="rect2913"
         style="fill:none;stroke:#000000;stroke-width:1.02244496"
         ry="15" /></clipPath></defs><g
     id="g12"
     inkscape:groupmode="layer"
     inkscape:label="fizzpop_logo_paths"
     transform="matrix(1.25,0,0,-1.25,-2739.1611,1137.1135)">




<path
   id="path3826"
   style="fill:#a81c23;fill-opacity:1;fill-rule:nonzero;stroke:none"
   d="m 3010.5289,408.05842 -819.2,0 0,501.63238 819.2,0 0,-501.63238 z" /><rect
   ry="11.695067"
   transform="matrix(0,-0.73935799,-2.1033437,0,1051.8062,1267.8338)"
   y="-927.172"
   x="960.1676"
   height="382.52618"
   width="182.7982"
   id="rect3102"
   style="fill:#000000;fill-opacity:0.15789472;stroke:none;filter:url(#filter3897)" /><text
   y="-316.76865"
   x="2184.3035"
   id="text3840"
   transform="scale(1,-1)"
   style="font-size:26.78778076px;fill:#a81c23;fill-opacity:1;stroke:none"><tspan
     id="tspan3842"
     sodipodi:role="line"
     y="-316.76865"
     x="2184.3035 2265.2878 2345.5874 2418.8987 2495.6353 2575.9348 2628.6917 2701.3174 2781.6172 2861.9167 2933.5833"
     style="font-size:137.02999878px;font-variant:normal;font-weight:normal;font-stretch:normal;writing-mode:lr-tb;fill:#a81c23;fill-opacity:1;fill-rule:nonzero;stroke:none;font-family:Franklin Gothic Heavy;-inkscape-font-specification:FranklinGothic-Heavy">hackerspace</tspan></text>















<flowRoot
   xml:space="preserve"
   id="flowRoot2906"
   style="font-size:40px;font-style:normal;font-weight:normal;fill:#000000;fill-opacity:1;stroke:none;font-family:Bitstream Vera Sans"><flowRegion
     id="flowRegion2908"><rect
       id="rect2910"
       width="381.52567"
       height="220.71733"
       x="-592.78369"
       y="626.69305" /></flowRegion><flowPara
     id="flowPara2912" /></flowRoot>




<flowRoot
   xml:space="preserve"
   id="flowRoot3700"
   style="font-size:22px;font-style:normal;font-variant:normal;font-weight:normal;font-stretch:normal;text-align:start;line-height:125%;writing-mode:lr-tb;text-anchor:start;fill:#ffffff;fill-opacity:1;stroke:none;font-family:Arial;-inkscape-font-specification:Arial"
   transform="matrix(0.8,0,0,-0.8,3002.9742,1142.5496)"><flowRegion
     id="flowRegion3702"><rect
       id="rect3704"
       width="395.82089"
       height="616.24811"
       x="-407.67184"
       y="383.96997"
       style="font-size:22px;font-style:normal;font-variant:normal;font-weight:normal;font-stretch:normal;text-align:start;line-height:125%;writing-mode:lr-tb;text-anchor:start;fill:#ffffff;font-family:Arial;-inkscape-font-specification:Arial" /></flowRegion><flowPara
     id="flowPara3706">A group of people with a wide range of skills and interests, bound by a common interest in tinkering with stuff to make something new. Join us and be part of the growing hacker and maker scene emerging around the UK.</flowPara><flowPara
     id="flowPara3026" /><flowPara
     id="flowPara3028">Hack sessions are held fortnightly around Birmingham. See the website for more details</flowPara><flowPara
     id="flowPara2891" /><flowPara
     id="flowPara2893">http://www.fizzpop.org.uk</flowPara></flowRoot>


<image
   clip-path="url(#clipPath3098)"
   transform="matrix(1,0,0,-1,1248.1614,-122.35121)"
   xlink:href="file:///home/antonio/Art/fizzPOP/fizzPOP%20Posters/Resources/Colour/3816195754_a35e46f0d1_o.jpg"
   width="182.39993"
   height="136.80003"
   id="image3072"
   x="961.80426"
   y="-682.9411" /><image
   clip-path="url(#clipPath3094)"
   transform="matrix(1,0,0,-1,1448.1139,-249.39313)"
   xlink:href="file:///home/antonio/Art/fizzPOP/fizzPOP%20Posters/Resources/Colour/3681182748_9b73eaf937_o.jpg"
   width="200"
   height="150"
   id="image3058"
   x="954.60083"
   y="-819.22449" /><image
   clip-path="url(#clipPath3076)"
   transform="matrix(1,0,0,-1,1649.4183,-378.3312)"
   xlink:href="file:///home/antonio/Art/fizzPOP/fizzPOP%20Posters/Resources/Colour/3680395843_269980d0e7_o.jpg"
   width="191.99922"
   height="143.99983"
   id="image3044"
   x="956.20459"
   y="-938.60645" /><image
   y="-559.29962"
   x="2810.4141"
   id="image2905"
   height="136.80003"
   width="182.39996"
   xlink:href="file:///home/antonio/Art/fizzPOP/fizzPOP%20Posters/Resources/Colour/3815400943_da6c1b18f4_o.jpg"
   transform="scale(1,-1)"
   clip-path="url(#clipPath2911)" /><g
   transform="matrix(1.232309,0,0,1.232309,2054.1028,2.5115312)"
   id="g2901"
   style="fill:#ffffff"><path
     transform="matrix(0.8,0,0,-0.8,558.53184,713.167)"
     id="path2897"
     d="m -558.96875,224.28125 c 0.28282,0.26263 0.56431,0.5319 0.90625,0.6875 0.92445,0.42063 1.97664,0.49863 3.125,0.3125 l 0.0625,0 c 2.29914,-0.37418 6.40275,-1.74241 10.875,-2.46875 4.27127,-0.69423 9.43462,-1.07764 12.03125,-1.5 1.29507,-0.21014 2.30975,-0.64246 3.09375,-1.3125 0.392,-0.33502 0.73253,-0.76472 0.9375,-1.25 0.20497,-0.48528 0.27437,-1.02615 0.1875,-1.5625 -0.0745,-0.45625 -0.26908,-0.93314 -0.5625,-1.34375 -0.29342,-0.41061 -0.68569,-0.75495 -1.09375,-1 -0.81613,-0.49009 -1.73629,-0.72212 -2.96875,-0.96875 l -0.0937,-0.0312 -0.0625,0 c -1.59918,-0.17466 -2.76588,-0.38647 -3.59375,-0.59375 -0.82787,-0.20728 -1.31693,-0.41003 -1.5625,-0.59375 -0.4857,-0.36338 -0.76111,-0.9991 -1.21875,-3 -10e-4,-0.009 0.003,-0.0225 0,-0.0312 -1.6551,-7.7363 -5.19011,-29.06471 -5.875,-33.28125 2.78286,-0.75732 7.1709,-1.58753 11.3125,-2.25 4.1416,-0.66247 8.03676,-1.15719 9.78125,-1.21875 0.0789,0.0292 0.1835,0.0385 0.25,0.0937 0.0978,0.0812 0.135,0.21575 0.15625,0.25 0.96354,5.95811 4.14183,27.24557 5.0625,35.375 0.0813,0.79214 0.042,1.00256 -0.375,1.53125 -0.41697,0.52869 -1.39133,1.29864 -3,2.28125 l 0.0312,0.0312 c -1.03089,0.59207 -1.817,1.0582 -2.4375,1.71875 -0.31594,0.33634 -0.56055,0.79967 -0.71875,1.28125 -0.1582,0.48158 -0.23,0.9814 -0.15625,1.4375 0.0932,0.57416 0.39344,1.12051 0.78125,1.5625 0.38781,0.44199 0.86319,0.77963 1.34375,0.9375 0.96111,0.31574 1.85094,0.23992 2.75,0.0937 3.3944,-0.55087 7.00252,-1.6648 11.375,-2.375 3.31051,-0.53917 6.78012,-0.68584 10.25,-1.25 0.89878,-0.14607 1.84793,-0.3822 2.71875,-0.90625 0.43541,-0.26202 0.83215,-0.649 1.1875,-1.1875 0.35537,-0.5385 0.58775,-1.30292 0.46875,-2.03125 -0.0521,-0.32038 -0.19509,-0.77809 -0.4375,-1.21875 -0.24241,-0.44066 -0.58424,-0.86425 -1.03125,-1.15625 -0.89401,-0.584 -1.82354,-0.76112 -3.25,-0.96875 l -0.0312,0 c -2.10471,-0.25805 -3.45348,-0.56741 -4.0625,-0.875 -0.59719,-0.30161 -0.69881,-0.44627 -0.9375,-1.3125 -10e-4,-0.005 0.001,-0.0264 0,-0.0312 -0.54,-2.10275 -0.99926,-4.23759 -1.84375,-9.09375 -0.84449,-4.85616 -2.07419,-12.43365 -4.1875,-25.4375 -0.60622,-3.73288 -0.90276,-6.67525 -1.1875,-8.75 -0.14236,-1.03737 -0.24912,-1.86582 -0.46875,-2.59375 -0.10981,-0.36396 -0.25171,-0.68147 -0.59375,-1.125 -0.17102,-0.22177 -0.47352,-0.47625 -0.84375,-0.65625 -0.37023,-0.18 -0.80817,-0.28553 -1.21875,-0.21875 -0.87102,0.14213 -1.68316,0.44588 -2.4375,0.78125 -0.75434,0.33537 -1.45089,0.70236 -2.0625,1 l -0.0312,0 c -1.27588,0.64294 -2.15879,1.19505 -4.28125,1.875 -2.12246,0.67995 -5.47807,1.45795 -11.34375,2.34375 -0.19201,0.0313 -2.74997,0.45034 -5.46875,0.875 -2.71878,0.42466 -5.77487,0.856 -6.375,0.90625 l -0.0937,0 -0.0625,0.0312 c -0.70251,-4.4325 -1.09776,-8.31022 -1.28125,-11.6875 -0.18349,-3.37728 -0.1639,-6.25556 0.0312,-8.6875 0.19515,-2.43194 0.56659,-4.40351 1,-6 0.43341,-1.59649 0.93745,-2.81656 1.46875,-3.6875 l 0,-0.0312 c 0.85824,-1.48399 1.69924,-2.48416 2.6875,-3.1875 0.98826,-0.70334 2.12376,-1.10983 3.5625,-1.34375 0.95172,-0.1199 1.88106,-0.14205 2.78125,-0.0937 0.90019,0.0483 1.7746,0.15558 2.625,0.375 0.8504,0.21942 1.66639,0.54406 2.46875,0.9375 0.80236,0.39344 1.58769,0.86714 2.34375,1.4375 l 0.0312,0.0312 0.0625,0 c 1.47305,1.00249 2.81128,1.86903 3.90625,2.5 0.54749,0.31549 0.99368,0.58235 1.46875,0.78125 0.47507,0.19887 0.84546,0.46882 1.8125,0.3125 1.04151,-0.16909 1.66304,-0.6207 2.4375,-1.1875 0.77446,-0.5668 1.57247,-1.28379 2.3125,-2.125 0.74003,-0.84122 1.47593,-1.82394 1.96875,-2.90625 0.24641,-0.54116 0.43231,-1.09078 0.53125,-1.6875 0.0989,-0.59672 0.10564,-1.22586 0,-1.875 l 0.0312,0 c -0.11504,-0.7103 -0.37825,-1.39644 -0.75,-2.03125 -0.37175,-0.63481 -0.85206,-1.21829 -1.4375,-1.78125 -0.0276,-0.0265 -0.0345,-0.0674 -0.0625,-0.0937 -0.0108,-0.0114 -0.02,-0.02 -0.0312,-0.0312 -0.47174,-0.49575 -1.04163,-1.01784 -1.75,-1.53125 -0.70837,-0.51341 -1.56106,-1.02976 -2.53125,-1.46875 -0.97019,-0.43899 -2.05531,-0.82126 -3.3125,-1.09375 -1.25719,-0.27249 -2.68061,-0.42358 -4.25,-0.4375 -1.44867,-0.0129 -3.0438,0.12391 -4.78125,0.40625 -1.59006,0.25843 -3.16095,0.68142 -4.6875,1.25 -1.52655,0.56858 -3.00853,1.29226 -4.4375,2.125 -1.42897,0.83274 -2.79644,1.76159 -4.09375,2.8125 -1.29731,1.05091 -2.52467,2.21441 -3.65625,3.4375 -0.0125,0.0135 -0.0187,0.0489 -0.0312,0.0625 -1.20978,1.2519 -2.29002,2.60725 -3.28125,4.03125 -0.99123,1.424 -1.90187,2.93187 -2.6875,4.46875 -0.78563,1.53688 -1.46951,3.09697 -2.0625,4.6875 -0.44563,1.19526 -0.78175,2.39747 -1.125,3.59375 l 0,32.375 c 0.30096,-0.002 0.5056,-0.0256 0.84375,-0.0312 0.0156,-2.6e-4 0.0155,2.8e-4 0.0312,0 0.82196,5.06026 2.07761,12.83413 3.15625,19.78125 0.549,3.53595 1.04431,6.82724 1.40625,9.40625 0.36194,2.57901 0.59,4.60313 0.59375,4.90625 0.002,2.03137 -0.16454,2.82049 -0.46875,3.28125 -0.29977,0.45404 -1.12985,1.07462 -3.03125,2.03125 -0.0277,0.0141 -0.0339,0.0481 -0.0625,0.0625 -0.93808,0.44196 -1.72754,0.82695 -2.40625,1.46875 -0.025,0.0236 -0.0379,0.0687 -0.0625,0.0937 l 0,4.53125 z"
     style="fill:#ffffff;fill-opacity:1;fill-rule:nonzero;stroke:none" /><path
     id="path34"
     transform="matrix(0.8,0,0,-0.8,111.358,713.167)"
     d="m 103,151.03125 c -0.18651,0.0169 -0.33642,0.04 -0.46875,0.0625 -0.0136,0.001 -0.08,-0.001 -0.0937,0 -3.3428,0.3965 -8.771225,1.97511 -18.34375,3.53125 l -12.125,2 c -1.843625,0.29972 -4.807988,-0.32613 -6.09375,-1 l -0.03125,0.0937 c -0.918975,-0.52228 -1.611488,-0.32441 -2.125,-0.0937 -0.569462,0.25579 -1.021062,0.6678 -1.5,1.21875 l -0.0625,0.0937 -0.0625,0.0625 c -0.82015,1.1396 -0.579,2.39587 -0.5625,2.5 0.316075,1.94826 0.3296,5.26798 0,7.84375 -0.005,0.0311 0.005,0.0629 0,0.0937 -0.334625,2.07605 -0.570925,3.63344 -0.3125,5.21875 0.160513,0.99587 0.61645,1.78234 1.15625,2.40625 0.2699,0.31196 0.5774,0.57296 0.96875,0.8125 0.39135,0.23954 0.923538,0.50918 1.75,0.375 1.345188,-0.21878 2.051725,-1.22254 2.4375,-1.9375 0.361113,-0.66925 0.5223,-1.2535 0.65625,-1.6875 0.0091,-0.0296 0.0225,-0.0973 0.03125,-0.125 0.75975,-1.84626 1.984,-4.04086 3.15625,-5.78125 0.596938,-0.88625 1.21295,-1.63214 1.65625,-2.125 0.2046,-0.22747 0.3685,-0.38488 0.46875,-0.46875 3.03875,-0.48661 6.91695,-1.00328 10.21875,-1.375 1.695063,-0.19082 3.223538,-0.33812 4.375,-0.4375 0.0635,-0.005 0.095,0.005 0.15625,0 -4.575725,11.05279 -10.899838,26.45888 -13.625,31.875 l 0,0.0312 c -1.513475,3.2363 -3.293388,6.95858 -4.6875,10 -0.69705,1.52071 -1.3191,2.85602 -1.75,3.90625 -0.21545,0.52511 -0.370088,0.98022 -0.5,1.375 -0.065,0.19739 -0.110875,0.38725 -0.15625,0.59375 -0.04525,0.2065 -0.15475,0.37266 -0.0625,0.9375 0.233475,1.44428 0.93595,1.77751 1.5625,2.25 0.313275,0.23625 0.655888,0.45769 1.03125,0.625 0.375362,0.16731 0.768525,0.41329 1.59375,0.28125 l 0.03125,-0.0312 0.0625,0 c 3.133425,-0.64941 6.426663,-1.56368 12.1875,-2.5 3.123775,-0.50766 9.531663,-1.39745 15.25,-2.15625 2.85917,-0.3794 5.55942,-0.73339 7.59375,-1 2.03433,-0.26661 3.20244,-0.395 3.65625,-0.46875 l 0.0625,0 c 0.74893,-0.12364 1.01075,-0.44049 1.3125,-0.6875 0.30175,-0.24701 0.5519,-0.52411 0.78125,-0.8125 0.22935,-0.28839 0.44975,-0.56888 0.625,-0.9375 0.13644,-0.28701 0.18125,-0.73381 0.1875,-1.25 l 0.0937,0 c 0.0724,-2.34196 0.4237,-5.26766 0.75,-7.84375 0.3263,-2.57609 0.6395,-4.7147 0.6875,-6.03125 l 0,-0.0312 0,-0.0312 c 0.003,-0.73104 -0.10103,-1.48605 -0.5,-2.34375 -0.19949,-0.42885 -0.51093,-0.87095 -1.03125,-1.28125 -0.52032,-0.4103 -1.3581,-0.687 -2.125,-0.5625 -0.82735,0.13432 -1.19424,0.50674 -1.5,0.8125 -0.30576,0.30576 -0.53939,0.63964 -0.78125,1 -0.47811,0.71239 -0.92987,1.56539 -1.40625,2.5625 -0.005,0.0116 0.005,0.02 0,0.0312 -1.68789,3.44334 -3.58778,6.54619 -5.0625,8.59375 -0.79863,1.10931 -0.88249,1.2389 -1.71875,1.375 -2.579688,0.41933 -6.603413,0.90764 -10.0625,1.25 -1.729538,0.17117 -3.316587,0.32712 -4.53125,0.40625 -0.239575,0.0156 -0.355437,-0.0112 -0.5625,0 4.24735,-10.28 11.861125,-28.92424 14.40625,-34.4375 2.47232,-5.34649 4.40964,-8.30087 6.21875,-11.8125 0.005,-0.009 -0.005,-0.0538 0,-0.0625 0.50251,-0.99054 0.30947,-1.85448 0.0312,-2.5625 -0.28186,-0.71727 -0.68846,-1.38566 -1.5625,-1.84375 -0.29812,-0.15625 -0.54979,-0.35962 -1.09375,-0.46875 -0.25445,-0.0511 -0.46974,-0.0481 -0.65625,-0.0312 z"
     style="fill:#ffffff;fill-opacity:1;fill-rule:nonzero;stroke:none" /><path
     id="path42"
     transform="matrix(0.8,0,0,-0.8,111.358,713.167)"
     d="m 154.28125,142.71875 c -0.18651,0.0169 -0.33642,0.04 -0.46875,0.0625 l 0,-0.0312 c -3.33751,0.38831 -8.85569,1.99998 -18.46875,3.5625 L 123.25,148.25 c -1.84538,0.29985 -4.80767,-0.26345 -6.09375,-0.9375 l -0.0312,0.0937 c -0.92414,-0.52918 -1.57849,-0.32504 -2.09375,-0.0937 -0.56988,0.25581 -1.05246,0.66698 -1.53125,1.21875 l -0.0937,0.0625 -0.0312,0.0625 c -0.82283,1.13906 -0.54775,2.42712 -0.53125,2.53125 0.31765,1.95791 0.33262,5.26129 0,7.84375 -0.002,0.0156 0.002,0.0156 0,0.0312 -0.34125,2.1021 -0.57073,3.65569 -0.3125,5.25 0.16141,0.9942 0.58559,1.75124 1.125,2.375 0.26971,0.31188 0.57744,0.57285 0.96875,0.8125 0.39131,0.23965 0.8924,0.54041 1.71875,0.40625 1.34519,-0.21878 2.05174,-1.19155 2.4375,-1.90625 0.38576,-0.7147 0.58406,-1.38024 0.71875,-1.8125 0.761,-1.84426 2.01821,-4.07658 3.1875,-5.8125 0.59703,-0.88635 1.15043,-1.66336 1.59375,-2.15625 0.20395,-0.22676 0.36838,-0.35337 0.46875,-0.4375 3.03811,-0.4866 6.91696,-0.97204 10.21875,-1.34375 1.69505,-0.19082 3.28589,-0.36937 4.4375,-0.46875 0.0797,-0.007 0.1115,0.006 0.1875,0 -4.57724,11.05714 -10.95836,26.45096 -13.6875,31.875 l 0,0.0312 -0.0312,0.0312 c -1.51279,3.23617 -3.29356,6.95861 -4.6875,10 -0.69696,1.5207 -1.28788,2.85604 -1.71875,3.90625 -0.21544,0.52511 -0.37009,0.98022 -0.5,1.375 -0.065,0.19739 -0.11087,0.38726 -0.15625,0.59375 -0.0454,0.20649 -0.186,0.37266 -0.0937,0.9375 0.23329,1.44314 0.99872,1.77737 1.625,2.25 0.31314,0.23631 0.62465,0.4576 1,0.625 0.37535,0.16738 0.73739,0.38203 1.5625,0.25 l 0.0312,0 0.0625,0 c 3.13343,-0.64941 6.45791,-1.62618 12.21875,-2.5625 3.12377,-0.50766 9.50041,-1.33495 15.21875,-2.09375 2.85917,-0.3794 5.55942,-0.76464 7.59375,-1.03125 2.03433,-0.26661 3.26494,-0.42625 3.71875,-0.5 0.751,-0.12192 1.04124,-0.37755 1.34375,-0.625 0.30251,-0.24745 0.55185,-0.52379 0.78125,-0.8125 0.2294,-0.28871 0.41874,-0.60005 0.59375,-0.96875 0.13631,-0.28707 0.18125,-0.73419 0.1875,-1.25 l 0.125,0 c 0.0724,-2.34196 0.42355,-5.23649 0.75,-7.8125 0.32645,-2.57601 0.6075,-4.71597 0.65625,-6.03125 l 0,-0.0312 0,-0.0312 c 0.002,-0.7281 -0.10103,-1.48605 -0.5,-2.34375 -0.19949,-0.42885 -0.44816,-0.90217 -0.96875,-1.3125 -0.52059,-0.41033 -1.38966,-0.68688 -2.15625,-0.5625 -0.82746,0.13434 -1.19432,0.50663 -1.5,0.8125 -0.30568,0.30587 -0.5396,0.63966 -0.78125,1 -0.47777,0.71244 -0.9612,1.59675 -1.4375,2.59375 -0.005,0.0115 0.005,0.02 0,0.0312 -1.68786,3.44329 -3.55655,6.54621 -5.03125,8.59375 -0.79814,1.10864 -0.88389,1.239 -1.71875,1.375 -2.57969,0.41933 -6.57216,0.87639 -10.03125,1.21875 -1.72954,0.17117 -3.37909,0.29587 -4.59375,0.375 -0.25585,0.0166 -0.40646,0.02 -0.625,0.0312 4.24251,-10.27076 11.95075,-28.88776 14.5,-34.40625 2.47878,-5.35922 4.37433,-8.35159 6.1875,-11.875 0.52781,-1.00706 0.34489,-1.90794 0.0625,-2.625 -0.28239,-0.71706 -0.68894,-1.35466 -1.5625,-1.8125 -0.29812,-0.15625 -0.54979,-0.32837 -1.09375,-0.4375 -0.25445,-0.0511 -0.46974,-0.0481 -0.65625,-0.0312 z"
     style="fill:#ffffff;fill-opacity:1;fill-rule:nonzero;stroke:none" /><path
     d="m 270.4292,604.2119 9.112,1.48 c 8.027,1.305 11.562,4.907 10.603,10.809 -0.902,5.553 -5.064,7.728 -12.484,6.522 l -10.023,-1.628 2.792,-17.183 z m 3.49,-19.008 5.245,-32.282 -27.662,-4.495 -14.436,88.844 37.946,6.166 c 9.458,1.537 16.827,1.619 22.105,0.251 5.276,-1.37 9.721,-4.056 13.333,-8.055 3.611,-4.001 5.869,-8.778 6.771,-14.332 1.375,-8.461 -0.465,-15.774 -5.52,-21.941 -5.056,-6.166 -12.508,-10.049 -22.357,-11.649 l -15.425,-2.507 z"
     style="fill:#ffffff;fill-opacity:1;fill-rule:nonzero;stroke:none"
     id="path50" /><path
     d="m 372.4355,587.3838 c 4.6,0.748 7.582,3.292 8.948,7.634 1.365,4.341 1.181,11.85 -0.553,22.524 -2.51,15.447 -7.91,22.497 -16.198,21.151 -8.939,-1.453 -11.976,-10.988 -9.114,-28.605 2.687,-16.531 8.326,-24.1 16.917,-22.704 m 3.409,-20.155 c -12.497,-2.031 -23.356,0.457 -32.578,7.466 -9.222,7.007 -14.961,17.454 -17.218,31.34 -2.157,13.277 -0.176,24.856 5.947,34.736 6.121,9.879 15.864,15.905 29.229,18.077 12.366,2.01 23.107,-0.432 32.221,-7.324 9.113,-6.892 14.778,-17.15 16.992,-30.774 2.292,-14.103 0.201,-26.045 -6.271,-35.824 -6.471,-9.783 -15.913,-15.681 -28.322,-17.697"
     style="fill:#ffffff;fill-opacity:1;fill-rule:nonzero;stroke:none"
     id="path54" /><path
     d="m 448.2461,633.106 9.111,1.48 c 8.028,1.305 11.563,4.907 10.604,10.809 -0.902,5.553 -5.065,7.728 -12.484,6.522 l -10.023,-1.628 2.792,-17.183 z m 3.489,-19.008 5.245,-32.282 -27.662,-4.495 -14.436,88.844 37.946,6.166 c 9.459,1.537 16.828,1.619 22.105,0.251 5.277,-1.37 9.721,-4.056 13.334,-8.055 3.611,-4.001 5.869,-8.778 6.771,-14.332 1.375,-8.461 -0.466,-15.774 -5.521,-21.941 -5.054,-6.166 -12.507,-10.049 -22.356,-11.649 l -15.426,-2.507 z"
     style="fill:#ffffff;fill-opacity:1;fill-rule:nonzero;stroke:none"
     id="path58" /></g></g></svg>