<?xml version="1.0" encoding="UTF-8" standalone="no"?>
<svg
   xmlns:dc="http://purl.org/dc/elements/1.1/"
   xmlns:cc="http://creativecommons.org/ns#"
   xmlns:rdf="http://www.w3.org/1999/02/22-rdf-syntax-ns#"
   xmlns:svg="http://www.w3.org/2000/svg"
   xmlns="http://www.w3.org/2000/svg"
   xmlns:sodipodi="http://sodipodi.sourceforge.net/DTD/sodipodi-0.dtd"
   xmlns:inkscape="http://www.inkscape.org/namespaces/inkscape"
   version="1.1"
   width="350"
   height="350"
   id="svg2"
   inkscape:version="0.48.3.1 r9886"
   sodipodi:docname="qrcode_251405.svg">
  <metadata
     id="metadata10">
    <rdf:RDF>
      <cc:Work
         rdf:about="">
        <dc:format>image/svg+xml</dc:format>
        <dc:type
           rdf:resource="http://purl.org/dc/dcmitype/StillImage" />
        <dc:title></dc:title>
      </cc:Work>
    </rdf:RDF>
  </metadata>
  <defs
     id="defs8" />
  <sodipodi:namedview
     pagecolor="#ffffff"
     bordercolor="#666666"
     borderopacity="1"
     objecttolerance="10"
     gridtolerance="10"
     guidetolerance="10"
     inkscape:pageopacity="0"
     inkscape:pageshadow="2"
     inkscape:window-width="640"
     inkscape:window-height="480"
     id="namedview6"
     showgrid="false"
     inkscape:zoom="0.67428571"
     inkscape:cx="175"
     inkscape:cy="175"
     inkscape:window-x="0"
     inkscape:window-y="25"
     inkscape:window-maximized="0"
     inkscape:current-layer="svg2" />
  <path
     style="fill:#000000; stroke:none;"
     d="M10 10L10 80L80 80L80 10L10 10M110 10L110 20L100 20L100 30L90 30L90 50L100 50L100 30L110 30L110 50L120 50L120 40L130 40L130 80L140 80L140 70L150 70L150 90L140 90L140 110L130 110L130 100L120 100L120 90L110 90L110 80L120 80L120 70L110 70L110 80L100 80L100 70L90 70L90 80L100 80L100 90L110 90L110 100L90 100L90 90L70 90L70 100L60 100L60 90L40 90L40 100L60 100L60 110L40 110L40 120L30 120L30 130L40 130L40 140L20 140L20 130L10 130L10 150L50 150L50 170L70 170L70 180L80 180L80 190L70 190L70 200L80 200L80 210L60 210L60 200L50 200L50 210L30 210L30 200L40 200L40 190L50 190L50 180L40 180L40 170L30 170L30 180L20 180L20 190L30 190L30 200L20 200L20 220L10 220L10 260L30 260L30 250L20 250L20 220L40 220L40 250L50 250L50 260L90 260L90 280L100 280L100 290L90 290L90 310L100 310L100 320L120 320L120 310L130 310L130 320L140 320L140 330L130 330L130 340L150 340L150 310L160 310L160 330L170 330L170 340L180 340L180 330L200 330L200 310L210 310L210 330L220 330L220 340L230 340L230 330L220 330L220 300L230 300L230 290L220 290L220 300L210 300L210 290L200 290L200 280L190 280L190 270L200 270L200 260L210 260L210 280L240 280L240 310L230 310L230 320L240 320L240 310L250 310L250 300L280 300L280 310L290 310L290 320L300 320L300 330L290 330L290 340L310 340L310 330L340 330L340 300L330 300L330 290L340 290L340 280L320 280L320 270L330 270L330 240L340 240L340 230L330 230L330 220L340 220L340 210L330 210L330 220L310 220L310 210L320 210L320 190L310 190L310 180L300 180L300 170L320 170L320 160L300 160L300 170L290 170L290 180L280 180L280 170L270 170L270 190L260 190L260 170L250 170L250 160L270 160L270 140L280 140L280 160L290 160L290 140L280 140L280 130L300 130L300 120L310 120L310 130L340 130L340 110L320 110L320 90L300 90L300 100L280 100L280 130L270 130L270 140L260 140L260 150L250 150L250 130L260 130L260 120L270 120L270 100L260 100L260 40L250 40L250 30L240 30L240 10L220 10L220 20L230 20L230 30L210 30L210 20L200 20L200 10L180 10L180 30L170 30L170 20L160 20L160 10L110 10M250 10L250 20L260 20L260 10L250 10M270 10L270 80L340 80L340 10L270 10M70 20L70 70L20 70L20 20L70 20M130 20L130 30L140 30L140 20L160 20L160 30L170 30L170 40L180 40L180 30L190 30L190 20L200 20L200 50L210 50L210 90L220 90L220 70L230 70L230 60L220 60L220 50L230 50L230 40L240 40L240 50L230 50L230 60L240 60L240 70L250 70L250 100L260 100L260 120L250 120L250 130L240 130L240 150L250 150L250 160L240 160L240 170L250 170L250 190L240 190L240 200L230 200L230 210L240 210L240 220L220 220L220 240L250 240L250 210L280 210L280 230L300 230L300 220L290 220L290 200L280 200L280 190L290 190L290 200L300 200L300 220L310 220L310 230L320 230L320 240L310 240L310 250L320 250L320 260L310 260L310 250L250 250L250 270L220 270L220 240L210 240L210 230L200 230L200 210L190 210L190 220L180 220L180 230L170 230L170 260L160 260L160 250L150 250L150 240L140 240L140 230L150 230L150 220L140 220L140 210L130 210L130 200L140 200L140 190L120 190L120 200L80 200L80 190L100 190L100 180L90 180L90 160L110 160L110 150L90 150L90 140L80 140L80 150L70 150L70 160L80 160L80 170L70 170L70 160L60 160L60 150L50 150L50 140L80 140L80 130L70 130L70 120L90 120L90 110L70 110L70 100L90 100L90 110L100 110L100 130L120 130L120 120L110 120L110 110L120 110L120 120L130 120L130 130L120 130L120 140L130 140L130 150L150 150L150 140L160 140L160 150L150 150L150 160L140 160L140 180L180 180L180 170L160 170L160 160L170 160L170 150L180 150L180 130L140 130L140 120L180 120L180 110L190 110L190 80L180 80L180 90L170 90L170 100L160 100L160 110L150 110L150 100L160 100L160 90L170 90L170 80L160 80L160 70L150 70L150 60L140 60L140 40L130 40L130 30L120 30L120 20L130 20M330 20L330 70L280 70L280 20L330 20M30 30L30 60L60 60L60 30L30 30M140 30L140 40L150 40L150 30L140 30M290 30L290 60L320 60L320 30L290 30M150 50L150 60L160 60L160 50L150 50M170 50L170 80L180 80L180 50L170 50M190 50L190 60L200 60L200 50L190 50M190 70L190 80L200 80L200 70L190 70M230 70L230 90L240 90L240 70L230 70M200 90L200 100L210 100L210 110L190 110L190 120L200 120L200 130L220 130L220 140L210 140L210 150L200 150L200 140L190 140L190 160L180 160L180 170L190 170L190 160L200 160L200 180L190 180L190 190L160 190L160 200L140 200L140 210L150 210L150 220L160 220L160 200L180 200L180 210L170 210L170 220L180 220L180 210L190 210L190 200L200 200L200 190L210 190L210 160L220 160L220 150L230 150L230 130L240 130L240 120L250 120L250 100L210 100L210 90L200 90M10 100L10 110L30 110L30 100L10 100M230 110L230 120L220 120L220 110L230 110M300 110L300 120L290 120L290 110L300 110M90 130L90 140L100 140L100 130L90 130M110 140L110 150L120 150L120 140L110 140M300 140L300 150L330 150L330 140L300 140M330 160L330 200L340 200L340 160L330 160M120 170L120 180L130 180L130 170L120 170M230 170L230 190L240 190L240 170L230 170M40 180L40 190L30 190L30 180L40 180M210 200L210 220L220 220L220 200L210 200M100 210L100 220L110 220L110 210L120 210L120 220L130 220L130 230L120 230L120 240L130 240L130 250L140 250L140 260L120 260L120 250L110 250L110 260L90 260L90 250L70 250L70 240L90 240L90 230L70 230L70 220L90 220L90 210L100 210M60 220L60 230L50 230L50 220L60 220M110 220L110 230L120 230L120 220L110 220M150 230L150 240L160 240L160 230L150 230M270 230L270 240L280 240L280 230L270 230M300 230L300 240L310 240L310 230L300 230M60 240L60 250L50 250L50 240L60 240M100 240L100 250L110 250L110 240L100 240M190 240L190 260L180 260L180 240L190 240M230 250L230 260L240 260L240 250L230 250M290 260L290 290L260 290L260 260L290 260M10 270L10 340L80 340L80 270L10 270M130 270L130 280L140 280L140 270L150 270L150 280L140 280L140 290L150 290L150 310L130 310L130 300L120 300L120 310L100 310L100 290L110 290L110 270L130 270M270 270L270 280L280 280L280 270L270 270M310 270L310 280L300 280L300 270L310 270M70 280L70 330L20 330L20 280L70 280M190 280L190 290L200 290L200 300L190 300L190 320L180 320L180 300L190 300L190 290L170 290L170 280L190 280M30 290L30 320L60 320L60 290L30 290M130 290L130 300L140 300L140 290L130 290M320 290L320 300L330 300L330 310L320 310L320 320L310 320L310 290L320 290M170 300L170 310L160 310L160 300L170 300M300 300L300 310L290 310L290 300L300 300M270 320L270 330L280 330L280 320L270 320M110 330L110 340L120 340L120 330L110 330M250 330L250 340L260 340L260 330L250 330z"
     id="path4" />
</svg>
