<?xml version="1.0" encoding="UTF-8" standalone="no"?>
<!-- Created with Inkscape (http://www.inkscape.org/) -->

<svg
   xmlns:dc="http://purl.org/dc/elements/1.1/"
   xmlns:cc="http://creativecommons.org/ns#"
   xmlns:rdf="http://www.w3.org/1999/02/22-rdf-syntax-ns#"
   xmlns:svg="http://www.w3.org/2000/svg"
   xmlns="http://www.w3.org/2000/svg"
   xmlns:sodipodi="http://sodipodi.sourceforge.net/DTD/sodipodi-0.dtd"
   xmlns:inkscape="http://www.inkscape.org/namespaces/inkscape"
   id="svg2"
   version="1.1"
   inkscape:version="0.47 r22583"
   width="460.06393"
   height="521.72028"
   xml:space="preserve"
   sodipodi:docname="fizzpop_logo_paths.svg"
   inkscape:output_extension="org.inkscape.output.svg.inkscape"><metadata
     id="metadata8"><rdf:RDF><cc:Work
         rdf:about=""><dc:format>image/svg+xml</dc:format><dc:type
           rdf:resource="http://purl.org/dc/dcmitype/StillImage" /><dc:title></dc:title></cc:Work></rdf:RDF></metadata><defs
     id="defs6"><inkscape:perspective
   sodipodi:type="inkscape:persp3d"
   inkscape:vp_x="0 : 0.5 : 1"
   inkscape:vp_y="0 : 1000 : 0"
   inkscape:vp_z="1 : 0.5 : 1"
   inkscape:persp3d-origin="0.5 : 0.33333333 : 1"
   id="perspective10" /><clipPath
   clipPathUnits="userSpaceOnUse"
   id="clipPath20"><path
     d="m 0,841.89 595.276,0 L 595.276,0 0,0 0,841.89 z"
     id="path22" /></clipPath>

<inkscape:perspective
   id="perspective3303"
   inkscape:persp3d-origin="0.5 : 0.33333333 : 1"
   inkscape:vp_z="1 : 0.5 : 1"
   inkscape:vp_y="0 : 1000 : 0"
   inkscape:vp_x="0 : 0.5 : 1"
   sodipodi:type="inkscape:persp3d" /></defs><sodipodi:namedview
     pagecolor="#ffffff"
     bordercolor="#666666"
     borderopacity="1"
     objecttolerance="10"
     gridtolerance="10"
     guidetolerance="10"
     inkscape:pageopacity="0"
     inkscape:pageshadow="2"
     inkscape:window-width="1366"
     inkscape:window-height="745"
     id="namedview4"
     showgrid="false"
     inkscape:zoom="0.31714774"
     inkscape:cx="473.38806"
     inkscape:cy="277.50698"
     inkscape:window-x="0"
     inkscape:window-y="23"
     inkscape:window-maximized="1"
     inkscape:current-layer="g12" /><g
     id="g12"
     inkscape:groupmode="layer"
     inkscape:label="fizzpop_logo_paths"
     transform="matrix(1.25,0,0,-1.25,-1338.1648,891.45875)">





<g
   id="g2894"><path
     id="path2836"
     style="fill:#a81c23;fill-opacity:1;fill-rule:nonzero;stroke:none"
     d="m 1438.498,346.027 -367.14,0 0,367.14 367.14,0 0,-367.14 z" /><path
     style="fill:#ffffff;fill-opacity:1;fill-rule:nonzero;stroke:none"
     d="m 1071.358,537.367 c -0.5246,-0.53409 -0.9357,-1.44055 -0.8,-2.275 0.092,-0.56327 0.4146,-0.99208 0.8,-1.35 l 0,3.625 z"
     id="path2838" /><path
     style="fill:#ffffff;fill-opacity:1;fill-rule:nonzero;stroke:none"
     d="m 1071.358,596.067 0,-25.9 c 0.2408,0.002 0.4045,0.0205 0.675,0.025 0.013,2.1e-4 0.012,-2.2e-4 0.025,0 0.6575,-4.04821 1.662,-10.2673 2.525,-15.825 0.4392,-2.82876 0.8354,-5.46179 1.125,-7.525 0.2895,-2.06321 0.472,-3.6825 0.475,-3.925 0,-1.6251 -0.1317,-2.25639 -0.375,-2.625 -0.2399,-0.36323 -0.9039,-0.8597 -2.425,-1.625 -0.022,-0.0113 -0.027,-0.0385 -0.05,-0.05 -0.7505,-0.35357 -1.3821,-0.66156 -1.925,-1.175 -0.02,-0.0189 -0.03,-0.055 -0.05,-0.075 l 0,-3.625 c 0.2262,-0.2101 0.4514,-0.42552 0.725,-0.55 0.7395,-0.3365 1.5813,-0.3989 2.5,-0.25 l 0.05,0 c 1.8393,0.29934 5.1222,1.39393 8.7,1.975 3.417,0.55538 7.5477,0.86211 9.625,1.2 1.036,0.16811 1.8478,0.51397 2.475,1.05 0.6272,0.53603 1.039,1.39184 0.9,2.25 -0.1192,0.73 -0.6721,1.48293 -1.325,1.875 -0.6529,0.39207 -1.3891,0.5777 -2.375,0.775 l -0.075,0.025 -0.05,0 c -2.5587,0.27945 -3.7321,0.65605 -4.125,0.95 -0.3886,0.2907 -0.6089,0.79928 -0.975,2.4 -8e-4,0.007 0,0.018 0,0.025 -1.3241,6.18904 -4.1521,23.25177 -4.7,26.625 4.4526,1.21171 14.0838,2.6765 16.875,2.775 0.063,-0.0234 0.1468,-0.0308 0.2,-0.075 0.078,-0.0649 0.108,-0.1726 0.125,-0.2 0.7708,-4.76649 3.3135,-21.79646 4.05,-28.3 0.065,-0.63371 0.034,-0.80205 -0.3,-1.225 -0.3336,-0.42295 -1.1131,-1.03891 -2.4,-1.825 l 0.025,-0.025 c -0.8248,-0.47366 -1.4536,-0.84656 -1.95,-1.375 -0.5056,-0.53814 -0.818,-1.44524 -0.7,-2.175 0.1491,-0.91866 0.9311,-1.74741 1.7,-2 0.7688,-0.25259 1.4807,-0.1919 2.2,-0.075 2.7155,0.4407 5.602,1.33184 9.1,1.9 2.6484,0.43134 5.4241,0.54867 8.2,1 0.719,0.11686 1.4783,0.30576 2.175,0.725 0.3483,0.20962 0.6657,0.5192 0.95,0.95 0.2843,0.4308 0.4702,1.04234 0.375,1.625 -0.083,0.5126 -0.4598,1.4328 -1.175,1.9 -0.7152,0.4672 -1.4589,0.6089 -2.6,0.775 l -0.025,0 c -1.6838,0.20644 -2.7628,0.45393 -3.25,0.7 -0.4778,0.24129 -0.559,0.35702 -0.75,1.05 -8e-4,0.004 8e-4,0.021 0,0.025 -0.864,3.3644 -1.4437,6.81885 -4.825,27.625 -0.485,2.9863 -0.7222,5.3402 -0.95,7 -0.1139,0.8299 -0.1993,1.49266 -0.375,2.075 -0.088,0.29117 -0.2014,0.54518 -0.475,0.9 -0.2736,0.35482 -0.9931,0.80684 -1.65,0.7 -1.3936,-0.22741 -2.6214,-0.94878 -3.6,-1.425 l -0.025,0 c -1.0207,-0.51435 -1.727,-0.95604 -3.425,-1.5 -1.6979,-0.54396 -4.3824,-1.16636 -9.075,-1.875 -0.1536,-0.025 -2.1999,-0.36027 -4.375,-0.7 -2.175,-0.33973 -4.6199,-0.6848 -5.1,-0.725 l -0.075,0 -0.05,-0.025 c -2.248,14.1841 -0.7252,21.263 0.975,24.05 l 0,0.025 c 1.3732,2.37438 2.698,3.25072 5,3.625 3.0455,0.38369 5.7556,-0.29984 8.175,-2.125 l 0.025,-0.025 0.05,0 c 1.1785,-0.80199 2.2491,-1.49522 3.125,-2 0.438,-0.25239 0.795,-0.46588 1.175,-0.625 0.3801,-0.1591 0.6764,-0.37506 1.45,-0.25 0.8332,0.13527 1.3305,0.49656 1.95,0.95 0.6196,0.45344 1.258,1.02703 1.85,1.7 1.1841,1.34594 2.3381,3.09775 2,5.175 l 0.025,0 c -0.1841,1.13648 -0.8133,2.14927 -1.75,3.05 -0.022,0.0212 -0.028,0.0539 -0.05,0.075 l -0.025,0.025 c -1.5095,1.58641 -4.4529,3.58046 -9.475,3.625 -1.1589,0.0103 -2.435,-0.0991 -3.825,-0.325 -5.0881,-0.82699 -9.8789,-3.78611 -13.5,-7.7 -0.01,-0.0108 -0.015,-0.0391 -0.025,-0.05 -3.6308,-3.7572 -5.9542,-8.64748 -7.325,-13.425 z"
     id="path2840" /><path
     id="path2842"
     d="m 1153.758,592.342 c -0.1492,-0.0135 -0.2691,-0.032 -0.375,-0.05 -0.011,-10e-4 -0.064,10e-4 -0.075,0 -2.6742,-0.3172 -7.017,-1.58009 -14.675,-2.825 l -9.7,-1.6 c -1.4749,-0.23978 -3.8464,0.2609 -4.875,0.8 l -0.025,-0.075 c -0.7352,0.41782 -1.2892,0.25953 -1.7,0.075 -0.4556,-0.20463 -0.8168,-0.53424 -1.2,-0.975 l -0.05,-0.075 -0.05,-0.05 c -0.6561,-0.91168 -0.4632,-1.9167 -0.45,-2 0.2529,-1.55861 0.2637,-4.21438 0,-6.275 0,-0.0249 0,-0.0503 0,-0.075 -0.2677,-1.66084 -0.4567,-2.90675 -0.25,-4.175 0.1284,-0.7967 0.4932,-1.42587 0.925,-1.925 0.2159,-0.24957 0.4619,-0.45837 0.775,-0.65 0.3131,-0.19163 0.7388,-0.40734 1.4,-0.3 1.0761,0.17502 1.6414,0.97803 1.95,1.55 0.2889,0.5354 0.4178,1.0028 0.525,1.35 0.01,0.0237 0.018,0.0778 0.025,0.1 0.6078,1.47701 1.5872,3.23269 2.525,4.625 0.4775,0.709 0.9704,1.30571 1.325,1.7 0.1637,0.18198 0.2948,0.3079 0.375,0.375 2.431,0.38929 5.5336,0.80262 8.175,1.1 1.3561,0.15266 2.5788,0.2705 3.5,0.35 0.051,0.004 0.076,-0.004 0.125,0 -3.6606,-8.84223 -8.7199,-21.1671 -10.9,-25.5 l 0,-0.025 c -1.2108,-2.58904 -2.6347,-5.56686 -3.75,-8 -0.5576,-1.21657 -1.0553,-2.28482 -1.4,-3.125 -0.1724,-0.42009 -0.2961,-0.78418 -0.4,-1.1 -0.052,-0.15791 -0.089,-0.3098 -0.125,-0.475 -0.036,-0.1652 -0.1238,-0.29813 -0.05,-0.75 0.1868,-1.15542 0.7488,-1.42201 1.25,-1.8 0.2506,-0.189 0.5247,-0.36615 0.825,-0.5 0.3003,-0.13385 0.6148,-0.33063 1.275,-0.225 l 0.025,0.025 0.05,0 c 2.5067,0.51953 5.1413,1.25094 9.75,2 2.499,0.40613 7.6253,1.11796 12.2,1.725 2.2873,0.30352 4.4475,0.58671 6.075,0.8 1.6275,0.21329 2.562,0.316 2.925,0.375 l 0.05,0 c 0.5991,0.0989 0.8086,0.35239 1.05,0.55 0.2414,0.19761 0.4415,0.41929 0.625,0.65 0.1835,0.23071 0.3598,0.4551 0.5,0.75 0.1091,0.22961 0.145,0.58705 0.15,1 l 0.075,0 c 0.058,1.87357 0.339,4.21413 0.6,6.275 0.261,2.06087 0.5116,3.77176 0.55,4.825 l 0,0.025 0,0.025 c 0,0.58483 -0.081,1.18884 -0.4,1.875 -0.1596,0.34308 -0.4087,0.69676 -0.825,1.025 -0.4163,0.32824 -1.0865,0.5496 -1.7,0.45 -0.6619,-0.10746 -0.9554,-0.40539 -1.2,-0.65 -0.2446,-0.24461 -0.4315,-0.51171 -0.625,-0.8 -0.3825,-0.56991 -0.7439,-1.25231 -1.125,-2.05 0,-0.009 0,-0.016 0,-0.025 -1.3503,-2.75467 -2.8702,-5.23695 -4.05,-6.875 -0.6389,-0.88745 -0.706,-0.99112 -1.375,-1.1 -2.0638,-0.33546 -5.2827,-0.72611 -8.05,-1 -1.3836,-0.13694 -2.6533,-0.2617 -3.625,-0.325 -0.1917,-0.0125 -0.2844,0.009 -0.45,0 3.3979,8.224 9.4889,23.13939 11.525,27.55 1.9779,4.27719 3.5277,6.6407 4.975,9.45 0,0.007 0,0.043 0,0.05 0.402,0.79243 0.2476,1.48358 0.025,2.05 -0.2255,0.57382 -0.5508,1.10853 -1.25,1.475 -0.2385,0.125 -0.4398,0.2877 -0.875,0.375 -0.2036,0.0409 -0.3758,0.0385 -0.525,0.025 z"
     style="fill:#ffffff;fill-opacity:1;fill-rule:nonzero;stroke:none" /><path
     id="path2844"
     d="m 1194.783,598.992 c -0.1492,-0.0135 -0.2691,-0.032 -0.375,-0.05 l 0,0.025 c -2.67,-0.31065 -7.0846,-1.59998 -14.775,-2.85 l -9.675,-1.55 c -1.4763,-0.23988 -3.8461,0.21076 -4.875,0.75 l -0.025,-0.075 c -0.7393,0.42334 -1.2628,0.26003 -1.675,0.075 -0.4559,-0.20465 -0.842,-0.53358 -1.225,-0.975 l -0.075,-0.05 -0.025,-0.05 c -0.6583,-0.91125 -0.4382,-1.9417 -0.425,-2.025 0.2541,-1.56633 0.2661,-4.20903 0,-6.275 0,-0.0125 0,-0.0125 0,-0.025 -0.273,-1.68168 -0.4566,-2.92455 -0.25,-4.2 0.1291,-0.79536 0.4685,-1.40099 0.9,-1.9 0.2158,-0.2495 0.462,-0.45828 0.775,-0.65 0.3131,-0.19172 0.7139,-0.43233 1.375,-0.325 1.0762,0.17502 1.6414,0.95324 1.95,1.525 0.3086,0.57176 0.4673,1.10419 0.575,1.45 0.6088,1.47541 1.6146,3.26126 2.55,4.65 0.4776,0.70908 0.9203,1.33069 1.275,1.725 0.1632,0.18141 0.2947,0.2827 0.375,0.35 2.4305,0.38928 5.5336,0.77763 8.175,1.075 1.356,0.15266 2.6287,0.2955 3.55,0.375 0.064,0.006 0.089,-0.005 0.15,0 -3.6618,-8.84571 -8.7667,-21.16077 -10.95,-25.5 l 0,-0.025 -0.025,-0.025 c -1.2102,-2.58894 -2.6348,-5.56689 -3.75,-8 -0.5576,-1.21656 -1.0303,-2.28483 -1.375,-3.125 -0.1723,-0.42009 -0.2961,-0.78418 -0.4,-1.1 -0.052,-0.15791 -0.089,-0.30981 -0.125,-0.475 -0.036,-0.16519 -0.1488,-0.29813 -0.075,-0.75 0.1866,-1.15451 0.799,-1.4219 1.3,-1.8 0.2505,-0.18905 0.4997,-0.36608 0.8,-0.5 0.3003,-0.1339 0.5899,-0.30562 1.25,-0.2 l 0.025,0 0.05,0 c 2.5067,0.51953 5.1663,1.30094 9.775,2.05 2.499,0.40613 7.6003,1.06796 12.175,1.675 2.2873,0.30352 4.4475,0.61171 6.075,0.825 1.6275,0.21329 2.6119,0.341 2.975,0.4 0.6008,0.0975 0.833,0.30204 1.075,0.5 0.242,0.19796 0.4415,0.41903 0.625,0.65 0.1835,0.23097 0.335,0.48004 0.475,0.775 0.1091,0.22966 0.145,0.58735 0.15,1 l 0.1,0 c 0.058,1.87357 0.3388,4.18919 0.6,6.25 0.2612,2.06081 0.486,3.77278 0.525,4.825 l 0,0.025 0,0.025 c 0,0.58248 -0.081,1.18884 -0.4,1.875 -0.1596,0.34308 -0.3585,0.72174 -0.775,1.05 -0.4165,0.32826 -1.1117,0.5495 -1.725,0.45 -0.662,-0.10747 -0.9555,-0.4053 -1.2,-0.65 -0.2445,-0.2447 -0.4317,-0.51173 -0.625,-0.8 -0.3822,-0.56995 -0.769,-1.2774 -1.15,-2.075 0,-0.009 0,-0.016 0,-0.025 -1.3503,-2.75463 -2.8452,-5.23697 -4.025,-6.875 -0.6385,-0.88691 -0.7071,-0.9912 -1.375,-1.1 -2.0638,-0.33546 -5.2577,-0.70111 -8.025,-0.975 -1.3836,-0.13694 -2.7033,-0.2367 -3.675,-0.3 -0.2047,-0.0133 -0.3252,-0.016 -0.5,-0.025 3.394,8.21661 9.5606,23.11021 11.6,27.525 1.983,4.28738 3.4995,6.68127 4.95,9.5 0.4222,0.80565 0.2759,1.52635 0.05,2.1 -0.2259,0.57365 -0.5511,1.08373 -1.25,1.45 -0.2385,0.125 -0.4398,0.2627 -0.875,0.35 -0.2036,0.0409 -0.3758,0.0385 -0.525,0.025 z"
     style="fill:#ffffff;fill-opacity:1;fill-rule:nonzero;stroke:none" /><path
     d="m 1230.4292,604.2119 9.112,1.48 c 8.027,1.305 11.562,4.907 10.603,10.809 -0.902,5.553 -5.064,7.728 -12.484,6.522 l -10.023,-1.628 2.792,-17.183 z m 3.49,-19.008 5.245,-32.282 -27.662,-4.495 -14.436,88.844 37.946,6.166 c 9.458,1.537 16.827,1.619 22.105,0.251 5.276,-1.37 9.721,-4.056 13.333,-8.055 3.611,-4.001 5.869,-8.778 6.771,-14.332 1.375,-8.461 -0.465,-15.774 -5.52,-21.941 -5.056,-6.166 -12.508,-10.049 -22.357,-11.649 l -15.425,-2.507 z"
     style="fill:#ffffff;fill-opacity:1;fill-rule:nonzero;stroke:none"
     id="path2846" /><path
     d="m 1332.4355,587.3838 c 4.6,0.748 7.582,3.292 8.948,7.634 1.365,4.341 1.181,11.85 -0.553,22.524 -2.51,15.447 -7.91,22.497 -16.198,21.151 -8.939,-1.453 -11.976,-10.988 -9.114,-28.605 2.687,-16.531 8.326,-24.1 16.917,-22.704 m 3.409,-20.155 c -12.497,-2.031 -23.356,0.457 -32.578,7.466 -9.222,7.007 -14.961,17.454 -17.218,31.34 -2.157,13.277 -0.176,24.856 5.947,34.736 6.121,9.879 15.864,15.905 29.229,18.077 12.366,2.01 23.107,-0.432 32.221,-7.324 9.113,-6.892 14.778,-17.15 16.992,-30.774 2.292,-14.103 0.201,-26.045 -6.271,-35.824 -6.471,-9.783 -15.913,-15.681 -28.322,-17.697"
     style="fill:#ffffff;fill-opacity:1;fill-rule:nonzero;stroke:none"
     id="path2848" /><path
     style="fill:#ffffff;fill-opacity:1;fill-rule:nonzero;stroke:none"
     d="m 1425.458,673.542 c -3.6842,-0.0416 -7.8955,-0.4315 -12.625,-1.2 l -37.95,-6.175 14.425,-88.85 27.675,4.5 -5.25,32.275 15.425,2.525 c 4.2593,0.69194 8.0621,1.8041 11.425,3.35 l -0.075,51.425 c -1.1491,0.4678 -2.3338,0.87777 -3.575,1.2 -2.6386,0.684 -5.7908,0.99162 -9.475,0.95 z m -6.15,-21.3 c 5.0358,-0.0502 7.9171,-2.33819 8.65,-6.85 0.959,-5.902 -2.572,-9.495 -10.6,-10.8 l -9.1,-1.475 -2.8,17.175 10.025,1.625 c 1.3911,0.22612 2.6629,0.33658 3.825,0.325 z"
     id="path2850" /><g
     id="text2852"
     transform="scale(1,-1)"><path
       id="path2867"
       style="font-size:61.38470078px;font-variant:normal;font-weight:normal;font-stretch:normal;writing-mode:lr-tb;fill:#a81c23;fill-opacity:1;fill-rule:nonzero;stroke:none;font-family:Franklin Gothic Heavy;-inkscape-font-specification:FranklinGothic-Heavy"
       d="m 1101.2718,-305.41211 -11.9292,0 0,-18.34347 c 0,-1.67847 -0.1899,-2.82744 -0.5695,-3.4469 -0.3597,-0.6394 -1.0691,-0.95911 -2.1281,-0.95914 -0.8193,3e-5 -1.5386,0.2498 -2.158,0.74933 -0.5995,0.47959 -0.9492,0.97914 -1.0491,1.49865 -0.1,0.51955 -0.1499,1.60857 -0.1499,3.26706 l 0,17.23447 -11.9592,0 0,-40.91314 11.9592,0 0,14.02736 c 2.1581,-2.81743 4.9755,-4.22616 8.4524,-4.22619 1.7584,3e-5 3.297,0.30975 4.6159,0.92916 1.3387,0.59949 2.3678,1.37879 3.0872,2.3379 0.7193,0.95916 1.1989,1.88832 1.4387,2.78748 0.2597,0.89922 0.3896,2.63765 0.3896,5.21531 l 0,19.84212" /><path
       id="path2869"
       style="font-size:61.38470078px;font-variant:normal;font-weight:normal;font-stretch:normal;writing-mode:lr-tb;fill:#a81c23;fill-opacity:1;fill-rule:nonzero;stroke:none;font-family:Franklin Gothic Heavy;-inkscape-font-specification:FranklinGothic-Heavy"
       d="m 1138.3294,-305.41211 -11.3897,0 c -0.2798,-1.29883 -0.4196,-2.71755 -0.4196,-4.25617 -2.1581,3.25707 -5.4251,4.8856 -9.8012,4.8856 -3.5968,0 -6.2943,-0.91917 -8.0927,-2.75751 -1.7784,-1.83834 -2.6676,-3.94644 -2.6676,-6.3243 0,-3.2171 1.4587,-5.81475 4.3761,-7.79298 2.9373,-1.99819 8.1326,-3.1971 15.5859,-3.59676 l 0,-0.68938 c 0,-1.33878 -0.3097,-2.22797 -0.9291,-2.6676 -0.5995,-0.43958 -1.4887,-0.65938 -2.6676,-0.65941 -2.7576,3e-5 -4.2962,1.10903 -4.6159,3.32701 l -10.9101,-1.01909 c 1.5585,-6.37422 6.8638,-9.56135 15.9156,-9.56138 2.4578,3e-5 4.7157,0.2498 6.7739,0.74932 2.0581,0.4796 3.6867,1.23892 4.8856,2.27795 1.1989,1.03909 1.9982,2.1381 2.3979,3.29703 0.4195,1.15898 0.6294,3.38697 0.6294,6.68398 l 0,12.16904 c 0,2.31791 0.3097,4.29613 0.9291,5.93465 m -12.4088,-14.26715 c -5.0954,0.53953 -7.6431,2.16806 -7.6431,4.8856 0,1.83835 1.0091,2.75752 3.0273,2.75752 1.2788,0 2.3678,-0.37965 3.267,-1.13898 0.8992,-0.7593 1.3488,-2.43779 1.3488,-5.03546 l 0,-1.46868" /><path
       id="path2871"
       style="font-size:61.38470078px;font-variant:normal;font-weight:normal;font-stretch:normal;writing-mode:lr-tb;fill:#a81c23;fill-opacity:1;fill-rule:nonzero;stroke:none;font-family:Franklin Gothic Heavy;-inkscape-font-specification:FranklinGothic-Heavy"
       d="m 1161.952,-317.70104 10.1908,0.86922 c -0.4796,3.5568 -1.9782,6.45419 -4.4959,8.69217 -2.4978,2.23798 -5.8248,3.35697 -9.981,3.35697 -4.6558,0 -8.4424,-1.45868 -11.3598,-4.37605 -2.8974,-2.93735 -4.3461,-6.69396 -4.3461,-11.26985 0,-4.67577 1.4387,-8.5223 4.3161,-11.53961 2.8974,-3.03723 6.654,-4.55586 11.2699,-4.55589 4.0963,3e-5 7.4333,1.14899 10.011,3.44689 2.5776,2.27798 4.0563,5.16537 4.436,8.6622 l -10.4606,0.86922 c -0.4396,-3.21708 -1.6585,-4.82563 -3.6567,-4.82566 -1.2789,3e-5 -2.218,0.5895 -2.8175,1.76841 -0.5795,1.15898 -0.8692,3.18715 -0.8692,6.08452 0,2.49776 0.2897,4.34609 0.8692,5.545 0.5995,1.19893 1.6285,1.79839 3.0872,1.79838 2.1381,10e-6 3.4069,-1.50863 3.8066,-4.52592" /><path
       id="path2873"
       style="font-size:61.38470078px;font-variant:normal;font-weight:normal;font-stretch:normal;writing-mode:lr-tb;fill:#a81c23;fill-opacity:1;fill-rule:nonzero;stroke:none;font-family:Franklin Gothic Heavy;-inkscape-font-specification:FranklinGothic-Heavy"
       d="m 1207.921,-335.89465 -9.2017,10.49055 10.2508,19.99199 -12.3489,0 -5.7249,-12.19901 -3.267,3.80657 0,8.39244 -11.2099,0 0,-40.91314 11.2099,0 0,16.51512 c 0,0.45961 -0.03,2.29795 -0.09,5.51503 0.7193,-1.01906 1.4486,-1.94822 2.188,-2.78749 l 7.6431,-8.81206 10.5505,0" /><path
       id="path2875"
       style="font-size:61.38470078px;font-variant:normal;font-weight:normal;font-stretch:normal;writing-mode:lr-tb;fill:#a81c23;fill-opacity:1;fill-rule:nonzero;stroke:none;font-family:Franklin Gothic Heavy;-inkscape-font-specification:FranklinGothic-Heavy"
       d="m 1230.9367,-316.35225 11.15,0.74932 c -0.6595,2.99731 -2.3479,5.555 -5.0655,7.67309 -2.6976,2.09811 -6.3543,3.14716 -10.9701,3.14716 -5.1354,0 -9.2317,-1.47866 -12.2889,-4.436 -3.0573,-2.97731 -4.5859,-6.66399 -4.5859,-11.06004 0,-4.55587 1.5087,-8.4024 4.526,-11.5396 3.0172,-3.13715 7.0436,-4.70573 12.0791,-4.70576 4.8756,3e-5 8.812,1.4787 11.8093,4.436 3.0173,2.95736 4.5259,6.98373 4.526,12.07912 -10e-5,0.41964 -0.01,0.99911 -0.03,1.73843 l -20.4116,0 c 0.04,1.91829 0.3796,3.347 1.0191,4.28614 0.6394,0.91918 1.8583,1.37877 3.6567,1.37876 2.5976,1e-5 4.1262,-1.24887 4.5858,-3.74662 m -0.7793,-7.91288 c -0.02,-2.05812 -0.4396,-3.43688 -1.2588,-4.13627 -0.7993,-0.71933 -1.7984,-1.079 -2.9973,-1.07903 -2.8375,3e-5 -4.2562,1.73846 -4.2562,5.2153 l 8.5123,0" /><path
       id="path2877"
       style="font-size:61.38470078px;font-variant:normal;font-weight:normal;font-stretch:normal;writing-mode:lr-tb;fill:#a81c23;fill-opacity:1;fill-rule:nonzero;stroke:none;font-family:Franklin Gothic Heavy;-inkscape-font-specification:FranklinGothic-Heavy"
       d="m 1258.216,-305.41211 -11.4497,0 0,-30.48254 9.951,0 0,6.29433 c 1.139,-4.57585 3.7866,-6.86378 7.9429,-6.86382 0.4196,4e-5 0.9991,0.04 1.7384,0.1199 l 0,10.64041 c -0.8392,-0.1998 -1.5886,-0.29971 -2.248,-0.29973 -3.9564,2e-5 -5.9346,2.20803 -5.9346,6.62403 l 0,13.96742" /><path
       id="path2879"
       style="font-size:61.38470078px;font-variant:normal;font-weight:normal;font-stretch:normal;writing-mode:lr-tb;fill:#a81c23;fill-opacity:1;fill-rule:nonzero;stroke:none;font-family:Franklin Gothic Heavy;-inkscape-font-specification:FranklinGothic-Heavy"
       d="m 1267.7018,-314.04433 9.4415,-1.28884 c 0.5395,2.19803 2.6776,3.29703 6.4142,3.29703 3.0972,0 4.6458,-0.59945 4.6458,-1.79838 0,-0.51952 -0.2997,-0.91916 -0.8992,-1.19892 -0.5994,-0.29972 -2.0182,-0.59945 -4.2561,-0.89919 -6.1945,-0.85922 -10.061,-2.19801 -11.5996,-4.01638 -1.5386,-1.83833 -2.3079,-3.87649 -2.3079,-6.1145 0,-3.11716 1.2988,-5.63489 3.8965,-7.55319 2.5976,-1.93822 6.0046,-2.90735 10.2208,-2.90738 7.3933,3e-5 12.109,2.66762 14.1472,8.00279 l -9.0518,1.70846 c -0.8393,-1.79836 -2.6077,-2.69755 -5.3052,-2.69757 -1.2789,2e-5 -2.238,0.17986 -2.8774,0.53951 -0.6195,0.33972 -0.9292,0.67941 -0.9292,1.01909 0,0.99912 0.9591,1.60857 2.8774,1.82835 4.9955,0.55951 8.3824,1.129 10.1609,1.70846 1.7783,0.5795 3.297,1.63854 4.5558,3.17714 1.2589,1.53863 1.8883,3.39695 1.8883,5.57498 0,3.337 -1.3987,5.98461 -4.1962,7.94284 -2.7775,1.95824 -6.614,2.93735 -11.5096,2.93735 -8.2526,0 -13.358,-3.08721 -15.3162,-9.26165" /><path
       id="path2881"
       style="font-size:61.38470078px;font-variant:normal;font-weight:normal;font-stretch:normal;writing-mode:lr-tb;fill:#a81c23;fill-opacity:1;fill-rule:nonzero;stroke:none;font-family:Franklin Gothic Heavy;-inkscape-font-specification:FranklinGothic-Heavy"
       d="m 1314.8925,-295.79078 -11.9592,0 0,-40.10387 11.0001,0 0,4.31611 c 1.5386,-3.297 4.406,-4.94551 8.6022,-4.94554 3.6367,3e-5 6.4842,1.41875 8.5423,4.25616 2.0582,2.81749 3.0872,6.66402 3.0873,11.53961 -10e-5,4.87562 -1.0591,8.75212 -3.1772,11.62952 -2.0981,2.87741 -4.8756,4.31611 -8.3325,4.31611 -3.3969,0 -5.9846,-1.29883 -7.763,-3.89649 l 0,12.88839 m 0,-20.77128 c 0,1.35878 0.3097,2.41783 0.9292,3.17713 0.6194,0.73934 1.3887,1.10901 2.3079,1.109 1.4387,1e-5 2.4278,-0.65939 2.9673,-1.97821 0.5395,-1.33879 0.8093,-3.38694 0.8093,-6.14447 0,-3.17712 -0.3097,-5.40511 -0.9292,-6.68398 -0.6194,-1.2988 -1.5486,-1.94822 -2.7874,-1.94824 -0.7394,2e-5 -1.4787,0.28976 -2.218,0.86921 -0.7194,0.5795 -1.0791,1.52865 -1.0791,2.84744 l 0,8.75212" /><path
       id="path2883"
       style="font-size:61.38470078px;font-variant:normal;font-weight:normal;font-stretch:normal;writing-mode:lr-tb;fill:#a81c23;fill-opacity:1;fill-rule:nonzero;stroke:none;font-family:Franklin Gothic Heavy;-inkscape-font-specification:FranklinGothic-Heavy"
       d="m 1369.6271,-305.41211 -11.3898,0 c -0.2798,-1.29883 -0.4196,-2.71755 -0.4196,-4.25617 -2.1581,3.25707 -5.4251,4.8856 -9.8012,4.8856 -3.5967,0 -6.2943,-0.91917 -8.0927,-2.75751 -1.7784,-1.83834 -2.6676,-3.94644 -2.6676,-6.3243 0,-3.2171 1.4587,-5.81475 4.3761,-7.79298 2.9373,-1.99819 8.1326,-3.1971 15.5859,-3.59676 l 0,-0.68938 c 0,-1.33878 -0.3097,-2.22797 -0.9291,-2.6676 -0.5995,-0.43958 -1.4887,-0.65938 -2.6676,-0.65941 -2.7576,3e-5 -4.2962,1.10903 -4.6159,3.32701 l -10.9101,-1.01909 c 1.5586,-6.37422 6.8638,-9.56135 15.9156,-9.56138 2.4578,3e-5 4.7158,0.2498 6.7739,0.74932 2.0581,0.4796 3.6867,1.23892 4.8856,2.27795 1.1989,1.03909 1.9982,2.1381 2.3979,3.29703 0.4195,1.15898 0.6294,3.38697 0.6294,6.68398 l 0,12.16904 c 0,2.31791 0.3097,4.29613 0.9292,5.93465 m -12.4089,-14.26715 c -5.0954,0.53953 -7.6431,2.16806 -7.6431,4.8856 0,1.83835 1.0091,2.75752 3.0273,2.75752 1.2788,0 2.3678,-0.37965 3.2671,-1.13898 0.8991,-0.7593 1.3487,-2.43779 1.3487,-5.03546 l 0,-1.46868" /><path
       id="path2885"
       style="font-size:61.38470078px;font-variant:normal;font-weight:normal;font-stretch:normal;writing-mode:lr-tb;fill:#a81c23;fill-opacity:1;fill-rule:nonzero;stroke:none;font-family:Franklin Gothic Heavy;-inkscape-font-specification:FranklinGothic-Heavy"
       d="m 1393.2496,-317.70104 10.1908,0.86922 c -0.4796,3.5568 -1.9782,6.45419 -4.4959,8.69217 -2.4978,2.23798 -5.8248,3.35697 -9.981,3.35697 -4.6558,0 -8.4424,-1.45868 -11.3598,-4.37605 -2.8974,-2.93735 -4.3461,-6.69396 -4.3461,-11.26985 0,-4.67577 1.4387,-8.5223 4.3161,-11.53961 2.8974,-3.03723 6.654,-4.55586 11.2699,-4.55589 4.0963,3e-5 7.4333,1.14899 10.011,3.44689 2.5776,2.27798 4.0563,5.16537 4.436,8.6622 l -10.4606,0.86922 c -0.4396,-3.21708 -1.6585,-4.82563 -3.6567,-4.82566 -1.2789,3e-5 -2.218,0.5895 -2.8175,1.76841 -0.5795,1.15898 -0.8692,3.18715 -0.8692,6.08452 0,2.49776 0.2897,4.34609 0.8692,5.545 0.5995,1.19893 1.6285,1.79839 3.0872,1.79838 2.1381,10e-6 3.407,-1.50863 3.8066,-4.52592" /><path
       id="path2887"
       style="font-size:61.38470078px;font-variant:normal;font-weight:normal;font-stretch:normal;writing-mode:lr-tb;fill:#a81c23;fill-opacity:1;fill-rule:nonzero;stroke:none;font-family:Franklin Gothic Heavy;-inkscape-font-specification:FranklinGothic-Heavy"
       d="m 1427.1221,-316.35225 11.15,0.74932 c -0.6594,2.99731 -2.3479,5.555 -5.0654,7.67309 -2.6976,2.09811 -6.3543,3.14716 -10.9701,3.14716 -5.1354,0 -9.2317,-1.47866 -12.289,-4.436 -3.0572,-2.97731 -4.5858,-6.66399 -4.5858,-11.06004 0,-4.55587 1.5086,-8.4024 4.5259,-11.5396 3.0172,-3.13715 7.0436,-4.70573 12.0791,-4.70576 4.8756,3e-5 8.812,1.4787 11.8094,4.436 3.0172,2.95736 4.5258,6.98373 4.5259,12.07912 -1e-4,0.41964 -0.01,0.99911 -0.03,1.73843 l -20.4116,0 c 0.04,1.91829 0.3796,3.347 1.0191,4.28614 0.6394,0.91918 1.8583,1.37877 3.6567,1.37876 2.5976,1e-5 4.1262,-1.24887 4.5858,-3.74662 m -0.7792,-7.91288 c -0.02,-2.05812 -0.4397,-3.43688 -1.2589,-4.13627 -0.7993,-0.71933 -1.7984,-1.079 -2.9973,-1.07903 -2.8375,3e-5 -4.2562,1.73846 -4.2562,5.2153 l 8.5124,0" /></g></g></g></svg>