  0
SECTION
  2
HEADER
  9
$ACADVER
  1
AC1014
  9
$HANDSEED
  5
FFFF
  9
$MEASUREMENT
 70
     1
  0
ENDSEC
  0
SECTION
  2
TABLES
  0
TABLE
  2
VPORT
  5
8
330
0
100
AcDbSymbolTable
 70
     4
  0
VPORT
  5
2E
330
8
100
AcDbSymbolTableRecord
100
AcDbViewportTableRecord
  2
*ACTIVE
 70
     0
 10
0.0
 20
0.0
 11
1.0
 21
1.0
 12
210.0
 22
148.5
 13
0.0
 23
0.0
 14
10.0
 24
10.0
 15
10.0
 25
10.0
 16
0.0
 26
0.0
 36
1.0
 17
0.0
 27
0.0
 37
0.0
 40
341.0
 41
1.24
 42
50.0
 43
0.0
 44
0.0
 50
0.0
 51
0.0
 71
     0
 72
   100
 73
     1
 74
     3
 75
     0
 76
     0
 77
     0
 78
     0
  0
ENDTAB
  0
TABLE
  2
LTYPE
  5
5
330
0
100
AcDbSymbolTable
 70
     1
  0
LTYPE
  5
14
330
5
100
AcDbSymbolTableRecord
100
AcDbLinetypeTableRecord
  2
BYBLOCK
 70
     0
  3

 72
    65
 73
     0
 40
0.0
  0
LTYPE
  5
15
330
5
100
AcDbSymbolTableRecord
100
AcDbLinetypeTableRecord
  2
BYLAYER
 70
     0
  3

 72
    65
 73
     0
 40
0.0
  0
LTYPE
  5
16
330
5
100
AcDbSymbolTableRecord
100
AcDbLinetypeTableRecord
  2
CONTINUOUS
 70
     0
  3
Solid line
 72
    65
 73
     0
 40
0.0
  0
ENDTAB
  0
TABLE
  2
LAYER
  5
2
100
AcDbSymbolTable
 70
2
  0
LAYER
  5
50
100
AcDbSymbolTableRecord
100
AcDbLayerTableRecord
  2
0
 70
0
  6
CONTINUOUS
  0
LAYER
  5
51
100
AcDbSymbolTableRecord
100
AcDbLayerTableRecord
  2
Layer_1
 70
0
  6
CONTINUOUS
  0
ENDTAB
  0
TABLE
  2
STYLE
  5
3
330
0
100
AcDbSymbolTable
 70
     1
  0
STYLE
  5
11
330
3
100
AcDbSymbolTableRecord
100
AcDbTextStyleTableRecord
  2
STANDARD
 70
     0
 40
0.0
 41
1.0
 50
0.0
 71
     0
 42
2.5
  3
txt
  4

  0
ENDTAB
  0
TABLE
  2
VIEW
  5
6
330
0
100
AcDbSymbolTable
 70
     0
  0
ENDTAB
  0
TABLE
  2
UCS
  5
7
330
0
100
AcDbSymbolTable
 70
     0
  0
ENDTAB
  0
TABLE
  2
APPID
  5
9
330
0
100
AcDbSymbolTable
 70
     2
  0
APPID
  5
12
330
9
100
AcDbSymbolTableRecord
100
AcDbRegAppTableRecord
  2
ACAD
 70
     0
  0
ENDTAB
  0
TABLE
  2
DIMSTYLE
  5
A
330
0
100
AcDbSymbolTable
 70
     1
  0
DIMSTYLE
105
27
330
A
100
AcDbSymbolTableRecord
100
AcDbDimStyleTableRecord
  2
ISO-25
 70
     0
  3

  4

  5

  6

  7

 40
1.0
 41
2.5
 42
0.625
 43
3.75
 44
1.25
 45
0.0
 46
0.0
 47
0.0
 48
0.0
140
2.5
141
2.5
142
0.0
143
0.03937007874016
144
1.0
145
0.0
146
1.0
147
0.625
 71
     0
 72
     0
 73
     0
 74
     0
 75
     0
 76
     0
 77
     1
 78
     8
170
     0
171
     3
172
     1
173
     0
174
     0
175
     0
176
     0
177
     0
178
     0
270
     2
271
     2
272
     2
273
     2
274
     3
340
11
275
     0
280
     0
281
     0
282
     0
283
     0
284
     8
285
     0
286
     0
287
     3
288
     0
  0
ENDTAB
  0
TABLE
  2
BLOCK_RECORD
  5
1
330
0
100
AcDbSymbolTable
 70
     1
  0
BLOCK_RECORD
  5
1F
330
1
100
AcDbSymbolTableRecord
100
AcDbBlockTableRecord
  2
*MODEL_SPACE
  0
BLOCK_RECORD
  5
1B
330
1
100
AcDbSymbolTableRecord
100
AcDbBlockTableRecord
  2
*PAPER_SPACE
  0
ENDTAB
  0
ENDSEC
  0
SECTION
  2
BLOCKS
  0
BLOCK
  5
20
330
1F
100
AcDbEntity
  8
0
100
AcDbBlockBegin
  2
*MODEL_SPACE
 70
     0
 10
0.0
 20
0.0
 30
0.0
  3
*MODEL_SPACE
  1

  0
ENDBLK
  5
21
330
1F
100
AcDbEntity
  8
0
100
AcDbBlockEnd
  0
BLOCK
  5
1C
330
1B
100
AcDbEntity
 67
     1
  8
0
100
AcDbBlockBegin
  2
*PAPER_SPACE
  1

  0
ENDBLK
  5
1D
330
1B
100
AcDbEntity
 67
     1
  8
0
100
AcDbBlockEnd
  0
ENDSEC
  0
SECTION
  2
ENTITIES
  0
SPLINE
  5
100
100
AcDbEntity
  8
Layer_1
 62
7
100
AcDbSpline
 70
8
 71
3
 72
8
 73
4
 74
0
 40
0
 40
0
 40
0
 40
0
 40
1
 40
1
 40
1
 40
1
 10
1637.776387
 20
1340.733296
 30
0.0
 10
1604.213987
 20
1340.768496
 30
0.0
 10
1565.508707
 20
1337.235456
 30
0.0
 10
1521.651347
 20
1330.108256
 30
0.0
  0
SPLINE
  5
101
100
AcDbEntity
  8
Layer_1
 62
7
100
AcDbSpline
 70
8
 71
3
 72
8
 73
4
 74
0
 40
0
 40
0
 40
0
 40
0
 40
1
 40
1
 40
1
 40
1
 10
1266.026307
 20
501.233304
 30
0.0
 10
1267.152467
 20
502.836184
 30
0.0
 10
1268.145587
 20
504.547384
 30
0.0
 10
1269.076387
 20
506.508264
 30
0.0
  0
SPLINE
  5
102
100
AcDbEntity
  8
Layer_1
 62
7
100
AcDbSpline
 70
8
 71
3
 72
8
 73
4
 74
0
 40
0
 40
0
 40
0
 40
0
 40
1
 40
1
 40
1
 40
1
 10
1269.076387
 20
506.508264
 30
0.0
 10
1270.028307
 20
508.513144
 30
0.0
 10
1270.332867
 20
511.656424
 30
0.0
 10
1270.376387
 20
515.258264
 30
0.0
  0
LWPOLYLINE
  5
103
100
AcDbEntity
  8
Layer_1
 62
7
100
AcDbPolyline
 90
4
 70
0
 10
1521.651347
 20
1330.108256
 30
0.0
 10
1190.426307
 20
1276.283296
 30
0.0
 10
1315.101347
 20
509.158264
 30
0.0
 10
1266.026307
 20
501.233304
 30
0.0
  0
SPLINE
  5
104
100
AcDbEntity
  8
Layer_1
 62
7
100
AcDbSpline
 70
8
 71
3
 72
8
 73
4
 74
0
 40
0
 40
0
 40
0
 40
0
 40
1
 40
1
 40
1
 40
1
 10
1271.251347
 20
515.258264
 30
0.0
 10
1271.757107
 20
531.612024
 30
0.0
 10
1274.221667
 20
551.820504
 30
0.0
 10
1276.501347
 20
569.808264
 30
0.0
  0
SPLINE
  5
105
100
AcDbEntity
  8
Layer_1
 62
7
100
AcDbSpline
 70
8
 71
3
 72
8
 73
4
 74
0
 40
0
 40
0
 40
0
 40
0
 40
1
 40
1
 40
1
 40
1
 10
1276.501347
 20
569.808264
 30
0.0
 10
1278.780707
 20
587.796984
 30
0.0
 10
1280.735907
 20
602.723784
 30
0.0
 10
1281.076387
 20
611.908264
 30
0.0
  0
LWPOLYLINE
  5
106
100
AcDbEntity
  8
Layer_1
 62
7
100
AcDbPolyline
 90
2
 70
0
 10
1270.376387
 20
515.258264
 30
0.0
 10
1271.251347
 20
515.258264
 30
0.0
  0
SPLINE
  5
107
100
AcDbEntity
  8
Layer_1
 62
7
100
AcDbSpline
 70
8
 71
3
 72
8
 73
4
 74
0
 40
0
 40
0
 40
0
 40
0
 40
1
 40
1
 40
1
 40
1
 10
1281.076387
 20
612.358264
 30
0.0
 10
1281.089187
 20
617.442424
 30
0.0
 10
1280.362307
 20
622.719144
 30
0.0
 10
1277.576387
 20
628.708264
 30
0.0
  0
SPLINE
  5
108
100
AcDbEntity
  8
Layer_1
 62
7
100
AcDbSpline
 70
8
 71
3
 72
8
 73
4
 74
0
 40
0
 40
0
 40
0
 40
0
 40
1
 40
1
 40
1
 40
1
 10
1277.576387
 20
628.708264
 30
0.0
 10
1276.183427
 20
631.703224
 30
0.0
 10
1274.461587
 20
635.018424
 30
0.0
 10
1270.826307
 20
637.883224
 30
0.0
  0
SPLINE
  5
109
100
AcDbEntity
  8
Layer_1
 62
7
100
AcDbSpline
 70
8
 71
3
 72
8
 73
4
 74
0
 40
0
 40
0
 40
0
 40
0
 40
1
 40
1
 40
1
 40
1
 10
1270.826307
 20
637.883224
 30
0.0
 10
1267.190947
 20
640.749624
 30
0.0
 10
1261.129347
 20
642.677064
 30
0.0
 10
1255.776387
 20
641.808264
 30
0.0
  0
SPLINE
  5
10a
100
AcDbEntity
  8
Layer_1
 62
7
100
AcDbSpline
 70
8
 71
3
 72
8
 73
4
 74
0
 40
0
 40
0
 40
0
 40
0
 40
1
 40
1
 40
1
 40
1
 10
1255.776387
 20
641.808264
 30
0.0
 10
1249.998467
 20
640.870504
 30
0.0
 10
1247.435907
 20
638.268824
 30
0.0
 10
1245.301347
 20
636.133304
 30
0.0
  0
SPLINE
  5
10b
100
AcDbEntity
  8
Layer_1
 62
7
100
AcDbSpline
 70
8
 71
3
 72
8
 73
4
 74
0
 40
0
 40
0
 40
0
 40
0
 40
1
 40
1
 40
1
 40
1
 10
1245.301347
 20
636.133304
 30
0.0
 10
1243.166547
 20
633.997544
 30
0.0
 10
1241.513667
 20
631.674904
 30
0.0
 10
1239.826307
 20
629.158264
 30
0.0
  0
SPLINE
  5
10c
100
AcDbEntity
  8
Layer_1
 62
7
100
AcDbSpline
 70
8
 71
3
 72
8
 73
4
 74
0
 40
0
 40
0
 40
0
 40
0
 40
1
 40
1
 40
1
 40
1
 10
1239.826307
 20
629.158264
 30
0.0
 10
1236.490147
 20
624.183624
 30
0.0
 10
1233.127267
 20
617.994744
 30
0.0
 10
1229.801347
 20
611.033304
 30
0.0
  0
SPLINE
  5
10d
100
AcDbEntity
  8
Layer_1
 62
7
100
AcDbSpline
 70
8
 71
3
 72
8
 73
4
 74
0
 40
0
 40
0
 40
0
 40
0
 40
1
 40
1
 40
1
 40
1
 10
1229.801347
 20
611.033304
 30
0.0
 10
1229.766947
 20
610.955544
 30
0.0
 10
1229.835747
 20
610.909944
 30
0.0
 10
1229.801347
 20
610.833304
 30
0.0
  0
SPLINE
  5
10e
100
AcDbEntity
  8
Layer_1
 62
7
100
AcDbSpline
 70
8
 71
3
 72
8
 73
4
 74
0
 40
0
 40
0
 40
0
 40
0
 40
1
 40
1
 40
1
 40
1
 10
1229.801347
 20
610.833304
 30
0.0
 10
1218.015107
 20
586.788824
 30
0.0
 10
1204.974147
 20
565.106504
 30
0.0
 10
1194.676387
 20
550.808264
 30
0.0
  0
SPLINE
  5
10f
100
AcDbEntity
  8
Layer_1
 62
7
100
AcDbSpline
 70
8
 71
3
 72
8
 73
4
 74
0
 40
0
 40
0
 40
0
 40
0
 40
1
 40
1
 40
1
 40
1
 10
1194.676387
 20
550.808264
 30
0.0
 10
1189.103107
 20
543.067224
 30
0.0
 10
1188.481187
 20
542.158104
 30
0.0
 10
1182.651347
 20
541.208264
 30
0.0
  0
SPLINE
  5
110
100
AcDbEntity
  8
Layer_1
 62
7
100
AcDbSpline
 70
8
 71
3
 72
8
 73
4
 74
0
 40
0
 40
0
 40
0
 40
0
 40
1
 40
1
 40
1
 40
1
 10
1182.651347
 20
541.208264
 30
0.0
 10
1164.637907
 20
538.280504
 30
0.0
 10
1136.780867
 20
535.099304
 30
0.0
 10
1112.626307
 20
532.708264
 30
0.0
  0
SPLINE
  5
111
100
AcDbEntity
  8
Layer_1
 62
7
100
AcDbSpline
 70
8
 71
3
 72
8
 73
4
 74
0
 40
0
 40
0
 40
0
 40
0
 40
1
 40
1
 40
1
 40
1
 10
1112.626307
 20
532.708264
 30
0.0
 10
1100.549187
 20
531.512904
 30
0.0
 10
1089.008147
 20
530.635784
 30
0.0
 10
1080.526307
 20
530.083224
 30
0.0
  0
SPLINE
  5
112
100
AcDbEntity
  8
Layer_1
 62
7
100
AcDbSpline
 70
8
 71
3
 72
8
 73
4
 74
0
 40
0
 40
0
 40
0
 40
0
 40
1
 40
1
 40
1
 40
1
 10
1080.526307
 20
530.083224
 30
0.0
 10
1078.739747
 20
529.964904
 30
0.0
 10
1077.702387
 20
529.935064
 30
0.0
 10
1076.176387
 20
529.858264
 30
0.0
  0
SPLINE
  5
113
100
AcDbEntity
  8
Layer_1
 62
7
100
AcDbSpline
 70
8
 71
3
 72
8
 73
4
 74
0
 40
0
 40
0
 40
0
 40
0
 40
1
 40
1
 40
1
 40
1
 10
1076.176387
 20
529.858264
 30
0.0
 10
1105.801347
 20
601.577784
 30
0.0
 10
1159.625427
 20
731.598024
 30
0.0
 10
1177.426307
 20
770.133304
 30
0.0
  0
SPLINE
  5
114
100
AcDbEntity
  8
Layer_1
 62
7
100
AcDbSpline
 70
8
 71
3
 72
8
 73
4
 74
0
 40
0
 40
0
 40
0
 40
0
 40
1
 40
1
 40
1
 40
1
 10
1177.426307
 20
770.133304
 30
0.0
 10
1194.735187
 20
807.555544
 30
0.0
 10
1207.965267
 20
828.429784
 30
0.0
 10
1220.626307
 20
853.033304
 30
0.0
  0
SPLINE
  5
115
100
AcDbEntity
  8
Layer_1
 62
7
100
AcDbSpline
 70
8
 71
3
 72
8
 73
4
 74
0
 40
0
 40
0
 40
0
 40
0
 40
1
 40
1
 40
1
 40
1
 10
1220.626307
 20
853.033304
 30
0.0
 10
1224.311747
 20
860.065224
 30
0.0
 10
1223.048227
 20
866.376344
 30
0.0
 10
1221.076387
 20
871.383224
 30
0.0
  0
SPLINE
  5
116
100
AcDbEntity
  8
Layer_1
 62
7
100
AcDbSpline
 70
8
 71
3
 72
8
 73
4
 74
0
 40
0
 40
0
 40
0
 40
0
 40
1
 40
1
 40
1
 40
1
 10
1221.076387
 20
871.383224
 30
0.0
 10
1219.104547
 20
876.390504
 30
0.0
 10
1216.251267
 20
880.836264
 30
0.0
 10
1210.151347
 20
884.033304
 30
0.0
  0
SPLINE
  5
117
100
AcDbEntity
  8
Layer_1
 62
7
100
AcDbSpline
 70
8
 71
3
 72
8
 73
4
 74
0
 40
0
 40
0
 40
0
 40
0
 40
1
 40
1
 40
1
 40
1
 10
1210.151347
 20
884.033304
 30
0.0
 10
1208.069827
 20
885.124264
 30
0.0
 10
1206.324867
 20
886.321304
 30
0.0
 10
1202.526307
 20
887.083224
 30
0.0
  0
SPLINE
  5
118
100
AcDbEntity
  8
Layer_1
 62
7
100
AcDbSpline
 70
8
 71
3
 72
8
 73
4
 74
0
 40
0
 40
0
 40
0
 40
0
 40
1
 40
1
 40
1
 40
1
 10
1202.526307
 20
887.083224
 30
0.0
 10
1200.749427
 20
887.440264
 30
0.0
 10
1199.228547
 20
887.426264
 30
0.0
 10
1197.926307
 20
887.308264
 30
0.0
  0
SPLINE
  5
119
100
AcDbEntity
  8
Layer_1
 62
7
100
AcDbSpline
 70
8
 71
3
 72
8
 73
4
 74
0
 40
0
 40
0
 40
0
 40
0
 40
1
 40
1
 40
1
 40
1
 10
1197.926307
 20
887.308264
 30
0.0
 10
1196.623987
 20
887.190264
 30
0.0
 10
1195.575347
 20
887.015384
 30
0.0
 10
1194.651347
 20
886.858264
 30
0.0
  0
LWPOLYLINE
  5
11a
100
AcDbEntity
  8
Layer_1
 62
7
100
AcDbPolyline
 90
3
 70
0
 10
1281.076387
 20
611.908264
 30
0.0
 10
1281.076387
 20
612.133304
 30
0.0
 10
1281.076387
 20
612.358264
 30
0.0
  0
SPLINE
  5
11b
100
AcDbEntity
  8
Layer_1
 62
7
100
AcDbSpline
 70
8
 71
3
 72
8
 73
4
 74
0
 40
0
 40
0
 40
0
 40
0
 40
1
 40
1
 40
1
 40
1
 10
1194.651347
 20
887.083224
 30
0.0
 10
1171.346307
 20
884.371864
 30
0.0
 10
1132.828147
 20
873.119064
 30
0.0
 10
1065.701347
 20
862.208264
 30
0.0
  0
LWPOLYLINE
  5
11c
100
AcDbEntity
  8
Layer_1
 62
7
100
AcDbPolyline
 90
2
 70
0
 10
1194.651347
 20
886.858264
 30
0.0
 10
1194.651347
 20
887.083224
 30
0.0
  0
SPLINE
  5
11d
100
AcDbEntity
  8
Layer_1
 62
7
100
AcDbSpline
 70
8
 71
3
 72
8
 73
4
 74
0
 40
0
 40
0
 40
0
 40
0
 40
1
 40
1
 40
1
 40
1
 10
981.251347
 20
848.683224
 30
0.0
 10
968.365507
 20
846.589704
 30
0.0
 10
947.681907
 20
850.526264
 30
0.0
 10
938.701347
 20
855.233304
 30
0.0
  0
LWPOLYLINE
  5
11e
100
AcDbEntity
  8
Layer_1
 62
7
100
AcDbPolyline
 90
2
 70
0
 10
1065.701347
 20
862.208264
 30
0.0
 10
981.251347
 20
848.683224
 30
0.0
  0
SPLINE
  5
11f
100
AcDbEntity
  8
Layer_1
 62
7
100
AcDbSpline
 70
8
 71
3
 72
8
 73
4
 74
0
 40
0
 40
0
 40
0
 40
0
 40
1
 40
1
 40
1
 40
1
 10
938.476387
 20
854.558264
 30
0.0
 10
932.023267
 20
858.253384
 30
0.0
 10
927.449347
 20
856.848584
 30
0.0
 10
923.851347
 20
855.233304
 30
0.0
  0
SPLINE
  5
120
100
AcDbEntity
  8
Layer_1
 62
7
100
AcDbSpline
 70
8
 71
3
 72
8
 73
4
 74
0
 40
0
 40
0
 40
0
 40
0
 40
1
 40
1
 40
1
 40
1
 10
923.851347
 20
855.233304
 30
0.0
 10
919.872147
 20
853.446744
 30
0.0
 10
916.519907
 20
850.561144
 30
0.0
 10
913.176387
 20
846.708264
 30
0.0
  0
LWPOLYLINE
  5
121
100
AcDbEntity
  8
Layer_1
 62
7
100
AcDbPolyline
 90
2
 70
0
 10
938.701347
 20
855.233304
 30
0.0
 10
938.476387
 20
854.558264
 30
0.0
  0
SPLINE
  5
122
100
AcDbEntity
  8
Layer_1
 62
7
100
AcDbSpline
 70
8
 71
3
 72
8
 73
4
 74
0
 40
0
 40
0
 40
0
 40
0
 40
1
 40
1
 40
1
 40
1
 10
912.301347
 20
845.833304
 30
0.0
 10
906.555667
 20
837.879224
 30
0.0
 10
908.461267
 20
828.885384
 30
0.0
 10
908.576387
 20
828.158264
 30
0.0
  0
SPLINE
  5
123
100
AcDbEntity
  8
Layer_1
 62
7
100
AcDbSpline
 70
8
 71
3
 72
8
 73
4
 74
0
 40
0
 40
0
 40
0
 40
0
 40
1
 40
1
 40
1
 40
1
 10
908.576387
 20
828.158264
 30
0.0
 10
910.794547
 20
814.486504
 30
0.0
 10
910.898947
 20
791.416344
 30
0.0
 10
908.576387
 20
773.383224
 30
0.0
  0
SPLINE
  5
124
100
AcDbEntity
  8
Layer_1
 62
7
100
AcDbSpline
 70
8
 71
3
 72
8
 73
4
 74
0
 40
0
 40
0
 40
0
 40
0
 40
1
 40
1
 40
1
 40
1
 10
908.576387
 20
773.383224
 30
0.0
 10
908.563587
 20
773.274824
 30
0.0
 10
908.588387
 20
773.292184
 30
0.0
 10
908.576387
 20
773.183224
 30
0.0
  0
SPLINE
  5
125
100
AcDbEntity
  8
Layer_1
 62
7
100
AcDbSpline
 70
8
 71
3
 72
8
 73
4
 74
0
 40
0
 40
0
 40
0
 40
0
 40
1
 40
1
 40
1
 40
1
 10
908.576387
 20
773.183224
 30
0.0
 10
906.193507
 20
758.504904
 30
0.0
 10
904.597987
 20
747.641224
 30
0.0
 10
906.401347
 20
736.508264
 30
0.0
  0
SPLINE
  5
126
100
AcDbEntity
  8
Layer_1
 62
7
100
AcDbSpline
 70
8
 71
3
 72
8
 73
4
 74
0
 40
0
 40
0
 40
0
 40
0
 40
1
 40
1
 40
1
 40
1
 10
906.401347
 20
736.508264
 30
0.0
 10
907.528147
 20
729.566024
 30
0.0
 10
910.484947
 20
724.288344
 30
0.0
 10
914.251347
 20
719.933304
 30
0.0
  0
SPLINE
  5
127
100
AcDbEntity
  8
Layer_1
 62
7
100
AcDbSpline
 70
8
 71
3
 72
8
 73
4
 74
0
 40
0
 40
0
 40
0
 40
0
 40
1
 40
1
 40
1
 40
1
 10
914.251347
 20
719.933304
 30
0.0
 10
916.134707
 20
717.754984
 30
0.0
 10
918.293987
 20
715.931624
 30
0.0
 10
921.026307
 20
714.258264
 30
0.0
  0
SPLINE
  5
128
100
AcDbEntity
  8
Layer_1
 62
7
100
AcDbSpline
 70
8
 71
3
 72
8
 73
4
 74
0
 40
0
 40
0
 40
0
 40
0
 40
1
 40
1
 40
1
 40
1
 10
921.026307
 20
714.258264
 30
0.0
 10
923.758787
 20
712.584664
 30
0.0
 10
927.256067
 20
710.471544
 30
0.0
 10
933.026307
 20
711.408264
 30
0.0
  0
SPLINE
  5
129
100
AcDbEntity
  8
Layer_1
 62
7
100
AcDbSpline
 70
8
 71
3
 72
8
 73
4
 74
0
 40
0
 40
0
 40
0
 40
0
 40
1
 40
1
 40
1
 40
1
 10
933.026307
 20
711.408264
 30
0.0
 10
942.419587
 20
712.936104
 30
0.0
 10
947.357587
 20
719.742184
 30
0.0
 10
950.051347
 20
724.733304
 30
0.0
  0
SPLINE
  5
12a
100
AcDbEntity
  8
Layer_1
 62
7
100
AcDbSpline
 70
8
 71
3
 72
8
 73
4
 74
0
 40
0
 40
0
 40
0
 40
0
 40
1
 40
1
 40
1
 40
1
 10
950.051347
 20
724.733304
 30
0.0
 10
952.745187
 20
729.723864
 30
0.0
 10
954.135667
 20
734.365064
 30
0.0
 10
955.076387
 20
737.383224
 30
0.0
  0
SPLINE
  5
12b
100
AcDbEntity
  8
Layer_1
 62
7
100
AcDbSpline
 70
8
 71
3
 72
8
 73
4
 74
0
 40
0
 40
0
 40
0
 40
0
 40
1
 40
1
 40
1
 40
1
 10
955.076387
 20
737.383224
 30
0.0
 10
960.390307
 20
750.262024
 30
0.0
 10
969.161507
 20
765.862184
 30
0.0
 10
977.326307
 20
777.983224
 30
0.0
  0
SPLINE
  5
12c
100
AcDbEntity
  8
Layer_1
 62
7
100
AcDbSpline
 70
8
 71
3
 72
8
 73
4
 74
0
 40
0
 40
0
 40
0
 40
0
 40
1
 40
1
 40
1
 40
1
 10
977.326307
 20
777.983224
 30
0.0
 10
981.495187
 20
784.172984
 30
0.0
 10
985.355827
 20
789.591304
 30
0.0
 10
988.451347
 20
793.033304
 30
0.0
  0
SPLINE
  5
12d
100
AcDbEntity
  8
Layer_1
 62
7
100
AcDbSpline
 70
8
 71
3
 72
8
 73
4
 74
0
 40
0
 40
0
 40
0
 40
0
 40
1
 40
1
 40
1
 40
1
 10
988.451347
 20
793.033304
 30
0.0
 10
989.875667
 20
794.616184
 30
0.0
 10
991.025427
 20
795.496024
 30
0.0
 10
991.726307
 20
796.083224
 30
0.0
  0
SPLINE
  5
12e
100
AcDbEntity
  8
Layer_1
 62
7
100
AcDbSpline
 70
8
 71
3
 72
8
 73
4
 74
0
 40
0
 40
0
 40
0
 40
0
 40
1
 40
1
 40
1
 40
1
 10
991.726307
 20
796.083224
 30
0.0
 10
1012.940947
 20
799.481544
 30
0.0
 10
1040.020227
 20
802.887864
 30
0.0
 10
1063.076387
 20
805.483224
 30
0.0
  0
SPLINE
  5
12f
100
AcDbEntity
  8
Layer_1
 62
7
100
AcDbSpline
 70
8
 71
3
 72
8
 73
4
 74
0
 40
0
 40
0
 40
0
 40
0
 40
1
 40
1
 40
1
 40
1
 10
1063.076387
 20
805.483224
 30
0.0
 10
1074.912627
 20
806.816104
 30
0.0
 10
1086.034867
 20
808.039064
 30
0.0
 10
1094.076387
 20
808.733304
 30
0.0
  0
SPLINE
  5
130
100
AcDbEntity
  8
Layer_1
 62
7
100
AcDbSpline
 70
8
 71
3
 72
8
 73
4
 74
0
 40
0
 40
0
 40
0
 40
0
 40
1
 40
1
 40
1
 40
1
 10
1094.076387
 20
808.733304
 30
0.0
 10
1094.632947
 20
808.781144
 30
0.0
 10
1094.845907
 20
808.689944
 30
0.0
 10
1095.376387
 20
808.733304
 30
0.0
  0
SPLINE
  5
131
100
AcDbEntity
  8
Layer_1
 62
7
100
AcDbSpline
 70
8
 71
3
 72
8
 73
4
 74
0
 40
0
 40
0
 40
0
 40
0
 40
1
 40
1
 40
1
 40
1
 10
1095.376387
 20
808.733304
 30
0.0
 10
1063.414227
 20
731.522424
 30
0.0
 10
1018.858387
 20
624.033224
 30
0.0
 10
999.801347
 20
586.158264
 30
0.0
  0
LWPOLYLINE
  5
132
100
AcDbEntity
  8
Layer_1
 62
7
100
AcDbPolyline
 90
3
 70
0
 10
913.176387
 20
846.708264
 30
0.0
 10
912.501347
 20
846.283224
 30
0.0
 10
912.301347
 20
845.833304
 30
0.0
  0
SPLINE
  5
133
100
AcDbEntity
  8
Layer_1
 62
7
100
AcDbSpline
 70
8
 71
3
 72
8
 73
4
 74
0
 40
0
 40
0
 40
0
 40
0
 40
1
 40
1
 40
1
 40
1
 10
999.576387
 20
585.733304
 30
0.0
 10
989.012867
 20
563.134904
 30
0.0
 10
976.585267
 20
537.146024
 30
0.0
 10
966.851347
 20
515.908264
 30
0.0
  0
SPLINE
  5
134
100
AcDbEntity
  8
Layer_1
 62
7
100
AcDbSpline
 70
8
 71
3
 72
8
 73
4
 74
0
 40
0
 40
0
 40
0
 40
0
 40
1
 40
1
 40
1
 40
1
 10
966.851347
 20
515.908264
 30
0.0
 10
961.984707
 20
505.289544
 30
0.0
 10
957.860067
 20
495.966824
 30
0.0
 10
954.851347
 20
488.633304
 30
0.0
  0
SPLINE
  5
135
100
AcDbEntity
  8
Layer_1
 62
7
100
AcDbSpline
 70
8
 71
3
 72
8
 73
4
 74
0
 40
0
 40
0
 40
0
 40
0
 40
1
 40
1
 40
1
 40
1
 10
954.851347
 20
488.633304
 30
0.0
 10
953.347027
 20
484.966184
 30
0.0
 10
952.258627
 20
481.789544
 30
0.0
 10
951.351347
 20
479.033304
 30
0.0
  0
SPLINE
  5
136
100
AcDbEntity
  8
Layer_1
 62
7
100
AcDbSpline
 70
8
 71
3
 72
8
 73
4
 74
0
 40
0
 40
0
 40
0
 40
0
 40
1
 40
1
 40
1
 40
1
 10
951.351347
 20
479.033304
 30
0.0
 10
950.897747
 20
477.654984
 30
0.0
 10
950.593107
 20
476.325622
 30
0.0
 10
950.276387
 20
474.883222
 30
0.0
  0
SPLINE
  5
137
100
AcDbEntity
  8
Layer_1
 62
7
100
AcDbSpline
 70
8
 71
3
 72
8
 73
4
 74
0
 40
0
 40
0
 40
0
 40
0
 40
1
 40
1
 40
1
 40
1
 10
950.276387
 20
474.883222
 30
0.0
 10
949.959267
 20
473.441222
 30
0.0
 10
948.956627
 20
472.276902
 30
0.0
 10
949.601347
 20
468.333302
 30
0.0
  0
SPLINE
  5
138
100
AcDbEntity
  8
Layer_1
 62
7
100
AcDbSpline
 70
8
 71
3
 72
8
 73
4
 74
0
 40
0
 40
0
 40
0
 40
0
 40
1
 40
1
 40
1
 40
1
 10
949.601347
 20
468.333302
 30
0.0
 10
951.230307
 20
458.255862
 30
0.0
 10
956.578467
 20
455.933302
 30
0.0
 10
960.951347
 20
452.633302
 30
0.0
  0
SPLINE
  5
139
100
AcDbEntity
  8
Layer_1
 62
7
100
AcDbSpline
 70
8
 71
3
 72
8
 73
4
 74
0
 40
0
 40
0
 40
0
 40
0
 40
1
 40
1
 40
1
 40
1
 10
960.951347
 20
452.633302
 30
0.0
 10
961.208307
 20
452.439222
 30
0.0
 10
961.469267
 20
452.248582
 30
0.0
 10
961.726307
 20
452.058262
 30
0.0
  0
LWPOLYLINE
  5
13a
100
AcDbEntity
  8
Layer_1
 62
7
100
AcDbPolyline
 90
3
 70
0
 10
999.801347
 20
586.158264
 30
0.0
 10
999.801347
 20
585.958264
 30
0.0
 10
999.576387
 20
585.733304
 30
0.0
  0
SPLINE
  5
13b
100
AcDbEntity
  8
Layer_1
 62
7
100
AcDbSpline
 70
8
 71
3
 72
8
 73
4
 74
0
 40
0
 40
0
 40
0
 40
0
 40
1
 40
1
 40
1
 40
1
 10
908.176387
 20
443.408262
 30
0.0
 10
909.286227
 20
444.869862
 30
0.0
 10
910.322787
 20
446.410902
 30
0.0
 10
911.201347
 20
448.258262
 30
0.0
  0
SPLINE
  5
13c
100
AcDbEntity
  8
Layer_1
 62
7
100
AcDbSpline
 70
8
 71
3
 72
8
 73
4
 74
0
 40
0
 40
0
 40
0
 40
0
 40
1
 40
1
 40
1
 40
1
 10
911.201347
 20
448.258262
 30
0.0
 10
912.153907
 20
450.262822
 30
0.0
 10
912.457667
 20
453.379542
 30
0.0
 10
912.501347
 20
456.983222
 30
0.0
  0
LWPOLYLINE
  5
13d
100
AcDbEntity
  8
Layer_1
 62
7
100
AcDbPolyline
 90
2
 70
0
 10
961.726307
 20
452.058262
 30
0.0
 10
908.176387
 20
443.408262
 30
0.0
  0
SPLINE
  5
13e
100
AcDbEntity
  8
Layer_1
 62
7
100
AcDbSpline
 70
8
 71
3
 72
8
 73
4
 74
0
 40
0
 40
0
 40
0
 40
0
 40
1
 40
1
 40
1
 40
1
 10
913.176387
 20
456.983222
 30
0.0
 10
913.682147
 20
473.337622
 30
0.0
 10
916.122787
 20
493.769544
 30
0.0
 10
918.401347
 20
511.758264
 30
0.0
  0
SPLINE
  5
13f
100
AcDbEntity
  8
Layer_1
 62
7
100
AcDbSpline
 70
8
 71
3
 72
8
 73
4
 74
0
 40
0
 40
0
 40
0
 40
0
 40
1
 40
1
 40
1
 40
1
 10
918.401347
 20
511.758264
 30
0.0
 10
920.679587
 20
529.746664
 30
0.0
 10
922.865987
 20
544.665144
 30
0.0
 10
923.201347
 20
553.858264
 30
0.0
  0
LWPOLYLINE
  5
140
100
AcDbEntity
  8
Layer_1
 62
7
100
AcDbPolyline
 90
2
 70
0
 10
912.501347
 20
456.983222
 30
0.0
 10
913.176387
 20
456.983222
 30
0.0
  0
SPLINE
  5
141
100
AcDbEntity
  8
Layer_1
 62
7
100
AcDbSpline
 70
8
 71
3
 72
8
 73
4
 74
0
 40
0
 40
0
 40
0
 40
0
 40
1
 40
1
 40
1
 40
1
 10
923.201347
 20
554.308264
 30
0.0
 10
923.222947
 20
559.413624
 30
0.0
 10
922.487187
 20
564.668904
 30
0.0
 10
919.701347
 20
570.658264
 30
0.0
  0
SPLINE
  5
142
100
AcDbEntity
  8
Layer_1
 62
7
100
AcDbSpline
 70
8
 71
3
 72
8
 73
4
 74
0
 40
0
 40
0
 40
0
 40
0
 40
1
 40
1
 40
1
 40
1
 10
919.701347
 20
570.658264
 30
0.0
 10
918.308227
 20
573.652344
 30
0.0
 10
916.134627
 20
576.743384
 30
0.0
 10
912.501347
 20
579.608264
 30
0.0
  0
SPLINE
  5
143
100
AcDbEntity
  8
Layer_1
 62
7
100
AcDbSpline
 70
8
 71
3
 72
8
 73
4
 74
0
 40
0
 40
0
 40
0
 40
0
 40
1
 40
1
 40
1
 40
1
 10
912.501347
 20
579.608264
 30
0.0
 10
908.867987
 20
582.473544
 30
0.0
 10
903.031427
 20
584.402184
 30
0.0
 10
897.676387
 20
583.533304
 30
0.0
  0
SPLINE
  5
144
100
AcDbEntity
  8
Layer_1
 62
7
100
AcDbSpline
 70
8
 71
3
 72
8
 73
4
 74
0
 40
0
 40
0
 40
0
 40
0
 40
1
 40
1
 40
1
 40
1
 10
897.676387
 20
583.533304
 30
0.0
 10
891.899267
 20
582.595064
 30
0.0
 10
889.336147
 20
579.993464
 30
0.0
 10
887.201347
 20
577.858264
 30
0.0
  0
SPLINE
  5
145
100
AcDbEntity
  8
Layer_1
 62
7
100
AcDbSpline
 70
8
 71
3
 72
8
 73
4
 74
0
 40
0
 40
0
 40
0
 40
0
 40
1
 40
1
 40
1
 40
1
 10
887.201347
 20
577.858264
 30
0.0
 10
885.066147
 20
575.723464
 30
0.0
 10
883.440307
 20
573.400104
 30
0.0
 10
881.751347
 20
570.883224
 30
0.0
  0
SPLINE
  5
146
100
AcDbEntity
  8
Layer_1
 62
7
100
AcDbSpline
 70
8
 71
3
 72
8
 73
4
 74
0
 40
0
 40
0
 40
0
 40
0
 40
1
 40
1
 40
1
 40
1
 10
881.751347
 20
570.883224
 30
0.0
 10
878.412947
 20
565.909864
 30
0.0
 10
875.252867
 20
559.946744
 30
0.0
 10
871.926307
 20
552.983224
 30
0.0
  0
SPLINE
  5
147
100
AcDbEntity
  8
Layer_1
 62
7
100
AcDbSpline
 70
8
 71
3
 72
8
 73
4
 74
0
 40
0
 40
0
 40
0
 40
0
 40
1
 40
1
 40
1
 40
1
 10
871.926307
 20
552.983224
 30
0.0
 10
871.891907
 20
552.899944
 30
0.0
 10
871.960707
 20
552.860264
 30
0.0
 10
871.926307
 20
552.783224
 30
0.0
  0
SPLINE
  5
148
100
AcDbEntity
  8
Layer_1
 62
7
100
AcDbSpline
 70
8
 71
3
 72
8
 73
4
 74
0
 40
0
 40
0
 40
0
 40
0
 40
1
 40
1
 40
1
 40
1
 10
871.926307
 20
552.783224
 30
0.0
 10
860.140147
 20
528.739624
 30
0.0
 10
846.874147
 20
507.056184
 30
0.0
 10
836.576387
 20
492.758264
 30
0.0
  0
SPLINE
  5
149
100
AcDbEntity
  8
Layer_1
 62
7
100
AcDbSpline
 70
8
 71
3
 72
8
 73
4
 74
0
 40
0
 40
0
 40
0
 40
0
 40
1
 40
1
 40
1
 40
1
 10
836.576387
 20
492.758264
 30
0.0
 10
830.999667
 20
485.012024
 30
0.0
 10
830.415907
 20
484.108424
 30
0.0
 10
824.576387
 20
483.158264
 30
0.0
  0
SPLINE
  5
14a
100
AcDbEntity
  8
Layer_1
 62
7
100
AcDbSpline
 70
8
 71
3
 72
8
 73
4
 74
0
 40
0
 40
0
 40
0
 40
0
 40
1
 40
1
 40
1
 40
1
 10
824.576387
 20
483.158264
 30
0.0
 10
806.562947
 20
480.230184
 30
0.0
 10
778.455667
 20
476.823862
 30
0.0
 10
754.301419
 20
474.433302
 30
0.0
  0
SPLINE
  5
14b
100
AcDbEntity
  8
Layer_1
 62
7
100
AcDbSpline
 70
8
 71
3
 72
8
 73
4
 74
0
 40
0
 40
0
 40
0
 40
0
 40
1
 40
1
 40
1
 40
1
 10
754.301419
 20
474.433302
 30
0.0
 10
742.224379
 20
473.237622
 30
0.0
 10
731.158219
 20
472.161542
 30
0.0
 10
722.676459
 20
471.608262
 30
0.0
  0
SPLINE
  5
14c
100
AcDbEntity
  8
Layer_1
 62
7
100
AcDbSpline
 70
8
 71
3
 72
8
 73
4
 74
0
 40
0
 40
0
 40
0
 40
0
 40
1
 40
1
 40
1
 40
1
 10
722.676459
 20
471.608262
 30
0.0
 10
721.003499
 20
471.496902
 30
0.0
 10
720.172299
 20
471.685862
 30
0.0
 10
718.726379
 20
471.608262
 30
0.0
  0
SPLINE
  5
14d
100
AcDbEntity
  8
Layer_1
 62
7
100
AcDbSpline
 70
8
 71
3
 72
8
 73
4
 74
0
 40
0
 40
0
 40
0
 40
0
 40
1
 40
1
 40
1
 40
1
 10
718.726379
 20
471.608262
 30
0.0
 10
748.385099
 20
543.392264
 30
0.0
 10
801.554227
 20
673.585304
 30
0.0
 10
819.326307
 20
712.083224
 30
0.0
  0
SPLINE
  5
14e
100
AcDbEntity
  8
Layer_1
 62
7
100
AcDbSpline
 70
8
 71
3
 72
8
 73
4
 74
0
 40
0
 40
0
 40
0
 40
0
 40
1
 40
1
 40
1
 40
1
 10
819.326307
 20
712.083224
 30
0.0
 10
836.590227
 20
749.417304
 30
0.0
 10
850.118707
 20
770.036984
 30
0.0
 10
862.751347
 20
794.558264
 30
0.0
  0
SPLINE
  5
14f
100
AcDbEntity
  8
Layer_1
 62
7
100
AcDbSpline
 70
8
 71
3
 72
8
 73
4
 74
0
 40
0
 40
0
 40
0
 40
0
 40
1
 40
1
 40
1
 40
1
 10
862.751347
 20
794.558264
 30
0.0
 10
862.785747
 20
794.621464
 30
0.0
 10
862.716947
 20
794.922664
 30
0.0
 10
862.751347
 20
794.983224
 30
0.0
  0
SPLINE
  5
150
100
AcDbEntity
  8
Layer_1
 62
7
100
AcDbSpline
 70
8
 71
3
 72
8
 73
4
 74
0
 40
0
 40
0
 40
0
 40
0
 40
1
 40
1
 40
1
 40
1
 10
862.751347
 20
794.983224
 30
0.0
 10
866.260467
 20
801.900504
 30
0.0
 10
864.919667
 20
807.939624
 30
0.0
 10
862.976387
 20
812.883224
 30
0.0
  0
SPLINE
  5
151
100
AcDbEntity
  8
Layer_1
 62
7
100
AcDbSpline
 70
8
 71
3
 72
8
 73
4
 74
0
 40
0
 40
0
 40
0
 40
0
 40
1
 40
1
 40
1
 40
1
 10
862.976387
 20
812.883224
 30
0.0
 10
861.008227
 20
817.891944
 30
0.0
 10
858.179587
 20
822.559544
 30
0.0
 10
852.076387
 20
825.758264
 30
0.0
  0
SPLINE
  5
152
100
AcDbEntity
  8
Layer_1
 62
7
100
AcDbSpline
 70
8
 71
3
 72
8
 73
4
 74
0
 40
0
 40
0
 40
0
 40
0
 40
1
 40
1
 40
1
 40
1
 10
852.076387
 20
825.758264
 30
0.0
 10
849.994627
 20
826.849384
 30
0.0
 10
848.224627
 20
828.270904
 30
0.0
 10
844.426307
 20
829.033304
 30
0.0
  0
SPLINE
  5
153
100
AcDbEntity
  8
Layer_1
 62
7
100
AcDbSpline
 70
8
 71
3
 72
8
 73
4
 74
0
 40
0
 40
0
 40
0
 40
0
 40
1
 40
1
 40
1
 40
1
 10
844.426307
 20
829.033304
 30
0.0
 10
842.649267
 20
829.389864
 30
0.0
 10
841.153667
 20
829.376264
 30
0.0
 10
839.851347
 20
829.258264
 30
0.0
  0
SPLINE
  5
154
100
AcDbEntity
  8
Layer_1
 62
7
100
AcDbSpline
 70
8
 71
3
 72
8
 73
4
 74
0
 40
0
 40
0
 40
0
 40
0
 40
1
 40
1
 40
1
 40
1
 10
839.851347
 20
829.258264
 30
0.0
 10
838.549187
 20
829.140424
 30
0.0
 10
837.500547
 20
828.965144
 30
0.0
 10
836.576387
 20
828.808264
 30
0.0
  0
SPLINE
  5
155
100
AcDbEntity
  8
Layer_1
 62
7
100
AcDbSpline
 70
8
 71
3
 72
8
 73
4
 74
0
 40
0
 40
0
 40
0
 40
0
 40
1
 40
1
 40
1
 40
1
 10
836.576387
 20
828.808264
 30
0.0
 10
836.481507
 20
828.799224
 30
0.0
 10
836.021987
 20
828.817064
 30
0.0
 10
835.926307
 20
828.808264
 30
0.0
  0
SPLINE
  5
156
100
AcDbEntity
  8
Layer_1
 62
7
100
AcDbSpline
 70
8
 71
3
 72
8
 73
4
 74
0
 40
0
 40
0
 40
0
 40
0
 40
1
 40
1
 40
1
 40
1
 10
835.926307
 20
828.808264
 30
0.0
 10
812.583987
 20
826.039544
 30
0.0
 10
774.669987
 20
815.024584
 30
0.0
 10
707.826379
 20
804.158264
 30
0.0
  0
LWPOLYLINE
  5
157
100
AcDbEntity
  8
Layer_1
 62
7
100
AcDbPolyline
 90
3
 70
0
 10
923.201347
 20
553.858264
 30
0.0
 10
923.201347
 20
554.083224
 30
0.0
 10
923.201347
 20
554.308264
 30
0.0
  0
SPLINE
  5
158
100
AcDbEntity
  8
Layer_1
 62
7
100
AcDbSpline
 70
8
 71
3
 72
8
 73
4
 74
0
 40
0
 40
0
 40
0
 40
0
 40
1
 40
1
 40
1
 40
1
 10
623.151419
 20
790.183224
 30
0.0
 10
610.277579
 20
788.090504
 30
0.0
 10
589.579659
 20
792.477784
 30
0.0
 10
580.601419
 20
797.183224
 30
0.0
  0
LWPOLYLINE
  5
159
100
AcDbEntity
  8
Layer_1
 62
7
100
AcDbPolyline
 90
2
 70
0
 10
707.826379
 20
804.158264
 30
0.0
 10
623.151419
 20
790.183224
 30
0.0
  0
SPLINE
  5
15a
100
AcDbEntity
  8
Layer_1
 62
7
100
AcDbSpline
 70
8
 71
3
 72
8
 73
4
 74
0
 40
0
 40
0
 40
0
 40
0
 40
1
 40
1
 40
1
 40
1
 10
580.401419
 20
796.533304
 30
0.0
 10
573.984299
 20
800.179704
 30
0.0
 10
569.137179
 20
798.794584
 30
0.0
 10
565.551419
 20
797.183224
 30
0.0
  0
SPLINE
  5
15b
100
AcDbEntity
  8
Layer_1
 62
7
100
AcDbSpline
 70
8
 71
3
 72
8
 73
4
 74
0
 40
0
 40
0
 40
0
 40
0
 40
1
 40
1
 40
1
 40
1
 10
565.551419
 20
797.183224
 30
0.0
 10
561.574859
 20
795.397544
 30
0.0
 10
558.420619
 20
792.505384
 30
0.0
 10
555.076459
 20
788.658264
 30
0.0
  0
LWPOLYLINE
  5
15c
100
AcDbEntity
  8
Layer_1
 62
7
100
AcDbPolyline
 90
2
 70
0
 10
580.601419
 20
797.183224
 30
0.0
 10
580.401419
 20
796.533304
 30
0.0
  0
SPLINE
  5
15d
100
AcDbEntity
  8
Layer_1
 62
7
100
AcDbSpline
 70
8
 71
3
 72
8
 73
4
 74
0
 40
0
 40
0
 40
0
 40
0
 40
1
 40
1
 40
1
 40
1
 10
554.201419
 20
787.583224
 30
0.0
 10
548.474379
 20
779.625944
 30
0.0
 10
550.161179
 20
770.835624
 30
0.0
 10
550.276459
 20
770.108264
 30
0.0
  0
SPLINE
  5
15e
100
AcDbEntity
  8
Layer_1
 62
7
100
AcDbSpline
 70
8
 71
3
 72
8
 73
4
 74
0
 40
0
 40
0
 40
0
 40
0
 40
1
 40
1
 40
1
 40
1
 10
550.276459
 20
770.108264
 30
0.0
 10
552.483499
 20
756.503944
 30
0.0
 10
552.577899
 20
733.344344
 30
0.0
 10
550.276459
 20
715.358264
 30
0.0
  0
SPLINE
  5
15f
100
AcDbEntity
  8
Layer_1
 62
7
100
AcDbSpline
 70
8
 71
3
 72
8
 73
4
 74
0
 40
0
 40
0
 40
0
 40
0
 40
1
 40
1
 40
1
 40
1
 10
550.276459
 20
715.358264
 30
0.0
 10
550.242059
 20
715.140904
 30
0.0
 10
550.310779
 20
714.898584
 30
0.0
 10
550.276459
 20
714.683224
 30
0.0
  0
SPLINE
  5
160
100
AcDbEntity
  8
Layer_1
 62
7
100
AcDbSpline
 70
8
 71
3
 72
8
 73
4
 74
0
 40
0
 40
0
 40
0
 40
0
 40
1
 40
1
 40
1
 40
1
 10
550.276459
 20
714.683224
 30
0.0
 10
547.939819
 20
700.186984
 30
0.0
 10
546.296859
 20
689.328744
 30
0.0
 10
548.101419
 20
678.258264
 30
0.0
  0
SPLINE
  5
161
100
AcDbEntity
  8
Layer_1
 62
7
100
AcDbSpline
 70
8
 71
3
 72
8
 73
4
 74
0
 40
0
 40
0
 40
0
 40
0
 40
1
 40
1
 40
1
 40
1
 10
548.101419
 20
678.258264
 30
0.0
 10
549.222219
 20
671.304504
 30
0.0
 10
552.406939
 20
665.814664
 30
0.0
 10
556.176459
 20
661.458264
 30
0.0
  0
SPLINE
  5
162
100
AcDbEntity
  8
Layer_1
 62
7
100
AcDbSpline
 70
8
 71
3
 72
8
 73
4
 74
0
 40
0
 40
0
 40
0
 40
0
 40
1
 40
1
 40
1
 40
1
 10
556.176459
 20
661.458264
 30
0.0
 10
558.061099
 20
659.279384
 30
0.0
 10
560.193739
 20
657.455864
 30
0.0
 10
562.926379
 20
655.783224
 30
0.0
  0
SPLINE
  5
163
100
AcDbEntity
  8
Layer_1
 62
7
100
AcDbSpline
 70
8
 71
3
 72
8
 73
4
 74
0
 40
0
 40
0
 40
0
 40
0
 40
1
 40
1
 40
1
 40
1
 10
562.926379
 20
655.783224
 30
0.0
 10
565.659099
 20
654.111224
 30
0.0
 10
569.380299
 20
652.220984
 30
0.0
 10
575.151419
 20
653.158264
 30
0.0
  0
SPLINE
  5
164
100
AcDbEntity
  8
Layer_1
 62
7
100
AcDbSpline
 70
8
 71
3
 72
8
 73
4
 74
0
 40
0
 40
0
 40
0
 40
0
 40
1
 40
1
 40
1
 40
1
 10
575.151419
 20
653.158264
 30
0.0
 10
584.544619
 20
654.685864
 30
0.0
 10
589.482539
 20
661.690584
 30
0.0
 10
592.176459
 20
666.683224
 30
0.0
  0
SPLINE
  5
165
100
AcDbEntity
  8
Layer_1
 62
7
100
AcDbSpline
 70
8
 71
3
 72
8
 73
4
 74
0
 40
0
 40
0
 40
0
 40
0
 40
1
 40
1
 40
1
 40
1
 10
592.176459
 20
666.683224
 30
0.0
 10
594.698059
 20
671.356424
 30
0.0
 10
595.816059
 20
675.427544
 30
0.0
 10
596.751419
 20
678.458264
 30
0.0
  0
SPLINE
  5
166
100
AcDbEntity
  8
Layer_1
 62
7
100
AcDbSpline
 70
8
 71
3
 72
8
 73
4
 74
0
 40
0
 40
0
 40
0
 40
0
 40
1
 40
1
 40
1
 40
1
 10
596.751419
 20
678.458264
 30
0.0
 10
596.813819
 20
678.667464
 30
0.0
 10
596.915819
 20
679.137304
 30
0.0
 10
596.976459
 20
679.333304
 30
0.0
  0
SPLINE
  5
167
100
AcDbEntity
  8
Layer_1
 62
7
100
AcDbSpline
 70
8
 71
3
 72
8
 73
4
 74
0
 40
0
 40
0
 40
0
 40
0
 40
1
 40
1
 40
1
 40
1
 10
596.976459
 20
679.333304
 30
0.0
 10
602.281659
 20
692.225304
 30
0.0
 10
610.840699
 20
707.555384
 30
0.0
 10
619.026379
 20
719.708264
 30
0.0
  0
SPLINE
  5
168
100
AcDbEntity
  8
Layer_1
 62
7
100
AcDbSpline
 70
8
 71
3
 72
8
 73
4
 74
0
 40
0
 40
0
 40
0
 40
0
 40
1
 40
1
 40
1
 40
1
 10
619.026379
 20
719.708264
 30
0.0
 10
623.194619
 20
725.897064
 30
0.0
 10
627.480779
 20
731.116504
 30
0.0
 10
630.576459
 20
734.558264
 30
0.0
  0
SPLINE
  5
169
100
AcDbEntity
  8
Layer_1
 62
7
100
AcDbSpline
 70
8
 71
3
 72
8
 73
4
 74
0
 40
0
 40
0
 40
0
 40
0
 40
1
 40
1
 40
1
 40
1
 10
630.576459
 20
734.558264
 30
0.0
 10
632.005099
 20
736.146424
 30
0.0
 10
633.151339
 20
737.247144
 30
0.0
 10
633.851419
 20
737.833304
 30
0.0
  0
SPLINE
  5
16a
100
AcDbEntity
  8
Layer_1
 62
7
100
AcDbSpline
 70
8
 71
3
 72
8
 73
4
 74
0
 40
0
 40
0
 40
0
 40
0
 40
1
 40
1
 40
1
 40
1
 10
633.851419
 20
737.833304
 30
0.0
 10
655.070539
 20
741.230664
 30
0.0
 10
682.145419
 20
744.837624
 30
0.0
 10
705.201419
 20
747.433304
 30
0.0
  0
SPLINE
  5
16b
100
AcDbEntity
  8
Layer_1
 62
7
100
AcDbSpline
 70
8
 71
3
 72
8
 73
4
 74
0
 40
0
 40
0
 40
0
 40
0
 40
1
 40
1
 40
1
 40
1
 10
705.201419
 20
747.433304
 30
0.0
 10
717.037739
 20
748.765304
 30
0.0
 10
727.710779
 20
749.789864
 30
0.0
 10
735.751419
 20
750.483224
 30
0.0
  0
SPLINE
  5
16c
100
AcDbEntity
  8
Layer_1
 62
7
100
AcDbSpline
 70
8
 71
3
 72
8
 73
4
 74
0
 40
0
 40
0
 40
0
 40
0
 40
1
 40
1
 40
1
 40
1
 10
735.751419
 20
750.483224
 30
0.0
 10
736.194779
 20
750.517784
 30
0.0
 10
736.423739
 20
750.448984
 30
0.0
 10
736.851419
 20
750.483224
 30
0.0
  0
SPLINE
  5
16d
100
AcDbEntity
  8
Layer_1
 62
7
100
AcDbSpline
 70
8
 71
3
 72
8
 73
4
 74
0
 40
0
 40
0
 40
0
 40
0
 40
1
 40
1
 40
1
 40
1
 10
736.851419
 20
750.483224
 30
0.0
 10
704.900139
 20
673.303544
 30
0.0
 10
660.730859
 20
565.728344
 30
0.0
 10
641.701419
 20
527.908264
 30
0.0
  0
LWPOLYLINE
  5
16e
100
AcDbEntity
  8
Layer_1
 62
7
100
AcDbPolyline
 90
3
 70
0
 10
555.076459
 20
788.658264
 30
0.0
 10
554.651419
 20
788.008264
 30
0.0
 10
554.201419
 20
787.583224
 30
0.0
  0
SPLINE
  5
16f
100
AcDbEntity
  8
Layer_1
 62
7
100
AcDbSpline
 70
8
 71
3
 72
8
 73
4
 74
0
 40
0
 40
0
 40
0
 40
0
 40
1
 40
1
 40
1
 40
1
 10
641.701419
 20
527.683224
 30
0.0
 10
631.132939
 20
505.085144
 30
0.0
 10
618.711179
 20
479.095944
 30
0.0
 10
608.976459
 20
457.858262
 30
0.0
  0
SPLINE
  5
170
100
AcDbEntity
  8
Layer_1
 62
7
100
AcDbSpline
 70
8
 71
3
 72
8
 73
4
 74
0
 40
0
 40
0
 40
0
 40
0
 40
1
 40
1
 40
1
 40
1
 10
608.976459
 20
457.858262
 30
0.0
 10
604.108939
 20
447.239382
 30
0.0
 10
599.760299
 20
437.917462
 30
0.0
 10
596.751419
 20
430.583221
 30
0.0
  0
SPLINE
  5
171
100
AcDbEntity
  8
Layer_1
 62
7
100
AcDbSpline
 70
8
 71
3
 72
8
 73
4
 74
0
 40
0
 40
0
 40
0
 40
0
 40
1
 40
1
 40
1
 40
1
 10
596.751419
 20
430.583221
 30
0.0
 10
595.246939
 20
426.916581
 30
0.0
 10
594.183419
 20
423.740661
 30
0.0
 10
593.276459
 20
420.983221
 30
0.0
  0
SPLINE
  5
172
100
AcDbEntity
  8
Layer_1
 62
7
100
AcDbSpline
 70
8
 71
3
 72
8
 73
4
 74
0
 40
0
 40
0
 40
0
 40
0
 40
1
 40
1
 40
1
 40
1
 10
593.276459
 20
420.983221
 30
0.0
 10
592.822539
 20
419.605941
 30
0.0
 10
592.493259
 20
418.275141
 30
0.0
 10
592.176459
 20
416.833301
 30
0.0
  0
SPLINE
  5
173
100
AcDbEntity
  8
Layer_1
 62
7
100
AcDbSpline
 70
8
 71
3
 72
8
 73
4
 74
0
 40
0
 40
0
 40
0
 40
0
 40
1
 40
1
 40
1
 40
1
 10
592.176459
 20
416.833301
 30
0.0
 10
591.860139
 20
415.390821
 30
0.0
 10
591.082299
 20
414.227382
 30
0.0
 10
591.726379
 20
410.283222
 30
0.0
  0
SPLINE
  5
174
100
AcDbEntity
  8
Layer_1
 62
7
100
AcDbSpline
 70
8
 71
3
 72
8
 73
4
 74
0
 40
0
 40
0
 40
0
 40
0
 40
1
 40
1
 40
1
 40
1
 10
591.726379
 20
410.283222
 30
0.0
 10
593.356779
 20
400.198262
 30
0.0
 10
598.276299
 20
397.882982
 30
0.0
 10
602.651419
 20
394.583222
 30
0.0
  0
SPLINE
  5
175
100
AcDbEntity
  8
Layer_1
 62
7
100
AcDbSpline
 70
8
 71
3
 72
8
 73
4
 74
0
 40
0
 40
0
 40
0
 40
0
 40
1
 40
1
 40
1
 40
1
 10
602.651419
 20
394.583222
 30
0.0
 10
602.849019
 20
394.434582
 30
0.0
 10
603.050379
 20
394.280102
 30
0.0
 10
603.251419
 20
394.133302
 30
0.0
  0
LWPOLYLINE
  5
176
100
AcDbEntity
  8
Layer_1
 62
7
100
AcDbPolyline
 90
2
 70
0
 10
641.701419
 20
527.908264
 30
0.0
 10
641.701419
 20
527.683224
 30
0.0
  0
SPLINE
  5
177
100
AcDbEntity
  8
Layer_1
 62
7
100
AcDbSpline
 70
8
 71
3
 72
8
 73
4
 74
0
 40
0
 40
0
 40
0
 40
0
 40
1
 40
1
 40
1
 40
1
 10
569.026379
 20
388.608262
 30
0.0
 10
569.706379
 20
389.442342
 30
0.0
 10
570.359819
 20
390.336022
 30
0.0
 10
571.001419
 20
391.308262
 30
0.0
  0
SPLINE
  5
178
100
AcDbEntity
  8
Layer_1
 62
7
100
AcDbSpline
 70
8
 71
3
 72
8
 73
4
 74
0
 40
0
 40
0
 40
0
 40
0
 40
1
 40
1
 40
1
 40
1
 10
571.001419
 20
391.308262
 30
0.0
 10
573.482859
 20
395.068822
 30
0.0
 10
575.107419
 20
400.397622
 30
0.0
 10
574.276459
 20
405.483222
 30
0.0
  0
SPLINE
  5
179
100
AcDbEntity
  8
Layer_1
 62
7
100
AcDbSpline
 70
8
 71
3
 72
8
 73
4
 74
0
 40
0
 40
0
 40
0
 40
0
 40
1
 40
1
 40
1
 40
1
 10
574.276459
 20
405.483222
 30
0.0
 10
573.548619
 20
409.957862
 30
0.0
 10
570.269339
 20
417.980261
 30
0.0
 10
564.026379
 20
422.058261
 30
0.0
  0
SPLINE
  5
17a
100
AcDbEntity
  8
Layer_1
 62
7
100
AcDbSpline
 70
8
 71
3
 72
8
 73
4
 74
0
 40
0
 40
0
 40
0
 40
0
 40
1
 40
1
 40
1
 40
1
 10
564.026379
 20
422.058261
 30
0.0
 10
557.783659
 20
426.135941
 30
0.0
 10
551.287259
 20
427.383061
 30
0.0
 10
541.326379
 20
428.833301
 30
0.0
  0
LWPOLYLINE
  5
17b
100
AcDbEntity
  8
Layer_1
 62
7
100
AcDbPolyline
 90
2
 70
0
 10
603.251419
 20
394.133302
 30
0.0
 10
569.026379
 20
388.608262
 30
0.0
  0
SPLINE
  5
17c
100
AcDbEntity
  8
Layer_1
 62
7
100
AcDbSpline
 70
8
 71
3
 72
8
 73
4
 74
0
 40
0
 40
0
 40
0
 40
0
 40
1
 40
1
 40
1
 40
1
 10
541.101419
 20
428.833301
 30
0.0
 10
526.404379
 20
430.634741
 30
0.0
 10
517.004059
 20
432.785222
 30
0.0
 10
512.751419
 20
434.933302
 30
0.0
  0
SPLINE
  5
17d
100
AcDbEntity
  8
Layer_1
 62
7
100
AcDbSpline
 70
8
 71
3
 72
8
 73
4
 74
0
 40
0
 40
0
 40
0
 40
0
 40
1
 40
1
 40
1
 40
1
 10
512.751419
 20
434.933302
 30
0.0
 10
508.581259
 20
437.039062
 30
0.0
 10
507.868059
 20
438.059942
 30
0.0
 10
506.201419
 20
444.108262
 30
0.0
  0
SPLINE
  5
17e
100
AcDbEntity
  8
Layer_1
 62
7
100
AcDbSpline
 70
8
 71
3
 72
8
 73
4
 74
0
 40
0
 40
0
 40
0
 40
0
 40
1
 40
1
 40
1
 40
1
 10
506.201419
 20
444.108262
 30
0.0
 10
506.192619
 20
444.107942
 30
0.0
 10
506.210219
 20
444.273942
 30
0.0
 10
506.201419
 20
444.308262
 30
0.0
  0
SPLINE
  5
17f
100
AcDbEntity
  8
Layer_1
 62
7
100
AcDbSpline
 70
8
 71
3
 72
8
 73
4
 74
0
 40
0
 40
0
 40
0
 40
0
 40
1
 40
1
 40
1
 40
1
 10
506.201419
 20
444.308262
 30
0.0
 10
498.659979
 20
473.674982
 30
0.0
 10
493.590219
 20
503.850424
 30
0.0
 10
464.076459
 20
685.458264
 30
0.0
  0
SPLINE
  5
180
100
AcDbEntity
  8
Layer_1
 62
7
100
AcDbSpline
 70
8
 71
3
 72
8
 73
4
 74
0
 40
0
 40
0
 40
0
 40
0
 40
1
 40
1
 40
1
 40
1
 10
464.076459
 20
685.458264
 30
0.0
 10
459.843179
 20
711.524424
 30
0.0
 10
457.789659
 20
732.070264
 30
0.0
 10
455.801419
 20
746.558264
 30
0.0
  0
SPLINE
  5
181
100
AcDbEntity
  8
Layer_1
 62
7
100
AcDbSpline
 70
8
 71
3
 72
8
 73
4
 74
0
 40
0
 40
0
 40
0
 40
0
 40
1
 40
1
 40
1
 40
1
 10
455.801419
 20
746.558264
 30
0.0
 10
454.807339
 20
753.801784
 30
0.0
 10
454.060059
 20
759.574984
 30
0.0
 10
452.526379
 20
764.658264
 30
0.0
  0
SPLINE
  5
182
100
AcDbEntity
  8
Layer_1
 62
7
100
AcDbSpline
 70
8
 71
3
 72
8
 73
4
 74
0
 40
0
 40
0
 40
0
 40
0
 40
1
 40
1
 40
1
 40
1
 10
452.526379
 20
764.658264
 30
0.0
 10
451.759659
 20
767.199544
 30
0.0
 10
450.764619
 20
769.411384
 30
0.0
 10
448.376459
 20
772.508264
 30
0.0
  0
SPLINE
  5
183
100
AcDbEntity
  8
Layer_1
 62
7
100
AcDbSpline
 70
8
 71
3
 72
8
 73
4
 74
0
 40
0
 40
0
 40
0
 40
0
 40
1
 40
1
 40
1
 40
1
 10
448.376459
 20
772.508264
 30
0.0
 10
445.988139
 20
775.605624
 30
0.0
 10
439.710539
 20
779.565304
 30
0.0
 10
433.976459
 20
778.633304
 30
0.0
  0
SPLINE
  5
184
100
AcDbEntity
  8
Layer_1
 62
7
100
AcDbSpline
 70
8
 71
3
 72
8
 73
4
 74
0
 40
0
 40
0
 40
0
 40
0
 40
1
 40
1
 40
1
 40
1
 10
433.976459
 20
778.633304
 30
0.0
 10
421.811899
 20
776.647864
 30
0.0
 10
411.092939
 20
770.340584
 30
0.0
 10
402.551419
 20
766.183224
 30
0.0
  0
LWPOLYLINE
  5
185
100
AcDbEntity
  8
Layer_1
 62
7
100
AcDbPolyline
 90
2
 70
0
 10
541.326379
 20
428.833301
 30
0.0
 10
541.101419
 20
428.833301
 30
0.0
  0
SPLINE
  5
186
100
AcDbEntity
  8
Layer_1
 62
7
100
AcDbSpline
 70
8
 71
3
 72
8
 73
4
 74
0
 40
0
 40
0
 40
0
 40
0
 40
1
 40
1
 40
1
 40
1
 10
402.326379
 20
766.183224
 30
0.0
 10
393.417179
 20
761.694104
 30
0.0
 10
387.247259
 20
757.831384
 30
0.0
 10
372.426379
 20
753.083224
 30
0.0
  0
SPLINE
  5
187
100
AcDbEntity
  8
Layer_1
 62
7
100
AcDbSpline
 70
8
 71
3
 72
8
 73
4
 74
0
 40
0
 40
0
 40
0
 40
0
 40
1
 40
1
 40
1
 40
1
 10
372.426379
 20
753.083224
 30
0.0
 10
357.605499
 20
748.335864
 30
0.0
 10
334.185659
 20
742.918344
 30
0.0
 10
293.226379
 20
736.733304
 30
0.0
  0
SPLINE
  5
188
100
AcDbEntity
  8
Layer_1
 62
7
100
AcDbSpline
 70
8
 71
3
 72
8
 73
4
 74
0
 40
0
 40
0
 40
0
 40
0
 40
1
 40
1
 40
1
 40
1
 10
293.226379
 20
736.733304
 30
0.0
 10
291.885579
 20
736.514424
 30
0.0
 10
274.011339
 20
733.573944
 30
0.0
 10
255.026379
 20
730.608264
 30
0.0
  0
SPLINE
  5
189
100
AcDbEntity
  8
Layer_1
 62
7
100
AcDbSpline
 70
8
 71
3
 72
8
 73
4
 74
0
 40
0
 40
0
 40
0
 40
0
 40
1
 40
1
 40
1
 40
1
 10
255.026379
 20
730.608264
 30
0.0
 10
236.041739
 20
727.643064
 30
0.0
 10
214.717099
 20
724.634264
 30
0.0
 10
210.526379
 20
724.283224
 30
0.0
  0
LWPOLYLINE
  5
18a
100
AcDbEntity
  8
Layer_1
 62
7
100
AcDbPolyline
 90
2
 70
0
 10
402.551419
 20
766.183224
 30
0.0
 10
402.326379
 20
766.183224
 30
0.0
  0
SPLINE
  5
18b
100
AcDbEntity
  8
Layer_1
 62
7
100
AcDbSpline
 70
8
 71
3
 72
8
 73
4
 74
0
 40
0
 40
0
 40
0
 40
0
 40
1
 40
1
 40
1
 40
1
 10
209.426379
 20
724.083224
 30
0.0
 10
189.804539
 20
847.889784
 30
0.0
 10
203.086619
 20
909.656904
 30
0.0
 10
217.926379
 20
933.983224
 30
0.0
  0
LWPOLYLINE
  5
18c
100
AcDbEntity
  8
Layer_1
 62
7
100
AcDbPolyline
 90
3
 70
0
 10
210.526379
 20
724.283224
 30
0.0
 10
209.851419
 20
724.283224
 30
0.0
 10
209.426379
 20
724.083224
 30
0.0
  0
SPLINE
  5
18d
100
AcDbEntity
  8
Layer_1
 62
7
100
AcDbSpline
 70
8
 71
3
 72
8
 73
4
 74
0
 40
0
 40
0
 40
0
 40
0
 40
1
 40
1
 40
1
 40
1
 10
217.926379
 20
934.208264
 30
0.0
 10
229.912459
 20
954.933144
 30
0.0
 10
241.483339
 20
962.591304
 30
0.0
 10
261.576459
 20
965.858264
 30
0.0
  0
SPLINE
  5
18e
100
AcDbEntity
  8
Layer_1
 62
7
100
AcDbSpline
 70
8
 71
3
 72
8
 73
4
 74
0
 40
0
 40
0
 40
0
 40
0
 40
1
 40
1
 40
1
 40
1
 10
261.576459
 20
965.858264
 30
0.0
 10
288.159339
 20
969.207304
 30
0.0
 10
311.808699
 20
963.239304
 30
0.0
 10
332.926379
 20
947.308264
 30
0.0
  0
LWPOLYLINE
  5
18f
100
AcDbEntity
  8
Layer_1
 62
7
100
AcDbPolyline
 90
2
 70
0
 10
217.926379
 20
933.983224
 30
0.0
 10
217.926379
 20
934.208264
 30
0.0
  0
SPLINE
  5
190
100
AcDbEntity
  8
Layer_1
 62
7
100
AcDbSpline
 70
8
 71
3
 72
8
 73
4
 74
0
 40
0
 40
0
 40
0
 40
0
 40
1
 40
1
 40
1
 40
1
 10
333.601419
 20
947.083224
 30
0.0
 10
343.887499
 20
940.083144
 30
0.0
 10
353.230459
 20
934.039144
 30
0.0
 10
360.876459
 20
929.633304
 30
0.0
  0
SPLINE
  5
191
100
AcDbEntity
  8
Layer_1
 62
7
100
AcDbSpline
 70
8
 71
3
 72
8
 73
4
 74
0
 40
0
 40
0
 40
0
 40
0
 40
1
 40
1
 40
1
 40
1
 10
360.876459
 20
929.633304
 30
0.0
 10
364.699499
 20
927.430104
 30
0.0
 10
367.809019
 20
925.572264
 30
0.0
 10
371.126379
 20
924.183224
 30
0.0
  0
SPLINE
  5
192
100
AcDbEntity
  8
Layer_1
 62
7
100
AcDbSpline
 70
8
 71
3
 72
8
 73
4
 74
0
 40
0
 40
0
 40
0
 40
0
 40
1
 40
1
 40
1
 40
1
 10
371.126379
 20
924.183224
 30
0.0
 10
374.443899
 20
922.794824
 30
0.0
 10
377.023659
 20
920.891784
 30
0.0
 10
383.776459
 20
921.983224
 30
0.0
  0
SPLINE
  5
193
100
AcDbEntity
  8
Layer_1
 62
7
100
AcDbSpline
 70
8
 71
3
 72
8
 73
4
 74
0
 40
0
 40
0
 40
0
 40
0
 40
1
 40
1
 40
1
 40
1
 10
383.776459
 20
921.983224
 30
0.0
 10
391.049259
 20
923.164104
 30
0.0
 10
395.393419
 20
926.325544
 30
0.0
 10
400.801419
 20
930.283224
 30
0.0
  0
SPLINE
  5
194
100
AcDbEntity
  8
Layer_1
 62
7
100
AcDbSpline
 70
8
 71
3
 72
8
 73
4
 74
0
 40
0
 40
0
 40
0
 40
0
 40
1
 40
1
 40
1
 40
1
 10
400.801419
 20
930.283224
 30
0.0
 10
406.209339
 20
934.241224
 30
0.0
 10
411.783899
 20
939.258984
 30
0.0
 10
416.951419
 20
945.133304
 30
0.0
  0
SPLINE
  5
195
100
AcDbEntity
  8
Layer_1
 62
7
100
AcDbSpline
 70
8
 71
3
 72
8
 73
4
 74
0
 40
0
 40
0
 40
0
 40
0
 40
1
 40
1
 40
1
 40
1
 10
416.951419
 20
945.133304
 30
0.0
 10
427.286379
 20
956.881224
 30
0.0
 10
437.352139
 20
972.151944
 30
0.0
 10
434.401419
 20
990.283224
 30
0.0
  0
LWPOLYLINE
  5
196
100
AcDbEntity
  8
Layer_1
 62
7
100
AcDbPolyline
 90
3
 70
0
 10
332.926379
 20
947.308264
 30
0.0
 10
333.151419
 20
947.083224
 30
0.0
 10
333.601419
 20
947.083224
 30
0.0
  0
SPLINE
  5
197
100
AcDbEntity
  8
Layer_1
 62
7
100
AcDbSpline
 70
8
 71
3
 72
8
 73
4
 74
0
 40
0
 40
0
 40
0
 40
0
 40
1
 40
1
 40
1
 40
1
 10
434.626379
 20
990.283224
 30
0.0
 10
433.019739
 20
1000.203224
 30
0.0
 10
427.527419
 20
1009.046176
 30
0.0
 10
419.351419
 20
1016.908264
 30
0.0
  0
SPLINE
  5
198
100
AcDbEntity
  8
Layer_1
 62
7
100
AcDbSpline
 70
8
 71
3
 72
8
 73
4
 74
0
 40
0
 40
0
 40
0
 40
0
 40
1
 40
1
 40
1
 40
1
 10
419.351419
 20
1016.908264
 30
0.0
 10
419.158699
 20
1017.093304
 30
0.0
 10
419.096779
 20
1017.374584
 30
0.0
 10
418.901419
 20
1017.558264
 30
0.0
  0
SPLINE
  5
199
100
AcDbEntity
  8
Layer_1
 62
7
100
AcDbSpline
 70
8
 71
3
 72
8
 73
4
 74
0
 40
0
 40
0
 40
0
 40
0
 40
1
 40
1
 40
1
 40
1
 10
418.901419
 20
1017.558264
 30
0.0
 10
418.825419
 20
1017.638272
 30
0.0
 10
418.779659
 20
1017.705104
 30
0.0
 10
418.701419
 20
1017.783264
 30
0.0
  0
SPLINE
  5
19a
100
AcDbEntity
  8
Layer_1
 62
7
100
AcDbSpline
 70
8
 71
3
 72
8
 73
4
 74
0
 40
0
 40
0
 40
0
 40
0
 40
1
 40
1
 40
1
 40
1
 10
418.701419
 20
1017.783264
 30
0.0
 10
405.525019
 20
1031.630384
 30
0.0
 10
379.836859
 20
1049.044552
 30
0.0
 10
336.001419
 20
1049.433264
 30
0.0
  0
SPLINE
  5
19b
100
AcDbEntity
  8
Layer_1
 62
7
100
AcDbSpline
 70
8
 71
3
 72
8
 73
4
 74
0
 40
0
 40
0
 40
0
 40
0
 40
1
 40
1
 40
1
 40
1
 10
336.001419
 20
1049.433264
 30
0.0
 10
325.885579
 20
1049.523344
 30
0.0
 10
314.733819
 20
1048.579792
 30
0.0
 10
302.601419
 20
1046.608264
 30
0.0
  0
SPLINE
  5
19c
100
AcDbEntity
  8
Layer_1
 62
7
100
AcDbSpline
 70
8
 71
3
 72
8
 73
4
 74
0
 40
0
 40
0
 40
0
 40
0
 40
1
 40
1
 40
1
 40
1
 10
302.601419
 20
1046.608264
 30
0.0
 10
258.188859
 20
1039.389784
 30
0.0
 10
216.382859
 20
1013.546064
 30
0.0
 10
184.776459
 20
979.383224
 30
0.0
  0
SPLINE
  5
19d
100
AcDbEntity
  8
Layer_1
 62
7
100
AcDbSpline
 70
8
 71
3
 72
8
 73
4
 74
0
 40
0
 40
0
 40
0
 40
0
 40
1
 40
1
 40
1
 40
1
 10
184.776459
 20
979.383224
 30
0.0
 10
184.689259
 20
979.289224
 30
0.0
 10
184.638139
 20
979.053224
 30
0.0
 10
184.551419
 20
978.958264
 30
0.0
  0
SPLINE
  5
19e
100
AcDbEntity
  8
Layer_1
 62
7
100
AcDbSpline
 70
8
 71
3
 72
8
 73
4
 74
0
 40
0
 40
0
 40
0
 40
0
 40
1
 40
1
 40
1
 40
1
 10
184.551419
 20
978.958264
 30
0.0
 10
150.760459
 20
943.990824
 30
0.0
 10
129.545819
 20
897.753544
 30
0.0
 10
118.001419
 20
853.483224
 30
0.0
  0
SPLINE
  5
19f
100
AcDbEntity
  8
Layer_1
 62
7
100
AcDbSpline
 70
8
 71
3
 72
8
 73
4
 74
0
 40
0
 40
0
 40
0
 40
0
 40
1
 40
1
 40
1
 40
1
 10
118.001419
 20
853.483224
 30
0.0
 10
105.253339
 20
803.800504
 30
0.0
 10
107.923179
 20
752.719464
 30
0.0
 10
115.151419
 20
707.483224
 30
0.0
  0
SPLINE
  5
1a0
100
AcDbEntity
  8
Layer_1
 62
7
100
AcDbSpline
 70
8
 71
3
 72
8
 73
4
 74
0
 40
0
 40
0
 40
0
 40
0
 40
1
 40
1
 40
1
 40
1
 10
115.151419
 20
707.483224
 30
0.0
 10
115.123419
 20
707.413064
 30
0.0
 10
115.046219
 20
707.276984
 30
0.0
 10
114.926379
 20
707.058264
 30
0.0
  0
SPLINE
  5
1a1
100
AcDbEntity
  8
Layer_1
 62
7
100
AcDbSpline
 70
8
 71
3
 72
8
 73
4
 74
0
 40
0
 40
0
 40
0
 40
0
 40
1
 40
1
 40
1
 40
1
 10
114.926379
 20
707.058264
 30
0.0
 10
114.448139
 20
706.181624
 30
0.0
 10
113.350059
 20
704.848024
 30
0.0
 10
112.326379
 20
703.783224
 30
0.0
  0
SPLINE
  5
1a2
100
AcDbEntity
  8
Layer_1
 62
7
100
AcDbSpline
 70
8
 71
3
 72
8
 73
4
 74
0
 40
0
 40
0
 40
0
 40
0
 40
1
 40
1
 40
1
 40
1
 10
112.326379
 20
703.783224
 30
0.0
 10
99.325579
 20
694.098664
 30
0.0
 10
89.975579
 20
686.462104
 30
0.0
 10
83.726379
 20
680.008264
 30
0.0
  0
SPLINE
  5
1a3
100
AcDbEntity
  8
Layer_1
 62
7
100
AcDbSpline
 70
8
 71
3
 72
8
 73
4
 74
0
 40
0
 40
0
 40
0
 40
0
 40
1
 40
1
 40
1
 40
1
 10
83.726379
 20
680.008264
 30
0.0
 10
77.119339
 20
673.185624
 30
0.0
 10
72.617419
 20
666.143144
 30
0.0
 10
71.951419
 20
658.183224
 30
0.0
  0
SPLINE
  5
1a4
100
AcDbEntity
  8
Layer_1
 62
7
100
AcDbSpline
 70
8
 71
3
 72
8
 73
4
 74
0
 40
0
 40
0
 40
0
 40
0
 40
1
 40
1
 40
1
 40
1
 10
71.951419
 20
658.183224
 30
0.0
 10
71.385099
 20
651.406424
 30
0.0
 10
73.787819
 20
647.202984
 30
0.0
 10
77.176459
 20
642.908264
 30
0.0
  0
SPLINE
  5
1a5
100
AcDbEntity
  8
Layer_1
 62
7
100
AcDbSpline
 70
8
 71
3
 72
8
 73
4
 74
0
 40
0
 40
0
 40
0
 40
0
 40
1
 40
1
 40
1
 40
1
 10
77.176459
 20
642.908264
 30
0.0
 10
80.397339
 20
638.826984
 30
0.0
 10
86.437979
 20
634.969064
 30
0.0
 10
94.201419
 20
635.708264
 30
0.0
  0
LWPOLYLINE
  5
1a6
100
AcDbEntity
  8
Layer_1
 62
7
100
AcDbPolyline
 90
2
 70
0
 10
434.401419
 20
990.283224
 30
0.0
 10
434.626379
 20
990.283224
 30
0.0
  0
SPLINE
  5
1a7
100
AcDbEntity
  8
Layer_1
 62
7
100
AcDbSpline
 70
8
 71
3
 72
8
 73
4
 74
0
 40
0
 40
0
 40
0
 40
0
 40
1
 40
1
 40
1
 40
1
 10
94.201419
 20
635.033304
 30
0.0
 10
105.167659
 20
635.957304
 30
0.0
 10
113.561819
 20
635.692104
 30
0.0
 10
126.501419
 20
635.908264
 30
0.0
  0
LWPOLYLINE
  5
1a8
100
AcDbEntity
  8
Layer_1
 62
7
100
AcDbPolyline
 90
2
 70
0
 10
94.201419
 20
635.708264
 30
0.0
 10
94.201419
 20
635.033304
 30
0.0
  0
SPLINE
  5
1a9
100
AcDbEntity
  8
Layer_1
 62
7
100
AcDbSpline
 70
8
 71
3
 72
8
 73
4
 74
0
 40
0
 40
0
 40
0
 40
0
 40
1
 40
1
 40
1
 40
1
 10
126.726379
 20
635.908264
 30
0.0
 10
132.466139
 20
600.573144
 30
0.0
 10
141.219419
 20
546.294664
 30
0.0
 10
148.751419
 20
497.783224
 30
0.0
  0
SPLINE
  5
1aa
100
AcDbEntity
  8
Layer_1
 62
7
100
AcDbSpline
 70
8
 71
3
 72
8
 73
4
 74
0
 40
0
 40
0
 40
0
 40
0
 40
1
 40
1
 40
1
 40
1
 10
148.751419
 20
497.783224
 30
0.0
 10
152.585019
 20
473.092982
 30
0.0
 10
156.048859
 20
450.117302
 30
0.0
 10
158.576459
 20
432.108262
 30
0.0
  0
SPLINE
  5
1ab
100
AcDbEntity
  8
Layer_1
 62
7
100
AcDbSpline
 70
8
 71
3
 72
8
 73
4
 74
0
 40
0
 40
0
 40
0
 40
0
 40
1
 40
1
 40
1
 40
1
 10
158.576459
 20
432.108262
 30
0.0
 10
161.103899
 20
414.099702
 30
0.0
 10
162.700379
 20
399.950022
 30
0.0
 10
162.726379
 20
397.833302
 30
0.0
  0
SPLINE
  5
1ac
100
AcDbEntity
  8
Layer_1
 62
7
100
AcDbSpline
 70
8
 71
3
 72
8
 73
4
 74
0
 40
0
 40
0
 40
0
 40
0
 40
1
 40
1
 40
1
 40
1
 10
162.726379
 20
397.833302
 30
0.0
 10
162.739179
 20
383.648502
 30
0.0
 10
161.575659
 20
378.150822
 30
0.0
 10
159.451419
 20
374.933302
 30
0.0
  0
SPLINE
  5
1ad
100
AcDbEntity
  8
Layer_1
 62
7
100
AcDbSpline
 70
8
 71
3
 72
8
 73
4
 74
0
 40
0
 40
0
 40
0
 40
0
 40
1
 40
1
 40
1
 40
1
 10
159.451419
 20
374.933302
 30
0.0
 10
157.358139
 20
371.762982
 30
0.0
 10
151.553579
 20
367.438662
 30
0.0
 10
138.276459
 20
360.758262
 30
0.0
  0
SPLINE
  5
1ae
100
AcDbEntity
  8
Layer_1
 62
7
100
AcDbSpline
 70
8
 71
3
 72
8
 73
4
 74
0
 40
0
 40
0
 40
0
 40
0
 40
1
 40
1
 40
1
 40
1
 10
138.276459
 20
360.758262
 30
0.0
 10
138.082779
 20
360.660022
 30
0.0
 10
138.051019
 20
360.406342
 30
0.0
 10
137.851419
 20
360.308262
 30
0.0
  0
SPLINE
  5
1af
100
AcDbEntity
  8
Layer_1
 62
7
100
AcDbSpline
 70
8
 71
3
 72
8
 73
4
 74
0
 40
0
 40
0
 40
0
 40
0
 40
1
 40
1
 40
1
 40
1
 10
137.851419
 20
360.308262
 30
0.0
 10
131.300939
 20
357.222822
 30
0.0
 10
125.790779
 20
354.539622
 30
0.0
 10
121.051419
 20
350.058262
 30
0.0
  0
SPLINE
  5
1b0
100
AcDbEntity
  8
Layer_1
 62
7
100
AcDbSpline
 70
8
 71
3
 72
8
 73
4
 74
0
 40
0
 40
0
 40
0
 40
0
 40
1
 40
1
 40
1
 40
1
 10
121.051419
 20
350.058262
 30
0.0
 10
116.222299
 20
345.491222
 30
0.0
 10
112.397499
 20
337.114265
 30
0.0
 10
113.626379
 20
329.558265
 30
0.0
  0
SPLINE
  5
1b1
100
AcDbEntity
  8
Layer_1
 62
7
100
AcDbSpline
 70
8
 71
3
 72
8
 73
4
 74
0
 40
0
 40
0
 40
0
 40
0
 40
1
 40
1
 40
1
 40
1
 10
113.626379
 20
329.558265
 30
0.0
 10
114.524059
 20
324.060425
 30
0.0
 10
117.577819
 20
319.530024
 30
0.0
 10
121.551419
 20
316.308264
 30
0.0
  0
LWPOLYLINE
  5
1b2
100
AcDbEntity
  8
Layer_1
 62
7
100
AcDbPolyline
 90
2
 70
0
 10
126.501419
 20
635.908264
 30
0.0
 10
126.726379
 20
635.908264
 30
0.0
  0
SPLINE
  5
1b3
100
AcDbEntity
  8
Layer_1
 62
7
100
AcDbSpline
 70
8
 71
3
 72
8
 73
4
 74
0
 40
0
 40
0
 40
0
 40
0
 40
1
 40
1
 40
1
 40
1
 10
74.276459
 20
308.658264
 30
0.0
 10
39.549258
 20
303.046184
 30
0.0
 10
16.114698
 20
270.585384
 30
0.0
 10
21.726378
 20
235.858264
 30
0.0
  0
SPLINE
  5
1b4
100
AcDbEntity
  8
Layer_1
 62
7
100
AcDbSpline
 70
8
 71
3
 72
8
 73
4
 74
0
 40
0
 40
0
 40
0
 40
0
 40
1
 40
1
 40
1
 40
1
 10
21.726378
 20
235.858264
 30
0.0
 10
27.338218
 20
201.130744
 30
0.0
 10
59.799259
 20
177.671624
 30
0.0
 10
94.526379
 20
183.283224
 30
0.0
  0
LWPOLYLINE
  5
1b5
100
AcDbEntity
  8
Layer_1
 62
7
100
AcDbPolyline
 90
2
 70
0
 10
121.551419
 20
316.308264
 30
0.0
 10
74.276459
 20
308.658264
 30
0.0
  0
SPLINE
  5
1b6
100
AcDbEntity
  8
Layer_1
 62
7
100
AcDbSpline
 70
8
 71
3
 72
8
 73
4
 74
0
 40
0
 40
0
 40
0
 40
0
 40
1
 40
1
 40
1
 40
1
 10
1646.751347
 20
843.683224
 30
0.0
 10
1732.719107
 20
857.649144
 30
0.0
 10
1797.769667
 20
891.537784
 30
0.0
 10
1841.901347
 20
945.358264
 30
0.0
  0
SPLINE
  5
1b7
100
AcDbEntity
  8
Layer_1
 62
7
100
AcDbSpline
 70
8
 71
3
 72
8
 73
4
 74
0
 40
0
 40
0
 40
0
 40
0
 40
1
 40
1
 40
1
 40
1
 10
1841.901347
 20
945.358264
 30
0.0
 10
1886.024227
 20
999.187384
 30
0.0
 10
1902.077987
 20
1063.030784
 30
0.0
 10
1890.076387
 20
1136.883264
 30
0.0
  0
SPLINE
  5
1b8
100
AcDbEntity
  8
Layer_1
 62
7
100
AcDbSpline
 70
8
 71
3
 72
8
 73
4
 74
0
 40
0
 40
0
 40
0
 40
0
 40
1
 40
1
 40
1
 40
1
 10
1890.076387
 20
1136.883264
 30
0.0
 10
1882.203107
 20
1185.361824
 30
0.0
 10
1862.495347
 20
1227.060256
 30
0.0
 10
1830.976387
 20
1261.983296
 30
0.0
  0
SPLINE
  5
1b9
100
AcDbEntity
  8
Layer_1
 62
7
100
AcDbSpline
 70
8
 71
3
 72
8
 73
4
 74
0
 40
0
 40
0
 40
0
 40
0
 40
1
 40
1
 40
1
 40
1
 10
1830.976387
 20
1261.983296
 30
0.0
 10
1799.448787
 20
1296.888896
 30
0.0
 10
1760.653187
 20
1320.325136
 30
0.0
 10
1714.601347
 20
1332.283296
 30
0.0
  0
SPLINE
  5
1ba
100
AcDbEntity
  8
Layer_1
 62
7
100
AcDbSpline
 70
8
 71
3
 72
8
 73
4
 74
0
 40
0
 40
0
 40
0
 40
0
 40
1
 40
1
 40
1
 40
1
 10
1714.601347
 20
1332.283296
 30
0.0
 10
1693.006227
 20
1337.880496
 30
0.0
 10
1667.390387
 20
1340.702496
 30
0.0
 10
1637.776387
 20
1340.733296
 30
0.0
  0
LWPOLYLINE
  5
1bb
100
AcDbEntity
  8
Layer_1
 62
7
100
AcDbPolyline
 90
6
 70
0
 10
94.526379
 20
183.283224
 30
0.0
 10
2024.226307
 20
495.108264
 30
0.0
 10
2007.876387
 20
621.108264
 30
0.0
 10
1556.576387
 20
548.183224
 30
0.0
 10
1512.101347
 20
821.808264
 30
0.0
 10
1646.751347
 20
843.683224
 30
0.0
  0
SPLINE
  5
1bc
100
AcDbEntity
  8
Layer_1
 62
7
100
AcDbSpline
 70
8
 71
3
 72
8
 73
4
 74
0
 40
0
 40
0
 40
0
 40
0
 40
1
 40
1
 40
1
 40
1
 10
1575.651347
 20
1154.733264
 30
0.0
 10
1621.189987
 20
1155.050392
 30
0.0
 10
1647.206307
 20
1135.122304
 30
0.0
 10
1653.726307
 20
1094.983264
 30
0.0
  0
SPLINE
  5
1bd
100
AcDbEntity
  8
Layer_1
 62
7
100
AcDbSpline
 70
8
 71
3
 72
8
 73
4
 74
0
 40
0
 40
0
 40
0
 40
0
 40
1
 40
1
 40
1
 40
1
 10
1653.726307
 20
1094.983264
 30
0.0
 10
1662.096947
 20
1043.467184
 30
0.0
 10
1631.240627
 20
1012.023976
 30
0.0
 10
1561.176387
 20
1000.633304
 30
0.0
  0
LWPOLYLINE
  5
1be
100
AcDbEntity
  8
Layer_1
 62
7
100
AcDbPolyline
 90
2
 70
0
 10
1637.776387
 20
1340.733296
 30
0.0
 10
1637.776387
 20
1340.733296
 30
0.0
  0
SPLINE
  5
1bf
100
AcDbEntity
  8
Layer_1
 62
7
100
AcDbSpline
 70
8
 71
3
 72
8
 73
4
 74
0
 40
0
 40
0
 40
0
 40
0
 40
1
 40
1
 40
1
 40
1
 10
1544.776387
 20
1151.908264
 30
0.0
 10
1555.908147
 20
1153.717544
 30
0.0
 10
1566.199907
 20
1154.667496
 30
0.0
 10
1575.651347
 20
1154.733264
 30
0.0
  0
LWPOLYLINE
  5
1c0
100
AcDbEntity
  8
Layer_1
 62
7
100
AcDbPolyline
 90
4
 70
0
 10
1561.176387
 20
1000.633304
 30
0.0
 10
1481.651347
 20
987.708264
 30
0.0
 10
1457.276387
 20
1137.708264
 30
0.0
 10
1544.776387
 20
1151.908264
 30
0.0
  0
SPLINE
  5
1c1
100
AcDbEntity
  8
Layer_1
 62
7
100
AcDbSpline
 70
8
 71
3
 72
8
 73
4
 74
0
 40
0
 40
0
 40
0
 40
0
 40
1
 40
1
 40
1
 40
1
 10
355.276459
 20
1009.233264
 30
0.0
 10
356.261739
 20
1009.251664
 30
0.0
 10
357.244699
 20
1009.193184
 30
0.0
 10
358.251419
 20
1009.058264
 30
0.0
  0
SPLINE
  5
1c2
100
AcDbEntity
  8
Layer_1
 62
7
100
AcDbSpline
 70
8
 71
3
 72
8
 73
4
 74
0
 40
0
 40
0
 40
0
 40
0
 40
1
 40
1
 40
1
 40
1
 10
358.251419
 20
1009.058264
 30
0.0
 10
368.989259
 20
1007.617304
 30
0.0
 10
376.542379
 20
997.746024
 30
0.0
 10
375.101419
 20
987.008264
 30
0.0
  0
SPLINE
  5
1c3
100
AcDbEntity
  8
Layer_1
 62
7
100
AcDbSpline
 70
8
 71
3
 72
8
 73
4
 74
0
 40
0
 40
0
 40
0
 40
0
 40
1
 40
1
 40
1
 40
1
 10
375.101419
 20
987.008264
 30
0.0
 10
373.660459
 20
976.270504
 30
0.0
 10
363.789179
 20
968.717224
 30
0.0
 10
353.051419
 20
970.158264
 30
0.0
  0
SPLINE
  5
1c4
100
AcDbEntity
  8
Layer_1
 62
7
100
AcDbSpline
 70
8
 71
3
 72
8
 73
4
 74
0
 40
0
 40
0
 40
0
 40
0
 40
1
 40
1
 40
1
 40
1
 10
353.051419
 20
970.158264
 30
0.0
 10
342.313579
 20
971.599224
 30
0.0
 10
334.760459
 20
981.470504
 30
0.0
 10
336.201419
 20
992.208264
 30
0.0
  0
SPLINE
  5
1c5
100
AcDbEntity
  8
Layer_1
 62
7
100
AcDbSpline
 70
8
 71
3
 72
8
 73
4
 74
0
 40
0
 40
0
 40
0
 40
0
 40
1
 40
1
 40
1
 40
1
 10
336.201419
 20
992.208264
 30
0.0
 10
337.507259
 20
1001.939304
 30
0.0
 10
345.752459
 20
1009.059664
 30
0.0
 10
355.276459
 20
1009.233264
 30
0.0
  0
LWPOLYLINE
  5
1c6
100
AcDbEntity
  8
Layer_1
 62
7
100
AcDbPolyline
 90
2
 70
0
 10
1575.651347
 20
1154.733264
 30
0.0
 10
1575.651347
 20
1154.733264
 30
0.0
  0
SPLINE
  5
1c7
100
AcDbEntity
  8
Layer_1
 62
7
100
AcDbSpline
 70
8
 71
3
 72
8
 73
4
 74
0
 40
0
 40
0
 40
0
 40
0
 40
1
 40
1
 40
1
 40
1
 10
297.251419
 20
1001.908264
 30
0.0
 10
298.448379
 20
1001.908264
 30
0.0
 10
299.650139
 20
1001.430344
 30
0.0
 10
300.451419
 20
1000.533304
 30
0.0
  0
SPLINE
  5
1c8
100
AcDbEntity
  8
Layer_1
 62
7
100
AcDbSpline
 70
8
 71
3
 72
8
 73
4
 74
0
 40
0
 40
0
 40
0
 40
0
 40
1
 40
1
 40
1
 40
1
 10
300.451419
 20
1000.533304
 30
0.0
 10
301.760059
 20
999.168344
 30
0.0
 10
301.978779
 20
996.927464
 30
0.0
 10
300.951419
 20
995.333304
 30
0.0
  0
SPLINE
  5
1c9
100
AcDbEntity
  8
Layer_1
 62
7
100
AcDbSpline
 70
8
 71
3
 72
8
 73
4
 74
0
 40
0
 40
0
 40
0
 40
0
 40
1
 40
1
 40
1
 40
1
 10
300.951419
 20
995.333304
 30
0.0
 10
299.962299
 20
993.690904
 30
0.0
 10
297.803019
 20
992.862504
 30
0.0
 10
295.976459
 20
993.483224
 30
0.0
  0
SPLINE
  5
1ca
100
AcDbEntity
  8
Layer_1
 62
7
100
AcDbSpline
 70
8
 71
3
 72
8
 73
4
 74
0
 40
0
 40
0
 40
0
 40
0
 40
1
 40
1
 40
1
 40
1
 10
295.976459
 20
993.483224
 30
0.0
 10
294.072539
 20
994.055704
 30
0.0
 10
292.778299
 20
996.082104
 30
0.0
 10
293.026379
 20
998.058264
 30
0.0
  0
SPLINE
  5
1cb
100
AcDbEntity
  8
Layer_1
 62
7
100
AcDbSpline
 70
8
 71
3
 72
8
 73
4
 74
0
 40
0
 40
0
 40
0
 40
0
 40
1
 40
1
 40
1
 40
1
 10
293.026379
 20
998.058264
 30
0.0
 10
293.163259
 20
999.439864
 30
0.0
 10
293.992139
 20
1000.694824
 30
0.0
 10
295.201419
 20
1001.358264
 30
0.0
  0
SPLINE
  5
1cc
100
AcDbEntity
  8
Layer_1
 62
7
100
AcDbSpline
 70
8
 71
3
 72
8
 73
4
 74
0
 40
0
 40
0
 40
0
 40
0
 40
1
 40
1
 40
1
 40
1
 10
295.201419
 20
1001.358264
 30
0.0
 10
295.826939
 20
1001.719784
 30
0.0
 10
296.533259
 20
1001.906104
 30
0.0
 10
297.251419
 20
1001.908264
 30
0.0
  0
LWPOLYLINE
  5
1cd
100
AcDbEntity
  8
Layer_1
 62
7
100
AcDbPolyline
 90
2
 70
0
 10
355.276459
 20
1009.233264
 30
0.0
 10
355.276459
 20
1009.233264
 30
0.0
  0
SPLINE
  5
1ce
100
AcDbEntity
  8
Layer_1
 62
7
100
AcDbSpline
 70
8
 71
3
 72
8
 73
4
 74
0
 40
0
 40
0
 40
0
 40
0
 40
1
 40
1
 40
1
 40
1
 10
413.876459
 20
985.958264
 30
0.0
 10
414.147019
 20
985.979064
 30
0.0
 10
414.422139
 20
985.966664
 30
0.0
 10
414.701419
 20
985.933304
 30
0.0
  0
LWPOLYLINE
  5
1cf
100
AcDbEntity
  8
Layer_1
 62
7
100
AcDbPolyline
 90
2
 70
0
 10
297.251419
 20
1001.908264
 30
0.0
 10
297.251419
 20
1001.908264
 30
0.0
  0
SPLINE
  5
1d0
100
AcDbEntity
  8
Layer_1
 62
7
100
AcDbSpline
 70
8
 71
3
 72
8
 73
4
 74
0
 40
0
 40
0
 40
0
 40
0
 40
1
 40
1
 40
1
 40
1
 10
414.876459
 20
985.908264
 30
0.0
 10
417.159099
 20
985.544344
 30
0.0
 10
418.715259
 20
983.390904
 30
0.0
 10
418.351419
 20
981.108264
 30
0.0
  0
SPLINE
  5
1d1
100
AcDbEntity
  8
Layer_1
 62
7
100
AcDbSpline
 70
8
 71
3
 72
8
 73
4
 74
0
 40
0
 40
0
 40
0
 40
0
 40
1
 40
1
 40
1
 40
1
 10
418.351419
 20
981.108264
 30
0.0
 10
417.987499
 20
978.825544
 30
0.0
 10
415.834059
 20
977.269224
 30
0.0
 10
413.551419
 20
977.633304
 30
0.0
  0
SPLINE
  5
1d2
100
AcDbEntity
  8
Layer_1
 62
7
100
AcDbSpline
 70
8
 71
3
 72
8
 73
4
 74
0
 40
0
 40
0
 40
0
 40
0
 40
1
 40
1
 40
1
 40
1
 10
413.551419
 20
977.633304
 30
0.0
 10
411.268699
 20
977.997064
 30
0.0
 10
409.712379
 20
980.150664
 30
0.0
 10
410.076459
 20
982.433304
 30
0.0
  0
SPLINE
  5
1d3
100
AcDbEntity
  8
Layer_1
 62
7
100
AcDbSpline
 70
8
 71
3
 72
8
 73
4
 74
0
 40
0
 40
0
 40
0
 40
0
 40
1
 40
1
 40
1
 40
1
 10
410.076459
 20
982.433304
 30
0.0
 10
410.386379
 20
984.377944
 30
0.0
 10
411.982619
 20
985.813864
 30
0.0
 10
413.876459
 20
985.958264
 30
0.0
  0
LWPOLYLINE
  5
1d4
100
AcDbEntity
  8
Layer_1
 62
7
100
AcDbPolyline
 90
2
 70
0
 10
414.701419
 20
985.933304
 30
0.0
 10
414.876459
 20
985.908264
 30
0.0
  0
SPLINE
  5
1d5
100
AcDbEntity
  8
Layer_1
 62
7
100
AcDbSpline
 70
8
 71
3
 72
8
 73
4
 74
0
 40
0
 40
0
 40
0
 40
0
 40
1
 40
1
 40
1
 40
1
 10
366.976459
 20
676.733304
 30
0.0
 10
367.527339
 20
676.530184
 30
0.0
 10
368.262219
 20
676.448984
 30
0.0
 10
368.726379
 20
676.058264
 30
0.0
  0
SPLINE
  5
1d6
100
AcDbEntity
  8
Layer_1
 62
7
100
AcDbSpline
 70
8
 71
3
 72
8
 73
4
 74
0
 40
0
 40
0
 40
0
 40
0
 40
1
 40
1
 40
1
 40
1
 10
368.726379
 20
676.058264
 30
0.0
 10
369.408619
 20
675.492344
 30
0.0
 10
369.653019
 20
674.548024
 30
0.0
 10
369.801419
 20
674.308264
 30
0.0
  0
SPLINE
  5
1d7
100
AcDbEntity
  8
Layer_1
 62
7
100
AcDbSpline
 70
8
 71
3
 72
8
 73
4
 74
0
 40
0
 40
0
 40
0
 40
0
 40
1
 40
1
 40
1
 40
1
 10
369.801419
 20
674.308264
 30
0.0
 10
376.529579
 20
632.703864
 30
0.0
 10
398.747259
 20
484.075704
 30
0.0
 10
405.176459
 20
427.308261
 30
0.0
  0
SPLINE
  5
1d8
100
AcDbEntity
  8
Layer_1
 62
7
100
AcDbSpline
 70
8
 71
3
 72
8
 73
4
 74
0
 40
0
 40
0
 40
0
 40
0
 40
1
 40
1
 40
1
 40
1
 10
405.176459
 20
427.308261
 30
0.0
 10
405.744219
 20
421.777141
 30
0.0
 10
405.463179
 20
420.300181
 30
0.0
 10
402.551419
 20
416.608261
 30
0.0
  0
SPLINE
  5
1d9
100
AcDbEntity
  8
Layer_1
 62
7
100
AcDbSpline
 70
8
 71
3
 72
8
 73
4
 74
0
 40
0
 40
0
 40
0
 40
0
 40
1
 40
1
 40
1
 40
1
 10
402.551419
 20
416.608261
 30
0.0
 10
399.639739
 20
412.916662
 30
0.0
 10
392.834539
 20
407.545302
 30
0.0
 10
381.601419
 20
400.683222
 30
0.0
  0
LWPOLYLINE
  5
1da
100
AcDbEntity
  8
Layer_1
 62
7
100
AcDbPolyline
 90
2
 70
0
 10
413.876459
 20
985.958264
 30
0.0
 10
413.876459
 20
985.958264
 30
0.0
  0
SPLINE
  5
1db
100
AcDbEntity
  8
Layer_1
 62
7
100
AcDbSpline
 70
8
 71
3
 72
8
 73
4
 74
0
 40
0
 40
0
 40
0
 40
0
 40
1
 40
1
 40
1
 40
1
 10
381.826379
 20
400.458262
 30
0.0
 10
374.627899
 20
396.324182
 30
0.0
 10
369.134299
 20
393.070262
 30
0.0
 10
364.801419
 20
388.458262
 30
0.0
  0
SPLINE
  5
1dc
100
AcDbEntity
  8
Layer_1
 62
7
100
AcDbSpline
 70
8
 71
3
 72
8
 73
4
 74
0
 40
0
 40
0
 40
0
 40
0
 40
1
 40
1
 40
1
 40
1
 10
364.801419
 20
388.458262
 30
0.0
 10
360.389019
 20
383.760582
 30
0.0
 10
357.646459
 20
375.853062
 30
0.0
 10
358.676459
 20
369.483222
 30
0.0
  0
SPLINE
  5
1dd
100
AcDbEntity
  8
Layer_1
 62
7
100
AcDbSpline
 70
8
 71
3
 72
8
 73
4
 74
0
 40
0
 40
0
 40
0
 40
0
 40
1
 40
1
 40
1
 40
1
 10
358.676459
 20
369.483222
 30
0.0
 10
359.530219
 20
364.224262
 30
0.0
 10
362.785659
 20
359.319702
 30
0.0
 10
366.801419
 20
355.933302
 30
0.0
  0
LWPOLYLINE
  5
1de
100
AcDbEntity
  8
Layer_1
 62
7
100
AcDbPolyline
 90
2
 70
0
 10
381.601419
 20
400.683222
 30
0.0
 10
381.826379
 20
400.458262
 30
0.0
  0
SPLINE
  5
1df
100
AcDbEntity
  8
Layer_1
 62
7
100
AcDbSpline
 70
8
 71
3
 72
8
 73
4
 74
0
 40
0
 40
0
 40
0
 40
0
 40
1
 40
1
 40
1
 40
1
 10
333.626379
 20
350.558262
 30
0.0
 10
337.417979
 20
355.130902
 30
0.0
 10
339.587019
 20
361.222422
 30
0.0
 10
338.601419
 20
367.308262
 30
0.0
  0
SPLINE
  5
1e0
100
AcDbEntity
  8
Layer_1
 62
7
100
AcDbSpline
 70
8
 71
3
 72
8
 73
4
 74
0
 40
0
 40
0
 40
0
 40
0
 40
1
 40
1
 40
1
 40
1
 10
338.601419
 20
367.308262
 30
0.0
 10
337.561099
 20
373.680342
 30
0.0
 10
332.750219
 20
380.235782
 30
0.0
 10
327.051419
 20
383.658262
 30
0.0
  0
SPLINE
  5
1e1
100
AcDbEntity
  8
Layer_1
 62
7
100
AcDbSpline
 70
8
 71
3
 72
8
 73
4
 74
0
 40
0
 40
0
 40
0
 40
0
 40
1
 40
1
 40
1
 40
1
 10
327.051419
 20
383.658262
 30
0.0
 10
321.352539
 20
387.080342
 30
0.0
 10
314.907499
 20
388.710742
 30
0.0
 10
306.301419
 20
390.433302
 30
0.0
  0
LWPOLYLINE
  5
1e2
100
AcDbEntity
  8
Layer_1
 62
7
100
AcDbPolyline
 90
2
 70
0
 10
366.801419
 20
355.933302
 30
0.0
 10
333.626379
 20
350.558262
 30
0.0
  0
SPLINE
  5
1e3
100
AcDbEntity
  8
Layer_1
 62
7
100
AcDbSpline
 70
8
 71
3
 72
8
 73
4
 74
0
 40
0
 40
0
 40
0
 40
0
 40
1
 40
1
 40
1
 40
1
 10
305.226379
 20
390.633302
 30
0.0
 10
282.892779
 20
393.072582
 30
0.0
 10
272.656139
 20
396.367542
 30
0.0
 10
269.226379
 20
398.933302
 30
0.0
  0
SPLINE
  5
1e4
100
AcDbEntity
  8
Layer_1
 62
7
100
AcDbSpline
 70
8
 71
3
 72
8
 73
4
 74
0
 40
0
 40
0
 40
0
 40
0
 40
1
 40
1
 40
1
 40
1
 10
269.226379
 20
398.933302
 30
0.0
 10
265.834859
 20
401.470422
 30
0.0
 10
263.897019
 20
405.911622
 30
0.0
 10
260.701419
 20
419.883221
 30
0.0
  0
SPLINE
  5
1e5
100
AcDbEntity
  8
Layer_1
 62
7
100
AcDbSpline
 70
8
 71
3
 72
8
 73
4
 74
0
 40
0
 40
0
 40
0
 40
0
 40
1
 40
1
 40
1
 40
1
 10
260.701419
 20
419.883221
 30
0.0
 10
260.692619
 20
419.952821
 30
0.0
 10
260.714219
 20
420.052981
 30
0.0
 10
260.701419
 20
420.108261
 30
0.0
  0
SPLINE
  5
1e6
100
AcDbEntity
  8
Layer_1
 62
7
100
AcDbSpline
 70
8
 71
3
 72
8
 73
4
 74
0
 40
0
 40
0
 40
0
 40
0
 40
1
 40
1
 40
1
 40
1
 10
260.701419
 20
420.108261
 30
0.0
 10
249.144059
 20
474.130022
 30
0.0
 10
224.458779
 20
623.065224
 30
0.0
 10
219.676459
 20
652.508264
 30
0.0
  0
SPLINE
  5
1e7
100
AcDbEntity
  8
Layer_1
 62
7
100
AcDbSpline
 70
8
 71
3
 72
8
 73
4
 74
0
 40
0
 40
0
 40
0
 40
0
 40
1
 40
1
 40
1
 40
1
 10
219.676459
 20
652.508264
 30
0.0
 10
258.541019
 20
663.084824
 30
0.0
 10
342.613259
 20
675.873144
 30
0.0
 10
366.976459
 20
676.733304
 30
0.0
  0
LWPOLYLINE
  5
1e8
100
AcDbEntity
  8
Layer_1
 62
7
100
AcDbPolyline
 90
3
 70
0
 10
306.301419
 20
390.433302
 30
0.0
 10
305.651419
 20
390.633302
 30
0.0
 10
305.226379
 20
390.633302
 30
0.0
  0
SPLINE
  5
1e9
100
AcDbEntity
  8
Layer_1
 62
7
100
AcDbSpline
 70
8
 71
3
 72
8
 73
4
 74
0
 40
0
 40
0
 40
0
 40
0
 40
1
 40
1
 40
1
 40
1
 10
1960.751347
 20
589.983224
 30
0.0
 10
1966.181747
 20
590.178984
 30
0.0
 10
1971.024387
 20
586.320104
 30
0.0
 10
1971.976387
 20
580.858264
 30
0.0
  0
LWPOLYLINE
  5
1ea
100
AcDbEntity
  8
Layer_1
 62
7
100
AcDbPolyline
 90
2
 70
0
 10
366.976459
 20
676.733304
 30
0.0
 10
366.976459
 20
676.733304
 30
0.0
  0
SPLINE
  5
1eb
100
AcDbEntity
  8
Layer_1
 62
7
100
AcDbSpline
 70
8
 71
3
 72
8
 73
4
 74
0
 40
0
 40
0
 40
0
 40
0
 40
1
 40
1
 40
1
 40
1
 10
1972.051587
 20
580.458264
 30
0.0
 10
1972.870147
 20
574.440104
 30
0.0
 10
1968.645187
 20
568.901624
 30
0.0
 10
1962.626547
 20
568.083224
 30
0.0
  0
SPLINE
  5
1ec
100
AcDbEntity
  8
Layer_1
 62
7
100
AcDbSpline
 70
8
 71
3
 72
8
 73
4
 74
0
 40
0
 40
0
 40
0
 40
0
 40
1
 40
1
 40
1
 40
1
 10
1962.626547
 20
568.083224
 30
0.0
 10
1956.608147
 20
567.264984
 30
0.0
 10
1951.069827
 20
571.490184
 30
0.0
 10
1950.251587
 20
577.508264
 30
0.0
  0
SPLINE
  5
1ed
100
AcDbEntity
  8
Layer_1
 62
7
100
AcDbSpline
 70
8
 71
3
 72
8
 73
4
 74
0
 40
0
 40
0
 40
0
 40
0
 40
1
 40
1
 40
1
 40
1
 10
1950.251587
 20
577.508264
 30
0.0
 10
1949.433267
 20
583.526584
 30
0.0
 10
1953.633027
 20
589.065064
 30
0.0
 10
1959.651587
 20
589.883224
 30
0.0
  0
SPLINE
  5
1ee
100
AcDbEntity
  8
Layer_1
 62
7
100
AcDbSpline
 70
8
 71
3
 72
8
 73
4
 74
0
 40
0
 40
0
 40
0
 40
0
 40
1
 40
1
 40
1
 40
1
 10
1959.651587
 20
589.883224
 30
0.0
 10
1960.017827
 20
589.933144
 30
0.0
 10
1960.389587
 20
589.970184
 30
0.0
 10
1960.751587
 20
589.983224
 30
0.0
  0
LWPOLYLINE
  5
1ef
100
AcDbEntity
  8
Layer_1
 62
7
100
AcDbPolyline
 90
2
 70
0
 10
1971.976387
 20
580.858264
 30
0.0
 10
1972.051587
 20
580.458264
 30
0.0
  0
SPLINE
  5
1f0
100
AcDbEntity
  8
Layer_1
 62
7
100
AcDbSpline
 70
8
 71
3
 72
8
 73
4
 74
0
 40
0
 40
0
 40
0
 40
0
 40
1
 40
1
 40
1
 40
1
 10
1857.576387
 20
573.333304
 30
0.0
 10
1863.006707
 20
573.528984
 30
0.0
 10
1867.849507
 20
569.695144
 30
0.0
 10
1868.801347
 20
564.233304
 30
0.0
  0
LWPOLYLINE
  5
1f1
100
AcDbEntity
  8
Layer_1
 62
7
100
AcDbPolyline
 90
2
 70
0
 10
1960.751587
 20
589.983224
 30
0.0
 10
1960.751347
 20
589.983224
 30
0.0
  0
SPLINE
  5
1f2
100
AcDbEntity
  8
Layer_1
 62
7
100
AcDbSpline
 70
8
 71
3
 72
8
 73
4
 74
0
 40
0
 40
0
 40
0
 40
0
 40
1
 40
1
 40
1
 40
1
 10
1868.876547
 20
563.833304
 30
0.0
 10
1869.694947
 20
557.814904
 30
0.0
 10
1865.495027
 20
552.276664
 30
0.0
 10
1859.476547
 20
551.458264
 30
0.0
  0
SPLINE
  5
1f3
100
AcDbEntity
  8
Layer_1
 62
7
100
AcDbSpline
 70
8
 71
3
 72
8
 73
4
 74
0
 40
0
 40
0
 40
0
 40
0
 40
1
 40
1
 40
1
 40
1
 10
1859.476547
 20
551.458264
 30
0.0
 10
1853.457907
 20
550.639864
 30
0.0
 10
1847.919987
 20
554.865144
 30
0.0
 10
1847.101507
 20
560.883224
 30
0.0
  0
SPLINE
  5
1f4
100
AcDbEntity
  8
Layer_1
 62
7
100
AcDbSpline
 70
8
 71
3
 72
8
 73
4
 74
0
 40
0
 40
0
 40
0
 40
0
 40
1
 40
1
 40
1
 40
1
 10
1847.101507
 20
560.883224
 30
0.0
 10
1846.283267
 20
566.901544
 30
0.0
 10
1850.483027
 20
572.439864
 30
0.0
 10
1856.501507
 20
573.258264
 30
0.0
  0
SPLINE
  5
1f5
100
AcDbEntity
  8
Layer_1
 62
7
100
AcDbSpline
 70
8
 71
3
 72
8
 73
4
 74
0
 40
0
 40
0
 40
0
 40
0
 40
1
 40
1
 40
1
 40
1
 10
1856.501507
 20
573.258264
 30
0.0
 10
1856.867747
 20
573.308024
 30
0.0
 10
1857.214467
 20
573.320104
 30
0.0
 10
1857.576547
 20
573.333304
 30
0.0
  0
LWPOLYLINE
  5
1f6
100
AcDbEntity
  8
Layer_1
 62
7
100
AcDbPolyline
 90
2
 70
0
 10
1868.801347
 20
564.233304
 30
0.0
 10
1868.876547
 20
563.833304
 30
0.0
  0
SPLINE
  5
1f7
100
AcDbEntity
  8
Layer_1
 62
7
100
AcDbSpline
 70
8
 71
3
 72
8
 73
4
 74
0
 40
0
 40
0
 40
0
 40
0
 40
1
 40
1
 40
1
 40
1
 10
1754.451347
 20
556.708264
 30
0.0
 10
1759.881827
 20
556.904024
 30
0.0
 10
1764.725187
 20
553.045384
 30
0.0
 10
1765.676387
 20
547.583224
 30
0.0
  0
LWPOLYLINE
  5
1f8
100
AcDbEntity
  8
Layer_1
 62
7
100
AcDbPolyline
 90
2
 70
0
 10
1857.576547
 20
573.333304
 30
0.0
 10
1857.576387
 20
573.333304
 30
0.0
  0
SPLINE
  5
1f9
100
AcDbEntity
  8
Layer_1
 62
7
100
AcDbSpline
 70
8
 71
3
 72
8
 73
4
 74
0
 40
0
 40
0
 40
0
 40
0
 40
1
 40
1
 40
1
 40
1
 10
1765.701187
 20
547.183224
 30
0.0
 10
1766.519667
 20
541.165144
 30
0.0
 10
1762.319747
 20
535.626584
 30
0.0
 10
1756.301187
 20
534.808264
 30
0.0
  0
SPLINE
  5
1fa
100
AcDbEntity
  8
Layer_1
 62
7
100
AcDbSpline
 70
8
 71
3
 72
8
 73
4
 74
0
 40
0
 40
0
 40
0
 40
0
 40
1
 40
1
 40
1
 40
1
 10
1756.301187
 20
534.808264
 30
0.0
 10
1750.282627
 20
533.989784
 30
0.0
 10
1744.744627
 20
538.215064
 30
0.0
 10
1743.926147
 20
544.233304
 30
0.0
  0
SPLINE
  5
1fb
100
AcDbEntity
  8
Layer_1
 62
7
100
AcDbSpline
 70
8
 71
3
 72
8
 73
4
 74
0
 40
0
 40
0
 40
0
 40
0
 40
1
 40
1
 40
1
 40
1
 10
1743.926147
 20
544.233304
 30
0.0
 10
1743.107747
 20
550.251384
 30
0.0
 10
1747.332627
 20
555.814904
 30
0.0
 10
1753.351187
 20
556.633304
 30
0.0
  0
SPLINE
  5
1fc
100
AcDbEntity
  8
Layer_1
 62
7
100
AcDbSpline
 70
8
 71
3
 72
8
 73
4
 74
0
 40
0
 40
0
 40
0
 40
0
 40
1
 40
1
 40
1
 40
1
 10
1753.351187
 20
556.633304
 30
0.0
 10
1753.717427
 20
556.682984
 30
0.0
 10
1754.089187
 20
556.695224
 30
0.0
 10
1754.451187
 20
556.708264
 30
0.0
  0
LWPOLYLINE
  5
1fd
100
AcDbEntity
  8
Layer_1
 62
7
100
AcDbPolyline
 90
2
 70
0
 10
1765.676387
 20
547.583224
 30
0.0
 10
1765.701187
 20
547.183224
 30
0.0
  0
SPLINE
  5
1fe
100
AcDbEntity
  8
Layer_1
 62
7
100
AcDbSpline
 70
8
 71
3
 72
8
 73
4
 74
0
 40
0
 40
0
 40
0
 40
0
 40
1
 40
1
 40
1
 40
1
 10
1970.351347
 20
530.433304
 30
0.0
 10
1975.781347
 20
530.631704
 30
0.0
 10
1980.624467
 20
526.795064
 30
0.0
 10
1981.576387
 20
521.333304
 30
0.0
  0
LWPOLYLINE
  5
1ff
100
AcDbEntity
  8
Layer_1
 62
7
100
AcDbPolyline
 90
2
 70
0
 10
1754.451187
 20
556.708264
 30
0.0
 10
1754.451347
 20
556.708264
 30
0.0
  0
SPLINE
  5
200
100
AcDbEntity
  8
Layer_1
 62
7
100
AcDbSpline
 70
8
 71
3
 72
8
 73
4
 74
0
 40
0
 40
0
 40
0
 40
0
 40
1
 40
1
 40
1
 40
1
 10
1981.651587
 20
520.933304
 30
0.0
 10
1982.469827
 20
514.915064
 30
0.0
 10
1978.245187
 20
509.351464
 30
0.0
 10
1972.226547
 20
508.533304
 30
0.0
  0
SPLINE
  5
201
100
AcDbEntity
  8
Layer_1
 62
7
100
AcDbSpline
 70
8
 71
3
 72
8
 73
4
 74
0
 40
0
 40
0
 40
0
 40
0
 40
1
 40
1
 40
1
 40
1
 10
1972.226547
 20
508.533304
 30
0.0
 10
1966.208147
 20
507.714744
 30
0.0
 10
1960.644867
 20
511.940104
 30
0.0
 10
1959.826547
 20
517.958264
 30
0.0
  0
SPLINE
  5
202
100
AcDbEntity
  8
Layer_1
 62
7
100
AcDbSpline
 70
8
 71
3
 72
8
 73
4
 74
0
 40
0
 40
0
 40
0
 40
0
 40
1
 40
1
 40
1
 40
1
 10
1959.826547
 20
517.958264
 30
0.0
 10
1959.008147
 20
523.976504
 30
0.0
 10
1963.233107
 20
529.539944
 30
0.0
 10
1969.251587
 20
530.358264
 30
0.0
  0
SPLINE
  5
203
100
AcDbEntity
  8
Layer_1
 62
7
100
AcDbSpline
 70
8
 71
3
 72
8
 73
4
 74
0
 40
0
 40
0
 40
0
 40
0
 40
1
 40
1
 40
1
 40
1
 10
1969.251587
 20
530.358264
 30
0.0
 10
1969.617827
 20
530.408104
 30
0.0
 10
1969.989587
 20
530.419944
 30
0.0
 10
1970.351587
 20
530.433304
 30
0.0
  0
LWPOLYLINE
  5
204
100
AcDbEntity
  8
Layer_1
 62
7
100
AcDbPolyline
 90
2
 70
0
 10
1981.576387
 20
521.333304
 30
0.0
 10
1981.651587
 20
520.933304
 30
0.0
  0
SPLINE
  5
205
100
AcDbEntity
  8
Layer_1
 62
7
100
AcDbSpline
 70
8
 71
3
 72
8
 73
4
 74
0
 40
0
 40
0
 40
0
 40
0
 40
1
 40
1
 40
1
 40
1
 10
1867.176387
 20
513.808264
 30
0.0
 10
1872.606307
 20
514.006744
 30
0.0
 10
1877.449427
 20
510.170104
 30
0.0
 10
1878.401347
 20
504.708264
 30
0.0
  0
LWPOLYLINE
  5
206
100
AcDbEntity
  8
Layer_1
 62
7
100
AcDbPolyline
 90
2
 70
0
 10
1970.351587
 20
530.433304
 30
0.0
 10
1970.351347
 20
530.433304
 30
0.0
  0
SPLINE
  5
207
100
AcDbEntity
  8
Layer_1
 62
7
100
AcDbSpline
 70
8
 71
3
 72
8
 73
4
 74
0
 40
0
 40
0
 40
0
 40
0
 40
1
 40
1
 40
1
 40
1
 10
1878.476547
 20
504.283224
 30
0.0
 10
1879.294947
 20
498.264984
 30
0.0
 10
1875.069987
 20
492.726664
 30
0.0
 10
1869.051507
 20
491.908264
 30
0.0
  0
SPLINE
  5
208
100
AcDbEntity
  8
Layer_1
 62
7
100
AcDbSpline
 70
8
 71
3
 72
8
 73
4
 74
0
 40
0
 40
0
 40
0
 40
0
 40
1
 40
1
 40
1
 40
1
 10
1869.051507
 20
491.908264
 30
0.0
 10
1863.033027
 20
491.089864
 30
0.0
 10
1857.494787
 20
495.314984
 30
0.0
 10
1856.676547
 20
501.333304
 30
0.0
  0
SPLINE
  5
209
100
AcDbEntity
  8
Layer_1
 62
7
100
AcDbSpline
 70
8
 71
3
 72
8
 73
4
 74
0
 40
0
 40
0
 40
0
 40
0
 40
1
 40
1
 40
1
 40
1
 10
1856.676547
 20
501.333304
 30
0.0
 10
1855.858067
 20
507.351544
 30
0.0
 10
1860.083027
 20
512.889944
 30
0.0
 10
1866.101507
 20
513.708264
 30
0.0
  0
SPLINE
  5
20a
100
AcDbEntity
  8
Layer_1
 62
7
100
AcDbSpline
 70
8
 71
3
 72
8
 73
4
 74
0
 40
0
 40
0
 40
0
 40
0
 40
1
 40
1
 40
1
 40
1
 10
1866.101507
 20
513.708264
 30
0.0
 10
1866.467747
 20
513.758104
 30
0.0
 10
1866.814467
 20
513.795064
 30
0.0
 10
1867.176547
 20
513.808264
 30
0.0
  0
LWPOLYLINE
  5
20b
100
AcDbEntity
  8
Layer_1
 62
7
100
AcDbPolyline
 90
2
 70
0
 10
1878.401347
 20
504.708264
 30
0.0
 10
1878.476547
 20
504.283224
 30
0.0
  0
SPLINE
  5
20c
100
AcDbEntity
  8
Layer_1
 62
7
100
AcDbSpline
 70
8
 71
3
 72
8
 73
4
 74
0
 40
0
 40
0
 40
0
 40
0
 40
1
 40
1
 40
1
 40
1
 10
1764.026307
 20
497.183224
 30
0.0
 10
1769.456387
 20
497.381784
 30
0.0
 10
1774.274627
 20
493.545224
 30
0.0
 10
1775.226307
 20
488.083224
 30
0.0
  0
LWPOLYLINE
  5
20d
100
AcDbEntity
  8
Layer_1
 62
7
100
AcDbPolyline
 90
2
 70
0
 10
1867.176547
 20
513.808264
 30
0.0
 10
1867.176387
 20
513.808264
 30
0.0
  0
SPLINE
  5
20e
100
AcDbEntity
  8
Layer_1
 62
7
100
AcDbSpline
 70
8
 71
3
 72
8
 73
4
 74
0
 40
0
 40
0
 40
0
 40
0
 40
1
 40
1
 40
1
 40
1
 10
1775.301507
 20
487.658264
 30
0.0
 10
1776.119747
 20
481.640024
 30
0.0
 10
1771.894947
 20
476.101542
 30
0.0
 10
1765.876547
 20
475.283222
 30
0.0
  0
SPLINE
  5
20f
100
AcDbEntity
  8
Layer_1
 62
7
100
AcDbSpline
 70
8
 71
3
 72
8
 73
4
 74
0
 40
0
 40
0
 40
0
 40
0
 40
1
 40
1
 40
1
 40
1
 10
1765.876547
 20
475.283222
 30
0.0
 10
1759.858147
 20
474.464902
 30
0.0
 10
1754.319827
 20
478.690104
 30
0.0
 10
1753.501507
 20
484.708264
 30
0.0
  0
SPLINE
  5
210
100
AcDbEntity
  8
Layer_1
 62
7
100
AcDbSpline
 70
8
 71
3
 72
8
 73
4
 74
0
 40
0
 40
0
 40
0
 40
0
 40
1
 40
1
 40
1
 40
1
 10
1753.501507
 20
484.708264
 30
0.0
 10
1752.683107
 20
490.726504
 30
0.0
 10
1756.908067
 20
496.264984
 30
0.0
 10
1762.926467
 20
497.083224
 30
0.0
  0
SPLINE
  5
211
100
AcDbEntity
  8
Layer_1
 62
7
100
AcDbSpline
 70
8
 71
3
 72
8
 73
4
 74
0
 40
0
 40
0
 40
0
 40
0
 40
1
 40
1
 40
1
 40
1
 10
1762.926467
 20
497.083224
 30
0.0
 10
1763.292787
 20
497.133144
 30
0.0
 10
1763.664547
 20
497.170104
 30
0.0
 10
1764.026467
 20
497.183224
 30
0.0
  0
LWPOLYLINE
  5
212
100
AcDbEntity
  8
Layer_1
 62
7
100
AcDbPolyline
 90
2
 70
0
 10
1775.226307
 20
488.083224
 30
0.0
 10
1775.301507
 20
487.658264
 30
0.0
  0
SPLINE
  5
213
100
AcDbEntity
  8
Layer_1
 62
7
100
AcDbSpline
 70
8
 71
3
 72
8
 73
4
 74
0
 40
0
 40
0
 40
0
 40
0
 40
1
 40
1
 40
1
 40
1
 10
3193.057107
 20
1430.357456
 30
0.0
 10
3159.494867
 20
1430.392656
 30
0.0
 10
3120.769027
 20
1426.859616
 30
0.0
 10
3076.907027
 20
1419.732416
 30
0.0
  0
LWPOLYLINE
  5
214
100
AcDbEntity
  8
Layer_1
 62
7
100
AcDbPolyline
 90
2
 70
0
 10
1764.026467
 20
497.183224
 30
0.0
 10
1764.026307
 20
497.183224
 30
0.0
  0
SPLINE
  5
215
100
AcDbEntity
  8
Layer_1
 62
7
100
AcDbSpline
 70
8
 71
3
 72
8
 73
4
 74
0
 40
0
 40
0
 40
0
 40
0
 40
1
 40
1
 40
1
 40
1
 10
2526.632067
 20
541.857376
 30
0.0
 10
2577.323427
 20
568.601616
 30
0.0
 10
2619.184947
 20
606.921856
 30
0.0
 10
2652.182067
 20
656.807456
 30
0.0
  0
SPLINE
  5
216
100
AcDbEntity
  8
Layer_1
 62
7
100
AcDbSpline
 70
8
 71
3
 72
8
 73
4
 74
0
 40
0
 40
0
 40
0
 40
0
 40
1
 40
1
 40
1
 40
1
 10
2652.182067
 20
656.807456
 30
0.0
 10
2708.673267
 20
742.164416
 30
0.0
 10
2726.913027
 20
846.383296
 30
0.0
 10
2706.907027
 20
969.482416
 30
0.0
  0
SPLINE
  5
217
100
AcDbEntity
  8
Layer_1
 62
7
100
AcDbSpline
 70
8
 71
3
 72
8
 73
4
 74
0
 40
0
 40
0
 40
0
 40
0
 40
1
 40
1
 40
1
 40
1
 10
2706.907027
 20
969.482416
 30
0.0
 10
2687.581987
 20
1088.400576
 30
0.0
 10
2638.150627
 20
1177.950040
 30
0.0
 10
2558.607027
 20
1238.107456
 30
0.0
  0
SPLINE
  5
218
100
AcDbEntity
  8
Layer_1
 62
7
100
AcDbSpline
 70
8
 71
3
 72
8
 73
4
 74
0
 40
0
 40
0
 40
0
 40
0
 40
1
 40
1
 40
1
 40
1
 10
2558.607027
 20
1238.107456
 30
0.0
 10
2479.054867
 20
1298.264736
 30
0.0
 10
2385.294627
 20
1319.576816
 30
0.0
 10
2277.357107
 20
1302.032416
 30
0.0
  0
SPLINE
  5
219
100
AcDbEntity
  8
Layer_1
 62
7
100
AcDbSpline
 70
8
 71
3
 72
8
 73
4
 74
0
 40
0
 40
0
 40
0
 40
0
 40
1
 40
1
 40
1
 40
1
 10
2277.357107
 20
1302.032416
 30
0.0
 10
2160.699587
 20
1283.073936
 30
0.0
 10
2075.659827
 20
1230.487056
 30
0.0
 10
2022.232067
 20
1144.257480
 30
0.0
  0
SPLINE
  5
21a
100
AcDbEntity
  8
Layer_1
 62
7
100
AcDbSpline
 70
8
 71
3
 72
8
 73
4
 74
0
 40
0
 40
0
 40
0
 40
0
 40
1
 40
1
 40
1
 40
1
 10
2022.232067
 20
1144.257480
 30
0.0
 10
1968.787107
 20
1058.019056
 30
0.0
 10
1951.479427
 20
956.946816
 30
0.0
 10
1970.307027
 20
841.057456
 30
0.0
  0
SPLINE
  5
21b
100
AcDbEntity
  8
Layer_1
 62
7
100
AcDbSpline
 70
8
 71
3
 72
8
 73
4
 74
0
 40
0
 40
0
 40
0
 40
0
 40
1
 40
1
 40
1
 40
1
 10
1970.307027
 20
841.057456
 30
0.0
 10
1990.007587
 20
719.852416
 30
0.0
 10
2040.112227
 20
628.668816
 30
0.0
 10
2120.607027
 20
567.507456
 30
0.0
  0
SPLINE
  5
21c
100
AcDbEntity
  8
Layer_1
 62
7
100
AcDbSpline
 70
8
 71
3
 72
8
 73
4
 74
0
 40
0
 40
0
 40
0
 40
0
 40
1
 40
1
 40
1
 40
1
 10
2120.607027
 20
567.507456
 30
0.0
 10
2167.011347
 20
532.239144
 30
0.0
 10
2218.153827
 20
510.075144
 30
0.0
 10
2274.057107
 20
501.032424
 30
0.0
  0
LWPOLYLINE
  5
21d
100
AcDbEntity
  8
Layer_1
 62
7
100
AcDbPolyline
 90
4
 70
0
 10
3076.907027
 20
1419.732416
 30
0.0
 10
2745.707027
 20
1365.907456
 30
0.0
 10
2870.557107
 20
597.432416
 30
0.0
 10
2526.632067
 20
541.857376
 30
0.0
  0
SPLINE
  5
21e
100
AcDbEntity
  8
Layer_1
 62
7
100
AcDbSpline
 70
8
 71
3
 72
8
 73
4
 74
0
 40
0
 40
0
 40
0
 40
0
 40
1
 40
1
 40
1
 40
1
 10
3434.432067
 20
559.907456
 30
0.0
 10
3469.159267
 20
565.519376
 30
0.0
 10
3492.593667
 20
598.005136
 30
0.0
 10
3486.982067
 20
632.732416
 30
0.0
  0
SPLINE
  5
21f
100
AcDbEntity
  8
Layer_1
 62
7
100
AcDbSpline
 70
8
 71
3
 72
8
 73
4
 74
0
 40
0
 40
0
 40
0
 40
0
 40
1
 40
1
 40
1
 40
1
 10
3486.982067
 20
632.732416
 30
0.0
 10
3481.370307
 20
667.459616
 30
0.0
 10
3448.909187
 20
690.894256
 30
0.0
 10
3414.182067
 20
685.282416
 30
0.0
  0
LWPOLYLINE
  5
220
100
AcDbEntity
  8
Layer_1
 62
7
100
AcDbPolyline
 90
4
 70
0
 10
2274.057107
 20
501.032424
 30
0.0
 10
1673.607027
 20
404.007466
 30
0.0
 10
1689.957107
 20
278.007448
 30
0.0
 10
3434.432067
 20
559.907456
 30
0.0
  0
SPLINE
  5
221
100
AcDbEntity
  8
Layer_1
 62
7
100
AcDbSpline
 70
8
 71
3
 72
8
 73
4
 74
0
 40
0
 40
0
 40
0
 40
0
 40
1
 40
1
 40
1
 40
1
 10
3202.007027
 20
933.307456
 30
0.0
 10
3287.974787
 20
947.273216
 30
0.0
 10
3353.042867
 20
981.187056
 30
0.0
 10
3397.157107
 20
1035.007456
 30
0.0
  0
SPLINE
  5
222
100
AcDbEntity
  8
Layer_1
 62
7
100
AcDbSpline
 70
8
 71
3
 72
8
 73
4
 74
0
 40
0
 40
0
 40
0
 40
0
 40
1
 40
1
 40
1
 40
1
 10
3397.157107
 20
1035.007456
 30
0.0
 10
3441.279987
 20
1088.836656
 30
0.0
 10
3457.359027
 20
1152.654920
 30
0.0
 10
3445.357107
 20
1226.507456
 30
0.0
  0
SPLINE
  5
223
100
AcDbEntity
  8
Layer_1
 62
7
100
AcDbSpline
 70
8
 71
3
 72
8
 73
4
 74
0
 40
0
 40
0
 40
0
 40
0
 40
1
 40
1
 40
1
 40
1
 10
3445.357107
 20
1226.507456
 30
0.0
 10
3437.483907
 20
1274.985936
 30
0.0
 10
3417.775987
 20
1316.684336
 30
0.0
 10
3386.257107
 20
1351.607456
 30
0.0
  0
SPLINE
  5
224
100
AcDbEntity
  8
Layer_1
 62
7
100
AcDbSpline
 70
8
 71
3
 72
8
 73
4
 74
0
 40
0
 40
0
 40
0
 40
0
 40
1
 40
1
 40
1
 40
1
 10
3386.257107
 20
1351.607456
 30
0.0
 10
3354.720787
 20
1386.513056
 30
0.0
 10
3315.917747
 20
1409.949296
 30
0.0
 10
3269.857107
 20
1421.907456
 30
0.0
  0
SPLINE
  5
225
100
AcDbEntity
  8
Layer_1
 62
7
100
AcDbSpline
 70
8
 71
3
 72
8
 73
4
 74
0
 40
0
 40
0
 40
0
 40
0
 40
1
 40
1
 40
1
 40
1
 10
3269.857107
 20
1421.907456
 30
0.0
 10
3248.266147
 20
1427.504656
 30
0.0
 10
3222.670787
 20
1430.326656
 30
0.0
 10
3193.057107
 20
1430.357456
 30
0.0
  0
LWPOLYLINE
  5
226
100
AcDbEntity
  8
Layer_1
 62
7
100
AcDbPolyline
 90
4
 70
0
 10
3414.182067
 20
685.282416
 30
0.0
 10
3112.057107
 20
636.457376
 30
0.0
 10
3067.382067
 20
911.432416
 30
0.0
 10
3202.007027
 20
933.307456
 30
0.0
  0
SPLINE
  5
227
100
AcDbEntity
  8
Layer_1
 62
7
100
AcDbSpline
 70
8
 71
3
 72
8
 73
4
 74
0
 40
0
 40
0
 40
0
 40
0
 40
1
 40
1
 40
1
 40
1
 10
3130.907027
 20
1244.357456
 30
0.0
 10
3176.442787
 20
1244.674496
 30
0.0
 10
3202.487027
 20
1224.746496
 30
0.0
 10
3209.007027
 20
1184.607480
 30
0.0
  0
SPLINE
  5
228
100
AcDbEntity
  8
Layer_1
 62
7
100
AcDbSpline
 70
8
 71
3
 72
8
 73
4
 74
0
 40
0
 40
0
 40
0
 40
0
 40
1
 40
1
 40
1
 40
1
 10
3209.007027
 20
1184.607480
 30
0.0
 10
3217.377907
 20
1133.091480
 30
0.0
 10
3186.505107
 20
1101.648256
 30
0.0
 10
3116.432067
 20
1090.257456
 30
0.0
  0
LWPOLYLINE
  5
229
100
AcDbEntity
  8
Layer_1
 62
7
100
AcDbPolyline
 90
2
 70
0
 10
3193.057107
 20
1430.357456
 30
0.0
 10
3193.057107
 20
1430.357456
 30
0.0
  0
SPLINE
  5
22a
100
AcDbEntity
  8
Layer_1
 62
7
100
AcDbSpline
 70
8
 71
3
 72
8
 73
4
 74
0
 40
0
 40
0
 40
0
 40
0
 40
1
 40
1
 40
1
 40
1
 10
3100.032067
 20
1241.532416
 30
0.0
 10
3111.162467
 20
1243.341696
 30
0.0
 10
3121.456227
 20
1244.291616
 30
0.0
 10
3130.907027
 20
1244.357456
 30
0.0
  0
LWPOLYLINE
  5
22b
100
AcDbEntity
  8
Layer_1
 62
7
100
AcDbPolyline
 90
4
 70
0
 10
3116.432067
 20
1090.257456
 30
0.0
 10
3036.907027
 20
1077.357456
 30
0.0
 10
3012.557107
 20
1227.332416
 30
0.0
 10
3100.032067
 20
1241.532416
 30
0.0
  0
SPLINE
  5
22c
100
AcDbEntity
  8
Layer_1
 62
7
100
AcDbSpline
 70
8
 71
3
 72
8
 73
4
 74
0
 40
0
 40
0
 40
0
 40
0
 40
1
 40
1
 40
1
 40
1
 10
2312.457107
 20
1135.707480
 30
0.0
 10
2375.516627
 20
1135.981960
 30
0.0
 10
2417.135027
 20
1073.979216
 30
0.0
 10
2437.332067
 20
949.682416
 30
0.0
  0
SPLINE
  5
22d
100
AcDbEntity
  8
Layer_1
 62
7
100
AcDbSpline
 70
8
 71
3
 72
8
 73
4
 74
0
 40
0
 40
0
 40
0
 40
0
 40
1
 40
1
 40
1
 40
1
 10
2437.332067
 20
949.682416
 30
0.0
 10
2452.467667
 20
856.513616
 30
0.0
 10
2454.071507
 20
790.973216
 30
0.0
 10
2442.157107
 20
753.082416
 30
0.0
  0
SPLINE
  5
22e
100
AcDbEntity
  8
Layer_1
 62
7
100
AcDbSpline
 70
8
 71
3
 72
8
 73
4
 74
0
 40
0
 40
0
 40
0
 40
0
 40
1
 40
1
 40
1
 40
1
 10
2442.157107
 20
753.082416
 30
0.0
 10
2430.233747
 20
715.182896
 30
0.0
 10
2404.208547
 20
692.986416
 30
0.0
 10
2364.057107
 20
686.457376
 30
0.0
  0
SPLINE
  5
22f
100
AcDbEntity
  8
Layer_1
 62
7
100
AcDbSpline
 70
8
 71
3
 72
8
 73
4
 74
0
 40
0
 40
0
 40
0
 40
0
 40
1
 40
1
 40
1
 40
1
 10
2364.057107
 20
686.457376
 30
0.0
 10
2289.069907
 20
674.272256
 30
0.0
 10
2239.860787
 20
740.340256
 30
0.0
 10
2216.407027
 20
884.632416
 30
0.0
  0
SPLINE
  5
230
100
AcDbEntity
  8
Layer_1
 62
7
100
AcDbSpline
 70
8
 71
3
 72
8
 73
4
 74
0
 40
0
 40
0
 40
0
 40
0
 40
1
 40
1
 40
1
 40
1
 10
2216.407027
 20
884.632416
 30
0.0
 10
2191.425907
 20
1038.403856
 30
0.0
 10
2217.932307
 20
1121.624816
 30
0.0
 10
2295.957107
 20
1134.307480
 30
0.0
  0
SPLINE
  5
231
100
AcDbEntity
  8
Layer_1
 62
7
100
AcDbSpline
 70
8
 71
3
 72
8
 73
4
 74
0
 40
0
 40
0
 40
0
 40
0
 40
1
 40
1
 40
1
 40
1
 10
2295.957107
 20
1134.307480
 30
0.0
 10
2301.608707
 20
1135.225320
 30
0.0
 10
2307.113027
 20
1135.684200
 30
0.0
 10
2312.457107
 20
1135.707480
 30
0.0
  0
LWPOLYLINE
  5
232
100
AcDbEntity
  8
Layer_1
 62
7
100
AcDbPolyline
 90
2
 70
0
 10
3130.907027
 20
1244.357456
 30
0.0
 10
3130.907027
 20
1244.357456
 30
0.0
  0
SPLINE
  5
233
100
AcDbEntity
  8
Layer_1
 62
7
100
AcDbSpline
 70
8
 71
3
 72
8
 73
4
 74
0
 40
0
 40
0
 40
0
 40
0
 40
1
 40
1
 40
1
 40
1
 10
1963.932067
 20
427.407462
 30
0.0
 10
1969.362467
 20
427.603142
 30
0.0
 10
1974.205187
 20
423.744342
 30
0.0
 10
1975.157107
 20
418.282422
 30
0.0
  0
LWPOLYLINE
  5
234
100
AcDbEntity
  8
Layer_1
 62
7
100
AcDbPolyline
 90
2
 70
0
 10
2312.457107
 20
1135.707480
 30
0.0
 10
2312.457107
 20
1135.707480
 30
0.0
  0
SPLINE
  5
235
100
AcDbEntity
  8
Layer_1
 62
7
100
AcDbSpline
 70
8
 71
3
 72
8
 73
4
 74
0
 40
0
 40
0
 40
0
 40
0
 40
1
 40
1
 40
1
 40
1
 10
1975.232307
 20
417.882426
 30
0.0
 10
1976.050867
 20
411.864186
 30
0.0
 10
1971.825907
 20
406.325786
 30
0.0
 10
1965.807267
 20
405.507466
 30
0.0
  0
SPLINE
  5
236
100
AcDbEntity
  8
Layer_1
 62
7
100
AcDbSpline
 70
8
 71
3
 72
8
 73
4
 74
0
 40
0
 40
0
 40
0
 40
0
 40
1
 40
1
 40
1
 40
1
 10
1965.807267
 20
405.507466
 30
0.0
 10
1959.788787
 20
404.688986
 30
0.0
 10
1954.250547
 20
408.914266
 30
0.0
 10
1953.432307
 20
414.932426
 30
0.0
  0
SPLINE
  5
237
100
AcDbEntity
  8
Layer_1
 62
7
100
AcDbSpline
 70
8
 71
3
 72
8
 73
4
 74
0
 40
0
 40
0
 40
0
 40
0
 40
1
 40
1
 40
1
 40
1
 10
1953.432307
 20
414.932426
 30
0.0
 10
1952.613987
 20
420.950742
 30
0.0
 10
1956.813747
 20
426.489062
 30
0.0
 10
1962.832307
 20
427.307462
 30
0.0
  0
SPLINE
  5
238
100
AcDbEntity
  8
Layer_1
 62
7
100
AcDbSpline
 70
8
 71
3
 72
8
 73
4
 74
0
 40
0
 40
0
 40
0
 40
0
 40
1
 40
1
 40
1
 40
1
 10
1962.832307
 20
427.307462
 30
0.0
 10
1963.198547
 20
427.357062
 30
0.0
 10
1963.570307
 20
427.394342
 30
0.0
 10
1963.932307
 20
427.407462
 30
0.0
  0
LWPOLYLINE
  5
239
100
AcDbEntity
  8
Layer_1
 62
7
100
AcDbPolyline
 90
2
 70
0
 10
1975.157107
 20
418.282422
 30
0.0
 10
1975.232307
 20
417.882426
 30
0.0
  0
SPLINE
  5
23a
100
AcDbEntity
  8
Layer_1
 62
7
100
AcDbSpline
 70
8
 71
3
 72
8
 73
4
 74
0
 40
0
 40
0
 40
0
 40
0
 40
1
 40
1
 40
1
 40
1
 10
1860.757107
 20
410.782426
 30
0.0
 10
1866.187507
 20
410.978186
 30
0.0
 10
1871.030227
 20
407.119306
 30
0.0
 10
1871.982067
 20
401.657378
 30
0.0
  0
LWPOLYLINE
  5
23b
100
AcDbEntity
  8
Layer_1
 62
7
100
AcDbPolyline
 90
2
 70
0
 10
1963.932307
 20
427.407462
 30
0.0
 10
1963.932067
 20
427.407462
 30
0.0
  0
SPLINE
  5
23c
100
AcDbEntity
  8
Layer_1
 62
7
100
AcDbSpline
 70
8
 71
3
 72
8
 73
4
 74
0
 40
0
 40
0
 40
0
 40
0
 40
1
 40
1
 40
1
 40
1
 10
1872.057267
 20
401.257378
 30
0.0
 10
1872.875747
 20
395.239217
 30
0.0
 10
1868.675667
 20
389.700737
 30
0.0
 10
1862.657267
 20
388.882418
 30
0.0
  0
SPLINE
  5
23d
100
AcDbEntity
  8
Layer_1
 62
7
100
AcDbSpline
 70
8
 71
3
 72
8
 73
4
 74
0
 40
0
 40
0
 40
0
 40
0
 40
1
 40
1
 40
1
 40
1
 10
1862.657267
 20
388.882418
 30
0.0
 10
1856.638707
 20
388.064018
 30
0.0
 10
1851.100707
 20
392.289297
 30
0.0
 10
1850.282227
 20
398.307458
 30
0.0
  0
SPLINE
  5
23e
100
AcDbEntity
  8
Layer_1
 62
7
100
AcDbSpline
 70
8
 71
3
 72
8
 73
4
 74
0
 40
0
 40
0
 40
0
 40
0
 40
1
 40
1
 40
1
 40
1
 10
1850.282227
 20
398.307458
 30
0.0
 10
1849.463987
 20
404.325706
 30
0.0
 10
1853.663747
 20
409.864106
 30
0.0
 10
1859.682227
 20
410.682426
 30
0.0
  0
SPLINE
  5
23f
100
AcDbEntity
  8
Layer_1
 62
7
100
AcDbSpline
 70
8
 71
3
 72
8
 73
4
 74
0
 40
0
 40
0
 40
0
 40
0
 40
1
 40
1
 40
1
 40
1
 10
1859.682227
 20
410.682426
 30
0.0
 10
1860.048467
 20
410.732026
 30
0.0
 10
1860.395187
 20
410.769386
 30
0.0
 10
1860.757267
 20
410.782426
 30
0.0
  0
LWPOLYLINE
  5
240
100
AcDbEntity
  8
Layer_1
 62
7
100
AcDbPolyline
 90
2
 70
0
 10
1871.982067
 20
401.657378
 30
0.0
 10
1872.057267
 20
401.257378
 30
0.0
  0
SPLINE
  5
241
100
AcDbEntity
  8
Layer_1
 62
7
100
AcDbSpline
 70
8
 71
3
 72
8
 73
4
 74
0
 40
0
 40
0
 40
0
 40
0
 40
1
 40
1
 40
1
 40
1
 10
1757.632067
 20
394.157377
 30
0.0
 10
1763.062547
 20
394.353137
 30
0.0
 10
1767.905907
 20
390.494417
 30
0.0
 10
1768.857107
 20
385.032417
 30
0.0
  0
LWPOLYLINE
  5
242
100
AcDbEntity
  8
Layer_1
 62
7
100
AcDbPolyline
 90
2
 70
0
 10
1860.757267
 20
410.782426
 30
0.0
 10
1860.757107
 20
410.782426
 30
0.0
  0
SPLINE
  5
243
100
AcDbEntity
  8
Layer_1
 62
7
100
AcDbSpline
 70
8
 71
3
 72
8
 73
4
 74
0
 40
0
 40
0
 40
0
 40
0
 40
1
 40
1
 40
1
 40
1
 10
1768.881907
 20
384.632417
 30
0.0
 10
1769.700387
 20
378.614177
 30
0.0
 10
1765.500467
 20
373.075777
 30
0.0
 10
1759.481907
 20
372.257369
 30
0.0
  0
SPLINE
  5
244
100
AcDbEntity
  8
Layer_1
 62
7
100
AcDbSpline
 70
8
 71
3
 72
8
 73
4
 74
0
 40
0
 40
0
 40
0
 40
0
 40
1
 40
1
 40
1
 40
1
 10
1759.481907
 20
372.257369
 30
0.0
 10
1753.463347
 20
371.438969
 30
0.0
 10
1747.925347
 20
375.664257
 30
0.0
 10
1747.106867
 20
381.682417
 30
0.0
  0
SPLINE
  5
245
100
AcDbEntity
  8
Layer_1
 62
7
100
AcDbSpline
 70
8
 71
3
 72
8
 73
4
 74
0
 40
0
 40
0
 40
0
 40
0
 40
1
 40
1
 40
1
 40
1
 10
1747.106867
 20
381.682417
 30
0.0
 10
1746.288467
 20
387.700738
 30
0.0
 10
1750.513347
 20
393.239057
 30
0.0
 10
1756.531907
 20
394.057377
 30
0.0
  0
SPLINE
  5
246
100
AcDbEntity
  8
Layer_1
 62
7
100
AcDbSpline
 70
8
 71
3
 72
8
 73
4
 74
0
 40
0
 40
0
 40
0
 40
0
 40
1
 40
1
 40
1
 40
1
 10
1756.531907
 20
394.057377
 30
0.0
 10
1756.898147
 20
394.106977
 30
0.0
 10
1757.269907
 20
394.144337
 30
0.0
 10
1757.631907
 20
394.157377
 30
0.0
  0
LWPOLYLINE
  5
247
100
AcDbEntity
  8
Layer_1
 62
7
100
AcDbPolyline
 90
2
 70
0
 10
1768.857107
 20
385.032417
 30
0.0
 10
1768.881907
 20
384.632417
 30
0.0
  0
SPLINE
  5
248
100
AcDbEntity
  8
Layer_1
 62
7
100
AcDbSpline
 70
8
 71
3
 72
8
 73
4
 74
0
 40
0
 40
0
 40
0
 40
0
 40
1
 40
1
 40
1
 40
1
 10
1973.532067
 20
367.882409
 30
0.0
 10
1978.962067
 20
368.080889
 30
0.0
 10
1983.805267
 20
364.244329
 30
0.0
 10
1984.757107
 20
358.782409
 30
0.0
  0
LWPOLYLINE
  5
249
100
AcDbEntity
  8
Layer_1
 62
7
100
AcDbPolyline
 90
2
 70
0
 10
1757.631907
 20
394.157377
 30
0.0
 10
1757.632067
 20
394.157377
 30
0.0
  0
SPLINE
  5
24a
100
AcDbEntity
  8
Layer_1
 62
7
100
AcDbSpline
 70
8
 71
3
 72
8
 73
4
 74
0
 40
0
 40
0
 40
0
 40
0
 40
1
 40
1
 40
1
 40
1
 10
1984.806707
 20
358.357369
 30
0.0
 10
1985.624947
 20
352.339209
 30
0.0
 10
1981.400227
 20
346.800729
 30
0.0
 10
1975.381747
 20
345.982409
 30
0.0
  0
SPLINE
  5
24b
100
AcDbEntity
  8
Layer_1
 62
7
100
AcDbSpline
 70
8
 71
3
 72
8
 73
4
 74
0
 40
0
 40
0
 40
0
 40
0
 40
1
 40
1
 40
1
 40
1
 10
1975.381747
 20
345.982409
 30
0.0
 10
1969.363267
 20
345.164009
 30
0.0
 10
1963.825027
 20
349.389289
 30
0.0
 10
1963.006707
 20
355.407449
 30
0.0
  0
SPLINE
  5
24c
100
AcDbEntity
  8
Layer_1
 62
7
100
AcDbSpline
 70
8
 71
3
 72
8
 73
4
 74
0
 40
0
 40
0
 40
0
 40
0
 40
1
 40
1
 40
1
 40
1
 10
1963.006707
 20
355.407449
 30
0.0
 10
1962.188387
 20
361.425689
 30
0.0
 10
1966.413267
 20
366.964089
 30
0.0
 10
1972.431747
 20
367.782409
 30
0.0
  0
SPLINE
  5
24d
100
AcDbEntity
  8
Layer_1
 62
7
100
AcDbSpline
 70
8
 71
3
 72
8
 73
4
 74
0
 40
0
 40
0
 40
0
 40
0
 40
1
 40
1
 40
1
 40
1
 10
1972.431747
 20
367.782409
 30
0.0
 10
1972.797987
 20
367.832009
 30
0.0
 10
1973.169747
 20
367.869209
 30
0.0
 10
1973.531747
 20
367.882409
 30
0.0
  0
LWPOLYLINE
  5
24e
100
AcDbEntity
  8
Layer_1
 62
7
100
AcDbPolyline
 90
2
 70
0
 10
1984.757107
 20
358.782409
 30
0.0
 10
1984.806707
 20
358.357369
 30
0.0
  0
SPLINE
  5
24f
100
AcDbEntity
  8
Layer_1
 62
7
100
AcDbSpline
 70
8
 71
3
 72
8
 73
4
 74
0
 40
0
 40
0
 40
0
 40
0
 40
1
 40
1
 40
1
 40
1
 10
1870.357107
 20
351.257369
 30
0.0
 10
1875.787027
 20
351.455929
 30
0.0
 10
1880.630147
 20
347.619289
 30
0.0
 10
1881.582067
 20
342.157369
 30
0.0
  0
LWPOLYLINE
  5
250
100
AcDbEntity
  8
Layer_1
 62
7
100
AcDbPolyline
 90
2
 70
0
 10
1973.531747
 20
367.882409
 30
0.0
 10
1973.532067
 20
367.882409
 30
0.0
  0
SPLINE
  5
251
100
AcDbEntity
  8
Layer_1
 62
7
100
AcDbSpline
 70
8
 71
3
 72
8
 73
4
 74
0
 40
0
 40
0
 40
0
 40
0
 40
1
 40
1
 40
1
 40
1
 10
1881.657267
 20
341.732409
 30
0.0
 10
1882.475587
 20
335.714169
 30
0.0
 10
1878.250707
 20
330.175769
 30
0.0
 10
1872.232227
 20
329.357369
 30
0.0
  0
SPLINE
  5
252
100
AcDbEntity
  8
Layer_1
 62
7
100
AcDbSpline
 70
8
 71
3
 72
8
 73
4
 74
0
 40
0
 40
0
 40
0
 40
0
 40
1
 40
1
 40
1
 40
1
 10
1872.232227
 20
329.357369
 30
0.0
 10
1866.213747
 20
328.538969
 30
0.0
 10
1860.650467
 20
332.764249
 30
0.0
 10
1859.832227
 20
338.782409
 30
0.0
  0
SPLINE
  5
253
100
AcDbEntity
  8
Layer_1
 62
7
100
AcDbSpline
 70
8
 71
3
 72
8
 73
4
 74
0
 40
0
 40
0
 40
0
 40
0
 40
1
 40
1
 40
1
 40
1
 10
1859.832227
 20
338.782409
 30
0.0
 10
1859.013827
 20
344.800729
 30
0.0
 10
1863.238787
 20
350.339049
 30
0.0
 10
1869.257267
 20
351.157369
 30
0.0
  0
SPLINE
  5
254
100
AcDbEntity
  8
Layer_1
 62
7
100
AcDbSpline
 70
8
 71
3
 72
8
 73
4
 74
0
 40
0
 40
0
 40
0
 40
0
 40
1
 40
1
 40
1
 40
1
 10
1869.257267
 20
351.157369
 30
0.0
 10
1869.623507
 20
351.206969
 30
0.0
 10
1869.995267
 20
351.244169
 30
0.0
 10
1870.357267
 20
351.257369
 30
0.0
  0
LWPOLYLINE
  5
255
100
AcDbEntity
  8
Layer_1
 62
7
100
AcDbPolyline
 90
2
 70
0
 10
1881.582067
 20
342.157369
 30
0.0
 10
1881.657267
 20
341.732409
 30
0.0
  0
SPLINE
  5
256
100
AcDbEntity
  8
Layer_1
 62
7
100
AcDbSpline
 70
8
 71
3
 72
8
 73
4
 74
0
 40
0
 40
0
 40
0
 40
0
 40
1
 40
1
 40
1
 40
1
 10
1767.182067
 20
334.607449
 30
0.0
 10
1772.612147
 20
334.805929
 30
0.0
 10
1777.455267
 20
330.969289
 30
0.0
 10
1778.407027
 20
325.507449
 30
0.0
  0
LWPOLYLINE
  5
257
100
AcDbEntity
  8
Layer_1
 62
7
100
AcDbPolyline
 90
2
 70
0
 10
1870.357267
 20
351.257369
 30
0.0
 10
1870.357107
 20
351.257369
 30
0.0
  0
SPLINE
  5
258
100
AcDbEntity
  8
Layer_1
 62
7
100
AcDbSpline
 70
8
 71
3
 72
8
 73
4
 74
0
 40
0
 40
0
 40
0
 40
0
 40
1
 40
1
 40
1
 40
1
 10
1778.482227
 20
325.107449
 30
0.0
 10
1779.300467
 20
319.089209
 30
0.0
 10
1775.075827
 20
313.525768
 30
0.0
 10
1769.057267
 20
312.707448
 30
0.0
  0
SPLINE
  5
259
100
AcDbEntity
  8
Layer_1
 62
7
100
AcDbSpline
 70
8
 71
3
 72
8
 73
4
 74
0
 40
0
 40
0
 40
0
 40
0
 40
1
 40
1
 40
1
 40
1
 10
1769.057267
 20
312.707448
 30
0.0
 10
1763.038787
 20
311.888968
 30
0.0
 10
1757.500547
 20
316.114248
 30
0.0
 10
1756.682227
 20
322.132409
 30
0.0
  0
SPLINE
  5
25a
100
AcDbEntity
  8
Layer_1
 62
7
100
AcDbSpline
 70
8
 71
3
 72
8
 73
4
 74
0
 40
0
 40
0
 40
0
 40
0
 40
1
 40
1
 40
1
 40
1
 10
1756.682227
 20
322.132409
 30
0.0
 10
1755.863827
 20
328.150729
 30
0.0
 10
1760.088787
 20
333.714089
 30
0.0
 10
1766.107187
 20
334.532409
 30
0.0
  0
SPLINE
  5
25b
100
AcDbEntity
  8
Layer_1
 62
7
100
AcDbSpline
 70
8
 71
3
 72
8
 73
4
 74
0
 40
0
 40
0
 40
0
 40
0
 40
1
 40
1
 40
1
 40
1
 10
1766.107187
 20
334.532409
 30
0.0
 10
1766.473507
 20
334.582009
 30
0.0
 10
1766.820227
 20
334.594009
 30
0.0
 10
1767.182227
 20
334.607609
 30
0.0
  0
LWPOLYLINE
  5
25c
100
AcDbEntity
  8
Layer_1
 62
7
100
AcDbPolyline
 90
2
 70
0
 10
1778.407027
 20
325.507449
 30
0.0
 10
1778.482227
 20
325.107449
 30
0.0
  0
SPLINE
  5
25d
100
AcDbEntity
  8
Layer_1
 62
7
100
AcDbSpline
 70
8
 71
3
 72
8
 73
4
 74
0
 40
0
 40
0
 40
0
 40
0
 40
1
 40
1
 40
1
 40
1
 10
1476.662947
 20
378.554567
 30
0.0
 10
1474.513027
 20
378.524519
 30
0.0
 10
1472.383427
 20
378.291415
 30
0.0
 10
1470.262947
 20
377.854567
 30
0.0
  0
SPLINE
  5
25e
100
AcDbEntity
  8
Layer_1
 62
7
100
AcDbSpline
 70
8
 71
3
 72
8
 73
4
 74
0
 40
0
 40
0
 40
0
 40
0
 40
1
 40
1
 40
1
 40
1
 10
1470.262947
 20
377.854567
 30
0.0
 10
1469.131987
 20
377.621287
 30
0.0
 10
1467.999907
 20
377.325647
 30
0.0
 10
1466.887907
 20
376.979567
 30
0.0
  0
LWPOLYLINE
  5
25f
100
AcDbEntity
  8
Layer_1
 62
7
100
AcDbPolyline
 90
2
 70
0
 10
1767.182227
 20
334.607609
 30
0.0
 10
1767.182067
 20
334.607449
 30
0.0
  0
SPLINE
  5
260
100
AcDbEntity
  8
Layer_1
 62
7
100
AcDbSpline
 70
8
 71
3
 72
8
 73
4
 74
0
 40
0
 40
0
 40
0
 40
0
 40
1
 40
1
 40
1
 40
1
 10
1359.812867
 20
245.429568
 30
0.0
 10
1356.438067
 20
256.288016
 30
0.0
 10
1348.158307
 20
265.947448
 30
0.0
 10
1336.387907
 20
271.129568
 30
0.0
  0
SPLINE
  5
261
100
AcDbEntity
  8
Layer_1
 62
7
100
AcDbSpline
 70
8
 71
3
 72
8
 73
4
 74
0
 40
0
 40
0
 40
0
 40
0
 40
1
 40
1
 40
1
 40
1
 10
1336.387907
 20
271.129568
 30
0.0
 10
1315.893587
 20
280.152520
 30
0.0
 10
1292.620947
 20
272.187528
 30
0.0
 10
1284.412947
 20
253.329568
 30
0.0
  0
SPLINE
  5
262
100
AcDbEntity
  8
Layer_1
 62
7
100
AcDbSpline
 70
8
 71
3
 72
8
 73
4
 74
0
 40
0
 40
0
 40
0
 40
0
 40
1
 40
1
 40
1
 40
1
 10
1284.412947
 20
253.329568
 30
0.0
 10
1282.578547
 20
249.115040
 30
0.0
 10
1281.620707
 20
244.562816
 30
0.0
 10
1281.562947
 20
239.904568
 30
0.0
  0
LWPOLYLINE
  5
263
100
AcDbEntity
  8
Layer_1
 62
7
100
AcDbPolyline
 90
4
 70
0
 10
1466.887907
 20
376.979567
 30
0.0
 10
1472.137907
 20
301.304568
 30
0.0
 10
1459.462947
 20
198.829568
 30
0.0
 10
1359.812867
 20
245.429568
 30
0.0
  0
SPLINE
  5
264
100
AcDbEntity
  8
Layer_1
 62
7
100
AcDbSpline
 70
8
 71
3
 72
8
 73
4
 74
0
 40
0
 40
0
 40
0
 40
0
 40
1
 40
1
 40
1
 40
1
 10
1373.562947
 20
97.429568
 30
0.0
 10
1362.197827
 20
97.570696
 30
0.0
 10
1350.449747
 20
92.668256
 30
0.0
 10
1341.887907
 20
83.079568
 30
0.0
  0
SPLINE
  5
265
100
AcDbEntity
  8
Layer_1
 62
7
100
AcDbSpline
 70
8
 71
3
 72
8
 73
4
 74
0
 40
0
 40
0
 40
0
 40
0
 40
1
 40
1
 40
1
 40
1
 10
1341.887907
 20
83.079568
 30
0.0
 10
1326.973347
 20
66.376496
 30
0.0
 10
1327.389267
 20
41.788296
 30
0.0
 10
1342.787907
 20
28.154568
 30
0.0
  0
SPLINE
  5
266
100
AcDbEntity
  8
Layer_1
 62
7
100
AcDbSpline
 70
8
 71
3
 72
8
 73
4
 74
0
 40
0
 40
0
 40
0
 40
0
 40
1
 40
1
 40
1
 40
1
 10
1342.787907
 20
28.154568
 30
0.0
 10
1346.229267
 20
25.107592
 30
0.0
 10
1350.225427
 20
22.773968
 30
0.0
 10
1354.637907
 20
21.279568
 30
0.0
  0
LWPOLYLINE
  5
267
100
AcDbEntity
  8
Layer_1
 62
7
100
AcDbPolyline
 90
4
 70
0
 10
1281.562947
 20
239.904568
 30
0.0
 10
1355.087907
 20
221.529568
 30
0.0
 10
1448.687907
 20
177.779568
 30
0.0
 10
1373.562947
 20
97.429568
 30
0.0
  0
SPLINE
  5
268
100
AcDbEntity
  8
Layer_1
 62
7
100
AcDbSpline
 70
8
 71
3
 72
8
 73
4
 74
0
 40
0
 40
0
 40
0
 40
0
 40
1
 40
1
 40
1
 40
1
 10
1518.587907
 20
64.779568
 30
0.0
 10
1514.937507
 20
54.012144
 30
0.0
 10
1515.987427
 20
41.313968
 30
0.0
 10
1522.462947
 20
30.204568
 30
0.0
  0
SPLINE
  5
269
100
AcDbEntity
  8
Layer_1
 62
7
100
AcDbSpline
 70
8
 71
3
 72
8
 73
4
 74
0
 40
0
 40
0
 40
0
 40
0
 40
1
 40
1
 40
1
 40
1
 10
1522.462947
 20
30.204568
 30
0.0
 10
1533.739747
 20
10.858488
 30
0.0
 10
1557.238067
 20
3.647704
 30
0.0
 10
1574.962947
 20
14.079568
 30
0.0
  0
SPLINE
  5
26a
100
AcDbEntity
  8
Layer_1
 62
7
100
AcDbSpline
 70
8
 71
3
 72
8
 73
4
 74
0
 40
0
 40
0
 40
0
 40
0
 40
1
 40
1
 40
1
 40
1
 10
1574.962947
 20
14.079568
 30
0.0
 10
1578.924147
 20
16.410976
 30
0.0
 10
1582.378147
 20
19.519896
 30
0.0
 10
1585.162947
 20
23.254568
 30
0.0
  0
LWPOLYLINE
  5
26b
100
AcDbEntity
  8
Layer_1
 62
7
100
AcDbPolyline
 90
4
 70
0
 10
1354.637907
 20
21.279568
 30
0.0
 10
1394.862947
 20
85.579568
 30
0.0
 10
1465.362947
 20
161.029568
 30
0.0
 10
1518.587907
 20
64.779568
 30
0.0
  0
SPLINE
  5
26c
100
AcDbEntity
  8
Layer_1
 62
7
100
AcDbSpline
 70
8
 71
3
 72
8
 73
4
 74
0
 40
0
 40
0
 40
0
 40
0
 40
1
 40
1
 40
1
 40
1
 10
1594.437907
 20
192.604568
 30
0.0
 10
1603.551587
 20
185.798760
 30
0.0
 10
1615.940227
 20
182.852624
 30
0.0
 10
1628.512867
 20
185.579568
 30
0.0
  0
SPLINE
  5
26d
100
AcDbEntity
  8
Layer_1
 62
7
100
AcDbSpline
 70
8
 71
3
 72
8
 73
4
 74
0
 40
0
 40
0
 40
0
 40
0
 40
1
 40
1
 40
1
 40
1
 10
1628.512867
 20
185.579568
 30
0.0
 10
1650.396787
 20
190.326104
 30
0.0
 10
1664.531907
 20
210.448560
 30
0.0
 10
1660.087907
 20
230.529568
 30
0.0
  0
SPLINE
  5
26e
100
AcDbEntity
  8
Layer_1
 62
7
100
AcDbSpline
 70
8
 71
3
 72
8
 73
4
 74
0
 40
0
 40
0
 40
0
 40
0
 40
1
 40
1
 40
1
 40
1
 10
1660.087907
 20
230.529568
 30
0.0
 10
1659.094787
 20
235.017440
 30
0.0
 10
1657.229187
 20
239.276960
 30
0.0
 10
1654.537907
 20
243.079568
 30
0.0
  0
LWPOLYLINE
  5
26f
100
AcDbEntity
  8
Layer_1
 62
7
100
AcDbPolyline
 90
4
 70
0
 10
1585.162947
 20
23.254568
 30
0.0
 10
1536.387907
 20
81.429568
 30
0.0
 10
1486.437907
 20
171.729568
 30
0.0
 10
1594.437907
 20
192.604568
 30
0.0
  0
SPLINE
  5
270
100
AcDbEntity
  8
Layer_1
 62
7
100
AcDbSpline
 70
8
 71
3
 72
8
 73
4
 74
0
 40
0
 40
0
 40
0
 40
0
 40
1
 40
1
 40
1
 40
1
 10
1496.312867
 20
304.279568
 30
0.0
 10
1505.598227
 20
310.844528
 30
0.0
 10
1512.221587
 20
321.682927
 30
0.0
 10
1513.512867
 20
334.479567
 30
0.0
  0
SPLINE
  5
271
100
AcDbEntity
  8
Layer_1
 62
7
100
AcDbSpline
 70
8
 71
3
 72
8
 73
4
 74
0
 40
0
 40
0
 40
0
 40
0
 40
1
 40
1
 40
1
 40
1
 10
1513.512867
 20
334.479567
 30
0.0
 10
1515.761267
 20
356.759167
 30
0.0
 10
1501.009347
 20
376.425767
 30
0.0
 10
1480.537907
 20
378.404567
 30
0.0
  0
SPLINE
  5
272
100
AcDbEntity
  8
Layer_1
 62
7
100
AcDbSpline
 70
8
 71
3
 72
8
 73
4
 74
0
 40
0
 40
0
 40
0
 40
0
 40
1
 40
1
 40
1
 40
1
 10
1480.537907
 20
378.404567
 30
0.0
 10
1479.251107
 20
378.528951
 30
0.0
 10
1477.952787
 20
378.572599
 30
0.0
 10
1476.662947
 20
378.554567
 30
0.0
  0
LWPOLYLINE
  5
273
100
AcDbEntity
  8
Layer_1
 62
7
100
AcDbPolyline
 90
4
 70
0
 10
1654.537907
 20
243.079568
 30
0.0
 10
1584.137907
 20
214.679568
 30
0.0
 10
1482.812867
 20
195.104568
 30
0.0
 10
1496.312867
 20
304.279568
 30
0.0
  0
SPLINE
  5
274
100
AcDbEntity
  8
Layer_1
 62
7
100
AcDbSpline
 70
8
 71
3
 72
8
 73
4
 74
0
 40
0
 40
0
 40
0
 40
0
 40
1
 40
1
 40
1
 40
1
 10
1468.662947
 20
190.979568
 30
0.0
 10
1473.806787
 20
190.979568
 30
0.0
 10
1477.987907
 20
186.798464
 30
0.0
 10
1477.987907
 20
181.654568
 30
0.0
  0
SPLINE
  5
275
100
AcDbEntity
  8
Layer_1
 62
7
100
AcDbSpline
 70
8
 71
3
 72
8
 73
4
 74
0
 40
0
 40
0
 40
0
 40
0
 40
1
 40
1
 40
1
 40
1
 10
1477.987907
 20
181.654568
 30
0.0
 10
1477.987907
 20
176.510672
 30
0.0
 10
1473.806787
 20
172.354568
 30
0.0
 10
1468.662947
 20
172.354568
 30
0.0
  0
SPLINE
  5
276
100
AcDbEntity
  8
Layer_1
 62
7
100
AcDbSpline
 70
8
 71
3
 72
8
 73
4
 74
0
 40
0
 40
0
 40
0
 40
0
 40
1
 40
1
 40
1
 40
1
 10
1468.662947
 20
172.354568
 30
0.0
 10
1463.519027
 20
172.354568
 30
0.0
 10
1459.362867
 20
176.510672
 30
0.0
 10
1459.362947
 20
181.654568
 30
0.0
  0
SPLINE
  5
277
100
AcDbEntity
  8
Layer_1
 62
7
100
AcDbSpline
 70
8
 71
3
 72
8
 73
4
 74
0
 40
0
 40
0
 40
0
 40
0
 40
1
 40
1
 40
1
 40
1
 10
1459.362947
 20
181.654568
 30
0.0
 10
1459.362947
 20
186.798464
 30
0.0
 10
1463.519027
 20
190.979568
 30
0.0
 10
1468.662947
 20
190.979568
 30
0.0
  0
LWPOLYLINE
  5
278
100
AcDbEntity
  8
Layer_1
 62
7
100
AcDbPolyline
 90
2
 70
0
 10
1476.662947
 20
378.554567
 30
0.0
 10
1476.662947
 20
378.554567
 30
0.0
  0
LWPOLYLINE
  5
279
100
AcDbEntity
  8
Layer_1
 62
7
100
AcDbPolyline
 90
2
 70
0
 10
1468.662947
 20
190.979568
 30
0.0
 10
1468.662947
 20
190.979568
 30
0.0
  0
ENDSEC
  0
SECTION
  2
OBJECTS
  0
DICTIONARY
  5
C
330
0
100
AcDbDictionary
  3
ACAD_GROUP
350
D
  3
ACAD_MLINESTYLE
350
17
  0
DICTIONARY
  5
D
330
C
100
AcDbDictionary
  0
DICTIONARY
  5
1A
330
C
100
AcDbDictionary
  0
DICTIONARY
  5
17
330
C
100
AcDbDictionary
  3
STANDARD
350
18
  0
DICTIONARY
  5
19
330
C
100
AcDbDictionary
  0
ENDSEC
  0
EOF
