<?xml version="1.0" encoding="UTF-8" standalone="no"?>
<!-- Created with Inkscape (http://www.inkscape.org/) -->

<svg
   xmlns:dc="http://purl.org/dc/elements/1.1/"
   xmlns:cc="http://creativecommons.org/ns#"
   xmlns:rdf="http://www.w3.org/1999/02/22-rdf-syntax-ns#"
   xmlns:svg="http://www.w3.org/2000/svg"
   xmlns="http://www.w3.org/2000/svg"
   xmlns:sodipodi="http://sodipodi.sourceforge.net/DTD/sodipodi-0.dtd"
   xmlns:inkscape="http://www.inkscape.org/namespaces/inkscape"
   width="4332.2817"
   height="1777.1259"
   id="svg3568"
   version="1.1"
   inkscape:version="0.48.3.1 r9886"
   sodipodi:docname="Sign.svg"
   inkscape:export-filename="/home/tom/Documents/Code/Fizzpop/FizzPOP/Posters/Sign.png"
   inkscape:export-xdpi="200"
   inkscape:export-ydpi="200">
  <defs
     id="defs3570" />
  <sodipodi:namedview
     id="base"
     pagecolor="#ffffff"
     bordercolor="#666666"
     borderopacity="1.0"
     inkscape:pageopacity="0.0"
     inkscape:pageshadow="2"
     inkscape:zoom="0.12374369"
     inkscape:cx="2459.9903"
     inkscape:cy="789.13481"
     inkscape:document-units="px"
     inkscape:current-layer="g5979"
     showgrid="false"
     fit-margin-top="0.2"
     fit-margin-left="0.2"
     fit-margin-right="0.2"
     fit-margin-bottom="0.2"
     inkscape:window-width="1366"
     inkscape:window-height="719"
     inkscape:window-x="0"
     inkscape:window-y="25"
     inkscape:window-maximized="1"
     showguides="true"
     inkscape:guide-bbox="true" />
  <metadata
     id="metadata3573">
    <rdf:RDF>
      <cc:Work
         rdf:about="">
        <dc:format>image/svg+xml</dc:format>
        <dc:type
           rdf:resource="http://purl.org/dc/dcmitype/StillImage" />
        <dc:title></dc:title>
      </cc:Work>
    </rdf:RDF>
  </metadata>
  <g
     inkscape:label="Layer 1"
     inkscape:groupmode="layer"
     id="layer1"
     transform="translate(-71.175488,1043.7505)">
    <g
       style="fill:#000000;fill-opacity:1;display:inline"
       id="g5979"
       transform="translate(-12.29734,260.34128)">
      <path
         inkscape:connector-curvature="0"
         style="fill:none;stroke:#000000;stroke-width:2.21099997;stroke-miterlimit:4;stroke-opacity:1;stroke-dasharray:none"
         d="m 1108.467,-348.18269 c -1.628,0.14745 -2.9366,0.3494 -4.0916,0.54552 -0.1186,0.0107 -0.6983,-0.0107 -0.8178,0 -29.1779,3.4609 -76.5603,17.23992 -160.11484,30.82282 l -105.834,17.45715 c -16.09227,2.61611 -41.96693,-2.84669 -53.18979,-8.7286 l -0.27246,0.81787 c -8.02137,-4.55877 -14.06601,-2.83163 -18.54822,-0.81787 -4.97066,2.23269 -8.91248,5.82897 -13.0929,10.63797 l -0.54551,0.81786 -0.54556,0.54551 c -7.15874,9.94709 -5.05384,20.91255 -4.90981,21.8215 2.75886,17.0055 2.87692,45.98195 0,68.46478 -0.0427,0.2714 0.0427,0.54904 0,0.81787 -2.92084,18.12094 -4.98338,31.71431 -2.72766,45.55263 1.40098,8.6919 5.38074,15.55692 10.0924,21.00267 2.35583,2.72334 5.0399,5.00149 8.45582,7.09196 3.41592,2.09053 8.06112,4.4446 15.27499,3.27323 11.74155,-1.9098 17.90863,-10.67066 21.27594,-16.91158 3.15195,-5.8412 4.55892,-10.94131 5.7281,-14.72949 0.0785,-0.26177 0.1966,-0.84671 0.27246,-1.09107 6.63156,-16.11557 17.3175,-35.2709 27.54961,-50.46202 5.21032,-7.73572 10.58732,-14.24627 14.4567,-18.54822 1.78585,-1.9855 3.21649,-3.35945 4.09152,-4.09152 26.52397,-4.24741 60.37513,-8.75723 89.19515,-12.00182 14.79546,-1.6656 28.13684,-2.9513 38.18757,-3.81874 0.55422,-0.0427 0.82919,0.0427 1.3638,0 -39.9396,96.47517 -95.1401,230.94851 -118.9269,278.22337 l 0,0.27032 c -13.21054,28.24828 -28.74662,60.73868 -40.91518,87.28579 -6.08428,13.27358 -11.5139,24.92884 -15.27505,34.09648 -1.88057,4.58333 -3.23032,8.55572 -4.3643,12.00177 -0.56736,1.72217 -0.96782,3.3797 -1.3638,5.18216 -0.39534,1.80247 -1.35077,3.25314 -0.54557,8.18304 2.03786,12.60669 8.16952,15.51508 13.63841,19.63929 2.7344,2.06259 5.7249,3.99509 9.00139,5.45538 3.27632,1.46029 6.70805,3.60755 13.91113,2.45536 l 0.27247,-0.27086 0.54551,0 c 27.35033,-5.66923 56.09561,-13.64888 106.37957,-21.82145 27.26608,-4.4315 83.19781,-12.19821 133.11081,-18.82143 24.9564,-3.31163 48.5258,-6.40156 66.2826,-8.7286 17.7568,-2.32703 27.9527,-3.44776 31.9139,-4.09109 l 0.5455,0 c 6.5371,-1.07969 8.8224,-3.84491 11.4562,-6.00088 2.6339,-2.15683 4.8173,-4.57554 6.8193,-7.09196 2.0019,-2.51733 3.9256,-4.96569 5.4553,-8.18304 1.1909,-2.506 1.5821,-6.40594 1.6366,-10.91075 l 0.8179,0 c 0.6319,-20.44231 3.6983,-45.97954 6.5464,-68.4652 2.8482,-22.48572 5.5819,-41.1526501 6.0009,-52.6438501 l 0,-0.27033 0,-0.27032 c 0.027,-6.3814799 -0.8818,-12.9715699 -4.3643,-20.4580699 -1.7412,-3.74282 -4.4597,-7.60173 -9.0013,-11.18305 -4.5417,-3.58132 -11.8543,-5.99656 -18.5483,-4.90981 -7.2215,1.17222 -10.424,4.42274 -13.0928,7.09196 -2.6688,2.66831 -4.7081,5.58279 -6.8192,8.72855 -4.1732,6.21741 -8.1164,13.66287 -12.2746,22.3670099 -0.043,0.10471 0.043,0.17469 0,0.27032 -14.7328,30.0551301 -31.3162,57.1381301 -44.1884,75.0108001 -6.9709,9.68259 -7.7029,10.81384 -15.0023,12.00177 -22.5169,3.65991 -57.6383,7.92206 -87.8312,10.91075 -15.09644,1.49432 -28.94914,2.85513 -39.55136,3.54644 -2.09123,0.13943 -3.10249,-0.0962 -4.90981,0 37.0733,-89.7298201 103.53067,-252.46806 125.74597,-300.59081 21.5799,-46.66727 38.4899,-72.45484 54.2809,-103.10634 0.043,-0.0785 -0.043,-0.4696 0,-0.54556 4.3862,-8.64601 2.7012,-16.187 0.2724,-22.36701 -2.4603,-6.26074 -6.0093,-12.09484 -13.6384,-16.09329 -2.6022,-1.36386 -4.7989,-3.13897 -9.5469,-4.09152 -2.221,-0.44609 -4.1002,-0.41991 -5.7281,-0.27246 z"
         id="path34" />
      <path
         inkscape:connector-curvature="0"
         style="fill:none;stroke:#000000;stroke-width:2.21099997;stroke-miterlimit:4;stroke-opacity:1;stroke-dasharray:none"
         d="m 1556.0794,-420.73902 c -1.6279,0.1475 -2.9365,0.34912 -4.0915,0.54554 l 0,-0.27236 c -29.1317,3.3894 -77.2976,17.45699 -161.206,31.09557 l -105.5612,16.91121 c -16.1076,2.61723 -41.9641,-2.29958 -53.1898,-8.18309 l -0.2725,0.81786 c -8.0665,-4.61897 -13.778,-2.83712 -18.2755,-0.81786 -4.9742,2.2329 -9.1864,5.82181 -13.3656,10.63797 l -0.8179,0.54556 -0.2724,0.54551 c -7.1821,9.94239 -4.7811,21.18533 -4.6371,22.09423 2.7727,17.08975 2.9033,45.92361 0,68.46478 -0.016,0.13623 0.016,0.13623 0,0.27246 -2.9786,18.34836 -4.9816,31.90899 -2.7276,45.82504 1.4088,8.67796 5.1113,15.28584 9.8196,20.73037 2.3542,2.72232 5.0402,5.00021 8.4558,7.09202 3.4156,2.09181 7.7894,4.717 15.0023,3.54595 11.7416,-1.90963 17.9087,-10.40055 21.2759,-16.63885 3.3671,-6.2383 5.098,-12.0475 6.2736,-15.82056 6.6425,-16.09778 17.6162,-35.58273 27.8224,-50.73486 5.2112,-7.73657 10.0416,-14.51878 13.9111,-18.821 1.7802,-1.9793 3.2155,-3.08442 4.0916,-3.81873 26.5184,-4.24736 60.3752,-8.48456 89.1952,-11.72905 14.7953,-1.66559 28.6811,-3.22407 38.733,-4.09151 0.6957,-0.0609 0.9733,0.0534 1.6366,0 -39.9528,96.51314 -95.6509,230.87954 -119.4724,278.22336 l 0,0.27086 -0.2724,0.27033 c -13.2045,28.24742 -28.7482,60.73868 -40.9153,87.28578 -6.0834,13.27358 -11.2413,24.92884 -15.0022,34.09648 -1.8805,4.58334 -3.2304,8.55572 -4.3643,12.00177 -0.5673,1.72217 -0.9678,3.3797 -1.3638,5.18217 -0.3964,1.80246 -1.6235,3.25313 -0.8179,8.18303 2.0363,12.59622 8.7174,15.51418 14.1839,19.6393 2.7333,2.06259 5.4523,3.99423 8.7286,5.45537 3.2763,1.46114 6.4364,3.33434 13.6384,2.18215 l 0.2725,0 0.5455,0 c 27.3504,-5.66832 56.3684,-14.19444 106.6523,-22.36701 27.2661,-4.43145 82.9251,-11.65174 132.8381,-18.27501 24.9565,-3.31164 48.5258,-6.67472 66.2827,-9.00175 17.7568,-2.32709 28.4982,-3.72017 32.4594,-4.3643 6.5551,-1.06405 9.0885,-3.29508 11.729,-5.45538 2.6405,-2.15944 4.8169,-4.57201 6.8192,-7.09196 2.0023,-2.51995 3.655,-5.23714 5.1826,-8.45539 1.1898,-2.50595 1.582,-6.40851 1.6366,-10.9107 l 1.0911,0 c 0.6319,-20.44236 3.6969,-45.7072401 6.5464,-68.19205 2.8494,-22.48572 5.3026,-41.16397 5.7281,-52.6447 l 0,-0.27032 0,-0.27033 c 0.016,-6.3553 -0.8818,-12.97072 -4.3642,-20.45721 -1.7413,-3.74368 -3.9118,-7.87489 -8.4558,-11.45626 -4.5441,-3.58218 -12.1298,-5.99565 -18.8211,-4.90981 -7.2225,1.17222 -10.4247,4.42189 -13.0929,7.09196 -2.6681,2.66921 -4.7099,5.58279 -6.8191,8.7286 -4.1703,6.21821 -8.3899,13.93689 -12.5474,22.63931 -0.043,0.0962 0.043,0.17469 0,0.27086 -14.7326,30.05512 -31.0436,57.13903 -43.9156,75.01164991 -6.9667,9.67649999 -7.7151,10.81470009 -15.0023,12.00183009 -22.517,3.65985 -57.3656,7.64885 -87.5586,10.63749 -15.0964,1.49431 -29.4946,2.58277 -40.0969,3.27322 -2.2332,0.14852 -3.5478,0.1747 -5.4553,0.27086 37.0311,-89.64952 104.3131,-252.14901 126.5644,-300.3176 21.6362,-46.77839 38.1817,-72.89751 54.0081,-103.6519 4.607,-8.7902 3.0104,-16.65359 0.5455,-22.9125 -2.4649,-6.25892 -6.0135,-11.82426 -13.6384,-15.82055 -2.6021,-1.36384 -4.7989,-2.86621 -9.5469,-3.81875 -2.221,-0.44604 -4.1001,-0.41986 -5.7281,-0.27236 z"
         id="path42" />
      <path
         inkscape:connector-curvature="0"
         id="path50"
         style="fill:none;stroke:#000000;stroke-width:2.21099997;stroke-miterlimit:4;stroke-opacity:1;stroke-dasharray:none"
         d="m 1910.7196,-546.26339 99.4185,-16.14787 c 87.5804,-14.23849 126.1498,-53.53891 115.6864,-117.93401 -9.8415,-60.58725 -55.2519,-84.31807 -136.2095,-71.15974 l -109.3582,17.76266 30.4628,187.47896 z m 38.0784,207.39107 57.2268,352.22014 -301.8125,49.04329 -157.5072,-969.35214 414.0183,-67.2755 c 103.1937,-16.7698 183.5948,-17.6644 241.1816,-2.7386 57.565,14.9477 106.0631,44.2539 145.4727,87.8859 39.3986,43.6538 64.035,95.7743 73.8765,156.37249 15.0022,92.31563 -5.0735,172.10575 -60.2272,239.39219 -55.1646,67.27554 -136.4714,109.64187 -243.9311,127.09902 l -168.2979,27.35321 z" />
      <g
         style="fill:none;stroke:#000000;stroke-width:0.41386023;stroke-miterlimit:4;stroke-opacity:1;stroke-dasharray:none"
         id="g4841"
         transform="matrix(5.3423834,0,0,5.3423834,113.53903,-992.14613)">
        <path
           inkscape:connector-curvature="0"
           style="fill:none;stroke:#000000;stroke-width:0.41386023;stroke-miterlimit:4;stroke-opacity:1;stroke-dasharray:none"
           d="M 551.6897,158.99188 C 526.16714,163.1397 503.98985,158.05847 485.15581,143.7441 466.32176,129.43368 454.60103,108.09782 449.99157,79.738505 445.58633,52.622954 449.63212,28.975214 462.1371,8.7973366 474.63799,-11.378499 494.53607,-23.68537 521.83135,-28.121236 c 25.25502,-4.105013 47.19131,0.882272 65.80479,14.957771 18.61144,14.07549961 30.18104,35.025365 34.70269,62.849598 4.68094,28.802488 0.4105,53.191577 -12.80724,73.163187 -13.21569,19.97984 -32.49904,32.02529 -57.84189,36.14256"
           id="path54" />
        <path
           inkscape:connector-curvature="0"
           style="fill:none;stroke:#000000;stroke-width:0.41386023;stroke-miterlimit:4;stroke-opacity:1;stroke-dasharray:none"
           d="m 544.72752,117.82935 c 9.39456,-1.52763 15.48468,-6.72323 18.27446,-15.59088 2.78773,-8.865601 2.41195,-24.201197 -1.12939,-46.000654 -5.12616,-31.547337 -16.15456,-45.945519 -33.0811,-43.19659 -18.25608,2.967456 -24.45853,22.440743 -18.61348,58.419858 5.48765,33.761186 17.00415,49.219316 34.54951,46.368266"
           id="path3882" />
      </g>
      <path
         inkscape:connector-curvature="0"
         id="path58"
         style="fill:none;stroke:#000000;stroke-width:2.21099997;stroke-miterlimit:4;stroke-opacity:1;stroke-dasharray:none"
         d="m 3850.8308,-861.51893 99.4076,-16.1478 c 87.5913,-14.2385 126.1608,-53.539 115.6974,-117.934 -9.8415,-60.58727 -55.2628,-84.31807 -136.2095,-71.15977 l -109.3582,17.7627 30.4627,187.47887 z m 38.0676,207.39109 57.2267,352.22001 -301.8124,49.04367 -157.5073,-969.35234 414.0184,-67.2755 c 103.2045,-16.7698 183.6056,-17.6645 241.1816,-2.7386 57.5759,14.9477 106.0631,44.2539 145.4835,87.8859 39.3987,43.6538 64.0351,95.7743 73.8765,156.3725 15.0023,92.31557 -5.0843,172.10567 -60.238,239.39217 -55.1428,67.2755 -136.4605,109.64184 -243.9202,127.09901 l -168.3088,27.35318 z" />
      <path
         inkscape:connector-curvature="0"
         style="fill:none;stroke:#000000;stroke-width:2.21099997;stroke-miterlimit:4;stroke-opacity:1;stroke-dasharray:none"
         d="m 478.6455,-623.40571 c -12.64484,-0.11262 -26.56805,1.08155 -41.73353,3.54598 -55.51569,9.02308 -107.78653,41.30922 -147.2948,84.01257 -0.10898,0.11786 -0.16401,0.42681 -0.27246,0.54554 -42.23864,43.70931 -68.76379,101.50377 -83.19432,156.84167 -15.93505,62.10366 -12.5812,125.93691 -3.54595,182.48187 0.0374,-0.17042 0.0267,-0.002 -0.27246,0.54552 -0.59792,1.0955 -1.99362,2.76051 -3.27323,4.09151 -16.25105,12.10643 -27.92111,21.66513 -35.73258,29.73208 -8.2589,8.52868 -13.89698,17.32711 -14.72949,27.27682 -0.70792,8.47109 2.31069,13.7257 6.5464,19.09378 4.02607,5.10182 11.5716,9.92524 21.27593,9.0009 l 0,0.82049 c 13.70781,-1.15567 24.19518,-0.82049 40.36967,-1.09108 0.13623,-0.003 0.13516,0.003 0.27246,0 7.17456,44.16922 18.13456,112.0234799 27.54955,172.66263 4.79201,30.86337 9.11539,59.59177 12.27461,82.10276 3.15922,22.51104 5.14984,40.17857 5.18259,42.82503 0.016,17.73041 -1.43619,24.61813 -4.09152,28.64025 -2.61659,3.96276 -9.86198,9.37973 -26.45852,17.73035 -0.24201,0.12234 -0.29597,0.41885 -0.54551,0.54119 -8.18806,3.85714 -15.07899,7.21766 -21.00316,12.81963 -6.03636,5.7085 -10.81026,16.19501 -9.27411,25.64024 1.59241,9.75332 8.56972,17.05823 16.63885,20.73037 8.06914,3.67123 17.25323,4.35206 27.27677,2.72766 l 0.54557,0 c 20.06823,-3.26623 55.88688,-15.20864 94.9233,-21.54824 37.2822,-6.06024 82.35092,-9.40681 105.01572,-13.09284 11.30421,-1.83479 20.16082,-5.60812 27.00403,-11.45626 6.84322,-5.84906 11.33606,-15.186 9.81968,-24.54916 -1.30039,-7.9648 -7.33317,-16.18016 -14.4567,-20.45802 -7.12359,-4.27791 -15.15538,-6.30294 -25.91297,-8.45539 l -0.81792,-0.27086 -0.54551,0 c -27.91716,-3.04975 -40.7198,-7.15831 -45.00675,-10.36518 -4.23944,-3.17199 -6.64341,-8.72075 -10.63796,-26.18575 -0.0107,-0.0871 0.016,-0.20087 0,-0.27032 -14.44666,-67.52693 -45.30229,-253.69441 -51.28037,-290.49846 48.5807,-13.22031 153.66453,-29.20238 184.11846,-30.27684 0.68869,0.25323 1.6017,0.33177 2.18215,0.82049 0.85275,0.70701 1.17837,1.88276 1.36386,2.18215 8.41025,52.00575 36.15218,237.81449 44.1884,308.77352 0.70963,6.9139 0.36649,8.75039 -3.27322,13.3652 -3.63961,4.6148 -12.14431,11.33493 -26.18575,19.9125 l 0.27246,0.27033 c -8.99823,5.16731 -15.85982,9.23655 -21.27593,15.00178 -5.51548,5.87171 -8.92493,15.76906 -7.63747,23.73125 1.62723,10.02306 10.15902,19.06499 18.54822,21.8215 8.38914,2.7556 16.15601,2.09309 24.00359,0.82048 29.62827,-4.80857 61.12205,-14.53134 99.28761,-20.73043 28.89604,-4.70642 59.18076,-5.98688 89.46791,-10.91069 7.84497,-1.27523 16.12972,-3.33605 23.73081,-7.91074 3.80052,-2.28686 7.26351,-5.66485 10.36519,-10.36518 3.10189,-4.70034 5.13023,-11.37244 4.09151,-17.7295 -0.9097,-5.59326 -5.01665,-15.63288 -12.82011,-20.73037 -7.80352,-5.09749 -15.91689,-6.64416 -28.36784,-8.45625 l -0.27247,0 c -18.37122,-2.25197 -30.14397,-4.9526 -35.45985,-7.63747 -5.21262,-2.63257 -6.09972,-3.89556 -8.18304,-11.45626 -0.0107,0 0.0107,-0.22705 0,-0.27032 -9.42682,-36.70805 -15.75194,-74.39894 -52.64424,-301.40835 -5.29153,-32.58309 -7.87986,-58.2658 -10.36519,-76.37541 -1.24264,-9.05475 -2.17451,-16.28594 -4.09152,-22.63974 -0.95853,-3.17685 -2.19716,-5.94826 -5.18259,-9.81968 -2.98548,-3.87135 -10.8351,-8.80317 -18.00266,-7.63752 -15.20565,2.48122 -28.60173,10.35188 -39.27864,15.54783 l -0.27246,0 c -11.13663,5.61191 -18.84318,10.43106 -37.36923,16.36607 -18.52616,5.93502 -47.81588,12.72583 -99.01482,20.45759 -1.67602,0.273 -24.00333,3.93082 -47.73447,7.63753 -23.73097,3.70665 -50.4064,7.47164 -55.64466,7.91025 l -0.81786,0 -0.54557,0.27246 c -24.52747,-154.75789 -7.91191,-231.99385 10.63797,-262.40204 l 0,-0.27235 c 14.98245,-25.90616 29.43739,-35.4677 54.55364,-39.55137 33.22866,-4.18631 62.79774,3.27147 89.19515,23.18528 l 0.27246,0.27236 0.54551,0 c 12.85762,8.75031 24.53842,16.31397 34.096,21.82145 4.77876,2.75378 8.67336,5.08308 12.82012,6.8192 4.1467,1.73585 7.37965,4.09213 15.82056,2.72768 9.09092,-1.47591 14.5159,-5.41783 21.27593,-10.36519 6.75994,-4.94736 13.72539,-11.20566 20.18481,-18.54823 12.91874,-14.68523 25.50988,-33.79871 21.82145,-56.46299 l 0.27246,0 c -2.00836,-12.39982 -8.87375,-23.45011 -19.09379,-33.27771 -0.24094,-0.23133 -0.30131,-0.58831 -0.54551,-0.81787 -0.0946,-0.0995 -0.17469,-0.17459 -0.27246,-0.27235 -16.47046,-17.30885 -48.58486,-39.06545 -103.37912,-39.55137 z"
         id="path26" />
      <rect
         style="opacity:0.92000002;fill:none;stroke:#000000;stroke-width:2.19364762;stroke-linecap:butt;stroke-miterlimit:4;stroke-opacity:1;stroke-dasharray:none"
         id="rect4075"
         width="4383.7539"
         height="158.74429"
         x="20.098551"
         y="334.13611"
         ry="79.372147"
         inkscape:transform-center-x="-1930.9078"
         transform="matrix(0.98719357,-0.15952695,0.15952695,0.98719357,0,0)"
         inkscape:transform-center-y="-312.02781" />
      <g
         id="g4179"
         transform="matrix(0.3716257,-0.92838265,0.92838265,0.3716257,967.61181,111.0864)">
        <path
           sodipodi:open="true"
           sodipodi:end="6.2705277"
           sodipodi:start="0.024676976"
           transform="matrix(0.07550877,0,0,0.07550877,411.64796,-623.12951)"
           d="m 493.55033,363.12118 c -0.94418,38.2538 -32.72042,68.49922 -70.97421,67.55504 -38.2538,-0.94418 -68.49922,-32.72042 -67.55504,-70.97422 0.94418,-38.25379 32.72042,-68.49922 70.97421,-67.55504 37.24778,0.91935 67.09899,31.13153 67.57059,68.38766"
           sodipodi:ry="69.285721"
           sodipodi:rx="69.285721"
           sodipodi:cy="361.41159"
           sodipodi:cx="424.28571"
           id="path4143"
           style="opacity:0.92000002;fill:none;stroke:#000000;stroke-width:17.2165432;stroke-linecap:butt;stroke-miterlimit:4;stroke-opacity:1;stroke-dasharray:none"
           sodipodi:type="arc" />
        <path
           transform="translate(0.16969361,0)"
           d="m 443.53125,-748.6875 c -2.48949,0.0211 -4.76363,1.98356 -5.15625,4.4375 -0.46542,2.36644 0.89457,4.89143 3.09375,5.84375 2.14589,1.00779 4.90153,0.37952 6.375,-1.46875 1.56524,-1.82691 1.6279,-4.74988 0.15625,-6.65625 -1.02291,-1.38782 -2.73426,-2.21635 -4.46875,-2.15625 z"
           id="path4173"
           style="opacity:0.92000002;fill:none;stroke:#000000;stroke-width:1.29999995;stroke-linecap:butt;stroke-miterlimit:4;stroke-opacity:1;stroke-dasharray:none;display:inline"
           inkscape:original="M 443.53125 -748.6875 C 441.04176 -748.6664 438.76762 -746.70394 438.375 -744.25 C 437.90958 -741.88356 439.26957 -739.35857 441.46875 -738.40625 C 443.61464 -737.39846 446.37028 -738.02673 447.84375 -739.875 C 449.40899 -741.70191 449.47165 -744.62488 448 -746.53125 C 446.97709 -747.91907 445.26574 -748.7476 443.53125 -748.6875 z "
           inkscape:radius="0"
           sodipodi:type="inkscape:offset" />
        <path
           transform="matrix(0.376348,0,0,0.50050711,257.74725,-972.9167)"
           d="m 559.11944,605.854 c 0,27.05776 -29.17082,48.9924 -65.15484,48.9924 -35.98402,0 -65.15484,-21.93464 -65.15484,-48.9924 0,-27.05775 29.17082,-48.99239 65.15484,-48.99239 35.98402,0 65.15484,21.93464 65.15484,48.99239 z"
           sodipodi:ry="48.992397"
           sodipodi:rx="65.154839"
           sodipodi:cy="605.854"
           sodipodi:cx="493.9646"
           id="path4177"
           style="opacity:0.92000002;fill:none;stroke:#000000;stroke-width:1.29999995;stroke-linecap:butt;stroke-miterlimit:4;stroke-opacity:1;stroke-dasharray:none"
           sodipodi:type="arc" />
      </g>
      <g
         id="g4186"
         transform="translate(-84.285713,278.57143)">
        <path
           inkscape:transform-center-x="-3.4719434"
           inkscape:transform-center-y="-14.770785"
           inkscape:connector-curvature="0"
           id="rect3027-4-4"
           d="m 919.6444,-1084.2086 c 4.24106,-0.8737 8.56711,-1.0853 12.85633,-0.6707 25.58926,2.4735 44.03875,27.0429 41.22839,54.8924 -1.61413,15.9958 -9.89842,29.561 -21.50506,37.76715 l -16.87903,136.46403 126.65597,-24.47994 87.9873,-35.49844 c 3.3641,4.75326 5.7052,10.07575 6.9466,15.68559 5.555,25.10126 -12.104,50.26348 -39.4589,56.19665 -15.7159,3.40868 -31.2073,-0.2874 -42.5994,-8.79466 l -135.00145,26.09296 62.43255,112.89123 60.9701,72.72 c -3.4809,4.66834 -7.7907,8.556 -12.7423,11.47026 -22.1561,13.03983 -51.5474,4.02322 -65.64337,-20.15938 -8.09443,-13.88675 -9.38243,-29.75513 -4.81945,-43.21441 l -66.53974,-120.30905 -88.14121,94.31508 -50.25495,80.37214 c -5.51552,-1.868 -10.53555,-4.78175 -14.83729,-8.59047 -19.24822,-17.04216 -19.75555,-47.78268 -1.1124,-68.66152 10.70237,-11.98586 25.39109,-18.11038 39.59749,-17.93397 l 93.89295,-100.45565 -117.00564,-54.69627 -91.89934,-22.94627 c 0.0722,-5.82281 1.2723,-11.52608 3.5653,-16.79424 10.26003,-23.57245 39.34359,-33.51022 64.96159,-22.23153 14.71303,6.47765 25.06518,18.54728 29.28375,32.12034 l 124.56398,58.2325 15.85652,-128.08646 -6.5708,-94.59707 c 1.39006,-0.4326 2.79785,-0.8087 4.21151,-1.1003 z"
           style="fill:none;stroke:#000000;stroke-width:2.21099997;stroke-linecap:butt;stroke-miterlimit:4;stroke-opacity:1;stroke-dasharray:none" />
        <path
           transform="matrix(1.4406623,0,0,1.4406623,-284.40269,-1504.4135)"
           d="m 842.46721,461.90726 c 0,4.46313 -3.61809,8.08122 -8.08122,8.08122 -4.46314,0 -8.08122,-3.61809 -8.08122,-8.08122 0,-4.46314 3.61808,-8.08122 8.08122,-8.08122 4.46313,0 8.08122,3.61808 8.08122,8.08122 z"
           sodipodi:ry="8.0812206"
           sodipodi:rx="8.0812206"
           sodipodi:cy="461.90726"
           sodipodi:cx="834.38599"
           id="path4184"
           style="opacity:0.92000002;fill:none;stroke:#000000;stroke-width:1.29999995;stroke-linecap:butt;stroke-miterlimit:4;stroke-opacity:1;stroke-dasharray:none"
           sodipodi:type="arc" />
      </g>
    </g>
  </g>
</svg>
