<?xml version="1.0" encoding="UTF-8" standalone="no"?>
<!-- Created with Inkscape (http://www.inkscape.org/) -->

<svg
   xmlns:dc="http://purl.org/dc/elements/1.1/"
   xmlns:cc="http://creativecommons.org/ns#"
   xmlns:rdf="http://www.w3.org/1999/02/22-rdf-syntax-ns#"
   xmlns:svg="http://www.w3.org/2000/svg"
   xmlns="http://www.w3.org/2000/svg"
   xmlns:sodipodi="http://sodipodi.sourceforge.net/DTD/sodipodi-0.dtd"
   xmlns:inkscape="http://www.inkscape.org/namespaces/inkscape"
   width="4402.7456"
   height="1836.1765"
   id="svg3568"
   version="1.1"
   inkscape:version="0.48.3.1 r9886"
   sodipodi:docname="Sign.svg"
   inkscape:export-filename="/home/tom/Documents/Code/Fizzpop/FizzPOP/Posters/Sign.png"
   inkscape:export-xdpi="200"
   inkscape:export-ydpi="200">
  <defs
     id="defs3570" />
  <sodipodi:namedview
     id="base"
     pagecolor="#ffffff"
     bordercolor="#666666"
     borderopacity="1.0"
     inkscape:pageopacity="0.0"
     inkscape:pageshadow="2"
     inkscape:zoom="0.12374369"
     inkscape:cx="1330.3257"
     inkscape:cy="1073.2644"
     inkscape:document-units="px"
     inkscape:current-layer="g5979"
     showgrid="false"
     fit-margin-top="0.01"
     fit-margin-left="0.01"
     fit-margin-right="0.01"
     fit-margin-bottom="0.01"
     inkscape:window-width="1366"
     inkscape:window-height="719"
     inkscape:window-x="0"
     inkscape:window-y="25"
     inkscape:window-maximized="1"
     showguides="true"
     inkscape:guide-bbox="true"
     units="m" />
  <metadata
     id="metadata3573">
    <rdf:RDF>
      <cc:Work
         rdf:about="">
        <dc:format>image/svg+xml</dc:format>
        <dc:type
           rdf:resource="http://purl.org/dc/dcmitype/StillImage" />
        <dc:title></dc:title>
      </cc:Work>
    </rdf:RDF>
  </metadata>
  <g
     inkscape:label="Layer 1"
     inkscape:groupmode="layer"
     id="layer1"
     transform="translate(-35.943276,1078.9769)">
    <g
       style="fill:#000000;fill-opacity:1;display:inline"
       id="g5979"
       transform="translate(-12.29734,260.34128)">
      <path
         style="opacity:0.92000002;fill:#980101;fill-opacity:1;stroke:#000000;stroke-width:1.29999995;stroke-linecap:butt;stroke-miterlimit:4;stroke-opacity:1;stroke-dasharray:none"
         clip-path="none"
         d="m 2095.4611,-1179.0583 c -41.953,-0.044 -90.3346,4.3723 -145.1563,13.2813 l -414.0313,67.2812 155.8438,958.90629 -61.3438,9.9062 c 1.4077,-2.0036 2.6491,-4.1426 3.8126,-6.5937 1.1899,-2.5061 1.5706,-6.4352 1.625,-10.9375 l 1.0937,0 c 0.6322,-20.4422 3.7129,-45.7028 6.5625,-68.1875 2.8492,-22.4859 5.2932,-41.1444 5.7188,-52.625 l 0,-0.2813 0,-0.2812 c 0.016,-6.3552 -0.8926,-12.9511 -4.375,-20.4375 -1.7412,-3.7437 -3.8935,-7.8877 -8.4376,-11.4687 -4.5442,-3.583 -12.1212,-5.9923 -18.8124,-4.9063 -7.2224,1.1722 -10.4256,4.4243 -13.0938,7.0937 -2.6685,2.6697 -4.7346,5.573 -6.8438,8.7188 -4.1702,6.2183 -8.3738,13.9544 -12.5312,22.6562 -0.043,0.0972 0.043,0.1542 0,0.25 -14.7328,30.0556 -31.034,57.1585 -43.9062,75.0313 -6.9666,9.6763 -7.744,10.8127 -15.0313,12 -22.5168,3.6597 -57.3381,7.6362 -87.5313,10.625 -15.0964,1.4942 -29.5227,2.5906 -40.125,3.2813 -2.2332,0.1479 -3.5299,0.1852 -5.4374,0.2812 37.0312,-89.6494 104.3113,-252.1747 126.5624,-300.3438 21.6361,-46.7778 38.1737,-72.8706 54,-103.625 4.6068,-8.7899 3.0274,-16.6788 0.5626,-22.9374 -2.4648,-6.2591 -6.0314,-11.8163 -13.6563,-15.8126 -2.6019,-1.3637 -4.7831,-2.86 -9.5313,-3.8124 -2.2211,-0.4463 -4.1222,-0.4288 -5.75,-0.2813 -1.6279,0.1475 -2.9387,0.3661 -4.0937,0.5625 l 0,-0.2812 c -29.1313,3.3892 -77.279,17.4552 -161.1875,31.0937 l -105.5625,16.9063 c -16.1073,2.6169 -41.9618,-2.3038 -53.1875,-8.1876 l -0.2812,0.8438 c -8.0664,-4.6189 -13.7838,-2.8629 -18.2813,-0.8438 -4.974,2.2332 -9.1643,5.8402 -13.3437,10.6563 l -0.8438,0.5313 -0.25,0.5624 c -7.1821,9.9426 -4.8001,21.1849 -4.6562,22.0938 2.7727,17.0897 2.9032,45.9274 0,68.4688 -0.016,0.1355 0.015,0.1138 0,0.25 -2.9786,18.3479 -4.973,31.9275 -2.7188,45.8437 1.4085,8.6778 5.1045,15.2749 9.8125,20.7187 2.3542,2.7229 5.0533,5.0021 8.4687,7.0938 3.4156,2.092 7.7872,4.7334 15,3.5625 11.7416,-1.9098 17.9141,-10.4174 21.2813,-16.6563 3.3673,-6.2382 5.1054,-12.0397 6.2813,-15.8124 6.6424,-16.0985 17.6064,-35.5987 27.8124,-50.75 5.2111,-7.7372 10.0369,-14.5101 13.9063,-18.8126 1.7804,-1.9786 3.2176,-3.0784 4.0937,-3.8124 26.5183,-4.2479 60.3674,-8.5058 89.1876,-11.75 14.7953,-1.6661 28.6981,-3.1948 38.75,-4.0626 0.6957,-0.0598 0.9619,0.0542 1.625,0 -39.9527,96.5136 -95.6475,230.8751 -119.4688,278.2188 l 0,0.25 -0.2812,0.2812 c -13.2044,28.248 -28.7389,60.7341 -40.9063,87.2813 -6.0833,13.2734 -11.2391,24.9268 -15,34.0937 -1.8804,4.5839 -3.2409,8.5547 -4.375,12 -0.567,1.7229 -0.9478,3.384603 -1.3437,5.187603 -0.3964,1.8025 -1.6497,3.2579 -0.8438,8.1874 2.0362,12.5968 8.7214,15.5 14.1875,19.625 0.3212,0.2426 0.6474,0.4809 0.9687,0.7188 l -66.9374,10.8125 c 1.3873,-1.827 2.683,-3.7533 3.7812,-6.0625 1.1907,-2.5057 1.5704,-6.4016 1.625,-10.9062 l 0.8438,0 c 0.6322,-20.443 3.683,-45.982903 6.5312,-68.468803 2.8478,-22.4855 5.5808,-41.1336 6,-52.625 l 0,-0.2812 0,-0.2813 c 0.027,-6.3817 -0.8927,-12.9508 -4.375,-20.4375 -1.7414,-3.7426 -4.4584,-7.6064 -9,-11.1875 -4.5417,-3.5816 -11.8374,-5.9924 -18.5312,-4.9063 -7.2214,1.1728 -10.4253,4.4248 -13.0938,7.0938 -2.669,2.6685 -4.7013,5.5727 -6.8125,8.7188 -4.173,6.2167 -8.1231,13.6706 -12.2813,22.375 -0.043,0.1041 0.043,0.1537 0,0.25 -14.7327,30.0545 -31.3152,57.1588 -44.1874,75.0312 -6.9709,9.6828 -7.7006,10.8123 -15,12 -22.5168,3.6601 -57.6509,7.918003 -87.84371,10.906203 -15.0963,1.4946 -28.929,2.8397 -39.5312,3.5313 -2.0912,0.1392 -3.1302,-0.097 -4.9376,0 37.0734,-89.730003 103.53481,-252.471303 125.74991,-300.593703 21.5799,-46.6676 38.4905,-72.4422 54.2813,-103.0938 0.043,-0.079 -0.043,-0.4555 0,-0.5312 4.3864,-8.6466 2.7104,-16.1955 0.2813,-22.375 -2.4602,-6.2609 -5.996,-12.0954 -13.625,-16.0938 -2.6022,-1.3639 -4.8147,-3.1408 -9.5626,-4.0938 -2.2213,-0.4457 -4.0908,-0.4287 -5.7187,-0.2812 -1.6277,0.1473 -2.9385,0.3664 -4.0937,0.5625 -0.1186,0.0113 -0.693,-0.011 -0.8126,0 -29.1779,3.4609 -76.5704,17.2296 -160.12491,30.8125 l -105.8437,17.4688 c -16.0923,2.6159 -41.9647,-2.8682 -53.1875,-8.75 l -0.25,0.8124 c -8.0214,-4.558 -14.0803,-2.8266 -18.5625,-0.8124 -4.9707,2.2321 -8.9135,5.8473 -13.0937,10.6562 l -0.5313,0.8125 -0.5625,0.5313 c -7.1588,9.9466 -5.0503,20.9345 -4.9062,21.8437 2.7588,17.0054 2.8768,45.9549 0,68.4375 -0.043,0.2717 0.0429,0.5746 0,0.8438 -2.9208,18.1203 -4.9745,31.6931 -2.7188,45.5312 1.401,8.6922 5.3819,15.5545 10.0938,21 2.3558,2.7236 5.0216,5.003 8.4374,7.0938 3.4159,2.09 8.0674,4.4528 15.2813,3.2812 11.7415,-1.9095 17.9139,-10.6654 21.2813,-16.9062 3.152,-5.8415 4.5495,-10.9304 5.7187,-14.7188 0.078,-0.2615 0.2055,-0.8488 0.2813,-1.0938 6.6315,-16.115 17.3303,-35.2776 27.5624,-50.4687 5.2103,-7.736 10.568,-14.2603 14.4376,-18.5625 1.7858,-1.9852 3.2186,-3.3611 4.0937,-4.0938 26.5239,-4.2467 60.3675,-8.7554 89.1875,-12 14.7954,-1.665 28.1367,-2.9457 38.1875,-3.8124 0.5542,-0.0432 0.8404,0.0428 1.375,0 -39.9391,96.4746 -95.1507,230.9436 -118.9375,278.2187 l 0,0.2813 c -13.2106,28.2476 -28.7378,60.7341 -40.9062,87.281203 -6.0844,13.2736 -11.5202,24.926 -15.2813,34.093801 -1.8806,4.5833 -3.21,8.5532 -4.3437,12 -0.5674,1.7216 -0.979,3.3851 -1.375,5.1874 -0.3954,1.8031 -1.3677,3.257399 -0.5626,8.187599 2.038,12.6061998 8.1874,15.5002998 13.6563,19.6249997 0.247,0.1858 0.4987,0.3789 0.75,0.5624 l -42.7813,6.9063003 c 0.85,-1.0426 1.6668,-2.1597003 2.4688,-3.3750003 3.1018,-4.7007 5.1325,-11.3616999 4.0938,-17.7186999 -0.9098,-5.5932998 -5.0089,-15.6212988 -12.8126,-20.7187988 -7.8034,-5.0971 -15.9239,-6.656 -28.375,-8.4688 l -0.2812,0 c -18.3713,-2.2518 -30.1217,-4.939901 -35.4375,-7.625001 -5.2127,-2.6322 -6.1042,-3.9083 -8.1875,-11.4687 -0.011,4e-4 0.011,-0.2071 0,-0.25 -9.4268,-36.7084 -15.764,-74.427703 -52.6562,-301.437503 -5.2916,-32.5827 -7.8585,-58.265 -10.3438,-76.375 -1.2426,-9.0544 -2.1767,-16.2709 -4.0938,-22.625 -0.9584,-3.1766 -2.2022,-5.9414 -5.1874,-9.8125 -2.9854,-3.8717 -10.8324,-8.8213 -18,-7.6563 -15.2057,2.4818 -28.6044,10.3659 -39.2813,15.5626 l -0.2813,0 c -11.1365,5.6114 -18.8489,10.4398 -37.375,16.375 -18.5261,5.9342 -47.8009,12.7061 -99,20.4374 -1.676,0.2736 -24.0188,3.9492 -47.75,7.6563 -23.7308,3.7065 -50.3866,7.4675 -55.625,7.9063 l -0.8437,0 -0.5313,0.25 c -24.5273,-154.7582 -7.9247,-231.9671 10.625,-262.375 l 0,-0.2813 c 14.9826,-25.9061 29.4462,-35.4788 54.5626,-39.5625 33.2286,-4.1863 62.7903,3.2737 89.1874,23.1875 l 0.2813,0.2813 0.5625,0 c 12.8576,8.7501 24.5363,16.3051 34.0938,21.8124 4.7788,2.754 8.6657,5.0763 12.8124,6.8126 4.1469,1.7355 7.3716,4.1143 15.8126,2.75 9.091,-1.4761 14.5212,-5.4279 21.2812,-10.375 6.7599,-4.9475 13.7281,-11.2197 20.1875,-18.5626 12.9187,-14.6849 25.5009,-33.7733 21.8125,-56.4374 l 0.2812,0 c -2.0083,-12.4 -8.8737,-23.45369 -19.0937,-33.2813 -0.2409,-0.2313 -0.3183,-0.5829 -0.5625,-0.8125 -0.095,-0.10001 -0.1522,-0.18355 -0.25,-0.28125 -16.4705,-17.3089 -48.5807,-39.07661 -103.375,-39.5625 -12.6448,-0.1126 -26.5845,1.06684 -41.75,3.53125 -55.5157,9.0231 -107.7732,41.32775 -147.2812,84.0313 -0.109,0.1175 -0.1729,0.4125 -0.2813,0.5312 -42.2387,43.7093 -68.757,101.5059 -83.1875,156.8438 -15.9351,62.1034 -12.5978,125.9547 -3.5625,182.5 -0.035,0.0877 -0.1315,0.2578 -0.2813,0.5312 -0.5978,1.0958 -1.9704,2.7628 -3.25,4.0938 -16.251,12.1057 -27.9385,21.6514 -35.75,29.7187 -8.2588,8.5283 -13.8862,17.3314 -14.7187,27.2813 -0.7079,8.471 2.2955,13.7253 6.5313,19.0937 4.0261,5.1016 11.5769,9.924 21.2812,9 l 0,0.8437 c 13.7078,-1.155 24.2005,-0.8235 40.375,-1.0937 l 0.2812,0 c 7.1747,44.1689 18.1163,112.017 27.5313,172.6563 4.792,30.862803 9.1218,59.582403 12.2813,82.093703 3.1593,22.5107 5.1549,40.1977998 5.1874,42.8436998 0.016,17.7310002 -1.4384,24.6031002 -4.0937,28.6250002 -2.6166,3.9629 -9.8723,9.3683 -26.4687,17.7188 -0.2421,0.1228 -0.2818,0.4399 -0.5313,0.5625 -8.1881,3.8568 -15.0758,7.2108 -21,12.8125 -6.0364,5.7088 -10.8174,16.179996 -9.2813,25.624996 1.1221,6.8723 4.9393,12.535301 9.9063,16.562501 l -59.0937,9.5625 c -43.409002,7.0151 -72.702202,47.5911 -65.687602,91 7.0148,43.4094 47.591102,72.7333 91.000002,65.7188 l 2412.12491,-389.7813 -20.4374,-157.5 -564.125,91.1563 -55.5938,-342.0313 168.3125,-27.3437 c 107.4597,-17.4574 188.7729,-59.8182 243.9375,-127.0938 55.1536,-67.2864 75.2208,-147.09065 60.2188,-239.40625 -9.8416,-60.5982 -34.4763,-112.72124 -73.875,-156.37504 -39.4095,-43.632 -87.904,-72.9273 -145.4688,-87.875 -26.9939,-6.9965 -59.0137,-10.524 -96.0312,-10.5625 z m -77.6563,232.50004 c 56.9233,-0.39641 89.4437,24.5137 97.5937,74.6875 10.4633,64.3951 -28.1071,103.69911 -115.6874,117.93745 l -99.4063,16.1563 -30.4687,-187.5 109.375,-17.75 c 13.9147,-2.2616 26.7794,-3.44904 38.5937,-3.53125 z m -1525.46861,181.875 c 1.2316,-0.023 2.4603,0.0501 3.7187,0.21875 13.4223,1.8012 22.8637,14.1403 21.0625,27.5625 -1.8012,13.4222 -14.1403,22.8638 -27.5625,21.0625 -13.4223,-1.8012 -22.8637,-14.1403 -21.0625,-27.5625 1.6323,-12.1638 11.9388,-21.06425 23.8438,-21.28125 z m -72.5313,9.15625 c 1.4962,0 2.9984,0.5974 4,1.7187 1.6358,1.7062 1.9092,4.5073 0.625,6.5 -1.2364,2.053 -3.9355,3.0885 -6.2187,2.3126 -2.3799,-0.7156 -3.9977,-3.2486 -3.6876,-5.7188 0.1711,-1.727 1.2072,-3.2957 2.7188,-4.125 0.7819,-0.4519 1.6648,-0.6848 2.5625,-0.6875 z m 145.7813,19.9375 c 0.3382,-0.026 0.6821,-0.0105 1.0312,0.0312 l 0.2188,0.0313 c 2.8533,0.4549 4.7985,3.1467 4.3437,6 -0.4549,2.8534 -3.1467,4.7988 -6,4.3437 -2.8534,-0.4547 -4.7988,-3.1467 -4.3437,-6 0.3874,-2.4308 2.3827,-4.2257 4.75,-4.4062 z m -58.625,386.5312 c 0.6886,0.2539 1.6072,0.3554 2.1874,0.8438 0.8528,0.7074 1.1583,1.8878 1.3438,2.1875 8.4102,52.0055 36.1823,237.7907 44.2188,308.750004 0.7097,6.9139 0.3584,8.7601 -3.2813,13.375 -3.6396,4.614499 -12.1461,11.328699 -26.1875,19.9062988 l 0.2812,0.2812 c -8.9981,5.1676 -15.8651,9.2349999 -21.2812,15.0000002 -5.5155,5.8721 -8.9437,15.7565 -7.6562,23.7188 1.0672,6.5737 5.1365,12.7044 10.1562,16.9374 l -41.4688,6.7188 c 4.7395,-5.7158 7.4508,-13.3302 6.2188,-20.9375 -1.3004,-7.9651 -7.314,-16.1594 -14.4375,-20.4375 -7.1236,-4.2776 -15.1799,-6.3156 -25.9375,-8.4688003 l -0.8125,-0.25 -0.5313,0 c -27.917,-3.0491 -40.7128,-7.1677999 -45,-10.3749999 -4.2394,-3.1714 -6.6617,-8.7228998 -10.6562,-26.1873988 -0.011,-0.087 0.016,-0.2122 0,-0.2813 -14.4467,-67.527201 -45.3033,-253.696204 -51.2812,-290.500004 48.5807,-13.2207 153.671,-29.2061 184.125,-30.2813 z m 1992.21861,108.4376 c 6.788,-0.2447 12.8413,4.5789 14.0313,11.4062 l 0.094,0.5 c 1.0232,7.5227 -4.258,14.4458 -11.7813,15.4688 -7.523,1.0228 -14.4459,-4.2587 -15.4687,-11.7813 -1.0229,-7.5229 4.2268,-14.446 11.75,-15.4687 0.4578,-0.0624 0.9225,-0.1087 1.375,-0.125 z m -128.9687,20.8124 c 6.7879,-0.2446 12.8414,4.5477 14.0312,11.375 l 0.094,0.5 c 1.023,7.523 -4.2269,14.4458 -11.75,15.4688 -7.5233,1.023 -14.4457,-4.2586 -15.4688,-11.7812 -1.0228,-7.5229 4.2269,-14.4458 11.75,-15.4688 0.4578,-0.0622 0.8912,-0.0773 1.3438,-0.0938 z m -128.9063,20.7813 c 6.7881,-0.2447 12.8423,4.5786 14.0313,11.4063 l 0.031,0.5 c 1.0231,7.5226 -4.2268,14.4458 -11.75,15.4687 -7.5232,1.0231 -14.4457,-4.2585 -15.4688,-11.7813 -1.023,-7.5226 4.2581,-14.477 11.7813,-15.5 0.4578,-0.0621 0.9225,-0.0774 1.375,-0.0937 z m 269.875,32.8437 c 6.7875,-0.248 12.8414,4.5478 14.0313,11.375 l 0.094,0.5 c 1.0228,7.5228 -4.258,14.4773 -11.7813,15.5 -7.523,1.0232 -14.4771,-4.2585 -15.5,-11.7812 -1.023,-7.5228 4.2582,-14.4771 11.7813,-15.5 0.4578,-0.0623 0.9225,-0.0771 1.375,-0.0938 z m -128.9687,20.7813 c 6.7874,-0.2481 12.8413,4.5477 14.0312,11.375 l 0.094,0.5313 c 1.023,7.5228 -4.2582,14.4457 -11.7813,15.4687 -7.5231,1.023 -14.4459,-4.2584 -15.4687,-11.7813 -1.0231,-7.5228 4.2581,-14.4458 11.7812,-15.4687 0.4578,-0.0623 0.8912,-0.1085 1.3438,-0.125 z m -128.9376,20.7813 c 6.7876,-0.2482 12.8104,4.5475 14,11.375 l 0.094,0.5312 c 1.0228,7.5228 -4.2582,14.445903 -11.7812,15.468803 -7.523,1.0229 -14.4459,-4.258603 -15.4688,-11.781303 -1.023,-7.5228 4.2582,-14.4459 11.7812,-15.4687 0.4579,-0.0624 0.9226,-0.1086 1.375,-0.125 z"
         id="rect4299"
         inkscape:connector-curvature="0" />
      <path
         style="opacity:0.92000002;fill:#980101;fill-opacity:1;stroke:#000000;stroke-width:1.29999995;stroke-linecap:butt;stroke-miterlimit:4;stroke-opacity:1;stroke-dasharray:none;display:inline"
         clip-path="none"
         d="m 4051.9709,-1189.38 c -41.9528,-0.044 -90.3601,4.3723 -145.1876,13.2813 l -414,67.2812 156.0626,960.59379 -429.9063,69.468798 c 63.3642,-33.430298 115.6911,-81.330598 156.9375,-143.687598 70.614,-106.69615 93.4137,-236.96976 68.4062,-390.8437 -24.1563,-148.64771 -85.9455,-260.58451 -185.375,-335.78131 -99.4402,-75.19658 -216.6405,-101.83668 -351.5624,-79.90618 -145.8219,23.6981 -252.1216,89.43168 -318.9063,197.21868 -66.8062,107.79804 -88.4408,234.13839 -64.9063,379.00006 24.6257,151.50633 87.2565,265.48575 187.875,341.93745 58.0054,44.085398 121.9335,71.790398 191.8126,83.093798 l -750.5626,121.281202 20.4376,157.5 2180.5937,-352.375 c 43.409,-7.0149 72.702,-47.6221 65.6875,-91.0312 -7.0147,-43.409 -47.5911,-72.70225 -91,-65.6875 l -377.6562,61.0313 -55.8438,-343.7188 168.2812,-27.34375 c 107.4597,-17.45717 188.7948,-59.8495 243.9376,-127.125 55.1536,-67.28656 75.2524,-147.05936 60.25,-239.37506 -9.8415,-60.5981 -34.4764,-112.72108 -73.875,-156.37498 -39.4204,-43.632 -87.9242,-72.9273 -145.5,-87.875 -26.9887,-6.9965 -58.9829,-10.524 -96,-10.5625 z m -77.6876,232.49998 c 56.9197,-0.3963 89.475,24.5137 97.625,74.6875 10.4636,64.395 -28.1274,103.699 -115.7187,117.9375 l -99.4063,16.125 -30.4374,-187.4687 109.3437,-17.75 c 13.913,-2.2616 26.7802,-3.449 38.5937,-3.5313 z m -1023.0624,135.8125 c 78.8244,-0.3431 130.8474,77.1603 156.0937,232.53131 18.9195,116.46106 20.9243,198.38657 6.0313,245.75 -14.9042,47.37439 -47.4357,75.12002 -97.625,83.2813 -93.734,15.2314 -155.2454,-67.3536 -184.5626,-247.7188 -31.2264,-192.21423 1.9066,-296.24051 99.4376,-312.09381 7.0645,-1.1473 13.9449,-1.7209 20.625,-1.75 z M 2515.5646,64.307488 c 6.788,-0.2446 12.8414,4.5789 14.0313,11.4063 l 0.094,0.5 c 1.0232,7.5228 -4.258,14.4458 -11.7813,15.4687 -7.5231,1.023102 -14.4459,-4.2585 -15.4687,-11.7812 -1.0229,-7.5229 4.2268,-14.4458 11.75,-15.4688 0.4578,-0.0622 0.9225,-0.1086 1.375,-0.125 z m -128.9687,20.7813 c 6.788,-0.2447 12.8414,4.5789 14.0312,11.406302 l 0.094,0.5 c 1.0231,7.5227 -4.227,14.4458 -11.75,15.4687 -7.5232,1.023 -14.4457,-4.2586 -15.4688,-11.7813 -1.0228,-7.5228 4.2269,-14.445802 11.75,-15.468702 0.4578,-0.0623 0.8912,-0.1087 1.3438,-0.125 z m -128.9063,20.781302 c 6.7881,-0.2447 12.8423,4.5787 14.0313,11.4062 l 0.031,0.5 c 1.0231,7.5228 -4.2268,14.4458 -11.75,15.4688 -7.5232,1.023 -14.4457,-4.2586 -15.4688,-11.7813 -1.023,-7.5229 4.2581,-14.4458 11.7813,-15.4687 0.4578,-0.0623 0.9225,-0.1087 1.375,-0.125 z m 269.875,32.8437 c 6.7875,-0.2481 12.8415,4.5476 14.0313,11.375 l 0.062,0.5313 c 1.0228,7.5227 -4.2581,14.4458 -11.7812,15.4687 -7.5231,1.023 -14.4459,-4.2586 -15.4688,-11.7813 -1.0229,-7.5228 4.2582,-14.4458 11.7813,-15.4687 0.4578,-0.0623 0.9225,-0.1085 1.375,-0.125 z m -128.9687,20.7813 c 6.7874,-0.2482 12.8413,4.5476 14.0312,11.375 l 0.094,0.5312 c 1.0229,7.5228 -4.2582,14.4458 -11.7813,15.4688 -7.5231,1.023 -14.4772,-4.2586 -15.5,-11.7813 -1.023,-7.5229 4.2582,-14.4458 11.7813,-15.4687 0.4578,-0.0623 0.9225,-0.1085 1.375,-0.125 z m -128.9688,20.8124 c 6.7876,-0.2481 12.8415,4.5477 14.0312,11.375 l 0.094,0.5 c 1.0228,7.5228 -4.258,14.4771 -11.7812,15.5 -7.5231,1.0231 -14.4459,-4.2585 -15.4688,-11.7812 -1.023,-7.5229 4.2582,-14.4771 11.7812,-15.5 0.4579,-0.0623 0.8913,-0.0772 1.3438,-0.0938 z"
         id="rect4299-9"
         inkscape:connector-curvature="0" />
      <path
         style="fill:#980101;fill-opacity:1;stroke:#000000;stroke-width:2.21099997;stroke-linecap:butt;stroke-miterlimit:4;stroke-opacity:1;stroke-dasharray:none"
         d="m 1894.0693,23.665111 c -2.6874,0.03756 -5.3494,0.32894 -8,0.875 -1.4137,0.2916 -2.8288,0.66115 -4.2188,1.09375 l 6.5625,94.593749 -15.8437,128.09375 -124.5626,-58.25 c -4.2185,-13.57306 -14.5682,-25.64735 -29.2812,-32.125 -25.6179,-11.27869 -54.7087,-1.32245 -64.9687,22.25 -2.293,5.26816 -3.4903,10.95844 -3.5625,16.78125 l 91.9062,22.96875 117,54.6875 -93.9062,100.4375 c -14.2064,-0.17641 -28.8915,5.95164 -39.5938,17.9375 -18.6432,20.87884 -18.1233,51.61409 1.125,68.65625 4.3017,3.80872 9.2969,6.72575 14.8125,8.59375 l 50.2813,-80.375 88.125,-94.3125 66.5312,120.3125 c -4.563,13.45928 -3.2506,29.332 4.8438,43.21875 14.096,24.1826 43.4689,33.19608 65.625,20.15625 4.9515,-2.91426 9.269,-6.80041 12.75,-11.46875 l -60.9688,-72.71875 -62.4375,-112.875 135,-26.09375 c 11.3921,8.50726 26.8779,12.18993 42.5937,8.78125 27.3549,-5.93317 45.0238,-31.08624 39.4688,-56.1875 -1.2414,-5.60984 -3.5734,-10.93424 -6.9375,-15.6875 l -88,35.5 -126.6563,24.46875 16.875,-136.46875 c 11.6067,-8.2062 19.8859,-21.754199 21.5,-37.749999 2.8105,-27.8495 -15.6294,-52.43275 -41.2187,-54.90625 -1.6085,-0.15548 -3.2314,-0.21004 -4.8437,-0.1875 z m -10,234.468749 c 6.4298,0 11.6562,5.22638 11.6562,11.65625 0,6.42987 -5.2264,11.625 -11.6562,11.625 -6.4299,0 -11.6251,-5.19513 -11.625,-11.625 0,-6.42987 5.1951,-11.65625 11.625,-11.65625 z"
         id="rect3027-4-4"
         inkscape:connector-curvature="0" />
    </g>
  </g>
</svg>
